<svg width="87" height="33" viewBox="0 0 87 33" fill="none" xmlns="http://www.w3.org/2000/svg">
<g opacity="0.4">
<path d="M14.8111 20.1095H12.1899C11.6288 20.1095 11.2268 20.0019 10.7997 19.2806L4.70063 8.74775C4.59414 8.58746 4.54031 8.53365 4.46015 8.53365C4.37999 8.53365 4.32617 8.58746 4.32617 8.74775V19.5783C4.32587 19.72 4.26943 19.8558 4.1692 19.956C4.06898 20.0562 3.93313 20.1127 3.79139 20.113H0.635371C0.493631 20.1127 0.35778 20.0562 0.257555 19.956C0.157329 19.8558 0.100889 19.72 0.100587 19.5783V1.26023C0.100436 1.12668 0.126637 0.994409 0.177687 0.870995C0.228737 0.747581 0.303634 0.635445 0.398091 0.54101C0.492548 0.446575 0.604709 0.371696 0.728152 0.320657C0.851594 0.269619 0.983894 0.243428 1.11748 0.243579H3.81887C4.35365 0.243579 4.62047 0.511479 4.94226 1.07247L11.2806 12.0897C11.3871 12.2499 11.4146 12.3037 11.4948 12.3037C11.5486 12.3037 11.6288 12.2499 11.6288 12.0633V0.751905C11.6295 0.683113 11.644 0.61516 11.6714 0.552079C11.6989 0.488998 11.7387 0.432069 11.7886 0.384666C11.8385 0.337262 11.8974 0.300349 11.9618 0.276114C12.0262 0.251878 12.0948 0.240817 12.1635 0.243579H15.3196C15.3883 0.240817 15.4569 0.251878 15.5213 0.276114C15.5857 0.300349 15.6446 0.337262 15.6945 0.384666C15.7444 0.432069 15.7842 0.488998 15.8117 0.552079C15.8391 0.61516 15.8536 0.683113 15.8543 0.751905V19.0929C15.8486 19.3653 15.7361 19.6245 15.5409 19.8147C15.3458 20.0049 15.0836 20.1108 14.8111 20.1095Z" fill="#1C9CD9"/>
<path d="M32.0339 20.3491C27.782 20.3491 24.3317 18.7463 24.3317 12.6475V0.748767C24.3324 0.679975 24.3469 0.612026 24.3743 0.548945C24.4018 0.485863 24.4417 0.428934 24.4915 0.381531C24.5414 0.334128 24.6003 0.297215 24.6647 0.272979C24.7291 0.248744 24.7977 0.237679 24.8664 0.240441H28.3706C28.4393 0.237838 28.5079 0.249015 28.5722 0.273308C28.6365 0.297601 28.6953 0.334519 28.7452 0.381891C28.795 0.429263 28.8349 0.486128 28.8624 0.549137C28.8899 0.612145 28.9045 0.680022 28.9054 0.748767V12.6475C28.9054 15.3757 29.6268 16.5252 32.0339 16.5252C34.441 16.5252 35.1899 15.3803 35.1899 12.6475V0.748767C35.1908 0.680022 35.2054 0.612145 35.2329 0.549137C35.2604 0.486128 35.3003 0.429263 35.3501 0.381891C35.4 0.334519 35.4588 0.297601 35.5231 0.273308C35.5874 0.249015 35.656 0.237838 35.7247 0.240441H39.2025C39.3442 0.233896 39.4828 0.28368 39.5879 0.378921C39.6931 0.474162 39.7562 0.607121 39.7636 0.748767V12.6475C39.7636 18.7451 36.287 20.3491 32.0339 20.3491Z" fill="#1C9CD9"/>
<path d="M63.194 20.1086H59.1013C58.807 20.1086 58.7005 19.8407 58.5665 19.5739L54.9822 12.8088L54.6879 12.8352C54.1268 12.8352 53.2977 12.7814 52.7893 12.7814V19.5739C52.789 19.7156 52.7325 19.8515 52.6323 19.9517C52.5321 20.0519 52.3962 20.1083 52.2545 20.1086H48.7778C48.6361 20.1083 48.5002 20.0519 48.4 19.9517C48.2998 19.8515 48.2433 19.7156 48.243 19.5739V1.63139C48.243 0.722355 48.6164 0.480786 49.4466 0.34798C50.6765 0.16022 52.9496 0.0045166 54.8757 0.0045166C59.4219 0.0045166 62.9261 1.52835 62.9261 6.26128V6.60475C62.9261 9.43947 61.4282 11.1774 59.4758 11.9525L63.517 19.4938C63.5652 19.5843 63.5926 19.6844 63.5971 19.7869C63.5948 19.9746 63.4883 20.1086 63.194 20.1086ZM58.3844 6.25556C58.3844 4.62411 57.1248 3.8765 54.8814 3.8765C54.507 3.8765 53.1156 3.92917 52.795 3.95664V9.09028C53.0893 9.11661 54.3982 9.14409 54.6936 9.14409C57.5027 9.14409 58.3844 8.42167 58.3844 6.6036V6.25556Z" fill="#1C9CD9"/>
<path d="M86.3051 20.1087H82.5571C82.426 20.1019 82.3013 20.0503 82.2037 19.9626C82.1061 19.8748 82.0417 19.7562 82.0211 19.6267L81.0592 15.2418H75.5763L74.6132 19.6267C74.5927 19.7561 74.5284 19.8745 74.4311 19.9622C74.3337 20.0499 74.2093 20.1016 74.0784 20.1087H70.3338C70.0658 20.1087 69.8757 19.9484 69.8757 19.6805C69.8872 19.6364 69.896 19.5917 69.9021 19.5465L73.8872 2.96753C74.5021 0.400709 76.4821 0 78.3269 0C80.1717 0 82.1253 0.400709 82.7403 2.96753L86.7254 19.5465C86.7318 19.5917 86.741 19.6364 86.7529 19.6805C86.7563 19.9484 86.5685 20.1087 86.3051 20.1087ZM78.683 4.19484C78.6292 3.92694 78.5754 3.79299 78.3395 3.79299C78.1036 3.79299 78.0189 3.92694 77.965 4.19484L76.3252 11.5827H80.3103L78.683 4.19484Z" fill="#1C9CD9"/>
<path d="M12.7928 26.8016H16.6256V27.65H13.7708V29.1498H16.3806V29.9981H13.7708V31.6571H16.6256V32.5043H12.7928V26.8016Z" fill="#1C9CD9"/>
<path d="M21.1587 26.8016H22.1366V31.6571H24.9102V32.5043H21.1587V26.8016Z" fill="#1C9CD9"/>
<path d="M29.1619 26.8016H32.9947V27.65H30.1364V29.1498H32.7462V29.9981H30.1364V31.6571H32.9912V32.5043H29.1619V26.8016Z" fill="#1C9CD9"/>
<path d="M39.6859 32.5982C39.3513 32.6013 39.0188 32.5459 38.7033 32.4345C38.404 32.328 38.1343 32.1518 37.9166 31.9204C37.6786 31.6617 37.4989 31.3548 37.3898 31.0206C37.2534 30.5922 37.1888 30.1442 37.1986 29.6948V29.5322C37.1888 29.0989 37.2551 28.6672 37.3944 28.2568C37.5071 27.9295 37.6891 27.6304 37.9281 27.3798C38.1506 27.1543 38.421 26.9817 38.7194 26.875C39.0296 26.7646 39.3566 26.7092 39.6859 26.7112C39.9833 26.7081 40.2797 26.7466 40.5665 26.8257C40.8246 26.8978 41.0667 27.0182 41.2799 27.1806C41.4848 27.3396 41.6541 27.5397 41.7769 27.768C41.9103 28.0232 41.9883 28.3037 42.0059 28.5911H40.9753C40.9306 28.2829 40.766 28.0047 40.5172 27.8172C40.2688 27.6486 39.9734 27.5628 39.6733 27.5722C39.4921 27.5723 39.3125 27.6052 39.1431 27.6695C38.963 27.7391 38.8023 27.851 38.6747 27.9958C38.5226 28.1716 38.4087 28.377 38.3403 28.5991C38.2483 28.9002 38.2054 29.2141 38.2132 29.5288V29.6914C38.2043 30.0228 38.2499 30.3535 38.3483 30.6702C38.4198 30.9002 38.5366 31.1135 38.6919 31.2976C38.8191 31.4453 38.9802 31.56 39.1614 31.6319C39.3238 31.6957 39.4965 31.7291 39.671 31.7304C40.0626 31.7304 40.3649 31.6388 40.5802 31.4568C40.799 31.2663 40.9374 30.9999 40.9673 30.7114H41.9979C41.9761 31.0128 41.8931 31.3065 41.754 31.5747C41.6321 31.804 41.4607 32.0034 41.2524 32.1586C41.0385 32.312 40.7977 32.4239 40.5424 32.4883C40.2628 32.5613 39.9749 32.5982 39.6859 32.5982V32.5982Z" fill="#1C9CD9"/>
<path d="M47.6539 27.6501H45.738V26.8029H50.5476V27.6501H48.6307V32.5089H47.6516L47.6539 27.6501Z" fill="#1C9CD9"/>
<path d="M54.7963 26.8017H56.9572C57.2761 26.7963 57.594 26.8399 57.8996 26.9311C58.1466 27.0061 58.3754 27.1312 58.5718 27.2986C58.7486 27.4526 58.888 27.6449 58.9795 27.8607C59.074 28.0881 59.1211 28.3324 59.118 28.5786C59.127 28.9426 59.0151 29.2993 58.7997 29.5929C58.5589 29.8984 58.2233 30.1151 57.8458 30.2089L59.2795 32.5078H58.2031L56.9434 30.3234H55.7754V32.5078H54.7963V26.8017ZM56.7945 29.5082C57.2938 29.5082 57.6431 29.4258 57.8424 29.2632C57.937 29.1755 58.0125 29.0693 58.0641 28.9511C58.1157 28.8329 58.1424 28.7053 58.1424 28.5763C58.1424 28.4473 58.1157 28.3197 58.0641 28.2015C58.0125 28.0833 57.937 27.977 57.8424 27.8894C57.6431 27.7298 57.2938 27.6501 56.7945 27.6501H55.7754V29.5094L56.7945 29.5082Z" fill="#1C9CD9"/>
<path d="M63.8149 26.8016H64.7929V32.5077H63.8149V26.8016Z" fill="#1C9CD9"/>
<path d="M71.8959 32.5982C71.5614 32.6013 71.2289 32.5459 70.9134 32.4345C70.6141 32.328 70.3444 32.1518 70.1267 31.9204C69.8886 31.6617 69.709 31.3548 69.5999 31.0206C69.4635 30.5922 69.3988 30.1442 69.4087 29.6948V29.5322C69.3989 29.0989 69.4651 28.6672 69.6045 28.2568C69.7172 27.9295 69.8992 27.6304 70.1381 27.3798C70.3606 27.1543 70.6311 26.9817 70.9294 26.8749C71.2396 26.7645 71.5667 26.7091 71.8959 26.7112C72.1934 26.7082 72.4898 26.7467 72.7766 26.8257C73.0347 26.8978 73.2768 27.0182 73.49 27.1806C73.6948 27.3396 73.8641 27.5396 73.987 27.768C74.1198 28.0234 74.1978 28.3038 74.216 28.5911H73.1854C73.1407 28.2829 72.9761 28.0047 72.7273 27.8172C72.4789 27.6486 72.1835 27.5628 71.8833 27.5722C71.7022 27.5723 71.5225 27.6052 71.3531 27.6695C71.1729 27.7393 71.0119 27.8512 70.8836 27.9958C70.732 28.1719 70.6182 28.3772 70.5492 28.5991C70.4582 28.9004 70.4157 29.2142 70.4233 29.5288V29.6914C70.4144 30.0228 70.46 30.3535 70.5584 30.6702C70.6298 30.9002 70.7467 31.1135 70.902 31.2976C71.0292 31.4453 71.1903 31.56 71.3715 31.6319C71.5338 31.6957 71.7066 31.7291 71.8811 31.7304C72.2727 31.7304 72.575 31.6388 72.7903 31.4568C73.0091 31.2663 73.1474 30.9999 73.1774 30.7114H74.208C74.1862 31.0128 74.1032 31.3065 73.9641 31.5747C73.8421 31.804 73.6708 32.0034 73.4625 32.1586C73.2486 32.312 73.0078 32.4239 72.7525 32.4883C72.4728 32.5612 72.185 32.5982 71.8959 32.5982Z" fill="#1C9CD9"/>
</g>
</svg>
