<svg width="105" height="34" viewBox="0 0 105 34" fill="none" xmlns="http://www.w3.org/2000/svg">
<g opacity="0.4">
<path d="M3.75172 12.3623L19.6268 4.5297C19.8582 4.41568 20.0647 4.25722 20.2348 4.06336C20.4048 3.86951 20.535 3.64406 20.6178 3.39989C20.7007 3.15573 20.7346 2.89763 20.7177 2.64035C20.7007 2.38307 20.6333 2.13165 20.5191 1.90045L20.3313 1.52178C20.2173 1.29055 20.0589 1.08405 19.8651 0.91406C19.6713 0.744072 19.4459 0.613936 19.2018 0.53109C18.9576 0.448244 18.6995 0.414312 18.4423 0.431234C18.185 0.448156 17.9336 0.5156 17.7024 0.629711L1.82628 8.46336C1.35957 8.69381 1.0035 9.10013 0.83637 9.59299C0.669238 10.0858 0.704728 10.6249 0.935033 11.0916L1.12186 11.4713C1.35256 11.938 1.75917 12.294 2.25231 12.461C2.74544 12.6281 3.28475 12.5926 3.75172 12.3623V12.3623Z" fill="#1C9CD9"/>
<path d="M4.02191 20.1154L28.3664 8.10517C28.8334 7.8747 29.1897 7.46827 29.357 6.97523C29.5244 6.48219 29.489 5.9429 29.2587 5.47592L29.0719 5.09623C28.8412 4.62955 28.4346 4.27355 27.9415 4.10647C27.4483 3.93938 26.909 3.97489 26.442 4.20519L2.09954 16.2154C1.63276 16.4461 1.27667 16.8526 1.10954 17.3456C0.942421 17.8386 0.977934 18.3778 1.20828 18.8447L1.39512 19.2233C1.62544 19.6896 2.03142 20.0454 2.52392 20.2127C3.01642 20.3799 3.55518 20.3449 4.02191 20.1154V20.1154Z" fill="#DB0840"/>
<path d="M4.29597 28.2735L28.6375 16.2632C29.1045 16.0328 29.4608 15.6264 29.6281 15.1333C29.7954 14.6403 29.7601 14.101 29.5298 13.634L29.343 13.2543C29.1123 12.7876 28.7057 12.4316 28.2125 12.2645C27.7194 12.0975 27.1801 12.133 26.7131 12.3633L2.37053 24.3735C1.90374 24.6042 1.54766 25.0107 1.38054 25.5037C1.21342 25.9967 1.24893 26.5359 1.47928 27.0027L1.6661 27.3814C1.78014 27.6127 1.93865 27.8192 2.13255 27.9892C2.32645 28.1592 2.55196 28.2893 2.79618 28.3722C3.0404 28.455 3.29855 28.4889 3.55589 28.472C3.81323 28.4551 4.06471 28.3876 4.29597 28.2735Z" fill="#F59C24"/>
<path d="M8.67676 33.8004H13.3209V26.6843L8.67676 28.6726V33.8004Z" fill="#87BF4D"/>
<path d="M18.5728 33.8005H23.2178V26.8488L18.5728 29.1402V33.8005Z" fill="#87BF4D"/>
<path d="M28.3173 21.6729C28.0866 21.2062 27.68 20.8502 27.1869 20.6831C26.6938 20.516 26.1544 20.5516 25.6875 20.7818L18.5758 24.2909V24.3124H23.2128V26.8487L27.6027 24.6818C28.0695 24.4512 28.4256 24.0447 28.5927 23.5516C28.7598 23.0586 28.7243 22.5194 28.494 22.0526L28.3173 21.6729Z" fill="#87BF4D"/>
<path d="M18.5728 24.3123V29.14L23.2178 26.8486V24.3123H18.5728Z" fill="#87BF4D"/>
<path d="M55.3942 19.8472V7.05819C55.3937 7.01027 55.3835 6.96292 55.3644 6.91898C55.3452 6.87503 55.3175 6.83537 55.2827 6.80234C55.248 6.76932 55.207 6.7436 55.1621 6.72671C55.1172 6.70982 55.0694 6.70211 55.0215 6.70402H52.8205C52.7726 6.70211 52.7248 6.70982 52.6799 6.72671C52.635 6.7436 52.594 6.76932 52.5593 6.80234C52.5245 6.83537 52.4967 6.87503 52.4776 6.91898C52.4585 6.96292 52.4483 7.01027 52.4478 7.05819V14.9439C52.4478 15.0745 52.3917 15.1113 52.3549 15.1113C52.2988 15.1113 52.2804 15.0745 52.2059 14.9623L47.7864 7.28172C47.5618 6.88978 47.378 6.70402 47.0023 6.70402H45.1198C45.0267 6.70389 44.9345 6.72211 44.8485 6.75767C44.7624 6.79322 44.6843 6.84539 44.6185 6.91119C44.5526 6.97699 44.5005 7.05513 44.4649 7.14113C44.4294 7.22713 44.4111 7.31931 44.4113 7.41236V20.183C44.4115 20.2817 44.4509 20.3763 44.5207 20.4461C44.5905 20.516 44.6851 20.5553 44.7839 20.5556H46.9839C47.0827 20.5553 47.1773 20.516 47.2471 20.4461C47.3169 20.3763 47.3563 20.2817 47.3566 20.183V12.63C47.3566 12.5188 47.3943 12.481 47.4505 12.481C47.5066 12.481 47.5434 12.5188 47.6179 12.63L51.87 19.9789C52.1681 20.4821 52.4478 20.5566 52.8399 20.5566H54.6673C54.8573 20.5574 55.0401 20.4835 55.1761 20.3508C55.3121 20.2181 55.3904 20.0372 55.3942 19.8472V19.8472Z" fill="#1C9CD9"/>
<path d="M71.6715 6.704H69.2478C69.1999 6.70208 69.152 6.70979 69.1071 6.72667C69.0622 6.74355 69.0211 6.76925 68.9863 6.80226C68.9514 6.83527 68.9236 6.87492 68.9043 6.91888C68.8851 6.96283 68.8748 7.01019 68.8742 7.05817V15.3542C68.8742 17.2557 68.3525 18.0569 66.6741 18.0569C64.9957 18.0569 64.4945 17.2557 64.4945 15.3542V7.05817C64.494 7.01024 64.4838 6.9629 64.4647 6.91895C64.4456 6.875 64.4178 6.83534 64.383 6.80232C64.3483 6.76929 64.3073 6.74357 64.2624 6.72668C64.2175 6.70979 64.1697 6.70208 64.1218 6.704H61.6768C61.6288 6.70208 61.5809 6.70979 61.536 6.72667C61.4911 6.74355 61.45 6.76925 61.4152 6.80226C61.3804 6.83527 61.3525 6.87492 61.3332 6.91888C61.314 6.96283 61.3037 7.01019 61.3031 7.05817V15.3542C61.3031 19.6053 63.7094 20.7239 66.6741 20.7239C69.6388 20.7239 72.0635 19.6012 72.0635 15.3542V7.05817C72.058 6.95942 72.0137 6.86685 71.9403 6.80054C71.8669 6.73423 71.7703 6.69954 71.6715 6.704V6.704Z" fill="#1C9CD9"/>
<path d="M85.8061 14.8693C87.167 14.3284 88.2114 13.1168 88.2114 11.1408V10.8979C88.2114 7.59805 85.7694 6.53552 82.5964 6.53552C81.3306 6.53518 80.0662 6.61632 78.8109 6.77844C78.233 6.87133 77.9717 7.03872 77.9717 7.67255V20.1829C77.9722 20.2817 78.0118 20.3764 78.0818 20.4461C78.1518 20.5159 78.2465 20.5552 78.3453 20.5555H80.769C80.8678 20.5552 80.9625 20.5159 81.0325 20.4461C81.1025 20.3764 81.1421 20.2817 81.1426 20.1829V15.447C81.4969 15.447 82.0747 15.4848 82.4698 15.4848L82.674 15.4664L85.1732 20.1829C85.2661 20.3687 85.3406 20.5555 85.5458 20.5555H88.4043C88.6085 20.5555 88.6841 20.4626 88.6841 20.332C88.6808 20.2606 88.6616 20.1908 88.6279 20.1278L85.8061 14.8693ZM85.0415 11.1408C85.0415 12.4085 84.4289 12.9117 82.4678 12.9117C82.2636 12.9117 81.3448 12.8933 81.1406 12.8749V9.29542C81.3642 9.27603 82.334 9.23929 82.5944 9.23929C84.1614 9.23929 85.0374 9.76085 85.0374 10.8979L85.0415 11.1408Z" fill="#1C9CD9"/>
<path d="M104.808 20.1645L102.029 8.60544C101.6 6.81519 100.24 6.53552 98.9532 6.53552C97.6669 6.53552 96.2866 6.81519 95.8568 8.60544L93.081 20.1645C93.0766 20.1958 93.0705 20.2269 93.0626 20.2574C93.0611 20.2986 93.0684 20.3395 93.084 20.3776C93.0996 20.4157 93.1232 20.45 93.1532 20.4782C93.1832 20.5064 93.2188 20.5279 93.2578 20.5412C93.2967 20.5546 93.3381 20.5594 93.3791 20.5555H95.9895C96.081 20.5511 96.1681 20.5153 96.2362 20.4541C96.3043 20.393 96.3492 20.3101 96.3632 20.2197L97.0339 17.1577H100.857L101.528 20.2197C101.542 20.3101 101.587 20.393 101.655 20.4541C101.723 20.5153 101.81 20.5511 101.902 20.5555H104.515C104.556 20.5594 104.597 20.5546 104.636 20.5412C104.675 20.5279 104.711 20.5064 104.741 20.4782C104.771 20.45 104.795 20.4157 104.81 20.3776C104.826 20.3395 104.833 20.2986 104.832 20.2574C104.822 20.227 104.814 20.1959 104.808 20.1645V20.1645ZM97.5597 14.608L98.6959 9.46281C98.7327 9.27603 98.7889 9.18314 98.9573 9.18314C99.1258 9.18314 99.1615 9.27603 99.1993 9.46281L100.329 14.608H97.5597Z" fill="#1C9CD9"/>
<path d="M56.0743 28.5882H54.7757C54.4204 28.5882 54.2928 28.4678 54.2928 28.0779V24.1728C54.2925 24.1328 54.2765 24.0945 54.2482 24.0663C54.22 24.038 54.1817 24.022 54.1417 24.0217H53.1524C53.1124 24.022 53.0742 24.038 53.0459 24.0663C53.0176 24.0945 53.0016 24.1328 53.0013 24.1728V28.0758C53.0013 29.4486 53.8701 29.6987 54.839 29.6987C55.2494 29.6966 55.659 29.6624 56.0641 29.5966C56.1662 29.5732 56.2152 29.5354 56.2152 29.4374V28.7362C56.2143 28.6985 56.1993 28.6624 56.1733 28.635C56.1472 28.6077 56.112 28.591 56.0743 28.5882V28.5882Z" fill="#1C9CD9"/>
<path d="M61.7882 24.0217H60.7765C60.7578 24.0213 60.7393 24.0249 60.7222 24.0321C60.705 24.0393 60.6895 24.0501 60.6767 24.0636C60.664 24.0772 60.6541 24.0932 60.6479 24.1108C60.6417 24.1283 60.6393 24.147 60.6407 24.1656V29.4792C60.639 29.4982 60.6412 29.5173 60.6473 29.5354C60.6533 29.5534 60.663 29.5701 60.6757 29.5842C60.6884 29.5984 60.704 29.6098 60.7213 29.6177C60.7386 29.6256 60.7574 29.6299 60.7765 29.6302H61.7882C61.8077 29.6301 61.8269 29.6261 61.8448 29.6184C61.8627 29.6106 61.8788 29.5994 61.8923 29.5853C61.9057 29.5712 61.9161 29.5545 61.923 29.5363C61.9298 29.5181 61.933 29.4986 61.9321 29.4792V24.1656C61.9327 24.1465 61.9294 24.1276 61.9223 24.1098C61.9153 24.0921 61.9047 24.076 61.8912 24.0626C61.8777 24.0491 61.8617 24.0385 61.8439 24.0315C61.8262 24.0244 61.8072 24.0211 61.7882 24.0217V24.0217Z" fill="#1C9CD9"/>
<path d="M70.4321 24.1279C69.9141 24.0118 69.3847 23.9536 68.8538 23.9544C67.7594 23.9544 66.5588 24.4371 66.5588 26.3621V27.2981C66.5588 29.2077 67.8503 29.6987 68.7109 29.6987C69.2784 29.7047 69.8451 29.6514 70.4015 29.5395C70.5148 29.517 70.5526 29.4721 70.5526 29.3659V26.8306C70.5526 26.7904 70.5367 26.7519 70.5084 26.7234C70.4801 26.6949 70.4417 26.6788 70.4015 26.6785H69.4357C69.4162 26.6788 69.3969 26.6829 69.379 26.6908C69.3611 26.6986 69.345 26.71 69.3316 26.7241C69.3182 26.7383 69.3077 26.7551 69.3009 26.7733C69.2941 26.7916 69.291 26.8111 69.2918 26.8306V28.5657C69.1111 28.581 68.9222 28.5882 68.7109 28.5882C68.3403 28.5882 67.8646 28.3473 67.8646 27.3052V26.3621C67.8646 25.3731 68.2423 25.0791 68.8538 25.0791C69.4959 25.0791 70.0615 25.124 70.4239 25.1393H70.4474C70.5148 25.1393 70.5608 25.124 70.5608 25.0373V24.2371C70.5608 24.1728 70.5077 24.1432 70.4321 24.1279Z" fill="#1C9CD9"/>
<path d="M79.5962 24.0217H78.608C78.5885 24.0209 78.5691 24.024 78.5509 24.0309C78.5326 24.0377 78.516 24.0482 78.5019 24.0616C78.4878 24.075 78.4765 24.0912 78.4688 24.1091C78.4611 24.1269 78.457 24.1462 78.4569 24.1656V26.1733H76.5917V24.1656C76.5916 24.1462 76.5875 24.1269 76.5798 24.1091C76.5721 24.0912 76.5608 24.075 76.5467 24.0616C76.5326 24.0482 76.516 24.0377 76.4977 24.0309C76.4795 24.024 76.4601 24.0209 76.4406 24.0217H75.4524C75.4329 24.0209 75.4135 24.024 75.3952 24.0309C75.377 24.0377 75.3603 24.0482 75.3462 24.0616C75.3321 24.075 75.3209 24.0912 75.3132 24.1091C75.3054 24.1269 75.3014 24.1462 75.3013 24.1656V29.4793C75.3013 29.5193 75.3172 29.5577 75.3455 29.5861C75.3739 29.6144 75.4123 29.6303 75.4524 29.6303H76.4406C76.4807 29.6303 76.5191 29.6144 76.5474 29.5861C76.5758 29.5577 76.5917 29.5193 76.5917 29.4793V27.2981H78.4569V29.4793C78.4569 29.4991 78.4608 29.5187 78.4684 29.5371C78.476 29.5554 78.4871 29.572 78.5011 29.5861C78.5152 29.6001 78.5318 29.6112 78.5502 29.6188C78.5685 29.6264 78.5881 29.6303 78.608 29.6303H79.5962C79.6161 29.6303 79.6357 29.6264 79.654 29.6188C79.6724 29.6112 79.689 29.6001 79.7031 29.5861C79.7171 29.572 79.7282 29.5554 79.7358 29.5371C79.7434 29.5187 79.7473 29.4991 79.7473 29.4793V24.1656C79.7472 24.1462 79.7432 24.1269 79.7354 24.1091C79.7277 24.0912 79.7164 24.075 79.7023 24.0616C79.6882 24.0482 79.6716 24.0377 79.6533 24.0309C79.6351 24.024 79.6157 24.0209 79.5962 24.0217V24.0217Z" fill="#1C9CD9"/>
<path d="M88.0786 24.0217H84.334C84.3145 24.021 84.2952 24.0242 84.277 24.0311C84.2588 24.038 84.2422 24.0485 84.2281 24.0619C84.2141 24.0753 84.2028 24.0914 84.195 24.1092C84.1873 24.127 84.1831 24.1462 84.1829 24.1656V24.9434C84.1831 24.9628 84.1873 24.9819 84.195 24.9997C84.2028 25.0174 84.2141 25.0334 84.2282 25.0468C84.2423 25.0601 84.2589 25.0704 84.2771 25.0772C84.2952 25.084 84.3146 25.0871 84.334 25.0863H85.5652V29.4752C85.565 29.4949 85.5688 29.5146 85.5763 29.5329C85.5838 29.5512 85.5948 29.5679 85.6088 29.5819C85.6227 29.596 85.6393 29.6071 85.6576 29.6147C85.6758 29.6223 85.6954 29.6262 85.7152 29.6262H86.7045C86.7446 29.6262 86.783 29.6103 86.8113 29.582C86.8397 29.5536 86.8556 29.5152 86.8556 29.4752V25.0863H88.0807C88.1205 25.088 88.1594 25.0739 88.189 25.0472C88.2186 25.0205 88.2365 24.9832 88.2389 24.9434V24.1656C88.2378 24.1456 88.2329 24.1261 88.2242 24.108C88.2156 24.09 88.2035 24.0738 88.1886 24.0604C88.1737 24.047 88.1564 24.0367 88.1375 24.0301C88.1186 24.0235 88.0986 24.0206 88.0786 24.0217V24.0217Z" fill="#1C9CD9"/>
<path d="M95.2535 26.5132L94.2867 25.9926C93.8783 25.7732 93.7762 25.6752 93.7762 25.4639C93.7762 25.1924 93.9344 25.0638 94.3643 25.0638C94.8747 25.0638 95.7537 25.1322 95.965 25.1465H95.9804C95.9978 25.1486 96.0154 25.1468 96.032 25.1411C96.0486 25.1354 96.0637 25.126 96.0761 25.1136C96.0885 25.1012 96.0979 25.0861 96.1036 25.0695C96.1093 25.053 96.1112 25.0353 96.109 25.0179V24.2565C96.1103 24.2238 96.0995 24.1918 96.0785 24.1667C96.0576 24.1417 96.0281 24.1252 95.9957 24.1207C95.4687 24.0137 94.9326 23.958 94.3949 23.9543C92.9299 23.9543 92.4623 24.5953 92.4623 25.4262C92.4623 25.9773 92.6511 26.4529 93.3525 26.8673L94.3949 27.4869C94.7869 27.7206 94.8931 27.8411 94.8931 28.0605C94.8931 28.4228 94.742 28.5882 94.2213 28.5882C93.9263 28.5882 93.0983 28.528 92.792 28.4984H92.7686C92.7497 28.4966 92.7306 28.4992 92.7129 28.5059C92.6951 28.5126 92.6791 28.5232 92.666 28.5369C92.6529 28.5507 92.6432 28.5672 92.6374 28.5853C92.6317 28.6034 92.6301 28.6225 92.6328 28.6413V29.3813C92.6328 29.4639 92.7083 29.5099 92.7839 29.5323C93.2512 29.6488 93.7316 29.7047 94.2131 29.6987C95.7445 29.6987 96.2744 28.8454 96.2744 28.0452C96.2723 27.4338 96.0426 26.9357 95.2535 26.5132Z" fill="#1C9CD9"/>
</g>
</svg>
