<svg width="106" height="33" viewBox="0 0 106 33" fill="none" xmlns="http://www.w3.org/2000/svg">
<g opacity="0.4">
<path d="M7.18113 5.33413C9.46013 3.65108 12.3138 2.9404 15.1162 3.35798C17.9186 3.77557 20.4409 5.28732 22.1299 7.56165C22.3693 7.86197 22.5696 8.19142 22.726 8.54213H25.5824C25.1958 7.66748 24.7208 6.83466 24.1647 6.05664C19.8267 0.20132 11.5325 -1.03334 5.67578 3.30366C3.98673 4.55399 2.6203 6.18902 1.68988 8.07306C0.759454 9.9571 0.291883 12.0358 0.325956 14.1367C0.360029 16.2376 0.894763 18.3001 1.88579 20.153C2.87682 22.0058 4.29556 23.5957 6.02427 24.7906H8.38942V23.2828C6.81967 22.4193 5.49221 21.1752 4.52911 19.6648C3.566 18.1543 2.99815 16.4261 2.87774 14.6389C2.75734 12.8517 3.08825 11.0629 3.84005 9.43703C4.59186 7.81112 5.74044 6.40025 7.18019 5.33413H7.18113Z" fill="#183E7C"/>
<path d="M6.02051 8.54211H25.5844C25.5844 8.54211 25.8377 9.00189 26.4461 10.9543H20.0419V24.7906H17.4616V10.9543H6.02051V8.54211Z" fill="#D81E1E"/>
<path d="M15.7659 10.9543H13.3008V24.7907H15.7659V10.9543Z" fill="#183E7C"/>
<path d="M13.2999 24.7907L8.4011 17.08L8.39063 24.7907H6.02454V12.3375H8.27542L13.2999 19.9806" fill="#183E7C"/>
<path d="M33.0531 11.0895H35.5496L39.2945 18.1718V11.0895H41.79V23.0381H39.1383L35.3621 15.8006V23.0381H33.0531V11.0895Z" fill="#183E7C"/>
<path d="M48.7325 10.7468C45.7256 10.7468 43.2871 13.6312 43.2871 17.1885C43.2871 20.7459 45.7256 23.6312 48.7325 23.6312C51.7394 23.6312 54.1778 20.7468 54.1778 17.1885C54.1778 13.6302 51.7403 10.7468 48.7325 10.7468ZM48.7325 21.3542C47.0519 21.3542 45.6856 19.4893 45.6856 17.1885C45.6856 14.8877 47.0472 13.0238 48.7325 13.0238C50.4178 13.0238 51.7794 14.8887 51.7794 17.1885C51.7794 19.4884 50.414 21.3589 48.7325 21.3589V21.3542Z" fill="#183E7C"/>
<path d="M54.428 11.0895H57.8605L59.8581 19.6064L62.2299 11.0895H65.2873L61.5434 23.6312H58.4222L54.428 11.0895Z" fill="#183E7C"/>
<path d="M70.4255 7.9187L62.9359 29.2153H65.8066L68.3451 21.021H72.4222L72.963 23.0382H75.6681L70.4255 7.9187ZM68.9278 18.9411L70.4674 14.407L71.8005 18.9411H68.9278Z" fill="#D81E1E"/>
<path d="M78.0669 23.6312H80.5634V13.3284H83.8398V11.0895H74.7905V13.3608H77.8479H78.1288L78.0669 23.6312Z" fill="#183E7C"/>
<path d="M93.934 11.0895V13.257H87.9078V16.0947H93.1685V18.2623H87.9078V20.9714H93.934V23.2037H85.1656V11.0895" fill="#183E7C"/>
<path d="M95.3998 11.0895V23.2037H98.0839V17.3608L102.14 23.2037H105.104L100.252 16.6744L104.949 11.0895H101.734L99.5816 13.773L99.2065 14.2404L98.6457 14.802L98.24 15.3951V11.0895" fill="#183E7C"/>
<path d="M69.4576 27.1934H73.471V28.1729H70.6955V29.4047H73.2263V30.3519H70.6955V31.7417H73.4719V32.7213H69.4576V27.1934Z" fill="#D81E1E"/>
<path d="M74.5347 27.1934H75.7629V31.7417H78.3833V32.7213H74.5347V27.1934Z" fill="#D81E1E"/>
<path d="M79.2013 27.1934H83.2146V28.1729H80.4381V29.4047H82.9689V30.3519H80.4381V31.7417H83.2146V32.7213H79.2013V27.1934Z" fill="#D81E1E"/>
<path d="M86.5735 32.8154C86.2218 32.8196 85.8719 32.7662 85.5375 32.6574C85.2317 32.5575 84.9528 32.3888 84.7225 32.1643C84.4791 31.9182 84.2954 31.6196 84.1854 31.2914C84.0489 30.8738 83.9845 30.436 83.995 29.9968V29.8388C83.9846 29.4155 84.0527 28.994 84.1959 28.5955C84.313 28.2751 84.5004 27.985 84.7444 27.7464C84.9777 27.5247 85.2574 27.3576 85.5632 27.2571C85.8897 27.1496 86.2316 27.0963 86.5754 27.0991C86.8816 27.0969 87.1869 27.134 87.4837 27.2095C87.7528 27.2762 88.007 27.3928 88.2331 27.5532C88.4503 27.7101 88.6296 27.9137 88.7577 28.1491C88.8973 28.4141 88.9769 28.7066 88.991 29.0058H87.7132C87.6529 28.6885 87.5218 28.4569 87.32 28.3109C87.1022 28.1587 86.8409 28.0811 86.5754 28.0901C86.409 28.0893 86.2438 28.1187 86.0878 28.1767C85.9275 28.2379 85.7851 28.3384 85.6737 28.4689C85.5425 28.627 85.4438 28.8095 85.3833 29.0058C85.303 29.2747 85.2658 29.5545 85.2728 29.8349V29.993C85.2657 30.2881 85.3042 30.5825 85.3871 30.8659C85.4479 31.0707 85.5496 31.2611 85.686 31.4256C85.7991 31.5581 85.9425 31.6613 86.104 31.7264C86.2553 31.7878 86.4169 31.8201 86.5801 31.8216C86.8555 31.8329 87.1267 31.7507 87.3495 31.5884C87.4532 31.5048 87.5392 31.4014 87.6025 31.2842C87.6658 31.167 87.705 31.0384 87.7179 30.9059H88.9957C88.979 31.2139 88.8982 31.5151 88.7587 31.7902C88.6341 32.0244 88.4575 32.2269 88.2426 32.3823C88.0182 32.5405 87.7649 32.6531 87.497 32.7136C87.1943 32.7842 86.8843 32.8184 86.5735 32.8154V32.8154Z" fill="#D81E1E"/>
<path d="M91.1763 28.1729H89.3329V27.1934H94.247V28.1729H92.4045V32.7213H91.1763V28.1729Z" fill="#D81E1E"/>
<path d="M95.0697 27.1934H97.4044C97.7241 27.1877 98.0429 27.2304 98.3498 27.32C98.5973 27.3917 98.8271 27.5138 99.0249 27.6789C99.2033 27.8314 99.3438 28.0234 99.4353 28.2396C99.5304 28.4714 99.5777 28.7201 99.5743 28.9706C99.5824 29.328 99.4745 29.6783 99.2668 29.9692C99.0365 30.2682 98.7121 30.4808 98.346 30.5727L99.7381 32.7213H98.3099L97.1063 30.6994H96.2951V32.7213H95.0697V27.1934ZM97.1578 29.7636C97.3495 29.7674 97.5411 29.7502 97.729 29.7122C97.8593 29.6869 97.9832 29.6361 98.0937 29.5627C98.1827 29.5016 98.251 29.415 98.2899 29.3143C98.3673 29.0891 98.3673 28.8445 98.2899 28.6194C98.2511 28.5184 98.1827 28.4315 98.0937 28.37C97.983 28.297 97.8591 28.2462 97.729 28.2205C97.5411 28.1826 97.3495 28.1653 97.1578 28.1691H96.3008V29.7636H97.1578Z" fill="#D81E1E"/>
<path d="M103.133 32.8155C102.784 32.8174 102.437 32.7641 102.105 32.6574C101.787 32.5555 101.495 32.386 101.248 32.1605C100.988 31.917 100.785 31.6189 100.654 31.2876C100.497 30.876 100.421 30.4374 100.433 29.9968V29.8388C100.422 29.4137 100.497 28.9908 100.654 28.5956C100.786 28.2718 100.989 27.9817 101.248 27.7464C101.497 27.5253 101.788 27.3586 102.105 27.2571C102.774 27.0464 103.492 27.0464 104.161 27.2571C104.478 27.3586 104.769 27.5253 105.018 27.7464C105.277 27.9817 105.48 28.2718 105.612 28.5956C105.768 28.9909 105.843 29.4138 105.833 29.8388V29.9968C105.844 30.4374 105.769 30.8759 105.612 31.2876C105.481 31.6189 105.278 31.917 105.018 32.1605C104.771 32.386 104.479 32.5555 104.161 32.6574C103.829 32.7641 103.482 32.8175 103.133 32.8155ZM103.133 31.8207C103.316 31.8195 103.497 31.7874 103.67 31.7255C103.844 31.6632 104 31.5585 104.124 31.4209C104.267 31.2582 104.374 31.0671 104.439 30.8602C104.525 30.5792 104.565 30.286 104.558 29.992V29.834C104.565 29.5554 104.525 29.2776 104.439 29.0125C104.373 28.8133 104.265 28.6304 104.124 28.4756C103.998 28.3426 103.842 28.2411 103.67 28.1796C103.322 28.059 102.944 28.059 102.596 28.1796C102.424 28.2409 102.268 28.3424 102.142 28.4756C102.001 28.6305 101.893 28.8134 101.826 29.0125C101.741 29.2777 101.701 29.5555 101.708 29.834V29.992C101.7 30.2859 101.74 30.5791 101.826 30.8602C101.891 31.067 101.999 31.258 102.142 31.4209C102.266 31.5588 102.422 31.6635 102.596 31.7255C102.769 31.7873 102.95 31.8194 103.133 31.8207Z" fill="#D81E1E"/>
</g>
</svg>
