<svg width="116" height="23" viewBox="0 0 116 23" fill="none" xmlns="http://www.w3.org/2000/svg">
<g opacity="0.4">
<path d="M25.3431 0.963068V3.12333C25.4752 3.15021 25.506 3.04979 25.5614 2.99602C26.357 2.21716 27.2089 1.52448 28.2916 1.17735C28.6296 1.06631 28.983 1.0092 29.3388 1.00813C31.3951 1.00813 33.4515 1.00814 35.5079 0.999438C35.7586 0.999438 35.7839 1.09117 35.7823 1.29913C35.7422 6.35977 35.709 11.4204 35.6827 16.4811C35.6883 16.9357 35.5499 17.3805 35.2872 17.7518C34.2258 19.3166 33.1897 20.8988 32.1512 22.4795C32.1079 22.5567 32.043 22.6197 31.9645 22.6609C31.8861 22.702 31.7973 22.7195 31.7091 22.7112C29.3364 22.7025 26.9637 22.7056 24.587 22.7056H24.1971L34.8514 6.8856C34.8 6.79862 34.7359 6.81997 34.6845 6.81997C33.7038 6.81997 32.7231 6.8089 31.7431 6.82867C30.8004 6.84844 30.0822 7.23194 29.5365 8.0543C27.3299 11.3943 25.0861 14.709 22.8557 18.034C21.8539 19.5248 20.8542 21.0156 19.8566 22.5064C19.7696 22.6361 19.6984 22.7436 19.5014 22.7396C17.0694 22.7214 14.6381 22.7151 12.2061 22.7056C12.1577 22.7012 12.1096 22.6938 12.0622 22.6835C12.3651 22.2328 12.6506 21.805 12.9385 21.3788C16.1316 16.6424 19.324 11.9059 22.5156 7.16947C22.582 7.07142 22.7307 6.971 22.6667 6.85793C22.6176 6.77016 22.4531 6.82551 22.3408 6.82471C21.485 6.82471 20.6301 6.81918 19.7743 6.82471C18.7991 6.83262 18.0414 7.19478 17.4751 8.04481C14.2588 12.8793 11.0263 17.7027 7.7778 22.5151C7.69871 22.6361 7.63069 22.7349 7.4472 22.7341C5.02544 22.7159 2.60367 22.7096 0.181909 22.6993C0.136828 22.6993 0.0917455 22.6898 0 22.6803C0.211964 22.364 0.404946 22.0683 0.601091 21.7781C4.50607 15.9874 8.41448 10.1956 12.3263 4.40272C13.2145 3.09328 14.3297 2.00208 15.7897 1.31178C16.1179 1.15364 16.4873 1.13307 16.8076 0.960693L25.3431 0.963068Z" fill="#B8010F"/>
<path d="M115.32 12.2602C114.445 12.2602 113.571 12.2531 112.696 12.2657C112.482 12.2657 112.421 12.2135 112.423 11.9953C112.434 10.7467 112.433 9.49739 112.423 8.24884C112.423 7.86534 112.401 7.48104 112.369 7.09833C112.315 6.44914 111.983 6.0522 111.43 5.94387C110.734 5.80787 110.115 6.06723 109.824 6.62074C109.607 7.03271 109.57 7.485 109.566 7.93571C109.557 9.27046 109.554 10.606 109.566 11.9415C109.566 12.2167 109.487 12.2713 109.229 12.2657C108.438 12.2499 107.652 12.2546 106.865 12.2657C106.673 12.2657 106.619 12.212 106.619 12.023C106.625 9.36244 106.625 6.70033 106.619 4.03664C106.619 3.85715 106.659 3.78361 106.857 3.78598C107.683 3.796 108.51 3.796 109.337 3.78598C109.518 3.78598 109.569 3.84371 109.561 4.01608C109.549 4.26516 109.561 4.51503 109.561 4.76569C109.673 4.7989 109.694 4.69927 109.735 4.64866C110.442 3.77887 111.385 3.46891 112.47 3.51714C112.787 3.52821 113.101 3.57921 113.405 3.66895C114.508 4.00264 115.038 4.81234 115.255 5.88298C115.266 5.93675 115.247 6.00159 115.315 6.03243L115.32 12.2602Z" fill="#386571"/>
<path d="M55.8973 4.32372C55.6766 5.04565 55.4544 5.76758 55.2361 6.4911C54.6753 8.34535 54.113 10.1988 53.5617 12.0562C53.5016 12.2594 53.4122 12.3187 53.2058 12.3172C52.1586 12.3061 51.1107 12.3013 50.0635 12.3172C49.797 12.3172 49.6855 12.2515 49.6103 11.9843C48.9143 9.51008 48.2009 7.04065 47.4923 4.56963C47.4725 4.50005 47.4765 4.4186 47.38 4.36088V5.25757C47.38 7.5056 47.3752 9.75362 47.3855 12.0009C47.3855 12.2563 47.323 12.3227 47.0691 12.3172C46.1659 12.3005 45.2627 12.3029 44.3595 12.3172C44.1388 12.3172 44.0882 12.2531 44.089 12.0412C44.0953 8.562 44.0953 5.08466 44.089 1.60916C44.089 1.37194 44.1681 1.32687 44.3856 1.32766C46.1256 1.33504 47.8656 1.33504 49.6056 1.32766C49.8089 1.32766 49.8832 1.3925 49.9346 1.58544C50.5225 3.79103 51.1168 5.99452 51.7173 8.1959C51.7521 8.32478 51.7917 8.45289 51.851 8.65452C52.0013 8.07808 52.1357 7.56964 52.2654 7.05962C52.7299 5.23779 53.1924 3.41596 53.6527 1.59413C53.6993 1.40594 53.761 1.32608 53.973 1.32766C55.751 1.33662 57.5289 1.33662 59.3069 1.32766C59.5355 1.32766 59.5972 1.38934 59.5964 1.61786C59.5895 5.08492 59.5895 8.55251 59.5964 12.0206C59.5964 12.2721 59.5173 12.3195 59.2847 12.3172C58.2661 12.3061 57.2466 12.3037 56.2279 12.3172C55.9827 12.3172 55.9503 12.231 55.9511 12.0206C55.9574 9.56148 55.9574 7.10233 55.9511 4.64317V4.32688L55.8973 4.32372Z" fill="#386571"/>
<path d="M102.889 4.54114C102.9 4.50485 102.908 4.46786 102.913 4.43043C102.938 3.79232 102.938 3.79232 103.59 3.79232C104.241 3.79232 104.915 3.79864 105.578 3.78757C105.78 3.78757 105.862 3.82158 105.861 4.05168C105.852 6.70114 105.852 9.35058 105.861 12C105.861 12.193 105.821 12.2681 105.61 12.2649C104.793 12.2531 103.977 12.2554 103.158 12.2649C102.974 12.2649 102.896 12.2207 102.912 12.0277C102.928 11.8348 102.912 11.6466 102.912 11.3888C102.615 11.7344 102.349 12.0364 101.979 12.2001C100.665 12.7797 99.3804 12.6809 98.1893 11.9052C95.5587 10.1924 95.5421 5.91778 98.1379 4.16079C99.4231 3.29099 101.336 3.29733 102.47 4.17899C102.609 4.28257 102.733 4.40276 102.889 4.54114ZM101.139 9.91806C102.258 9.91806 103.012 9.16213 103.019 8.0393C103.026 6.93229 102.228 6.12891 101.121 6.14156C99.9941 6.14947 99.2451 6.91806 99.2483 8.06144C99.2523 9.1819 100.004 9.92281 101.139 9.91965V9.91806Z" fill="#386571"/>
<path d="M60.4671 6.5867C60.4671 5.74141 60.4726 4.89613 60.4631 4.05163C60.4631 3.8587 60.5035 3.78357 60.7146 3.78673C61.5319 3.79939 62.3492 3.79939 63.1665 3.78673C63.3713 3.78673 63.4227 3.84762 63.4211 4.04609C63.414 5.4694 63.4211 6.89271 63.4211 8.30969C63.4151 8.62707 63.4531 8.94375 63.5342 9.25066C63.66 9.69426 63.9408 9.97892 64.3979 10.0809C64.708 10.1498 65.0292 10.1511 65.3399 10.0849C65.8247 9.98603 66.111 9.68081 66.2384 9.21507C66.3132 8.92673 66.3494 8.62971 66.3459 8.33183C66.3459 6.90852 66.3522 5.48522 66.3412 4.06745C66.3412 3.83734 66.4044 3.78041 66.6291 3.78437C67.4263 3.7986 68.2243 3.79623 69.0216 3.78437C69.224 3.78437 69.2834 3.84446 69.2818 4.0453C69.2747 5.68764 69.2889 7.32998 69.2739 8.97232C69.2644 9.96152 69.0263 10.8756 68.2457 11.5675C67.7435 12.0142 67.1432 12.2554 66.493 12.3859C65.3791 12.6193 64.228 12.6095 63.1182 12.3574C61.4201 11.9621 60.5201 10.8424 60.479 9.08935C60.46 8.25434 60.479 7.41854 60.479 6.58274L60.4671 6.5867Z" fill="#386571"/>
<path d="M88.4566 6.72744C88.4566 7.52449 88.4788 8.32233 88.4566 9.11859C88.3965 10.9301 87.4965 12.0024 85.7177 12.3811C84.54 12.6447 83.3162 12.622 82.1491 12.3147C80.591 11.8956 79.7297 10.8471 79.6894 9.2364C79.6451 7.48969 79.6767 5.74061 79.6672 3.9931C79.6672 3.78514 79.774 3.78989 79.9195 3.79068C80.7365 3.79068 81.5536 3.79938 82.3714 3.79068C82.5778 3.79068 82.626 3.85236 82.6252 4.05083C82.6165 5.48126 82.6252 6.91246 82.6197 8.34367C82.6157 8.65131 82.6537 8.95805 82.7328 9.25538C82.857 9.70056 83.1362 9.98443 83.5949 10.0856C83.9426 10.1665 84.3051 10.1589 84.6492 10.0635C85.1625 9.91959 85.4646 9.47283 85.5121 8.79834C85.5745 7.88742 85.5318 6.97414 85.5397 6.06243C85.5461 5.39981 85.5476 4.73639 85.5358 4.07376C85.5358 3.86817 85.5761 3.78831 85.8031 3.79227C86.6098 3.8065 87.4174 3.80413 88.2249 3.79227C88.4297 3.79227 88.4843 3.85394 88.4819 4.05241C88.4732 4.94593 88.4819 5.83866 88.4819 6.73218L88.4566 6.72744Z" fill="#386571"/>
<path d="M91.9076 12.5472C90.8357 12.5454 89.7828 12.2647 88.8523 11.7327C88.6554 11.6228 88.5739 11.5406 88.7115 11.2994C89.0113 10.7752 89.2778 10.2311 89.5365 9.68554C89.6329 9.48232 89.7105 9.50209 89.8694 9.60647C90.4594 10.0018 91.0969 10.2802 91.8198 10.3181C92.1022 10.3316 92.3782 10.3086 92.6186 10.1362C92.9682 9.8848 92.973 9.50367 92.6265 9.2538C92.4356 9.12283 92.2205 9.03117 91.9938 8.98416C91.4805 8.85843 90.9807 8.68922 90.4776 8.52792C89.8386 8.32233 89.4692 7.8811 89.3047 7.25722C88.8745 5.63228 89.8251 4.10539 91.5422 3.68235C92.8401 3.36606 94.1134 3.50128 95.3591 3.96069C95.5244 4.02157 95.5917 4.08088 95.4888 4.26907C95.211 4.77356 94.9473 5.28515 94.6979 5.80386C94.6133 5.9794 94.5342 5.96201 94.3911 5.89163C93.9516 5.67196 93.4649 5.56336 92.9737 5.57534C92.7517 5.57956 92.535 5.64466 92.3474 5.76354C92.0247 5.96438 92.016 6.31231 92.3236 6.54162C92.5142 6.68395 92.7396 6.73455 92.9658 6.77883C93.4443 6.88084 93.9276 6.96782 94.3784 7.1742C95.4809 7.67393 95.9752 8.64968 95.8099 9.84763C95.5932 11.4235 94.3072 12.17 93.139 12.4278C92.7342 12.5126 92.3212 12.5526 91.9076 12.5472V12.5472Z" fill="#386571"/>
<path d="M70.8612 9.26253C70.8612 8.35952 70.8565 7.4573 70.8612 6.55429C70.8612 6.35582 70.8343 6.25935 70.6002 6.26805C70.3661 6.27675 70.0751 6.3835 69.9454 6.21429C69.8378 6.07354 69.9145 5.78966 69.9137 5.56984C69.9137 5.05113 69.92 4.53241 69.9137 4.01448C69.9098 3.83657 69.9675 3.78754 70.1423 3.78675C70.3796 3.78675 70.6912 3.89903 70.8248 3.72903C70.9387 3.58512 70.8596 3.28701 70.8604 3.05691C70.8604 2.5295 70.8683 2.0005 70.8604 1.47546C70.8604 1.29438 70.919 1.24931 71.0914 1.25089C71.9266 1.2588 72.7626 1.26038 73.5986 1.25089C73.7892 1.25089 73.8176 1.32285 73.8161 1.48811C73.8081 2.16023 73.824 2.83235 73.8058 3.50446C73.7994 3.75275 73.8849 3.81364 74.115 3.80178C74.4891 3.7828 74.864 3.80178 75.2389 3.79308C75.4082 3.78834 75.4762 3.82787 75.4762 4.01369C75.4659 4.70478 75.4683 5.39668 75.4762 6.08777C75.4762 6.2388 75.4295 6.28624 75.2792 6.28308C74.8838 6.27359 74.4883 6.29415 74.0976 6.27438C73.8603 6.26252 73.8113 6.34396 73.8121 6.56536C73.8208 8.35161 73.8121 10.1371 73.824 11.9233C73.824 12.1993 73.7591 12.2792 73.4775 12.2712C72.7191 12.2507 71.9598 12.2539 71.2005 12.2712C70.9474 12.2768 70.8557 12.2246 70.8612 11.9463C70.8739 11.0448 70.8612 10.1553 70.8612 9.26253Z" fill="#386571"/>
<path d="M79.0002 6.78525C79.0002 8.51377 79.0002 10.2431 79.005 11.9716C79.005 12.1898 78.9615 12.2705 78.7242 12.2658C77.9262 12.2499 77.1281 12.2539 76.3309 12.2658C76.1347 12.2658 76.0667 12.2191 76.0675 12.0119C76.0738 8.51535 76.0738 5.01903 76.0675 1.52298C76.0675 1.33004 76.1094 1.25413 76.3198 1.2573C77.1176 1.26889 77.9153 1.26889 78.7131 1.2573C78.9354 1.2573 79.0057 1.30869 79.0042 1.54196C78.9947 3.28866 78.9994 5.03538 79.0002 6.78525Z" fill="#386571"/>
<path d="M40.0463 12.0285C40.0463 15.4855 40.0463 18.9426 40.0463 22.3997C40.0463 22.493 40.1104 22.6424 39.9672 22.6677C39.7987 22.706 39.6234 22.7014 39.4571 22.6543C39.435 22.6472 39.4207 22.591 39.4176 22.5554C39.4113 22.4884 39.4113 22.4209 39.4176 22.3538C39.4611 22.1387 39.378 1.55769 39.4128 1.48416C39.4174 1.47523 39.4236 1.46721 39.431 1.46044C39.4433 1.4501 39.4585 1.44376 39.4745 1.44226C39.6449 1.42334 39.8167 1.4199 39.9878 1.43198C40.0606 1.43198 40.0503 1.51578 40.0511 1.57113C40.0511 1.71505 40.0511 1.85897 40.0511 2.00367L40.0463 12.0285Z" fill="#386571"/>
<path d="M44.0261 19.6923C44.053 18.6738 44.3599 17.7455 45.1508 16.9983C45.6071 16.5673 46.145 16.2558 46.8346 16.3372C47.6105 16.4297 48.2417 17.0267 48.4536 17.8309C48.5056 18.0161 48.5306 18.2079 48.528 18.4002C48.5193 18.7489 48.4402 18.8415 48.0613 18.8786C47.1526 18.968 46.2422 19.0431 45.328 19.0628C45.0907 19.0676 44.9997 19.1293 45.0258 19.3609C45.0828 19.8607 45.1666 20.351 45.4276 20.8001C46.0137 21.8059 47.1423 21.9791 48.0534 21.2129C48.1207 21.1559 48.161 20.9519 48.3231 21.0919C48.456 21.2057 48.4813 21.3354 48.3389 21.4872C48.1333 21.7316 47.9042 21.9551 47.6548 22.1546C46.667 22.8916 45.4743 22.7532 44.7118 21.8098C44.2057 21.1867 44.0404 20.4624 44.0261 19.6923ZM46.1877 18.4983V18.4745C46.5088 18.4745 46.8307 18.4793 47.1518 18.4745C47.3669 18.4745 47.4682 18.3607 47.461 18.1583C47.4547 17.8877 47.3831 17.6226 47.2522 17.3857C46.8686 16.716 46.0809 16.6582 45.5913 17.2639C45.3382 17.5802 45.2101 17.9392 45.1207 18.318C45.0859 18.4651 45.1318 18.503 45.2837 18.4999C45.5866 18.4935 45.8871 18.4983 46.1877 18.4983V18.4983Z" fill="#386571"/>
<path d="M52.2579 19.5388C52.2645 19.0505 52.3717 18.5688 52.5728 18.1238C52.774 17.6788 53.0647 17.28 53.4268 16.9523C54.0809 16.3435 54.894 16.1663 55.5733 16.4779C56.3152 16.8171 56.8649 17.7944 56.7494 18.5528C56.7091 18.8192 56.5003 18.8627 56.2749 18.8793C55.416 18.9458 54.557 19.009 53.6973 19.062C53.2283 19.0904 53.2228 19.0802 53.2671 19.5143C53.2986 19.958 53.426 20.3896 53.6404 20.7794C54.2375 21.8074 55.3448 21.9821 56.2828 21.2056C56.3469 21.1527 56.388 20.9392 56.5549 21.1005C56.6727 21.2151 56.7004 21.3282 56.5699 21.4745C56.3577 21.7257 56.1223 21.9563 55.8668 22.1632C54.6859 23.0741 53.4553 22.5111 52.889 21.7552C52.4255 21.1353 52.2547 20.4347 52.2579 19.5388ZM54.4218 18.499V18.4776C54.7429 18.4776 55.064 18.4816 55.3851 18.4776C55.5844 18.4776 55.6872 18.3772 55.6849 18.1867C55.6908 17.856 55.5889 17.5323 55.3946 17.2647C54.9991 16.7396 54.3498 16.7064 53.8919 17.1856C53.5755 17.5201 53.4426 17.9336 53.3382 18.3559C53.3003 18.514 53.4126 18.5045 53.5201 18.5045L54.4218 18.499Z" fill="#386571"/>
<path d="M58.5424 19.247C58.5253 19.7858 58.6625 20.3183 58.9379 20.7818C59.5849 21.8327 60.7451 21.9853 61.6911 21.1542C61.7607 21.0934 61.8065 20.8972 61.9655 21.023C62.1007 21.1297 62.1332 21.2602 61.9979 21.4183C61.7842 21.6804 61.5432 21.9189 61.279 22.13C60.2793 22.882 59.0581 22.7792 58.2625 21.8382C56.819 20.1295 57.5301 17.0828 60.1235 16.3877C60.3765 16.3121 60.6428 16.2916 60.9045 16.3274C61.1661 16.3633 61.4171 16.4548 61.6404 16.5957C61.9908 16.8163 62.0398 17.2148 61.7828 17.5272C61.6317 17.7114 61.4799 17.7446 61.3003 17.558C61.1683 17.4196 61.0173 17.3006 60.8519 17.2045C60.1654 16.8131 59.4219 16.9594 58.9759 17.5786C58.6271 18.0664 58.5417 18.6113 58.5424 19.247Z" fill="#386571"/>
<path d="M74.4561 19.572C74.4632 18.136 75.5246 16.7633 77.0447 16.3877C77.5746 16.2565 78.0729 16.3086 78.5356 16.5894C78.9042 16.8139 78.9627 17.1887 78.7056 17.5145C78.534 17.732 78.4146 17.7454 78.2074 17.5532C77.978 17.3398 77.7328 17.1508 77.4165 17.0583C76.7561 16.8629 76.1352 17.1223 75.784 17.7383C75.425 18.3709 75.4123 19.0462 75.4874 19.7301C75.5248 20.0571 75.6238 20.3739 75.7793 20.664C76.3171 21.6848 77.5865 22.1339 78.6266 21.1234C78.8092 20.9455 78.8963 20.9653 78.9904 21.1708C79.0339 21.2665 78.9753 21.3195 78.9326 21.3772C78.6512 21.7679 78.2927 22.0967 77.8791 22.3435C76.9744 22.8709 75.8489 22.6598 75.1481 21.8129C74.6412 21.2025 74.4387 20.5011 74.4561 19.572Z" fill="#386571"/>
<path d="M63.435 19.2217C63.435 18.5788 63.4263 17.9352 63.4397 17.2923C63.4397 17.0939 63.3907 17.0116 63.1661 17.0345C63.0107 17.044 62.8548 17.044 62.6994 17.0345C62.5729 17.0345 62.5112 16.9468 62.5753 16.8653C62.7137 16.6914 62.7959 16.4281 63.125 16.4818C63.3978 16.5269 63.4904 16.4028 63.4326 16.1782C63.2562 15.4903 63.7996 15.1107 64.1784 14.66C64.1998 14.631 64.2308 14.6106 64.2659 14.6023C64.3009 14.5941 64.3378 14.5985 64.3698 14.6149C64.4616 14.6521 64.4323 14.728 64.4323 14.7897C64.4323 15.2697 64.4442 15.7504 64.4323 16.2296C64.4252 16.436 64.5011 16.4953 64.7147 16.4842C65.0049 16.47 65.2968 16.4889 65.5847 16.4779C65.7824 16.4708 65.9161 16.5119 65.901 16.7222C65.8852 16.9088 65.8307 17.0551 65.5665 17.0385C65.2659 17.0219 64.9638 17.0432 64.6633 17.0322C64.4853 17.0251 64.4339 17.0828 64.4347 17.2449C64.4418 18.4262 64.4387 19.6068 64.4418 20.7873C64.4471 20.8733 64.4606 20.9585 64.4822 21.0419C64.6403 21.8327 64.9417 21.9908 65.7318 21.6974C65.8109 21.669 65.9026 21.578 65.9517 21.722C65.9857 21.8248 66.0798 21.9457 65.9271 22.0303C65.5902 22.2177 65.2802 22.4518 64.9077 22.5791C64.6735 22.6564 64.4193 22.6473 64.1913 22.5535C63.9632 22.4596 63.7763 22.2872 63.6644 22.0675C63.5067 21.7458 63.4299 21.3905 63.4405 21.0325C63.4279 20.4315 63.435 19.8266 63.435 19.2217Z" fill="#386571"/>
<path d="M50.7848 17.5074C50.7848 18.6672 50.7848 19.8287 50.7848 20.9922C50.7859 21.1457 50.7949 21.299 50.8117 21.4516C50.8576 21.8991 50.9478 21.9901 51.4255 22.0652C51.5773 22.0889 51.6999 22.1063 51.6928 22.3024C51.6857 22.5159 51.5346 22.4605 51.4128 22.4605C50.6646 22.4605 49.917 22.4605 49.1698 22.4605C49.0599 22.4605 48.9112 22.5175 48.9025 22.319C48.8961 22.1656 48.9491 22.0976 49.1152 22.0667C49.6839 21.9632 49.71 21.9323 49.7812 21.4049C49.7991 21.2913 49.8091 21.1767 49.8112 21.0617C49.8112 19.1608 49.8112 17.2602 49.8112 15.3598C49.8124 15.2446 49.8061 15.1294 49.7923 15.0151C49.7132 14.4536 49.7132 14.4473 49.1136 14.3437C48.9784 14.32 48.9444 14.2749 48.946 14.1603C48.9476 14.0456 48.9657 13.9887 49.1042 13.9642C49.6026 13.8824 50.0921 13.753 50.5658 13.5775C50.8244 13.4779 50.7833 13.6289 50.7833 13.7626C50.7833 14.8379 50.7833 15.9131 50.7833 16.9879L50.7848 17.5074Z" fill="#386571"/>
<path d="M68.3568 16.2858V17.7091C68.5244 17.4655 68.6454 17.2837 68.7728 17.1065C68.9642 16.8416 69.1801 16.5949 69.4846 16.4313C69.869 16.2233 70.2866 16.3308 70.497 16.6835C70.5908 16.8566 70.612 17.0599 70.556 17.2487C70.4999 17.4375 70.3711 17.5962 70.198 17.6901C70.0461 17.7644 69.9338 17.732 69.812 17.6205C69.4411 17.2813 69.1461 17.2971 68.8329 17.6838C68.5379 18.0491 68.333 18.4421 68.3496 18.9276C68.3757 19.7183 68.3496 20.5019 68.3591 21.2895C68.3639 21.873 68.4825 21.994 69.1002 22.0699C69.2521 22.0889 69.3739 22.1 69.3691 22.2992C69.3644 22.5111 69.2196 22.4637 69.0955 22.4637C68.3164 22.4637 67.5374 22.4637 66.7583 22.4637C66.6381 22.4637 66.5068 22.4969 66.5037 22.3055C66.5037 22.1474 66.5701 22.0913 66.7307 22.0644C67.2424 21.9806 67.3547 21.862 67.357 21.3725C67.3634 20.1922 67.3634 19.0111 67.357 17.8293C67.357 17.4007 67.255 17.2939 66.8034 17.1919C66.6872 17.1658 66.5891 17.154 66.5938 17.0014C66.5938 16.8638 66.6595 16.8266 66.7931 16.8021C67.3334 16.6943 67.8585 16.5209 68.3568 16.2858V16.2858Z" fill="#386571"/>
<path d="M72.9636 16.2968C72.9636 17.807 72.9636 19.2651 72.9636 20.7248C72.957 20.9934 72.9655 21.2621 72.9889 21.5298C73.0301 21.8951 73.1598 22.0042 73.5576 22.0651C73.6952 22.0865 73.8566 22.0651 73.8439 22.2786C73.836 22.4043 73.8178 22.4692 73.6565 22.4676C72.8656 22.4612 72.0747 22.4676 71.2885 22.4676C71.1849 22.4676 71.101 22.4581 71.1066 22.3324C71.1121 22.2296 71.0773 22.1117 71.2442 22.088C71.3162 22.0777 71.3881 22.0706 71.4593 22.0588C71.7369 22.0129 71.9133 21.8698 71.9394 21.6041C71.9616 21.3748 71.975 21.1447 71.9758 20.9146C71.9758 19.9547 71.9805 18.9947 71.9758 18.0348C71.9758 17.414 71.9544 17.3935 71.3312 17.2053C71.2149 17.1705 71.1833 17.116 71.1928 17.0195C71.2023 16.923 71.1746 16.8321 71.3304 16.8044C71.8928 16.6998 72.441 16.5294 72.9636 16.2968V16.2968Z" fill="#386571"/>
<path d="M71.7673 14.4354C71.7673 14.0401 72.0679 13.7151 72.4167 13.7238C72.7655 13.7325 73.0289 14.052 73.0281 14.4354C73.0273 14.8189 72.7489 15.1384 72.4127 15.1471C72.06 15.1566 71.7658 14.8292 71.7673 14.4354Z" fill="#386571"/>
</g>
</svg>
