<svg width="91" height="26" viewBox="0 0 91 26" fill="none" xmlns="http://www.w3.org/2000/svg">
<g opacity="0.4">
<path d="M0.155273 0.94165H21.4583L19.4903 7.88739H8.4328V9.91327H18.7377L17.0011 16.4527H8.54949V18.5943H16.3058L14.4535 25.539H0.155273V0.94165Z" fill="#2165AE"/>
<path d="M33.3836 19.057H25.2629L23.2949 25.5391H35.3526L33.3836 19.057Z" fill="#2165AE"/>
<path d="M31.6962 13.5013L29.3227 5.6875L26.9502 13.5013H31.6962Z" fill="#2165AE"/>
<path d="M40.2437 7.94574H33.2974V0.942627H55.3529C55.3529 0.942627 37.6102 9.50793 51.503 25.54H40.4828L40.2437 7.94574Z" fill="#2165AE"/>
<path d="M59.438 19.3285C61.9556 19.3285 63.9965 17.0329 63.9965 14.2012C63.9965 11.3694 61.9556 9.07385 59.438 9.07385C56.9203 9.07385 54.8794 11.3694 54.8794 14.2012C54.8794 17.0329 56.9203 19.3285 59.438 19.3285Z" fill="#2165AE"/>
<path d="M73.8485 10.1446V25.539H66.9595V0.94165H78.3067L82.9953 16.5684V0.94165H90.3471V25.539H78.6538L73.8485 10.1446Z" fill="#2165AE"/>
</g>
</svg>
