<svg width="87" height="20" viewBox="0 0 87 20" fill="none" xmlns="http://www.w3.org/2000/svg">
<path d="M64.3569 0.0148263H60.9838C60.4142 0.0148263 60.2042 0.223956 60.2042 0.787969C60.2042 4.48046 60.2042 8.17266 60.2042 11.8645C60.2042 11.9469 60.234 12.0402 60.1598 12.128C60.0864 12.0456 60.0203 11.9741 59.9578 11.8999C56.6979 8.04682 53.4365 4.19287 50.1736 0.338026C50.092 0.231149 49.9856 0.145607 49.8638 0.0886984C49.7419 0.0317896 49.608 0.00520435 49.4736 0.011207C48.2584 0.0211655 47.0432 0.011207 45.828 0.011207C45.2421 0.011207 45.0366 0.214902 45.0366 0.796117V18.9287C45.0366 18.9813 45.0366 19.0338 45.0366 19.0863C45.0354 19.1692 45.0511 19.2515 45.0827 19.3281C45.1143 19.4048 45.1612 19.4742 45.2205 19.5322C45.2798 19.5902 45.3502 19.6356 45.4276 19.6655C45.5049 19.6954 45.5875 19.7094 45.6704 19.7064C46.8703 19.7064 48.0701 19.7064 49.2699 19.7064C49.4298 19.7106 49.5852 19.6528 49.7036 19.5453C49.8902 19.3805 49.9119 19.1596 49.9119 18.926C49.9119 15.2414 49.9119 11.5567 49.9119 7.87209V7.56971C49.9952 7.66025 50.0432 7.70732 50.0858 7.75802C53.3946 11.6503 56.7028 15.5432 60.0104 19.4366C60.0797 19.5254 60.1691 19.5963 60.2713 19.6435C60.3735 19.6907 60.4855 19.7129 60.598 19.7082C61.8431 19.7019 63.0882 19.7082 64.3333 19.7082C64.8767 19.7082 65.0985 19.4864 65.0985 18.9396V0.76443C65.0994 0.248398 64.8676 0.0148263 64.3569 0.0148263Z" fill="#1E59A4"/>
<path d="M19.5816 11.6681C18.6392 11.6591 17.696 11.6591 16.7518 11.6681C16.3154 11.6727 16.0374 11.9714 16.0356 12.4051C16.0356 12.8795 16.0356 13.3548 16.0356 13.8291C16.0341 14.3557 15.8242 14.8602 15.4517 15.2324C15.0793 15.6046 14.5745 15.8142 14.0479 15.8154C11.6863 15.8196 9.32437 15.8196 6.96215 15.8154C6.70141 15.816 6.44315 15.765 6.2022 15.6654C5.96125 15.5658 5.74239 15.4195 5.55823 15.235C5.37407 15.0504 5.22825 14.8313 5.12916 14.5902C5.03007 14.3491 4.97967 14.0907 4.98086 13.83C4.98086 11.1787 4.98086 8.52639 4.98086 5.8732C4.97836 5.61428 5.02698 5.35741 5.12394 5.11731C5.2209 4.87721 5.3643 4.6586 5.54591 4.474C5.72753 4.2894 5.94378 4.14244 6.1823 4.04155C6.42082 3.94065 6.67692 3.8878 6.93591 3.88603C9.31322 3.87335 11.6902 3.87335 14.0669 3.88603C14.5081 3.89144 14.9349 4.04309 15.2806 4.31721C15.6262 4.59132 15.871 4.97239 15.9767 5.40063C16.0582 5.72745 16.0328 6.0597 16.0356 6.39014C16.0356 6.85004 16.3072 7.12797 16.76 7.12979C17.6884 7.12979 18.6166 7.12979 19.5445 7.12979C19.9972 7.12979 20.2879 6.88535 20.306 6.43993C20.3341 5.71024 20.3658 4.97603 20.2761 4.25087C19.9683 1.77754 17.9426 0.0139798 15.4397 0.0139798H10.481C9.56827 0.0139798 8.65459 0.0139798 7.74182 0.0139798C6.82905 0.0139798 5.93076 -0.028572 5.02523 0.0348004C2.59842 0.204095 0.640672 2.31802 0.639767 4.75332C0.639767 8.16728 0.630711 11.5803 0.639767 14.9934C0.6452 16.3396 1.16405 17.4866 2.1393 18.4119C3.07743 19.3027 4.21298 19.7282 5.50607 19.7291C8.79676 19.7291 12.0868 19.7291 15.3763 19.7291C15.7003 19.7291 16.0238 19.7055 16.3443 19.6585C18.4904 19.3407 20.2653 17.3662 20.3287 15.198C20.3549 14.2727 20.3413 13.3448 20.3377 12.4187C20.3413 11.9796 20.0344 11.6727 19.5816 11.6681Z" fill="#1E59A4"/>
<path d="M41.5299 7.47378C36.8212 7.47378 32.1124 7.47559 27.4037 7.47922C27.1827 7.47922 27.132 7.41946 27.132 7.20762C27.1411 5.06835 27.1375 2.92818 27.1375 0.788005C27.1375 0.236666 26.9211 0.0175781 26.3759 0.0175781H23.0481C22.4595 0.0175781 22.2594 0.23214 22.2594 0.811544V9.85387C22.2594 12.8903 22.2594 15.9267 22.2594 18.9632C22.2594 19.472 22.4894 19.7092 22.9784 19.7101H26.3968C26.9111 19.7101 27.1366 19.4828 27.1366 18.965C27.1366 16.4935 27.1366 14.022 27.1311 11.5504C27.1311 11.3476 27.1864 11.3033 27.3829 11.3033C30.6585 11.3099 33.9338 11.3099 37.2088 11.3033C37.4043 11.3033 37.4587 11.344 37.4578 11.5477C37.4496 14.0346 37.4523 16.5206 37.4578 19.0075C37.4578 19.4738 37.6968 19.7092 38.1686 19.7101H41.5417C42.124 19.7101 42.3404 19.4901 42.3404 18.9007V8.27228C42.3359 7.68472 42.1231 7.47378 41.5299 7.47378Z" fill="#1E59A4"/>
<path d="M86.02 0.0140381H67.6378C67.1325 0.0140381 66.8925 0.254851 66.8916 0.76183C66.8916 1.53075 66.8916 2.29936 66.8916 3.06768C66.8916 3.64437 67.1216 3.87432 67.7011 3.87432C69.7078 3.87432 71.7153 3.87975 73.7229 3.86798C73.9611 3.86798 73.9946 3.93678 73.9946 4.15406C73.9879 9.09589 73.9864 14.0383 73.9901 18.9814C73.9901 19.434 74.2255 19.7056 74.6393 19.7056C76.1039 19.7056 77.5678 19.7056 79.0311 19.7056C79.1142 19.7086 79.197 19.695 79.2747 19.6656C79.3525 19.6362 79.4236 19.5917 79.4839 19.5345C79.665 19.3652 79.6894 19.1443 79.6894 18.9117C79.6894 13.9765 79.6879 9.04158 79.6849 4.10698C79.6849 3.92592 79.7239 3.86707 79.9167 3.86888C81.2071 3.87794 82.4975 3.87341 83.7879 3.87341C84.5422 3.87341 85.2974 3.87341 86.0517 3.87341C86.5234 3.87341 86.7662 3.62626 86.7671 3.16545C86.7671 2.36575 86.7671 1.56696 86.7671 0.769074C86.7716 0.23222 86.5543 0.0140381 86.02 0.0140381Z" fill="#1E59A4"/>
<path d="M37.7721 4.88365C39.1829 4.88365 40.5931 4.88365 42.0027 4.88365C42.269 4.88365 42.3332 4.81846 42.3332 4.54868C42.3332 3.14785 42.3332 1.74702 42.3332 0.346188C42.3332 0.0745922 42.2735 0.0157471 42.0009 0.0157471H37.7703C37.4986 0.0157471 37.4515 0.0601079 37.4515 0.327177C37.4515 1.02729 37.4515 1.7274 37.4515 2.42752C37.4515 3.12763 37.4515 3.83559 37.4515 4.5514C37.4515 4.84291 37.4886 4.88365 37.7721 4.88365Z" fill="#E41A22"/>
</svg>
