<svg width="45" height="41" viewBox="0 0 45 41" fill="none" xmlns="http://www.w3.org/2000/svg">
<g opacity="0.4">
<path d="M44.0832 22.2808C43.808 28.6568 39.8275 34.4914 32.7318 38.3067C24.0035 43.003 12.423 41.157 5.56881 34.0299C-2.92827 25.195 -1.52758 11.3591 8.58209 4.26783C18.076 -2.39358 30.9348 -1.15416 38.8712 7.26666C42.3468 10.9554 44.1211 15.3855 44.0832 22.2808ZM22.1061 24.1702C28.6274 24.1702 35.1486 24.1523 41.6692 24.1908C42.6062 24.1963 42.9453 23.935 43.0499 22.9844C43.2356 21.289 43.2611 19.6197 43.0451 17.9256C42.9481 17.169 42.6378 17.0246 41.9608 17.0253C28.701 17.0399 15.4411 17.0374 2.18124 17.0177C1.38664 17.0177 1.09082 17.2928 1.03441 18.0281C0.909998 19.6732 0.913228 21.3254 1.04405 22.97C1.12248 23.9762 1.58684 24.1991 2.54243 24.1922C9.06572 24.1503 15.587 24.1702 22.1061 24.1702ZM11.2672 25.149C7.29421 25.0705 7.30935 25.065 8.72174 28.7943C8.9701 29.4484 9.25699 29.7703 10.0158 29.7256C11.228 29.6568 12.4478 29.7064 13.662 29.7057C15.2788 29.7057 15.331 29.694 14.9864 28.1629C14.7607 27.1615 15.0985 25.7439 14.3128 25.2494C13.5753 24.7817 12.3067 25.149 11.2693 25.149H11.2672ZM33.0235 25.0705C32.502 25.0705 31.9661 25.1503 31.4625 25.0554C30.0081 24.7803 29.5554 25.4316 29.4185 26.8073C29.1289 29.7132 29.0622 29.7064 32.0376 29.7064C35.5325 29.7064 35.5325 29.7064 36.1757 26.2364C36.1847 26.15 36.1982 26.0641 36.2163 25.9791C36.4145 25.3298 36.2528 25.0162 35.4981 25.0595C34.678 25.1104 33.8504 25.0712 33.0255 25.0705H33.0235ZM25.4146 16.1201C26.1927 16.1201 26.9735 16.0864 27.7495 16.1304C28.4134 16.1689 28.7202 15.9674 28.6198 15.261C28.4856 14.3208 28.379 13.3771 28.2793 12.4335C28.205 11.7326 27.83 11.5249 27.1482 11.5627C26.1562 11.6177 25.1593 11.5772 24.1645 11.5765C22.2437 11.5765 22.2437 11.5765 22.1625 13.4748C22.049 16.1201 22.049 16.1201 24.6392 16.1208L25.4146 16.1201ZM11.4323 16.0919C12.3095 16.0919 13.232 16.323 14.1016 15.8897C14.802 15.541 14.8811 13.9803 14.8942 13.025C14.9107 11.811 15.0834 11.6335 13.7246 11.5957C13.3807 11.5861 13.0319 11.6047 12.6851 11.6047C9.06436 11.6047 9.06435 11.6047 8.10464 15.0437C8.08125 15.1269 8.05717 15.2095 8.03033 15.292C7.85834 15.8271 7.9925 16.1119 8.61648 16.0954C9.48126 16.074 10.3488 16.0947 11.4344 16.0947L11.4323 16.0919ZM32.6905 16.0919C33.556 16.0919 34.4221 16.0988 35.2883 16.0919C35.6219 16.0878 36.0622 16.1428 35.9652 15.5919C35.7409 14.3112 35.4733 12.9782 34.7778 11.9197C34.2893 11.1741 33.1631 11.6989 32.3273 11.6184C31.7267 11.5606 31.1061 11.6748 30.5117 11.5909C29.2452 11.4135 28.9872 11.9142 29.1894 13.0965C29.7075 16.0857 29.6655 16.0947 32.6953 16.0947L32.6905 16.0919ZM25.6271 25.0609C22.4226 25.0609 22.4226 25.0609 22.4309 28.3122C22.4419 28.4851 22.4419 28.6586 22.4309 28.8315C22.3483 29.5035 22.6194 29.7573 23.3087 29.7256C24.3909 29.6789 25.4882 29.6128 26.5573 29.7387C27.7853 29.8831 28.1919 29.3948 28.3597 28.2427C28.8262 25.0554 28.8695 25.0616 25.632 25.0616L25.6271 25.0609ZM18.5246 25.0705C17.8297 25.0705 17.1314 25.1173 16.4414 25.0582C15.6516 24.9894 15.512 25.3065 15.578 26.0328C15.9124 29.7015 15.8952 29.7036 19.5063 29.7057C19.6361 29.6947 19.7666 29.6947 19.8964 29.7057C21.2207 29.9382 21.6555 29.4588 21.6018 28.068C21.487 25.074 21.5716 25.0705 18.5287 25.0712L18.5246 25.0705ZM18.3615 16.0947C21.315 16.0947 21.315 16.0947 21.3246 13.1254C21.3246 12.8654 21.304 12.604 21.3294 12.3468C21.3851 11.7745 21.1189 11.5861 20.5727 11.5985C19.5331 11.6219 18.6594 11.5586 17.4541 11.5813C16.2488 11.604 15.9227 11.9341 15.7954 13.0614C15.4521 16.0995 15.3964 16.0947 18.3615 16.0947ZM39.8206 16.0947C40.5601 16.0947 41.299 16.0857 42.0379 16.0947C42.4954 16.1022 42.6646 15.9571 42.525 15.4756C42.1507 14.1791 41.8294 12.776 40.9076 11.8303C40.2746 11.181 39.079 11.6927 38.1399 11.6033C38.0539 11.595 37.9665 11.6033 37.8791 11.6033C35.8084 11.6033 35.8084 11.6033 36.4151 13.5835C37.1836 16.0947 37.1836 16.0947 39.8206 16.0947V16.0947ZM4.10275 16.0947C6.77343 16.0947 6.77342 16.0947 7.66778 13.5498C7.81087 13.1426 7.90994 12.7134 8.10257 12.331C8.42592 11.6899 8.11978 11.5937 7.57147 11.6026C6.70601 11.617 5.82472 11.7106 4.97853 11.5827C3.50903 11.3605 2.81624 12.0077 2.30646 13.3207C1.22085 16.1167 1.16238 16.0947 4.10275 16.0947V16.0947ZM9.61266 30.5819C11.1461 34.5382 12.207 35.2989 15.8353 35.1902C15.8784 35.1872 15.9216 35.1872 15.9647 35.1902C16.612 35.2673 16.8212 35.063 16.5838 34.3958C16.222 33.382 15.8959 32.3524 15.6331 31.3083C15.5065 30.8027 15.32 30.5689 14.7814 30.5751C13.1034 30.5943 11.4254 30.5819 9.61266 30.5819V30.5819ZM31.7411 30.5758C31.0043 30.5758 30.2668 30.5902 29.5307 30.5709C29.0319 30.5579 28.7512 30.7023 28.615 31.245C28.3398 32.3317 27.9862 33.3985 27.6443 34.4674C27.4915 34.944 27.5541 35.1373 28.1307 35.1937C30.5014 35.4275 32.6183 35.2074 33.6289 32.5917C33.7362 32.3166 33.9453 32.0765 34.0946 31.8131C34.7771 30.6108 34.7613 30.5833 33.4314 30.5751C32.868 30.5723 32.3045 30.5751 31.7411 30.5758V30.5758ZM8.00627 29.7139C7.72351 28.6251 7.35406 27.6801 7.25568 26.7075C7.11809 25.3615 6.5629 24.8326 5.19179 25.043C4.01399 25.2239 2.7956 24.8663 1.61436 25.2157C1.81249 26.6092 2.43992 27.8417 3.05909 29.0777C3.0983 29.1547 3.15747 29.2221 3.19668 29.2999C3.34528 29.6094 3.58815 29.7215 3.92938 29.7187C5.26334 29.7077 6.59525 29.7132 8.00627 29.7132V29.7139ZM25.1366 10.6328C25.6581 10.6328 26.1858 10.5826 26.7004 10.6431C27.7502 10.7676 28.0646 10.4003 27.6415 9.41675C27.5576 9.22141 27.5507 8.99374 27.4964 8.78396C26.7946 6.05818 26.7939 6.04237 24.0194 6.06438C22.1791 6.07882 22.3098 5.68058 22.2995 7.80452C22.2809 10.6335 22.2898 10.6335 25.138 10.6328H25.1366ZM36.2569 29.7132C37.5572 29.7132 38.812 29.7009 40.0662 29.7194C40.5106 29.7263 40.7982 29.575 40.9977 29.174C41.5384 28.088 42.0496 26.9909 42.4156 25.8313C42.5848 25.2968 42.4686 25.0348 41.8349 25.0506C40.5333 25.0836 39.231 25.0657 37.9287 25.0582C37.5358 25.0582 37.3095 25.1565 37.2125 25.6084C36.9325 26.9544 36.594 28.2888 36.2569 29.7132ZM25.2598 30.5682C22.435 30.5682 22.435 30.5682 22.4391 33.435C22.4391 33.825 22.4391 34.2156 22.4453 34.6042C22.4494 34.8794 22.5141 35.1545 22.8505 35.1545C23.9774 35.1545 25.1579 35.3326 26.2119 35.0486C26.9253 34.856 26.9535 33.7527 27.2081 33.0333C28.079 30.573 28.0584 30.5654 25.5233 30.5647L25.2598 30.5682ZM27.6677 6.05681C28.0275 7.45237 28.3625 8.65809 28.6411 9.87758C28.7718 10.4471 29.0491 10.6569 29.6325 10.641C30.8915 10.6066 32.1518 10.6156 33.4115 10.6349C34.0884 10.6445 34.2756 10.4657 33.9295 9.80536C33.3534 8.68835 32.6984 7.6138 31.9695 6.58986C31.6868 6.19781 31.3503 6.03961 30.8688 6.04855C29.8334 6.07744 28.7932 6.05887 27.6697 6.05887L27.6677 6.05681ZM12.4801 10.628C13.2754 10.628 13.9248 10.5984 14.5715 10.6369C15.0909 10.6679 15.3613 10.487 15.4893 9.97456C15.75 8.92978 16.0596 7.89738 16.3403 6.85741C16.4428 6.47499 16.5618 6.14966 15.9275 6.04305C13.5444 5.64481 12.5847 6.0121 11.3126 8.05626C10.8448 8.80872 9.44962 10.1665 10.2119 10.3872C11.2879 10.7009 11.4929 10.5716 12.4822 10.63L12.4801 10.628ZM11.367 6.18061C7.78404 5.71015 5.25852 7.23227 4.02362 10.6307C5.43533 10.6307 6.81402 10.6307 8.19339 10.6307C8.5071 10.6307 8.82081 10.6225 8.99624 10.3198C9.79153 8.95385 10.5717 7.57755 11.369 6.18268L11.367 6.18061ZM19.0605 30.5682C16.2103 30.5682 16.2103 30.5682 17.1342 33.3118C17.1636 33.3935 17.188 33.4769 17.2071 33.5615C17.4534 34.8058 18.1145 35.301 19.4664 35.2123C21.5716 35.0747 21.5785 35.1779 21.5785 33.0684C21.5792 30.5703 21.5792 30.5702 19.0626 30.5702L19.0605 30.5682ZM18.8651 10.6314C19.2531 10.6314 19.6453 10.6417 20.0285 10.641C21.187 10.641 21.4422 10.2971 21.3666 9.28606C21.306 8.47239 21.3714 7.64909 21.3666 6.8306C21.3666 6.54378 21.4429 6.11734 21.0446 6.09877C19.9693 6.04925 18.8507 5.91169 17.8242 6.14279C17.0799 6.31061 17.1232 7.3375 16.9168 8.0088C16.1208 10.6273 16.136 10.6328 18.8672 10.6335L18.8651 10.6314ZM32.7276 6.03136C33.6908 7.49707 34.4544 8.74545 35.0585 10.0784C35.2167 10.4278 35.4203 10.6362 35.8324 10.6287C37.0873 10.6163 38.3421 10.6204 39.597 10.6287C40.1185 10.6287 40.2162 10.4223 39.93 10.0096C38.9668 8.61339 37.9349 7.22952 36.528 6.30717C35.5022 5.63449 34.1868 6.17511 32.7297 6.03342L32.7276 6.03136ZM4.18392 30.6927C6.18522 34.4013 8.38052 35.7536 11.1035 34.9633C10.7836 34.4894 10.3467 34.0691 10.1768 33.556C9.20677 30.6528 7.06306 30.1294 4.39031 30.5984C4.3199 30.6254 4.2516 30.6576 4.18599 30.6947L4.18392 30.6927ZM32.8934 35.2879C34.2515 34.9763 35.3873 35.5809 36.3333 34.8298C37.5936 33.8325 38.6442 32.6199 39.6101 31.3365C39.9761 30.8509 39.9747 30.5654 39.2558 30.5758C38.3036 30.5895 37.3501 30.5971 36.3979 30.5716C35.9556 30.5599 35.6543 30.6975 35.4678 31.104C34.8425 32.481 33.9625 33.708 32.8955 35.29L32.8934 35.2879ZM22.8911 1.60051C22.839 1.56513 22.7783 1.54471 22.7154 1.54148C22.6525 1.53826 22.5899 1.55235 22.5345 1.58221C22.4791 1.61208 22.433 1.65658 22.4011 1.71087C22.3692 1.76515 22.3529 1.82714 22.3538 1.89007C22.3538 2.06065 22.3538 2.20578 22.3538 2.35022C22.305 5.35662 22.3036 5.3353 25.2838 5.19292C26.0028 5.15922 26.1245 4.99346 25.7448 4.38956C25.0403 3.27463 24.1136 2.40731 22.8911 1.60051ZM19.3034 39.2648C17.1445 35.8643 16.4889 35.5321 13.662 36.3313C15.2375 37.8342 17.0152 38.784 19.3034 39.2648V39.2648ZM30.5172 36.2385C27.2108 35.7446 26.752 35.9943 25.1146 39.0908C26.8937 38.9581 29.1034 37.8101 30.5165 36.235L30.5172 36.2385ZM9.33473 5.06843C10.4052 5.07324 11.6229 5.59666 12.4168 4.99965C13.7171 4.01883 14.8694 2.82755 16.2791 1.93409C13.6442 2.30482 11.3883 3.44658 9.33404 5.06499L9.33473 5.06843ZM25.7771 36.1965C21.6404 35.9902 22.5863 35.6607 22.4618 39.0592C22.4549 39.2573 22.4776 39.5406 22.5994 39.6397C22.8498 39.8371 23.0714 39.5874 23.2605 39.4285C24.2946 38.5571 25.0727 37.4916 25.7771 36.1931V36.1965ZM21.6762 3.30902C21.7167 2.68999 21.8055 1.85843 21.1258 1.62458C20.6036 1.44437 20.0663 2.23673 19.6522 2.71475C19.1768 3.265 18.7702 3.87509 18.3643 4.48036C18.2109 4.70802 17.9804 5.11864 18.4909 5.14684C19.3852 5.19567 20.3484 5.30573 21.1574 5.0251C21.6933 4.83527 21.5785 4.02228 21.6762 3.30558V3.30902ZM25.2536 2.03245C27.1111 5.19636 28.132 5.75555 30.4821 4.92124C29.0312 3.43902 27.3085 2.56344 25.2508 2.02901L25.2536 2.03245ZM21.511 39.835C21.5551 35.3381 22.199 36.1429 18.7083 36.1394C18.6808 36.1394 18.6532 36.1979 18.5493 36.3169C19.258 37.5811 20.0766 38.7847 21.5083 39.8316L21.511 39.835ZM35.064 5.04367C32.8446 3.65774 30.9155 2.36604 28.4836 2.1762C29.2128 2.71132 29.7563 3.2595 30.606 3.80286C32.116 4.76579 33.1081 5.40477 35.064 5.04023V5.04367ZM18.3079 2.37911C16.6299 2.842 15.1934 3.67218 13.8086 5.04367C16.9306 5.39651 16.9911 5.36006 18.3079 2.37566V2.37911ZM29.7859 38.2826C31.5209 38.1684 32.8522 37.1897 34.3808 36.3066C31.9833 35.3251 31.1742 37.4229 29.7859 38.2785V38.2826ZM9.83144 36.3506C11.3546 37.3685 12.8461 38.0639 14.4642 38.4828C13.1626 37.3527 12.2531 35.422 9.83144 36.3464V36.3506Z" fill="#35488E"/>
<path d="M25.7965 17.8375C27.2247 17.8375 28.6075 17.7323 29.9676 17.8651C31.4901 18.0143 31.8561 18.808 31.1172 20.1121C30.9335 20.4368 31.0402 20.4877 31.2376 20.7016C32.3129 21.8667 31.9689 22.9026 30.3735 23.2238C28.882 23.523 27.3692 23.3737 25.7552 23.3524C26.8856 22.3743 26.8773 18.8053 25.7965 17.8375ZM28.3489 21.7016C28.481 22.0621 28.0682 22.7334 28.8531 22.7664C29.4874 22.7959 29.9594 22.4782 29.9498 21.7773C29.9408 21.1521 29.5129 20.8914 28.9316 20.8213C28.1659 20.7291 28.4183 21.3034 28.3489 21.7016ZM28.3489 19.2819C28.4445 19.5963 28.1349 20.1465 28.8222 20.1073C29.3622 20.075 29.7213 19.815 29.709 19.22C29.6959 18.601 29.2384 18.3899 28.7493 18.3988C28.1267 18.4084 28.4555 18.9669 28.3475 19.2819H28.3489Z" fill="#35488E"/>
<path d="M21.9773 23.4632C20.8126 23.5072 19.9382 23.2809 19.2103 22.6681C18.5911 22.1467 18.2224 21.472 18.2045 20.6342C18.1694 19.0041 19.5584 17.7874 21.5391 17.722C23.7288 17.6498 25.254 18.729 25.3394 20.4114C25.4212 22.0477 24.1506 23.316 22.2786 23.4618C22.1784 23.4708 22.0776 23.4713 21.9773 23.4632V23.4632ZM23.3704 20.5317C23.3608 19.3762 23.0766 18.6747 22.4616 18.3913C21.9621 18.1622 21.4586 18.1774 20.9852 18.4889C19.9478 19.1726 19.923 21.9706 20.9474 22.6846C21.1163 22.8013 21.308 22.8807 21.51 22.9176C21.712 22.9544 21.9195 22.9477 22.1187 22.8981C22.3179 22.8484 22.5042 22.7569 22.6652 22.6296C22.8263 22.5023 22.9583 22.3421 23.0526 22.1598C23.3195 21.6591 23.4007 21.1026 23.3704 20.5317V20.5317Z" fill="#35488E"/>
<path d="M38.1519 21.4988C38.2895 23.3807 38.2895 23.3807 36.5455 23.382H32.2746C33.3622 22.3056 33.0148 18.4415 32.1542 17.7771C34.0378 17.7771 35.7103 17.6739 37.3628 17.8128C38.4993 17.9078 37.7556 18.8728 37.856 19.4994C37.2204 18.9443 36.7133 18.2269 35.746 18.3301C35.3924 18.3679 34.9948 18.3156 34.9728 18.7985C34.9535 19.2215 34.9398 19.6871 35.0959 20.0613C35.1991 20.3082 35.5775 20.148 35.744 19.9347C35.9421 19.6802 36.0838 19.3845 36.4127 18.8267V21.9094C36.2565 21.8262 36.1052 21.798 36.0632 21.7148C35.8719 21.3324 35.724 20.7415 35.2094 20.9396C34.6694 21.146 34.9941 21.7794 34.9714 22.2176C34.9398 22.8435 35.422 22.8366 35.8809 22.8297C36.8681 22.816 37.6304 22.4225 38.1519 21.4988Z" fill="#35488E"/>
<path d="M10.5802 17.6821C10.6414 18.482 10.7143 19.0742 10.5451 19.6885C9.98301 19.6706 9.94381 19.1121 9.62528 18.8631C8.84238 18.2564 7.99205 18.0246 7.07431 18.4249C6.13662 18.8376 5.98388 19.7318 5.98526 20.6149C5.98664 21.4981 6.09672 22.3943 7.09564 22.763C7.6522 22.9693 8.38281 23.2547 8.72129 22.6041C9.00129 22.0655 9.03637 21.2938 8.11519 20.9643H11.2365C11.2888 21.4231 10.5416 21.3261 10.64 21.8365C10.9235 23.3084 9.79314 23.3132 8.88159 23.4184C7.76159 23.5484 6.63058 23.5725 5.57937 23.0058C4.67951 22.5243 4.06998 21.8509 4.01425 20.7848C3.95578 19.6761 4.47174 18.8645 5.38467 18.2998C6.52187 17.5975 7.77603 17.5122 9.03087 17.8382C9.56404 17.9813 10.0229 18.0088 10.5802 17.6821Z" fill="#35488E"/>
<path d="M14.9716 17.8513C14.2906 18.1767 14.1151 18.6492 14.1763 19.3232C14.2321 19.9257 14.1268 20.5455 14.2052 21.1432C14.274 21.6852 13.7925 22.5188 14.596 22.7169C15.4615 22.9308 16.4398 22.961 16.997 21.9383C17.1071 21.7319 17.1085 21.3997 17.469 21.4032C17.7971 23.1619 17.6341 23.3792 15.9809 23.3813C14.5128 23.3813 13.044 23.3813 11.4582 23.2864C12.927 22.688 12.3422 21.4981 12.3422 20.5592C12.3422 19.6451 12.905 18.4676 11.1266 17.8513H14.9716Z" fill="#35488E"/>
</g>
</svg>
