<svg width="97" height="23" viewBox="0 0 97 23" fill="none" xmlns="http://www.w3.org/2000/svg">
<g opacity="0.4">
<path d="M12.0052 0.0453576C18.1531 -0.0800134 22.9554 5.31094 22.9659 11.0369C22.9771 16.8876 17.9725 22.1545 11.6636 22.0786C6.00787 22.0089 0.828956 16.7991 0.931176 10.8259C1.02919 5.16885 5.72502 -0.0598148 12.0052 0.0453576ZM12.5948 11.0285V17.848C12.5948 18.5605 12.5948 18.5571 13.2949 18.4408C15.1215 18.1378 16.673 17.3222 17.9788 16.0141C20.1114 13.878 20.5756 10.899 19.5429 8.47656C18.3135 5.59094 16.0422 3.96459 12.8832 3.61076C12.5892 3.57803 12.5905 3.68459 12.5912 3.9005C12.5936 6.27652 12.5948 8.65253 12.5948 11.0285Z" fill="#067582"/>
<path d="M27.6345 9.03912C27.6345 9.4937 27.6345 9.8932 27.6345 10.2941C27.6406 12.0366 27.6474 13.7797 27.6549 15.5231C27.6647 17.6022 27.6717 19.6813 27.6949 21.7603C27.6949 22.026 27.6184 22.0852 27.3656 22.079C26.6867 22.0615 26.007 22.0629 25.3295 22.079C25.0486 22.0852 24.9693 21.9737 24.97 21.7143C24.9763 19.8319 24.9735 17.9494 24.9735 16.0669V0.526223C24.9735 0.0765252 24.9833 0.0674547 25.4292 0.0660603C26.231 0.0660603 27.0328 0.0660658 27.8346 0.0542133C27.9929 0.0462444 28.1487 0.0958176 28.2728 0.193655C30.8903 2.19882 33.5097 4.20074 36.131 6.1994L44.0572 12.2539C44.1085 12.2937 44.1647 12.3271 44.2293 12.3704C44.3079 12.2658 44.2721 12.1514 44.2721 12.0476C44.2791 8.15064 44.2824 4.25396 44.2819 0.357505C44.2819 0.121849 44.3212 0.0353955 44.5838 0.043762C45.2628 0.0653754 45.9424 0.0507245 46.62 0.0514217C46.9767 0.0514217 47.0062 0.0807071 47.0062 0.437677V21.6265C47.0062 22.0329 47.0062 22.0336 46.5947 22.0336C46.0099 22.0336 45.425 22.0336 44.8394 22.0336C44.7081 22.0376 44.5798 21.9945 44.4778 21.9123C40.9204 19.1881 37.3629 16.4655 33.8055 13.7446C31.8447 12.2442 29.8834 10.7431 27.9217 9.2413C27.8487 9.17925 27.7686 9.13045 27.6345 9.03912Z" fill="#057582"/>
<path d="M56.4289 6.85247L58.729 5.32389C61.323 3.59666 63.917 1.86804 66.511 0.138016C66.6071 0.0740915 66.7227 0.0422195 66.8399 0.0473991C67.6387 0.0473991 68.4381 0.0557594 69.2369 0.0432129C69.4182 0.0432129 69.5019 0.108729 69.5687 0.248135C69.7156 0.55413 69.8624 0.859433 70.0224 1.15985C70.1406 1.3822 70.0958 1.52997 69.8756 1.67704C67.7774 3.06691 65.6741 4.44913 63.5487 5.80067C63.2213 6.00978 62.9049 6.23212 62.5664 6.42241C62.3653 6.53533 62.38 6.62734 62.4871 6.79602C63.8791 8.98934 65.2671 11.1852 66.6512 13.3836L71.8571 21.635C71.8923 21.6915 71.9224 21.7507 71.9613 21.8044C72.0935 21.9877 72.0898 22.0895 71.8145 22.0728C71.5979 22.0595 71.3806 22.0728 71.1633 22.0728C70.3447 22.0728 69.5254 22.0672 68.7068 22.077C68.6212 22.0861 68.5348 22.0697 68.4594 22.0301C68.3841 21.9905 68.3235 21.9297 68.2862 21.856C66.9437 19.7008 65.5955 17.5488 64.2417 15.4001C62.8111 13.1195 61.3815 10.8381 59.9529 8.55602C59.8582 8.40337 59.8016 8.42288 59.6702 8.5107C58.6857 9.16312 57.7012 9.81554 56.7028 10.4484C56.4825 10.5878 56.426 10.7398 56.4267 10.9754C56.4348 13.4568 56.4319 15.9382 56.4319 18.4203C56.4319 19.5439 56.4268 20.6683 56.4363 21.7919C56.4363 22.001 56.4003 22.0797 56.1522 22.0791C53.9027 22.0686 51.6541 22.0735 49.4046 22.0728C49.0633 22.0728 49.0082 22.0198 49.0082 21.6985C49.0082 14.6088 49.0082 7.51953 49.0082 0.430764C49.0082 0.11292 49.0691 0.0543585 49.4054 0.0536615C51.6541 0.0536615 53.9035 0.0578546 56.1522 0.0473991C56.4018 0.0473991 56.437 0.129641 56.4363 0.335961C56.429 2.39637 56.4319 4.4568 56.4319 6.51721L56.4289 6.85247Z" fill="#057582"/>
<path d="M92.5116 22.0729C91.4282 22.0729 90.3449 22.0681 89.2587 22.0778C89.0614 22.0778 88.9525 22.0276 88.8761 21.8415C88.5168 20.9671 88.1399 20.0984 87.7807 19.2255C87.71 19.0526 87.6187 18.9912 87.4271 18.9919C84.4528 18.9989 81.4784 18.9989 78.5041 18.9919C78.3012 18.9919 78.2213 19.0728 78.1548 19.2352C77.7927 20.0984 77.4179 20.9567 77.0608 21.822C76.9809 22.0158 76.8777 22.0834 76.6627 22.0792C75.8848 22.0653 75.1069 22.0743 74.3291 22.0736C74.0059 22.0736 74.0023 22.0737 74.1254 21.7857C74.8538 20.1003 75.5828 18.4158 76.3126 16.7322C78.3398 12.0375 80.367 7.34399 82.3942 2.65165C82.7358 1.86099 83.0802 1.07104 83.4125 0.276901C83.4833 0.102594 83.5837 0.0412307 83.7753 0.0433224C84.6395 0.0537808 85.5043 0.0558725 86.3692 0.0433224C86.5969 0.0398362 86.7065 0.11932 86.7935 0.322214C87.8778 2.85222 88.9668 5.38084 90.0606 7.90806C91.4777 11.1915 92.8951 14.4746 94.3127 17.7571C94.8785 19.0637 95.4406 20.3713 95.9993 21.6797C96.1535 22.0416 96.1259 22.0764 95.7363 22.0764L92.5116 22.0729ZM83.0017 7.98544C82.9663 8.02449 82.9508 8.03496 82.9444 8.0496C81.8822 10.5276 80.8194 13.005 79.7558 15.482C79.666 15.6912 79.7049 15.7407 79.9383 15.7393C81.8193 15.731 83.7004 15.7344 85.5821 15.7344C85.7532 15.7344 85.9244 15.7303 86.0948 15.7344C86.2292 15.7386 86.3013 15.7107 86.2249 15.5629C86.1952 15.5044 86.1761 15.4409 86.15 15.3809L83.6204 9.43847L83.0017 7.98544Z" fill="#067582"/>
<path d="M92.5588 5.05135C91.1552 5.04111 90.0696 3.93302 90.0764 2.51857C90.0821 2.02364 90.2344 1.5415 90.5139 1.13304C90.7935 0.724579 91.1878 0.408115 91.6471 0.223639C92.1065 0.0391619 92.6101 -0.00506315 93.0946 0.0965534C93.579 0.19817 94.0225 0.441066 94.3689 0.794564C94.7154 1.14806 94.9493 1.59631 95.0412 2.08267C95.133 2.56904 95.0787 3.07173 94.885 3.52722C94.6913 3.98272 94.3669 4.3706 93.9529 4.64187C93.5389 4.91314 93.0538 5.05563 92.5588 5.05135V5.05135ZM92.5759 0.386322C92.1489 0.385243 91.7313 0.510919 91.3759 0.747422C91.0205 0.983925 90.7433 1.32061 90.5794 1.71481C90.4155 2.10902 90.3724 2.543 90.4554 2.96176C90.5384 3.38052 90.7439 3.7652 91.0457 4.06706C91.3476 4.36893 91.7323 4.57439 92.1511 4.65741C92.5698 4.74043 93.0038 4.69728 93.3981 4.53341C93.7923 4.36954 94.129 4.09234 94.3655 3.73693C94.602 3.38152 94.7277 2.9639 94.7266 2.53699C94.7243 1.96732 94.4969 1.42166 94.0941 1.01883C93.6912 0.61601 93.1455 0.388658 92.5759 0.386322Z" fill="#067582"/>
<path d="M93.568 2.66518C93.8965 2.82148 94.0405 3.09852 94.0399 3.48669C94.0399 3.58596 94.0399 3.68596 94.0443 3.78301C94.0481 3.91857 94.083 4.06154 93.8819 4.04302C93.7335 4.02969 93.6029 4.04304 93.6282 3.79784C93.6333 3.72858 93.6333 3.65893 93.6282 3.58967C93.6124 3.09779 93.4513 2.90518 93.0365 2.88222C92.5513 2.85481 92.5513 2.85482 92.5513 3.42744C92.544 3.52604 92.544 3.62517 92.5513 3.72376C92.5938 4.00303 92.4878 4.06303 92.269 4.04747C92.125 4.0371 92.0787 3.99191 92.0787 3.82524C92.0851 2.96889 92.0819 2.11329 92.0819 1.25695C92.0819 1.15768 92.0667 1.04805 92.2005 1.05175C92.6007 1.0636 93.0029 1.01248 93.4005 1.08286C93.8331 1.15693 94.0285 1.37918 94.0735 1.79921C94.1185 2.21923 93.9904 2.44294 93.568 2.66518ZM92.5532 1.95253C92.5532 2.08217 92.5532 2.21107 92.5532 2.3407C92.5532 2.4296 92.5665 2.49776 92.6623 2.49628C92.883 2.49628 93.1062 2.51702 93.3219 2.44442C93.419 2.42076 93.505 2.35527 93.5627 2.26098C93.6204 2.16669 93.6456 2.0505 93.6333 1.9355C93.6206 1.58733 93.4608 1.4488 93.0346 1.43102C92.5519 1.41102 92.5519 1.41102 92.5519 1.95253H92.5532Z" fill="#067582"/>
</g>
</svg>
