<svg width="77" height="41" viewBox="0 0 77 41" fill="none" xmlns="http://www.w3.org/2000/svg">
<g opacity="0.4">
<path d="M0.835875 20.5141C0.835875 15.8898 0.835875 11.2648 0.835875 6.6393C0.841359 3.16694 2.41251 1.40426 5.914 1.39513C7.35902 1.39513 8.86619 1.43625 9.98583 2.6534C10.3926 3.09658 10.6686 2.74478 11.0168 2.50262C11.9875 1.82277 13.6409 1.38782 15.2861 1.39513C16.9705 1.40244 18.6477 1.86846 19.6248 2.61868C20.3605 3.18248 20.5826 2.63878 20.9958 2.33541C23.5897 0.416473 28.1395 1.54317 29.3377 4.37405C29.6119 5.01918 29.6412 5.66887 29.6412 6.33684C29.6412 13.5813 29.6433 20.826 29.6476 28.071C29.6476 30.0037 28.9383 31.5516 27.3955 32.7414C24.3793 35.0697 21.3933 37.4473 18.3589 39.7574C16.2128 41.3912 14.2843 41.393 12.1328 39.7574C9.09743 37.4519 6.11874 35.0733 3.09343 32.7551C1.53965 31.5672 0.834048 30.0055 0.834962 28.0838C0.837399 25.5618 0.837703 23.0386 0.835875 20.5141ZM2.81101 19.8946C2.81101 23.0096 2.8366 25.5326 2.80095 28.0555C2.78085 29.4527 3.28537 30.5044 4.41415 31.3606C7.36725 33.6021 10.2719 35.9067 13.2022 38.1783C14.6444 39.2968 15.8354 39.2977 17.2685 38.1847C20.1933 35.9113 23.1016 33.6085 26.0501 31.3625C27.167 30.5117 27.7044 29.4755 27.6999 28.0729C27.6798 20.8467 27.6798 13.6206 27.6999 6.39441C27.7063 4.92049 27.1954 3.71613 25.7366 3.50413C23.5266 3.1834 22.279 3.18979 21.3385 4.80078C20.6631 5.95762 19.6522 5.99417 18.9987 4.85652C18.5901 4.14286 18.0527 3.54068 17.2521 3.48037C15.9147 3.38536 14.5724 3.38536 13.2351 3.48037C12.5551 3.52606 12.0469 4.03869 11.6639 4.62534C10.7673 6.00149 10.0919 6.01245 9.21991 4.67925C8.42931 3.47124 6.35729 2.89464 4.58781 3.49134C3.2351 3.94823 2.81192 4.9945 2.78085 6.38618C2.74337 8.05839 2.79364 9.89418 2.77262 11.3279C2.72601 14.8606 2.83386 17.4173 2.81101 19.8946V19.8946Z" fill="#1E2528"/>
<path d="M60.2525 20.05C62.5375 20.5982 62.9716 21.6609 62.7057 25.1909C62.5549 27.2012 61.4617 28.3681 59.4638 28.4522C56.2228 28.5883 52.9744 28.5289 49.727 28.5636C48.9099 28.5728 48.6577 28.1232 48.6586 27.3949C48.6641 22.5628 48.6641 17.7305 48.6586 12.8978C48.6586 12.0215 49.0964 11.7501 49.9181 11.7602C52.7514 11.7958 55.5848 11.7602 58.4182 11.815C60.7178 11.8625 61.958 12.6977 62.3702 14.3187C63.0503 16.9888 62.405 18.8109 60.2525 20.05ZM55.5272 24.957C56.3589 25.0008 56.7803 25.0081 57.3141 24.8482C57.8624 24.6837 58.0452 24.4827 58.1001 24.4288C58.4657 24.0121 58.4227 23.4382 58.399 23.0992C58.3734 22.7246 58.3469 22.3253 58.0617 22.0246C57.7765 21.724 57.3735 21.6929 56.5545 21.618C56.0222 21.575 55.4873 21.575 54.955 21.618C54.1105 21.6655 53.6837 21.6929 53.4735 21.8775C53.0476 22.2531 53.0686 22.9165 53.0814 23.3268C53.0942 23.7544 53.1097 24.2853 53.4698 24.6408C53.6078 24.7815 53.7751 24.8628 55.5272 24.957ZM56.3498 18.513C57.4365 18.3768 57.6998 18.1082 57.793 17.9985C58.1312 17.601 58.1312 17.0793 58.1312 16.9093C58.1312 16.7 58.1312 16.1719 57.7747 15.7991C57.485 15.4939 57.0664 15.4527 56.2282 15.3723C55.7519 15.3111 55.2696 15.3111 54.7933 15.3723C53.9789 15.4838 53.5265 15.5459 53.2395 15.9288C52.767 16.5493 53.1143 17.4914 53.1417 17.5617C53.1991 17.7242 53.2824 17.8764 53.3885 18.0122C54.0237 18.8036 55.4093 18.6299 56.3498 18.513Z" fill="#161D20"/>
<path d="M32.3119 20.0472C32.3119 17.7317 32.3412 15.4162 32.2991 13.1025C32.2799 12.1065 32.6483 11.7318 33.6573 11.7556C37.1223 11.8205 36.6735 11.4166 36.6991 14.6559C36.7055 15.376 36.6936 16.097 36.6991 16.817C36.7046 17.2739 36.6077 17.8048 37.1999 17.9729C37.7182 18.1201 38.0975 17.8094 38.3717 17.4119C39.2144 16.1929 40.313 14.0464 41.4171 12.9581C43.4654 10.9387 46.4724 11.6405 46.8316 11.7848C46.9384 11.8209 47.0284 11.8946 47.0848 11.9923C47.2392 12.3075 46.8471 12.7918 46.6972 12.9773C45.1791 14.856 43.9781 16.9714 42.5313 18.905C41.918 19.7274 41.9829 20.3241 42.5678 21.0981C44.1481 23.1888 45.6571 25.3325 47.2164 27.4397C47.2986 27.5503 47.6889 27.9596 47.5673 28.2054C47.4604 28.4229 46.9678 28.4969 46.6195 28.5499C46.5592 28.5591 46.5044 28.5655 46.4705 28.5691C44.1179 28.8067 42.7095 28.1378 42.7095 28.1378C41.748 27.6234 40.9665 26.7443 40.3633 25.4641C39.8679 24.4142 39.027 23.5223 38.3178 22.5775C38.0344 22.1992 37.6423 21.8465 37.1369 22.0603C36.71 22.243 36.6918 22.6999 36.6936 23.1303C36.7018 24.5193 36.6662 25.91 36.7064 27.2981C36.7329 28.2228 36.36 28.5874 35.4268 28.5774C31.7178 28.539 32.3512 28.8698 32.3083 25.6076C32.2891 23.7517 32.3119 21.8995 32.3119 20.0472Z" fill="#161D20"/>
<path d="M67.7209 22.0949C67.7209 20.4501 67.6688 18.7998 67.7383 17.1605C67.7877 15.9991 67.3142 15.5422 66.1946 15.6583C66.0917 15.6642 65.9885 15.6642 65.8856 15.6583C63.7259 15.6437 62.8695 14.379 63.6226 12.3531C63.6782 12.1923 63.7776 12.0502 63.9096 11.9429C64.1993 11.7007 64.5668 11.7071 64.6892 11.7071C73.2451 11.6815 73.8666 11.7071 75.1087 11.7619C75.308 11.7702 75.8344 11.7884 76.1525 12.154C76.3243 12.3513 76.3847 12.5926 76.4139 12.9526C76.4934 13.934 76.5574 14.7171 76.1022 15.1457C75.3857 15.8209 74.1746 14.8715 73.0559 15.714C72.8356 15.8858 72.6495 16.0976 72.5075 16.3381C71.8677 17.3369 72.1273 18.5047 72.1273 19.0658C72.1273 21.6901 72.0724 24.3163 72.1501 26.938C72.1894 28.2437 71.6931 28.6184 70.4373 28.5919C67.7228 28.5371 67.7209 28.5919 67.7209 25.9584V22.0949Z" fill="#161D20"/>
<path d="M76.9875 4.69844C77.0122 6.82114 75.4611 8.40563 73.3224 8.44492C71.1498 8.48148 69.5887 6.99659 69.543 4.84739C69.4955 2.64884 71.105 0.967486 73.2529 0.972055C74.2403 0.97779 75.1858 1.372 75.8847 2.06939C76.5836 2.76678 76.9798 3.71125 76.9875 4.69844V4.69844ZM73.1962 7.79432C74.9063 7.81533 76.3605 6.38893 76.3404 4.71032C76.3203 3.09476 74.9145 1.68846 73.294 1.66196C72.8843 1.65593 72.4775 1.73217 72.0977 1.88617C71.718 2.04016 71.373 2.26879 71.0832 2.55849C70.7934 2.8482 70.5648 3.19309 70.4107 3.57276C70.2567 3.95243 70.1804 4.35914 70.1865 4.7688C70.1993 6.47208 71.4935 7.77238 73.1962 7.79432V7.79432Z" fill="#1E2528"/>
<path d="M15.1421 11.8058C18.2378 11.8058 21.3344 11.8469 24.4292 11.7839C25.5945 11.7601 25.9391 12.175 25.9281 13.3071C25.8797 18.1968 25.8934 23.0846 25.9208 27.976C25.9254 28.8898 25.5973 29.5194 24.8816 30.0695C21.9833 32.2936 19.096 34.5324 16.2426 36.8123C15.4364 37.4519 14.8021 37.3678 14.049 36.7721C11.2275 34.5315 8.40328 32.2946 5.53792 30.1088C4.76103 29.5167 4.43656 28.8688 4.44113 27.8993C4.47586 23.0617 4.49048 18.2233 4.4329 13.3857C4.41919 12.185 4.74732 11.7464 6.00497 11.7793C9.05221 11.857 12.0976 11.8058 15.1421 11.8058ZM7.38875 21.4087C7.38875 23.0535 7.40246 24.6983 7.38326 26.3495C7.37321 27.1719 7.56606 27.8719 8.2415 28.3936C9.91319 29.6802 11.5885 30.9623 13.2447 32.2681C13.9092 32.7935 14.3415 32.7377 14.5864 31.8852C15.0964 30.1088 15.5918 28.3297 16.1347 26.5624C16.4153 25.6486 16.0982 25.2402 15.1878 25.0483C14.2336 24.8482 13.3233 24.4342 12.3673 24.2579C11.0877 24.0221 10.7824 23.4409 11.1791 22.2046C11.8042 20.2519 12.2759 18.2498 12.8242 16.2724C13.0811 15.344 12.9577 14.7847 11.7796 14.8734C10.7494 14.9391 9.71611 14.941 8.6857 14.8788C7.73606 14.8322 7.38144 15.2663 7.38875 16.1581C7.40063 17.9044 7.39058 19.6552 7.38875 21.4051V21.4087ZM17.97 31.0865L18.3082 31.3113C19.6417 30.2797 20.9843 29.2599 22.3051 28.2118C22.7913 27.8262 22.8535 27.2487 22.8535 26.6666C22.8535 23.1668 22.8379 19.6661 22.8635 16.1663C22.8699 15.2708 22.5838 14.8405 21.615 14.8788C20.2239 14.9337 18.8282 14.9117 17.4362 14.8852C16.7343 14.8715 16.1987 15.0863 16.0031 15.7871C15.5616 17.3689 15.1558 18.9616 14.7381 20.5497C14.5489 21.2661 14.7692 21.7486 15.5269 21.9469C16.472 22.1927 17.4024 22.5098 18.3603 22.7063C19.7404 22.9895 20.2797 23.568 19.7441 25.0666C19.0321 27.0284 18.5495 29.0762 17.97 31.0865Z" fill="#161D20"/>
<path d="M15.1684 10.51C12.1239 10.51 9.07851 10.4698 6.03583 10.5292C4.83668 10.553 4.29925 10.1637 4.43178 8.93284C4.49667 8.32153 4.44275 7.69833 4.44366 7.08062C4.44366 5.18545 5.16023 4.64266 7.01015 5.11143C7.3858 5.20281 7.69564 5.37642 7.8108 5.75107C7.97806 6.29934 7.69747 7.14458 8.56759 7.23504C9.84717 7.36754 11.1368 7.43242 12.4127 7.17747C12.6796 7.12448 12.835 6.89786 12.8789 6.6219C12.9703 6.03252 12.8432 5.23297 13.6713 5.15073C14.79 5.04016 15.9343 4.94239 17.0467 5.2421C17.2057 5.28505 17.4315 5.54182 17.4214 5.68437C17.2797 7.63985 18.6727 7.29993 19.8289 7.31089C20.3964 7.31638 20.9649 7.33008 21.5307 7.29627C22.0316 7.26703 22.4694 7.07056 22.4621 6.48026C22.4392 4.52113 23.9025 5.02462 24.9189 4.99355C26.2131 4.95426 25.9334 6.16684 25.9243 6.9472C25.8886 10.998 26.4727 10.4799 22.441 10.5109C20.0181 10.5265 17.596 10.51 15.1684 10.51Z" fill="#1E2528"/>
<path d="M71.8398 4.9077C71.8398 3.81117 71.9019 3.2693 72.1844 2.96684C72.6194 2.50081 73.3991 2.50172 73.8881 2.64793C74.2282 2.73034 74.5276 2.93201 74.7317 3.2163C74.9097 3.47511 74.9877 3.78977 74.951 4.10174C74.9169 4.31029 74.8342 4.5079 74.7096 4.67855C74.5849 4.84921 74.4219 4.98812 74.2335 5.08406C73.5937 5.40571 72.9768 4.98628 72.7346 5.3125C72.6852 5.37921 72.6807 5.55557 72.6697 5.90646C72.6532 6.44833 72.72 6.65211 72.5783 6.76998C72.4531 6.87415 72.2392 6.84948 72.1908 6.84399C72.1021 6.8447 72.0157 6.81541 71.9458 6.76085C71.7996 6.62195 71.8544 6.33867 71.8471 6.1349C71.8215 5.72736 71.8407 5.31799 71.8398 4.9077ZM74.1915 3.80112C74.1699 3.68594 74.1178 3.57864 74.0407 3.49043C73.7994 3.2163 73.4009 3.25742 73.2994 3.26656C73.1797 3.27844 72.9 3.30493 72.7163 3.53155C72.6296 3.64129 72.5772 3.77414 72.5655 3.91351C72.5459 4.10246 72.5956 4.29208 72.7053 4.44715C72.954 4.77246 73.4685 4.79987 73.7866 4.61712C73.8917 4.55555 73.9814 4.47086 74.0489 4.36948C74.1091 4.28886 74.1526 4.19712 74.1771 4.09957C74.2016 4.00201 74.2065 3.90057 74.1915 3.80112V3.80112Z" fill="#161D20"/>
<path d="M7.39001 21.405C7.39001 19.6551 7.40098 17.9043 7.39001 16.1544C7.3827 15.2626 7.73733 14.8285 8.68697 14.8751C9.71737 14.9373 10.7506 14.9355 11.7808 14.8697C12.959 14.7783 13.0823 15.3403 12.8255 16.2687C12.2771 18.2461 11.8073 20.2482 11.1803 22.2009C10.7846 23.4373 11.0889 24.0184 12.3685 24.2542C13.3246 24.4305 14.2349 24.8445 15.1891 25.0446C16.1031 25.2365 16.4166 25.6459 16.136 26.5587C15.5949 28.326 15.0977 30.1051 14.5877 31.8815C14.3427 32.734 13.9104 32.7898 13.2459 32.2644C11.5898 30.9586 9.91446 29.6765 8.24277 28.3899C7.56459 27.8682 7.37448 27.1636 7.38453 26.3458C7.40281 24.6992 7.3891 23.0516 7.39001 21.405Z" fill="#F2B21E"/>
<path d="M17.971 31.0865C18.5504 29.0762 19.033 27.0311 19.7395 25.0665C20.2788 23.5679 19.7395 22.9895 18.3558 22.7062C17.4006 22.5098 16.4702 22.1927 15.5224 21.9469C14.7647 21.7486 14.5444 21.2661 14.7336 20.5497C15.1513 18.9616 15.5562 17.3689 15.9986 15.7871C16.1942 15.0862 16.7298 14.8733 17.4317 14.8852C18.8237 14.9117 20.2194 14.9336 21.6105 14.8788C22.5793 14.8404 22.8654 15.2708 22.859 16.1663C22.8334 19.6661 22.8462 23.1668 22.8489 26.6665C22.8489 27.2486 22.7895 27.8261 22.3005 28.2117C20.9798 29.2598 19.6372 30.2796 18.3037 31.3113L17.971 31.0865Z" fill="#91A2AC"/>
</g>
</svg>
