<svg width="97" height="36" viewBox="0 0 97 36" fill="none" xmlns="http://www.w3.org/2000/svg">
<g opacity="0.4">
<path d="M47.7965 35.1844C46.9459 33.5425 46.1499 32.0195 45.3679 30.4879C44.8226 29.4169 44.2966 28.3459 43.7685 27.262C43.672 27.0617 43.596 26.8625 43.3399 26.885C43.0539 26.9107 43.0721 27.1517 43.0357 27.3562C42.8 28.665 42.7979 28.6747 41.4952 28.6522C30.0725 28.453 18.6499 28.2502 7.2272 28.0438C6.49444 28.031 6.49443 28.031 4.85645 27.8671C5.9545 27.6058 6.90045 27.6283 7.83996 27.6133C18.7898 27.4348 29.7394 27.2652 40.6885 27.1045C41.2467 27.097 41.5102 26.9267 41.6098 26.3977C41.8027 25.3684 42.0159 24.3434 42.2301 23.3184C42.289 23.0368 42.3715 22.7594 42.4572 22.4852C42.5108 22.3138 42.5493 22.0943 42.7529 22.0568C42.9896 22.0107 43.0421 22.2528 43.1246 22.3995C44.2423 24.3788 45.3518 26.3612 46.4531 28.3469C46.5602 28.5483 46.5666 28.8525 46.8666 28.8353C47.2265 28.816 47.1955 28.4926 47.2222 28.2377C47.234 28.1306 47.2351 28.0235 47.2426 27.9239C47.3315 26.7115 47.3315 26.7211 48.5346 26.6997C61.2463 26.4769 73.957 26.1642 86.672 26.1203C88.1118 26.1203 88.3668 25.9446 88.715 24.5898C89.1124 23.0432 89.4134 21.472 89.7863 19.9179C89.9287 19.3149 89.7531 19.1339 89.1264 19.135C86.732 19.1425 84.3356 19.2475 81.9434 19.0632C79.9937 18.9122 79.2834 18.0993 79.637 16.1715C80.1983 13.1062 80.8443 10.0548 81.5031 7.00881C81.9316 5.0242 81.9713 5.0317 83.9885 5.0317H85.0941C85.9318 5.0317 85.9586 5.10667 85.77 5.95171C85.154 8.71389 84.5456 11.4761 83.981 14.249C83.755 15.3586 84.0538 15.6916 85.2012 15.7174C86.8327 15.7527 88.4654 15.7366 90.0969 15.7506C90.5468 15.7506 90.7515 15.5363 90.8404 15.1079C91.4907 11.9795 92.1634 8.85634 92.803 5.72572C92.9101 5.22448 93.1115 5.0017 93.6386 5.0167C94.5588 5.0424 95.4812 5.02634 96.4025 5.02205C96.8588 5.02205 97.0752 5.12916 96.9381 5.67645C96.4442 7.68463 95.9836 9.70138 95.5454 11.7213C95.1105 13.7167 94.727 15.7216 94.2963 17.7191C93.6996 20.4834 93.074 23.2424 92.4752 26.0057C91.9524 28.4101 91.03 29.3441 88.5993 29.4608C84.0506 29.675 79.4934 29.5786 74.9416 29.4908C66.6249 29.3308 58.3086 29.1709 49.9926 29.011C49.4912 29.0013 49.2427 29.132 49.1356 29.6686" fill="#4749AC"/>
<path d="M39.6065 19.1779C37.9235 19.1072 35.8709 19.2946 33.8215 19.0708C32.0271 18.8769 31.4154 18.1626 31.6083 16.3697C31.8225 14.3872 32.3989 12.4743 32.7867 10.5261C33.0116 9.40477 33.1895 8.26841 33.6791 7.20595C34.279 5.89929 35.2667 5.23846 36.6786 5.14314C39.1747 4.97606 41.674 5.04461 44.1701 5.08317C44.7572 5.0928 45.0068 4.90537 45.1139 4.41056C45.34 3.36309 45.5756 2.31563 45.7567 1.25852C45.8788 0.540932 46.1102 0.243187 46.9737 0.228192C47.8371 0.213198 48.3728 0.245327 49.338 0.233546C49.895 0.226049 50.06 0.418835 49.9497 0.920076C49.3605 3.57302 48.752 6.22167 48.1799 8.87889C47.5971 11.5886 46.9919 14.2962 46.5002 17.0187C46.1145 19.1608 46.1852 19.1747 43.9955 19.1747L39.6065 19.1779ZM41.1437 8.4387V8.47512C40.3028 8.47512 39.4608 8.47512 38.6198 8.47512C37.7296 8.46976 37.1896 8.88746 37.0032 9.76035C36.6969 11.1945 36.3605 12.62 36.0809 14.0584C35.8013 15.4968 36.0134 15.7228 37.4864 15.7485C38.9594 15.7742 40.4324 15.726 41.9044 15.772C42.5032 15.7913 42.7839 15.5578 42.8974 15.0223C43.311 13.0506 43.7212 11.0777 44.1433 9.10809C44.2622 8.55544 44.0201 8.41407 43.5102 8.43227C42.7217 8.45905 41.9322 8.4387 41.1437 8.4387Z" fill="#DB4040"/>
<path d="M22.245 19.1533C20.5566 19.1072 18.6026 19.2229 16.6625 19.0665C14.8049 18.9187 14.1 18.1936 14.3818 16.3889C14.8317 13.4972 15.3245 10.5936 16.2587 7.8068C16.8007 6.19169 18.0799 5.29738 19.7585 5.16243C22.8288 4.91717 25.9098 4.95679 28.9833 5.14422C30.6856 5.25133 31.3862 6.11886 31.1516 7.8068C30.9909 8.97315 30.7338 10.1266 30.5088 11.2834C30.3889 11.9003 30.2185 12.5075 30.12 13.1266C30.0321 13.676 29.7557 13.8538 29.2062 13.8495C26.048 13.8292 22.8856 13.8495 19.7318 13.8281C19.1126 13.8281 18.7098 13.9277 18.6883 14.6539C18.6691 15.364 19.0333 15.6874 19.6814 15.6939C22.3918 15.7206 25.1021 15.7249 27.8124 15.7324C28.843 15.7324 28.8141 15.726 28.6941 16.7081C28.6277 17.2597 28.407 17.7791 28.3652 18.32C28.3095 19.0248 27.9421 19.1768 27.3186 19.1651C25.7138 19.1361 24.1079 19.1533 22.245 19.1533ZM23.1749 10.4415C24.1733 10.4415 25.1728 10.4201 26.1744 10.4512C26.603 10.4651 26.7894 10.2841 26.9008 9.90709C27.145 9.07811 26.7487 8.47619 25.7856 8.44513C24.2858 8.39479 22.786 8.41621 21.2937 8.45691C20.5352 8.47726 20.0585 8.92924 19.7885 9.64254C19.5679 10.223 19.6814 10.4694 20.3402 10.448C21.2808 10.4222 22.2278 10.4394 23.177 10.4415H23.1749Z" fill="#DB4040"/>
<path d="M71.3629 5.04995C72.8274 5.07887 74.5628 5.0039 76.2983 5.1185C78.2491 5.2481 79.0568 6.24201 78.6701 8.13666C77.9673 11.5736 77.2432 15.0052 76.5404 18.4421C76.4333 18.9626 76.1911 19.1918 75.6319 19.1918C72.1856 19.1725 68.7394 19.1918 65.2931 19.1672C64.4564 19.1608 63.6101 19.1244 62.8291 18.7441C62.3192 18.4967 61.9721 18.1315 61.925 17.5553C61.7772 15.6274 62.2175 13.8067 63.0541 12.093C63.4762 11.2277 64.2668 10.735 65.2492 10.6097C67.9477 10.2659 70.6591 10.4297 73.3651 10.4383C73.9179 10.4383 74.2661 10.404 74.3293 9.74428C74.3882 9.10166 74.2693 8.6304 73.5676 8.52437C73.1495 8.47648 72.7284 8.45965 72.3078 8.47403C69.861 8.47403 67.4142 8.45583 64.9674 8.48903C64.3182 8.4976 64.1736 8.24483 64.3107 7.6879C64.3921 7.35695 64.4939 7.02922 64.5507 6.69506C64.886 4.71686 64.8399 5.07244 66.6782 5.05638C68.1459 5.03924 69.6189 5.04995 71.3629 5.04995ZM70.117 13.8035V13.811C69.1968 13.811 68.2755 13.7863 67.3553 13.8185C66.6257 13.8431 66.0055 14.4547 66.0837 15.0523C66.1844 15.8299 66.8111 15.7549 67.3596 15.7581C68.779 15.7645 70.1995 15.7581 71.62 15.7581C72.9313 15.7581 72.9055 15.7528 73.3341 14.5735C73.5365 14.0091 73.4005 13.7896 72.7984 13.8013C71.9061 13.8153 71.0115 13.8035 70.117 13.8035Z" fill="#4749AC"/>
<path d="M10.6603 8.48262C9.84396 8.48262 9.02766 8.4537 8.21348 8.49011C7.21398 8.5351 6.85188 8.81678 6.62906 9.78713C5.98629 12.5943 5.35529 15.4036 4.77252 18.2236C4.62254 18.9509 4.35472 19.1876 3.57376 19.195C2.65567 19.2047 1.95397 19.2047 1.12801 19.1875C0.6138 19.1779 0.494896 18.9841 0.600953 18.5032C1.51154 14.3604 2.42212 10.2177 3.29629 6.06852C3.46019 5.2931 3.77303 5.0489 4.62684 5.03391C5.48065 5.01891 5.49992 5.01141 6.83473 5.03926C7.36395 5.05104 7.57928 5.19563 7.45394 5.72686C7.4143 5.89287 7.29003 6.10708 7.53107 6.2024C7.74532 6.28701 7.85246 6.07281 7.97245 5.94535C8.5895 5.28131 9.37797 5.0564 10.2521 5.05211C11.4305 5.04569 12.6207 5.06282 13.8045 5.03712C14.3712 5.02534 14.5126 5.26418 14.3626 5.7622C14.1498 6.43774 14.002 7.13207 13.9213 7.83572C13.8731 8.29519 13.5999 8.50083 13.1071 8.47833C12.2918 8.4462 11.4755 8.46976 10.6603 8.46976V8.48262Z" fill="#DB4040"/>
<path d="M58.2597 8.48052C57.498 8.48052 56.7353 8.46446 55.9725 8.48052C54.8734 8.50837 54.4427 8.92607 54.2156 9.99496C53.6114 12.8343 52.9676 15.6639 52.3688 18.5043C52.2616 19.013 52.0474 19.2112 51.5268 19.1897C50.6601 19.1544 49.7913 19.1576 48.9246 19.1897C48.2883 19.2133 48.1962 19.0109 48.3333 18.3961C49.276 14.1834 50.188 9.96711 51.0693 5.74726C51.1764 5.23638 51.3907 5.02646 51.8985 5.03502C52.7651 5.05109 53.6339 5.04252 54.5006 5.03502C55.0287 5.03502 55.3523 5.14962 55.0362 5.7644C54.9548 5.92291 54.8755 6.14033 55.0502 6.27313C55.3105 6.4702 55.4198 6.1746 55.5387 6.045C56.2061 5.31135 57.0545 5.04788 58.0133 5.04466C59.1446 5.04466 60.2748 5.05109 61.405 5.03395C61.976 5.02538 62.1624 5.22674 61.9985 5.79867C61.8084 6.45252 61.6606 7.11794 61.556 7.79078C61.4757 8.3263 61.2068 8.4923 60.699 8.47945C59.8848 8.45803 59.0685 8.47303 58.2533 8.47303L58.2597 8.48052Z" fill="#4749AC"/>
</g>
</svg>
