<svg width="160" height="26" viewBox="0 0 160 26" fill="none" xmlns="http://www.w3.org/2000/svg">
<path d="M61.296 20V8.64H70.272V20H68.464V10.224H63.088V20H61.296ZM77.5625 20.08C76.7412 20.08 75.9998 19.92 75.3385 19.6C74.6772 19.28 74.1065 18.848 73.6265 18.304C73.1465 17.7493 72.7732 17.1307 72.5065 16.448C72.2505 15.7547 72.1225 15.0453 72.1225 14.32C72.1225 13.5627 72.2612 12.8427 72.5385 12.16C72.8158 11.4667 73.1998 10.8533 73.6905 10.32C74.1812 9.776 74.7572 9.34933 75.4185 9.04C76.0905 8.72 76.8158 8.56 77.5945 8.56C78.4052 8.56 79.1412 8.72533 79.8025 9.056C80.4745 9.38667 81.0452 9.82933 81.5145 10.384C81.9945 10.9387 82.3625 11.5573 82.6185 12.24C82.8852 12.9227 83.0185 13.6213 83.0185 14.336C83.0185 15.0933 82.8798 15.8187 82.6025 16.512C82.3358 17.1947 81.9572 17.808 81.4665 18.352C80.9758 18.8853 80.3945 19.3067 79.7225 19.616C79.0612 19.9253 78.3412 20.08 77.5625 20.08ZM73.9465 14.32C73.9465 14.8533 74.0318 15.3707 74.2025 15.872C74.3732 16.3733 74.6132 16.8213 74.9225 17.216C75.2425 17.6 75.6265 17.904 76.0745 18.128C76.5225 18.352 77.0238 18.464 77.5785 18.464C78.1545 18.464 78.6665 18.3467 79.1145 18.112C79.5625 17.8773 79.9358 17.5627 80.2345 17.168C80.5438 16.7627 80.7785 16.3147 80.9385 15.824C81.0985 15.3227 81.1785 14.8213 81.1785 14.32C81.1785 13.7867 81.0932 13.2747 80.9225 12.784C80.7625 12.2827 80.5225 11.84 80.2025 11.456C79.8825 11.0613 79.4985 10.752 79.0505 10.528C78.6132 10.304 78.1225 10.192 77.5785 10.192C77.0025 10.192 76.4905 10.3093 76.0425 10.544C75.5945 10.7787 75.2158 11.0933 74.9065 11.488C74.5972 11.8827 74.3572 12.3253 74.1865 12.816C74.0265 13.3067 73.9465 13.808 73.9465 14.32ZM84.1217 22.176V18.416H84.6658C84.9644 18.416 85.2204 18.2987 85.4338 18.064C85.6578 17.8293 85.8444 17.456 85.9938 16.944C86.1538 16.432 86.2764 15.76 86.3618 14.928C86.4578 14.0853 86.5271 13.056 86.5698 11.84L86.6498 8.64H93.9618V18.416H95.4018V22.176H93.8178V20H85.7057V22.176H84.1217ZM86.9378 18.416H92.1538V10.224H88.3138L88.2658 12.08C88.2338 13.3067 88.1698 14.3467 88.0738 15.2C87.9778 16.0427 87.8391 16.7253 87.6578 17.248C87.4764 17.7707 87.2364 18.16 86.9378 18.416ZM97.2331 20V8.64H102.001C102.513 8.64 102.982 8.74667 103.409 8.96C103.836 9.17333 104.209 9.456 104.529 9.808C104.849 10.16 105.094 10.5547 105.265 10.992C105.436 11.4293 105.521 11.8773 105.521 12.336C105.521 12.9653 105.377 13.568 105.089 14.144C104.812 14.7093 104.412 15.168 103.889 15.52C103.377 15.872 102.78 16.048 102.097 16.048H99.0251V20H97.2331ZM99.0251 14.464H101.985C102.326 14.464 102.625 14.3733 102.881 14.192C103.137 14 103.334 13.744 103.473 13.424C103.622 13.104 103.697 12.7413 103.697 12.336C103.697 11.92 103.612 11.552 103.441 11.232C103.27 10.912 103.046 10.6667 102.769 10.496C102.502 10.3147 102.209 10.224 101.889 10.224H99.0251V14.464ZM111.922 20.08C111.101 20.08 110.359 19.92 109.698 19.6C109.037 19.28 108.466 18.848 107.986 18.304C107.506 17.7493 107.133 17.1307 106.866 16.448C106.61 15.7547 106.482 15.0453 106.482 14.32C106.482 13.5627 106.621 12.8427 106.898 12.16C107.175 11.4667 107.559 10.8533 108.05 10.32C108.541 9.776 109.117 9.34933 109.778 9.04C110.45 8.72 111.175 8.56 111.954 8.56C112.765 8.56 113.501 8.72533 114.162 9.056C114.834 9.38667 115.405 9.82933 115.874 10.384C116.354 10.9387 116.722 11.5573 116.978 12.24C117.245 12.9227 117.378 13.6213 117.378 14.336C117.378 15.0933 117.239 15.8187 116.962 16.512C116.695 17.1947 116.317 17.808 115.826 18.352C115.335 18.8853 114.754 19.3067 114.082 19.616C113.421 19.9253 112.701 20.08 111.922 20.08ZM108.306 14.32C108.306 14.8533 108.391 15.3707 108.562 15.872C108.733 16.3733 108.973 16.8213 109.282 17.216C109.602 17.6 109.986 17.904 110.434 18.128C110.882 18.352 111.383 18.464 111.938 18.464C112.514 18.464 113.026 18.3467 113.474 18.112C113.922 17.8773 114.295 17.5627 114.594 17.168C114.903 16.7627 115.138 16.3147 115.298 15.824C115.458 15.3227 115.538 14.8213 115.538 14.32C115.538 13.7867 115.453 13.2747 115.282 12.784C115.122 12.2827 114.882 11.84 114.562 11.456C114.242 11.0613 113.858 10.752 113.41 10.528C112.973 10.304 112.482 10.192 111.938 10.192C111.362 10.192 110.85 10.3093 110.402 10.544C109.954 10.7787 109.575 11.0933 109.266 11.488C108.957 11.8827 108.717 12.3253 108.546 12.816C108.386 13.3067 108.306 13.808 108.306 14.32ZM119.249 20V8.64H127.233V10.208H121.041V13.392H124.369C125.628 13.392 126.572 13.6907 127.201 14.288C127.83 14.8747 128.145 15.6533 128.145 16.624C128.145 17.2747 128.006 17.856 127.729 18.368C127.462 18.8693 127.057 19.2693 126.513 19.568C125.98 19.856 125.302 20 124.481 20H119.249ZM121.041 18.432H124.241C124.732 18.432 125.126 18.3413 125.425 18.16C125.734 17.9787 125.953 17.7493 126.081 17.472C126.22 17.184 126.289 16.8853 126.289 16.576C126.289 16.2667 126.23 15.9787 126.113 15.712C125.996 15.4453 125.782 15.232 125.473 15.072C125.174 14.9013 124.753 14.816 124.209 14.816H121.041V18.432ZM139.155 8.64V20H137.347V14.992H131.619V20H129.827V8.64H131.619V13.392H137.347V8.64H139.155ZM149.51 18.416V20H141.718V8.64H149.366V10.224H143.51V13.456H148.582V14.944H143.51V18.416H149.51ZM159.15 18.416V20H151.358V8.64H159.006V10.224H153.15V13.456H158.222V14.944H153.15V18.416H159.15Z" fill="#3C79BF"/>
<circle cx="13" cy="13" r="13" fill="#E4F1FF"/>
<line x1="6.7832" y1="13.5652" x2="19.218" y2="13.5652" stroke="#3C79BF"/>
<line x1="12.936" y1="7.28259" x2="12.936" y2="19.7174" stroke="#3C79BF"/>
</svg>
