<svg width="287" height="262" viewBox="0 0 287 262" fill="none" xmlns="http://www.w3.org/2000/svg">
<path fill-rule="evenodd" clip-rule="evenodd" d="M286.409 54.9574C262.351 98.9217 237.821 142.776 212.819 186.52C198.72 211.285 184.579 236.133 170.396 261.066L124.099 179.801L114.849 163.587L111.101 156.982L100.494 138.366H124.291L169.237 221.703L176.607 208.907L259.248 65.442L286.409 54.9574Z" fill="white"/>
<path fill-rule="evenodd" clip-rule="evenodd" d="M251.428 61.2926L185.466 175.855L174.667 194.603L171.177 200.68L133.409 130.596L133.343 130.47L116.597 101.117L114.075 105.513L110.327 112.106L80.8354 163.959L66.8707 188.393L37.5056 199.773L37.2473 199.839L103.209 85.2763L114.009 66.5289L117.504 60.4518L155.266 130.47L155.332 130.596L172.078 160.014L174.541 155.618L178.289 149.025L207.84 97.1722L221.744 72.6719L251.17 61.3525L251.428 61.2926Z" fill="white"/>
<path fill-rule="evenodd" clip-rule="evenodd" d="M0 206.114C24.0574 162.15 48.5874 118.294 73.5898 74.5457C87.6847 49.7892 101.826 24.9406 116.013 0L162.31 81.2712L171.559 97.4846L175.313 104.09L185.915 122.705H162.117L117.208 39.4407L109.832 52.2432L27.2568 195.702L0 206.114Z" fill="white"/>
</svg>
