<svg width="102" height="24" viewBox="0 0 102 24" fill="none" xmlns="http://www.w3.org/2000/svg">
<path d="M75.1309 0.0174543H71.1538C70.4822 0.0174543 70.2345 0.264032 70.2345 0.929041C70.2345 5.28274 70.2345 9.63608 70.2345 13.9891C70.2345 14.0862 70.2697 14.1961 70.1822 14.2997C70.0957 14.2025 70.0177 14.1182 69.9441 14.0307C66.1004 9.4877 62.255 4.94365 58.4078 0.398528C58.3116 0.272514 58.1862 0.171654 58.0425 0.104554C57.8988 0.0374551 57.741 0.00610934 57.5825 0.0131869C56.1497 0.0249286 54.7169 0.0131869 53.284 0.0131869C52.5933 0.0131869 52.3509 0.253357 52.3509 0.938648V22.3182C52.3509 22.3801 52.3509 22.442 52.3509 22.504C52.3495 22.6017 52.368 22.6987 52.4053 22.7891C52.4426 22.8795 52.4979 22.9614 52.5678 23.0298C52.6377 23.0981 52.7207 23.1516 52.8119 23.1869C52.9031 23.2222 53.0005 23.2386 53.0983 23.2352C54.5129 23.2352 55.9276 23.2352 57.3423 23.2352C57.5309 23.24 57.7141 23.172 57.8537 23.0451C58.0736 22.8509 58.0993 22.5904 58.0993 22.315C58.0993 17.9706 58.0993 13.6261 58.0993 9.28169V8.92517C58.1975 9.03191 58.2541 9.08742 58.3043 9.14719C62.2056 13.7364 66.1061 18.3264 70.006 22.9171C70.0877 23.0217 70.1932 23.1053 70.3137 23.161C70.4342 23.2167 70.5663 23.2428 70.6989 23.2373C72.167 23.2298 73.635 23.2373 75.1031 23.2373C75.7437 23.2373 76.0053 22.9758 76.0053 22.331V0.901287C76.0063 0.292851 75.733 0.0174543 75.1309 0.0174543Z" fill="#1E59A4"/>
<path d="M22.3384 13.7575C21.2273 13.7468 20.1152 13.7468 19.0019 13.7575C18.4873 13.7629 18.1595 14.1151 18.1574 14.6264C18.1574 15.1857 18.1574 15.7461 18.1574 16.3055C18.1557 16.9263 17.9082 17.5211 17.4691 17.96C17.0299 18.3989 16.4348 18.646 15.8138 18.6474C13.0293 18.6524 10.2445 18.6524 7.45926 18.6474C7.15183 18.6481 6.84732 18.588 6.56322 18.4706C6.27913 18.3531 6.02107 18.1806 5.80394 17.963C5.5868 17.7455 5.41488 17.4871 5.29804 17.2028C5.18121 16.9185 5.12178 16.6139 5.12319 16.3065C5.12319 13.1804 5.12319 10.0532 5.12319 6.9249C5.12023 6.61961 5.17757 6.31675 5.29189 6.03365C5.40621 5.75056 5.57528 5.4928 5.78942 5.27514C6.00355 5.05749 6.25853 4.88421 6.53976 4.76525C6.821 4.64629 7.12295 4.58398 7.42831 4.58188C10.2313 4.56694 13.034 4.56694 15.8363 4.58188C16.3564 4.58826 16.8597 4.76708 17.2672 5.09028C17.6747 5.41348 17.9634 5.86278 18.088 6.3677C18.1841 6.75304 18.1542 7.14479 18.1574 7.5344C18.1574 8.07665 18.4777 8.40436 19.0116 8.40649C20.1063 8.40649 21.2007 8.40649 22.2947 8.40649C22.8285 8.40649 23.1712 8.11828 23.1926 7.59311C23.2257 6.73276 23.263 5.86707 23.1573 5.01206C22.7943 2.09584 20.4059 0.0164831 17.4549 0.0164831H11.6083C10.532 0.0164831 9.45476 0.0164831 8.37854 0.0164831C7.30232 0.0164831 6.24318 -0.0336882 5.1755 0.0410319C2.31413 0.240642 0.00581291 2.7331 0.00474524 5.60449C0.00474524 9.62977 -0.00593155 13.654 0.00474524 17.6782C0.0111513 19.2655 0.622911 20.6179 1.7728 21.7088C2.87892 22.7592 4.2178 23.2609 5.74245 23.2619C9.62239 23.2619 13.5016 23.2619 17.3801 23.2619C17.7621 23.2619 18.1436 23.2341 18.5215 23.1787C21.0519 22.804 23.1445 20.4759 23.2193 17.9194C23.2502 16.8285 23.2342 15.7344 23.23 14.6424C23.2342 14.1247 22.8723 13.7629 22.3384 13.7575Z" fill="#1E59A4"/>
<path d="M48.2168 8.81212C42.6649 8.81212 37.113 8.81425 31.561 8.81852C31.3005 8.81852 31.2407 8.74807 31.2407 8.49829C31.2514 5.97595 31.2471 3.45254 31.2471 0.929137C31.2471 0.279071 30.992 0.020752 30.3492 0.020752H26.4255C25.7315 0.020752 25.4956 0.273735 25.4956 0.956891V11.6184C25.4956 15.1986 25.4956 18.7787 25.4956 22.3589C25.4956 22.9588 25.7668 23.2384 26.3433 23.2395H30.3738C30.9802 23.2395 31.2461 22.9716 31.2461 22.361C31.2461 19.4469 31.2461 16.5328 31.2397 13.6188C31.2397 13.3797 31.3048 13.3273 31.5365 13.3273C35.3986 13.3352 39.2604 13.3352 43.1219 13.3273C43.3525 13.3273 43.4165 13.3754 43.4155 13.6156C43.4059 16.5478 43.4091 19.479 43.4155 22.4112C43.4155 22.9609 43.6973 23.2384 44.2536 23.2395H48.2307C48.9172 23.2395 49.1724 22.9801 49.1724 22.2852V9.75359C49.1671 9.06083 48.9161 8.81212 48.2168 8.81212Z" fill="#1E59A4"/>
<path d="M100.674 0.0166016H79.0001C78.4043 0.0166016 78.1214 0.300536 78.1203 0.898298C78.1203 1.8049 78.1203 2.71115 78.1203 3.61705C78.1203 4.297 78.3915 4.56813 79.0748 4.56813C81.4408 4.56813 83.8078 4.57453 86.1749 4.56066C86.4557 4.56066 86.4952 4.64178 86.4952 4.89796C86.4873 10.7247 86.4856 16.5522 86.4898 22.3804C86.4898 22.9141 86.7674 23.2343 87.2554 23.2343C88.9822 23.2343 90.7082 23.2343 92.4336 23.2343C92.5315 23.2378 92.6292 23.2218 92.7208 23.1871C92.8125 23.1525 92.8963 23.0999 92.9674 23.0326C93.181 22.8329 93.2098 22.5725 93.2098 22.2982C93.2098 16.4792 93.208 10.6607 93.2045 4.84246C93.2045 4.62897 93.2504 4.55959 93.4778 4.56172C94.9992 4.5724 96.5207 4.56706 98.0421 4.56706C98.9315 4.56706 99.8219 4.56706 100.711 4.56706C101.268 4.56706 101.554 4.27565 101.555 3.73233C101.555 2.78943 101.555 1.8476 101.555 0.906839C101.56 0.273852 101.304 0.0166016 100.674 0.0166016Z" fill="#1E59A4"/>
<path d="M43.788 5.75813C45.4515 5.75813 47.1142 5.75813 48.7762 5.75813C49.0901 5.75813 49.1659 5.68128 49.1659 5.36318C49.1659 3.71151 49.1659 2.05984 49.1659 0.408166C49.1659 0.0879371 49.0955 0.0185547 48.7741 0.0185547H43.7859C43.4656 0.0185547 43.4101 0.0708591 43.4101 0.385751C43.4101 1.21123 43.4101 2.03671 43.4101 2.86219C43.4101 3.68767 43.4101 4.5224 43.4101 5.36639C43.4101 5.7101 43.4538 5.75813 43.788 5.75813Z" fill="#E41A22"/>
</svg>
