<svg width="98" height="22" viewBox="0 0 98 22" fill="none" xmlns="http://www.w3.org/2000/svg">
<path d="M11.0574 0.00214115C17.1952 -0.123024 21.9895 5.25908 22 10.9756C22.0112 16.8167 17.0148 22.075 10.7163 21.9992C5.06984 21.9297 -0.100566 16.7284 0.00148584 10.7649C0.0993439 5.11722 4.78746 -0.102858 11.0574 0.00214115ZM11.6459 10.9673V17.7756C11.6459 18.4869 11.6459 18.4834 12.3449 18.3673C14.1685 18.0648 15.7175 17.2506 17.0211 15.9447C19.1502 13.812 19.6137 10.838 18.5826 8.41949C17.3552 5.53861 15.0877 3.91494 11.9339 3.56169C11.6403 3.52901 11.6417 3.63539 11.6424 3.85096C11.6447 6.22307 11.6459 8.59518 11.6459 10.9673Z" fill="#067582"/>
<path d="M26.6602 8.98113C26.6602 9.43496 26.6602 9.83381 26.6602 10.234C26.6663 11.9737 26.673 13.7139 26.6805 15.4545C26.6903 17.5302 26.6973 19.6058 26.7205 21.6815C26.7205 21.9467 26.6441 22.0058 26.3917 21.9996C25.7139 21.9822 25.0353 21.9836 24.3589 21.9996C24.0785 22.0058 23.9993 21.8944 24 21.6355C24.0063 19.7561 24.0035 17.8768 24.0035 15.9974V0.482217C24.0035 0.0332576 24.0133 0.024202 24.4584 0.0228099C25.2589 0.0228099 26.0594 0.0228153 26.86 0.0109823C27.018 0.00302654 27.1735 0.0525183 27.2974 0.150195C29.9106 2.15207 32.5257 4.1507 35.1427 6.14607L43.0559 12.1907C43.1071 12.2303 43.1632 12.2638 43.2277 12.3069C43.3062 12.2025 43.2704 12.0883 43.2704 11.9846C43.2774 8.09411 43.2807 4.20383 43.2802 0.313776C43.2802 0.078507 43.3195 -0.00780456 43.5816 0.000548179C44.2595 0.0221261 44.938 0.00749927 45.6145 0.00819534C45.9706 0.00819534 46 0.0374326 46 0.393816V21.5478C46 21.9536 46 21.9543 45.5892 21.9543C45.0053 21.9543 44.4214 21.9543 43.8368 21.9543C43.7057 21.9582 43.5776 21.9152 43.4758 21.8332C39.9242 19.1135 36.3726 16.3953 32.821 13.6788C30.8634 12.1809 28.9054 10.6823 26.9469 9.18298C26.874 9.12103 26.7941 9.07232 26.6602 8.98113Z" fill="#057582"/>
<path d="M56.3749 6.79807L58.9707 5.27201C61.8983 3.54761 64.8258 1.82183 67.7533 0.0946475C67.8617 0.0308279 67.9923 -0.000991758 68.1245 0.00417937C69.0259 0.00417937 69.9282 0.0125259 70.8297 0C71.0343 0 71.1288 0.0654089 71.2042 0.204585C71.3699 0.510078 71.5356 0.81488 71.7162 1.11481C71.8496 1.33679 71.7991 1.48431 71.5505 1.63114C69.1825 3.01873 66.8088 4.39868 64.4101 5.748C64.0406 5.95676 63.6835 6.17874 63.3015 6.36872C63.0745 6.48145 63.0911 6.57332 63.2121 6.74172C64.783 8.93143 66.3495 11.1237 67.9115 13.3185L73.7867 21.5564C73.8265 21.6127 73.8605 21.6719 73.9044 21.7255C74.0535 21.9085 74.0494 22.0101 73.7387 21.9934C73.4943 21.9802 73.249 21.9934 73.0038 21.9934C72.0799 21.9934 71.1553 21.9878 70.2315 21.9976C70.1349 22.0066 70.0373 21.9903 69.9523 21.9508C69.8672 21.9112 69.7989 21.8505 69.7567 21.7769C68.2416 19.6253 66.7201 17.4769 65.1923 15.3317C63.5777 13.0548 61.9643 10.7771 60.3519 8.49882C60.245 8.34643 60.1812 8.3659 60.0329 8.45358C58.9219 9.10493 57.8108 9.75628 56.684 10.3881C56.4354 10.5273 56.3716 10.679 56.3724 10.9142C56.3815 13.3916 56.3782 15.8689 56.3782 18.3469C56.3782 19.4687 56.3724 20.5912 56.3832 21.7129C56.3832 21.9217 56.3426 22.0003 56.0626 21.9996C53.5239 21.9892 50.9861 21.9941 48.4474 21.9934C48.0622 21.9934 48 21.9405 48 21.6197C48 14.5416 48 7.46404 48 0.386915C48 0.0695923 48.0688 0.0111273 48.4483 0.0104314C50.9861 0.0104314 53.5247 0.0146176 56.0626 0.00417937C56.3443 0.00417937 56.384 0.0862861 56.3832 0.292267C56.3749 2.3493 56.3782 4.40634 56.3782 6.46337L56.3749 6.79807Z" fill="#057582"/>
<path d="M94.4307 21.9935C93.3491 21.9935 92.2675 21.9887 91.1831 21.9984C90.9862 21.9984 90.8774 21.9483 90.8012 21.7624C90.4425 20.8896 90.0662 20.0223 89.7076 19.1508C89.637 18.9781 89.5459 18.9169 89.3546 18.9176C86.3852 18.9245 83.4157 18.9245 80.4463 18.9176C80.2436 18.9176 80.1639 18.9983 80.0975 19.1605C79.736 20.0222 79.3619 20.8791 79.0053 21.743C78.9256 21.9365 78.8225 22.004 78.6079 21.9998C77.8313 21.9859 77.0547 21.9949 76.2781 21.9942C75.9554 21.9942 75.9519 21.9943 76.0747 21.7068C76.8019 20.0241 77.5298 18.3424 78.2584 16.6616C80.2822 11.9746 82.3061 7.28879 84.33 2.60415C84.671 1.81479 85.0148 1.02614 85.3466 0.233304C85.4172 0.0592832 85.5175 -0.00197894 85.7088 0.000109305C86.5715 0.0105506 87.435 0.0126388 88.2984 0.000109305C88.5258 -0.00337111 88.6352 0.0759823 88.722 0.278543C89.8046 2.8044 90.8918 5.32886 91.9837 7.85193C93.3986 11.13 94.8136 14.4076 96.2289 17.6848C96.7937 18.9893 97.355 20.2946 97.9127 21.601C98.0666 21.9622 98.0391 21.997 97.6501 21.997L94.4307 21.9935ZM84.9364 7.92919C84.9011 7.96817 84.8856 7.97862 84.8793 7.99324C83.8188 10.4671 82.7577 12.9405 81.6959 15.4135C81.6062 15.6223 81.6451 15.6717 81.878 15.6703C83.756 15.662 85.634 15.6655 87.5126 15.6655C87.6835 15.6655 87.8543 15.6613 88.0245 15.6655C88.1586 15.6696 88.2306 15.6418 88.1544 15.4942C88.1247 15.4358 88.1057 15.3724 88.0796 15.3125L85.5542 9.37983L84.9364 7.92919Z" fill="#067582"/>
<path d="M95.4868 2.61772C95.8148 2.77376 95.9586 3.05035 95.9579 3.43788C95.9579 3.53698 95.9579 3.63683 95.9623 3.73371C95.9661 3.86905 96.001 4.01179 95.8002 3.9933C95.6521 3.97998 95.5216 3.99331 95.547 3.74851C95.552 3.67937 95.552 3.60984 95.547 3.54069C95.5311 3.04962 95.3703 2.85733 94.9562 2.8344C94.4718 2.80704 94.4718 2.80705 94.4718 3.37873C94.4645 3.47716 94.4645 3.57613 94.4718 3.67456C94.5142 3.95337 94.4084 4.01327 94.19 3.99774C94.0462 3.98738 94 3.94227 94 3.77587C94.0063 2.92093 94.0032 2.06674 94.0032 1.2118C94.0032 1.1127 93.988 1.00324 94.1216 1.00694C94.5211 1.01877 94.9226 0.967735 95.3196 1.03799C95.7515 1.11195 95.9465 1.33383 95.9915 1.75317C96.0364 2.1725 95.9085 2.39585 95.4868 2.61772ZM94.4737 1.90624C94.4737 2.03567 94.4737 2.16435 94.4737 2.29378C94.4737 2.38252 94.487 2.45057 94.5826 2.44909C94.8029 2.44909 95.0258 2.4698 95.2411 2.39733C95.3381 2.3737 95.4239 2.30832 95.4815 2.21419C95.5391 2.12005 95.5643 2.00405 95.552 1.88924C95.5394 1.54164 95.3798 1.40334 94.9543 1.38559C94.4724 1.36562 94.4724 1.36562 94.4724 1.90624H94.4737Z" fill="#067582"/>
<path d="M94.4783 4.99991C93.077 4.98969 91.9932 3.88341 92 2.47129C92.0057 1.97717 92.1577 1.49583 92.4368 1.08804C92.7159 0.680247 93.1096 0.364303 93.5681 0.180129C94.0267 -0.00404436 94.5296 -0.0481967 95.0132 0.0532529C95.4968 0.154702 95.9396 0.397199 96.2855 0.750117C96.6314 1.10304 96.8649 1.55054 96.9566 2.03611C97.0483 2.52168 96.994 3.02354 96.8006 3.47829C96.6073 3.93303 96.2834 4.32028 95.8701 4.5911C95.4568 4.86193 94.9725 5.00418 94.4783 4.99991ZM94.4953 0.342546C94.0691 0.341468 93.6522 0.466938 93.2973 0.703052C92.9425 0.939166 92.6657 1.2753 92.5021 1.66885C92.3385 2.06241 92.2955 2.49569 92.3783 2.91375C92.4612 3.33182 92.6664 3.71587 92.9677 4.01724C93.2691 4.31861 93.6532 4.52374 94.0713 4.60662C94.4893 4.68951 94.9226 4.64642 95.3162 4.48282C95.7098 4.31922 96.0459 4.04248 96.282 3.68765C96.5181 3.33283 96.6436 2.91589 96.6425 2.48968C96.6402 1.92095 96.4132 1.37618 96.011 0.974018C95.6089 0.571856 95.0641 0.344877 94.4953 0.342546Z" fill="#067582"/>
</svg>
