<svg width="46" height="44" viewBox="0 0 46 44" fill="none" xmlns="http://www.w3.org/2000/svg">
<path d="M45.9993 24.1123C45.7123 30.7628 41.5603 36.8487 34.1591 40.8283C25.055 45.7269 12.9758 43.8013 5.82643 36.3674C-3.03654 27.152 -1.57554 12.7203 8.96946 5.32367C18.8722 -1.62458 32.2847 -0.331787 40.5629 8.45164C44.1881 12.2992 46.0388 16.9201 45.9993 24.1123ZM23.0759 26.0831C29.8779 26.0831 36.68 26.0644 43.4813 26.1046C44.4587 26.1103 44.8124 25.8377 44.9215 24.8462C45.1152 23.0778 45.1418 21.3366 44.9165 19.5696C44.8153 18.7804 44.4917 18.6298 43.7856 18.6305C29.9547 18.6458 16.1238 18.6431 2.29299 18.6226C1.46418 18.6226 1.15562 18.9095 1.09677 19.6765C0.967006 21.3924 0.970375 23.1158 1.10683 24.8312C1.18864 25.8808 1.67299 26.1132 2.66973 26.106C9.47393 26.0623 16.276 26.0831 23.0759 26.0831ZM11.7702 27.104C7.62614 27.0222 7.64192 27.0164 9.11514 30.9063C9.37419 31.5886 9.67343 31.9244 10.4649 31.8777C11.7293 31.806 13.0016 31.8576 14.2682 31.8569C15.9545 31.8569 16.009 31.8447 15.6495 30.2477C15.4142 29.2032 15.7665 27.7245 14.947 27.2087C14.1777 26.7209 12.8545 27.104 11.7724 27.104H11.7702ZM34.4633 27.0222C33.9194 27.0222 33.3604 27.1054 32.8351 27.0064C31.3181 26.7194 30.846 27.3988 30.7032 28.8337C30.401 31.8648 30.3314 31.8576 33.435 31.8576C37.0804 31.8576 37.0804 31.8576 37.7513 28.2382C37.7607 28.1481 37.7748 28.0585 37.7937 27.9699C38.0003 27.2927 37.8317 26.9655 37.0445 27.0107C36.1891 27.0638 35.3259 27.0229 34.4655 27.0222H34.4633ZM26.5268 17.6863C27.3384 17.6863 28.1528 17.6512 28.9623 17.6971C29.6548 17.7373 29.9748 17.5271 29.87 16.7903C29.7301 15.8096 29.6189 14.8252 29.5148 13.8409C29.4373 13.1099 29.0462 12.8932 28.3351 12.9327C27.3003 12.9901 26.2605 12.9477 25.2229 12.947C23.2194 12.947 23.2194 12.947 23.1347 14.9271C23.0163 17.6863 23.0163 17.6863 25.7181 17.6871L26.5268 17.6863ZM11.9425 17.6569C12.8574 17.6569 13.8197 17.898 14.7267 17.446C15.4572 17.0823 15.5397 15.4544 15.5534 14.4579C15.5706 13.1917 15.7507 13.0066 14.3335 12.9671C13.9747 12.9571 13.6109 12.9764 13.2492 12.9764C9.4725 12.9764 9.4725 12.9764 8.47146 16.5636C8.44706 16.6504 8.42194 16.7365 8.39395 16.8226C8.21456 17.3807 8.35449 17.6777 9.00534 17.6605C9.90736 17.6383 10.8122 17.6598 11.9446 17.6598L11.9425 17.6569ZM34.116 17.6569C35.0187 17.6569 35.9222 17.6641 36.8256 17.6569C37.1737 17.6526 37.6329 17.71 37.5317 17.1353C37.2978 15.7995 37.0187 14.4091 36.2932 13.305C35.7837 12.5273 34.609 13.0747 33.7371 12.9908C33.1107 12.9305 32.4634 13.0496 31.8434 12.9621C30.5223 12.777 30.2532 13.2993 30.4642 14.5325C31.0045 17.6505 30.9608 17.6598 34.121 17.6598L34.116 17.6569ZM26.7485 27.0121C23.406 27.0121 23.406 27.0121 23.4146 30.4034C23.4261 30.5838 23.4261 30.7647 23.4146 30.9451C23.3285 31.646 23.6112 31.9107 24.3302 31.8777C25.459 31.8289 26.6035 31.7601 27.7187 31.8913C28.9996 32.042 29.4237 31.5326 29.5988 30.3309C30.0853 27.0064 30.1305 27.0129 26.7535 27.0129L26.7485 27.0121ZM19.3401 27.0222C18.6153 27.0222 17.887 27.071 17.1672 27.0093C16.3434 26.9375 16.1978 27.2683 16.2667 28.0259C16.6154 31.8526 16.5975 31.8548 20.3641 31.8569C20.4995 31.8454 20.6356 31.8454 20.771 31.8569C22.1523 32.0994 22.6058 31.5994 22.5499 30.1487C22.43 27.0258 22.5183 27.0222 19.3444 27.0229L19.3401 27.0222ZM19.17 17.6598C22.2507 17.6598 22.2506 17.6598 22.2607 14.5627C22.2607 14.2915 22.2392 14.0189 22.2657 13.7505C22.3238 13.1536 22.0461 12.9571 21.4764 12.97C20.3921 12.9944 19.4807 12.9284 18.2235 12.952C16.9663 12.9757 16.6262 13.3201 16.4934 14.4959C16.1353 17.6648 16.0772 17.6598 19.17 17.6598ZM41.5531 17.6598C42.3245 17.6598 43.0952 17.6505 43.8659 17.6598C44.3431 17.6677 44.5197 17.5163 44.374 17.0141C43.9836 15.6618 43.6485 14.1982 42.6869 13.2118C42.0267 12.5345 40.7796 13.0683 39.8001 12.975C39.7104 12.9664 39.6192 12.975 39.5281 12.975C37.3681 12.975 37.3681 12.975 38.0011 15.0405C38.8026 17.6598 38.8026 17.6598 41.5531 17.6598ZM4.29724 17.6598C7.08293 17.6598 7.08291 17.6598 8.01578 15.0053C8.16504 14.5806 8.26838 14.1329 8.46931 13.734C8.80657 13.0654 8.48725 12.965 7.91533 12.9743C7.0126 12.9894 6.09337 13.0869 5.21073 12.9535C3.67796 12.7218 2.95533 13.3969 2.4236 14.7664C1.29124 17.6828 1.23025 17.6598 4.29724 17.6598ZM10.0444 32.7709C11.6439 36.8975 12.7505 37.691 16.535 37.5777C16.58 37.5744 16.625 37.5744 16.6699 37.5777C17.3452 37.658 17.5633 37.4449 17.3158 36.749C16.9383 35.6915 16.5982 34.6176 16.3241 33.5285C16.192 33.0012 15.9976 32.7573 15.4357 32.7637C13.6855 32.7838 11.9353 32.7709 10.0444 32.7709ZM33.1257 32.7645C32.3572 32.7645 31.5879 32.7795 30.8201 32.7594C30.2999 32.7458 30.0071 32.8965 29.865 33.4625C29.578 34.596 29.2091 35.7088 28.8525 36.8236C28.6932 37.3208 28.7585 37.5224 29.3598 37.5812C31.8326 37.8252 34.0407 37.5956 35.0948 34.8672C35.2068 34.5803 35.4249 34.3299 35.5806 34.0551C36.2925 32.801 36.276 32.7723 34.8889 32.7637C34.3012 32.7609 33.7134 32.7637 33.1257 32.7645ZM8.36885 31.8655C8.07392 30.7298 7.68856 29.7441 7.58595 28.7297C7.44243 27.3257 6.86333 26.774 5.43317 26.9935C4.20466 27.1822 2.9338 26.8091 1.7017 27.1736C1.90837 28.6271 2.56281 29.9127 3.20864 31.2019C3.24954 31.2823 3.31126 31.3526 3.35216 31.4336C3.50716 31.7565 3.76048 31.8734 4.1164 31.8705C5.50781 31.8591 6.89707 31.8648 8.36885 31.8648V31.8655ZM26.2369 11.9627C26.7808 11.9627 27.3312 11.9103 27.868 11.9735C28.963 12.1033 29.2909 11.7202 28.8496 10.6943C28.7621 10.4906 28.7549 10.2531 28.6982 10.0343C27.9663 7.19112 27.9655 7.17463 25.0715 7.19759C23.1519 7.21265 23.2883 6.79726 23.2775 9.01267C23.2581 11.9634 23.2675 11.9634 26.2383 11.9627H26.2369ZM37.836 31.8648C39.1923 31.8648 40.5011 31.8519 41.8093 31.8713C42.2729 31.8784 42.5728 31.7206 42.7809 31.3023C43.345 30.1695 43.8781 29.0252 44.2599 27.8157C44.4364 27.2582 44.3151 26.9849 43.6542 27.0014C42.2966 27.0358 40.9382 27.0172 39.5798 27.0093C39.17 27.0093 38.9339 27.1119 38.8327 27.5832C38.5407 28.9872 38.1876 30.379 37.836 31.8648ZM26.3653 32.7566C23.4189 32.7566 23.4189 32.7566 23.4232 35.7468C23.4232 36.1536 23.4232 36.5611 23.4296 36.9664C23.4339 37.2534 23.5014 37.5403 23.8523 37.5403C25.0277 37.5403 26.2591 37.7262 27.3585 37.4299C28.1026 37.229 28.132 36.0782 28.3975 35.3278C29.306 32.7616 29.2845 32.7537 26.6401 32.753L26.3653 32.7566ZM28.8769 7.1897C29.2522 8.64535 29.6016 9.90299 29.8923 11.175C30.0286 11.769 30.3178 11.9878 30.9263 11.9713C32.2395 11.9355 33.5541 11.9448 34.8681 11.9649C35.5742 11.9749 35.7694 11.7884 35.4084 11.0997C34.8075 9.93456 34.1243 8.81373 33.364 7.7457C33.0691 7.33677 32.7182 7.17175 32.2158 7.18108C31.1359 7.21121 30.0509 7.19184 28.879 7.19184L28.8769 7.1897ZM13.0353 11.9577C13.8649 11.9577 14.5423 11.9269 15.2168 11.967C15.7586 11.9993 16.0406 11.8106 16.1741 11.2761C16.4461 10.1864 16.769 9.10952 17.0617 8.02477C17.1687 7.62588 17.2928 7.28654 16.6312 7.17534C14.1454 6.75995 13.1444 7.14306 11.8176 9.27525C11.3296 10.0601 9.87436 11.4763 10.6695 11.7066C11.7918 12.0337 12.0056 11.8989 13.0375 11.9599L13.0353 11.9577ZM11.8743 7.31883C8.13706 6.82811 5.50278 8.41578 4.2147 11.9606C5.6872 11.9606 7.12526 11.9606 8.56403 11.9606C8.89125 11.9606 9.21847 11.952 9.40145 11.6363C10.231 10.2115 11.0447 8.77592 11.8764 7.32098L11.8743 7.31883ZM19.8991 32.7566C16.9261 32.7566 16.9261 32.7566 17.8898 35.6184C17.9205 35.7035 17.9459 35.7905 17.9659 35.8788C18.2228 37.1766 18.9124 37.6932 20.3225 37.6006C22.5183 37.4571 22.5255 37.5647 22.5255 35.3644C22.5262 32.7587 22.5262 32.7587 19.9013 32.7587L19.8991 32.7566ZM19.6953 11.9613C20.1 11.9613 20.5091 11.972 20.9088 11.9713C22.1172 11.9713 22.3834 11.6126 22.3045 10.558C22.2413 9.70929 22.3095 8.85054 22.3045 7.9968C22.3045 7.69763 22.3841 7.25283 21.9686 7.23346C20.847 7.1818 19.6802 7.03832 18.6096 7.27938C17.8332 7.45443 17.8784 8.52553 17.6631 9.22574C16.8328 11.957 16.8486 11.9627 19.6975 11.9634L19.6953 11.9613ZM34.1548 7.16314C35.1594 8.69198 35.9559 9.99411 36.586 11.3845C36.751 11.7489 36.9634 11.9663 37.3933 11.9584C38.7021 11.9455 40.011 11.9498 41.3199 11.9584C41.8638 11.9584 41.9658 11.7432 41.6672 11.3127C40.6626 9.85636 39.5862 8.4129 38.1187 7.45083C37.0488 6.74919 35.6768 7.31309 34.1569 7.1653L34.1548 7.16314ZM4.38191 32.8864C6.46938 36.7548 8.75922 38.1652 11.5994 37.3409C11.2658 36.8466 10.8101 36.4083 10.6329 35.8731C9.62105 32.8448 7.38503 32.2988 4.59719 32.7881C4.52374 32.8163 4.4525 32.8498 4.38406 32.8886L4.38191 32.8864ZM34.3277 37.6795C35.7442 37.3545 36.929 37.9852 37.9157 37.2017C39.2303 36.1615 40.326 34.8966 41.3335 33.5579C41.7153 33.0514 41.7139 32.7537 40.964 32.7645C39.9708 32.7788 38.9763 32.7867 37.9831 32.7601C37.5217 32.748 37.2074 32.8914 37.0129 33.3154C36.3606 34.7517 35.4428 36.0316 34.3299 37.6817L34.3277 37.6795ZM23.8946 2.5415C23.8403 2.50459 23.7769 2.4833 23.7114 2.47993C23.6458 2.47657 23.5805 2.49126 23.5227 2.52242C23.4649 2.55357 23.4168 2.59999 23.3835 2.65661C23.3503 2.71323 23.3332 2.77789 23.3342 2.84353C23.3342 3.02145 23.3342 3.17283 23.3342 3.32349C23.2833 6.45935 23.2818 6.43711 26.3904 6.28861C27.1403 6.25345 27.2673 6.08055 26.8712 5.45065C26.1364 4.28771 25.1698 3.38304 23.8946 2.5415ZM20.1524 41.8277C17.9006 38.2807 17.2167 37.9342 14.2682 38.7679C15.9114 40.3354 17.7657 41.3262 20.1524 41.8277ZM31.8491 38.671C28.4004 38.1559 27.9218 38.4163 26.2139 41.6462C28.0696 41.5077 30.3745 40.3103 31.8484 38.6674L31.8491 38.671ZM9.75452 6.15875C10.8711 6.16377 12.1412 6.70973 12.9693 6.08701C14.3256 5.06396 15.5275 3.82138 16.9979 2.88945C14.2495 3.27614 11.8965 4.46707 9.7538 6.15517L9.75452 6.15875ZM26.9049 38.6272C22.5901 38.412 23.5767 38.0684 23.4469 41.6132C23.4397 41.8198 23.4634 42.1154 23.5904 42.2187C23.8516 42.4246 24.0827 42.1642 24.28 41.9984C25.3585 41.0895 26.1701 39.9782 26.9049 38.6237V38.6272ZM22.6274 4.32358C22.6697 3.6779 22.7623 2.81053 22.0533 2.56661C21.5087 2.37864 20.9482 3.20511 20.5162 3.70372C20.0204 4.27766 19.5963 4.91402 19.1729 5.54536C19.0129 5.78282 18.7725 6.21112 19.3049 6.24054C20.2378 6.29147 21.2424 6.40627 22.0863 6.11356C22.6453 5.91555 22.5255 5.06755 22.6274 4.31999V4.32358ZM26.3589 2.99204C28.2964 6.29219 29.3613 6.87546 31.8125 6.00523C30.2991 4.45918 28.5023 3.54589 26.356 2.98845L26.3589 2.99204ZM22.4552 42.4224C22.5011 37.7319 23.1728 38.5713 19.5317 38.5677C19.503 38.5677 19.4743 38.6287 19.3659 38.7528C20.1051 40.0714 20.959 41.3269 22.4523 42.4188L22.4552 42.4224ZM36.5917 6.13292C34.2768 4.68731 32.2646 3.33999 29.7279 3.14198C30.4886 3.70014 31.0555 4.27192 31.9417 4.83869C33.5168 5.84308 34.5516 6.50958 36.5917 6.12934V6.13292ZM19.1141 3.35362C17.3639 3.83645 15.8655 4.70238 14.421 6.13292C17.6774 6.50096 17.7406 6.46294 19.1141 3.35003V3.35362ZM31.0863 40.8032C32.8961 40.6841 34.2846 39.6632 35.8791 38.742C33.3783 37.7183 32.5344 39.9064 31.0863 40.7989V40.8032ZM10.2726 38.7879C11.8614 39.8497 13.4171 40.5751 15.1049 41.012C13.7472 39.8332 12.7985 37.8194 10.2726 38.7836V38.7879Z" fill="#35488E"/>
<path d="M26.9251 19.4778C28.4148 19.4778 29.8572 19.368 31.2759 19.5065C32.8639 19.6622 33.2456 20.4901 32.4749 21.8503C32.2833 22.189 32.3946 22.242 32.6005 22.4652C33.7221 23.6805 33.3633 24.7609 31.6992 25.096C30.1435 25.408 28.5655 25.2524 26.8821 25.2301C28.0611 24.2099 28.0525 20.4872 26.9251 19.4778ZM29.5874 23.5083C29.7252 23.8842 29.2946 24.5844 30.1134 24.6189C30.775 24.6497 31.2672 24.3183 31.2572 23.5872C31.2479 22.9351 30.8015 22.6632 30.1952 22.59C29.3965 22.4939 29.6599 23.0929 29.5874 23.5083ZM29.5874 20.9844C29.6871 21.3123 29.3642 21.8862 30.0811 21.8453C30.6444 21.8116 31.019 21.5404 31.006 20.9198C30.9924 20.2741 30.5152 20.0539 30.005 20.0632C29.3556 20.0733 29.6986 20.6558 29.5859 20.9844H29.5874Z" fill="#35488E"/>
<path d="M22.9415 25.3457C21.7266 25.3916 20.8146 25.1555 20.0554 24.5163C19.4096 23.9725 19.025 23.2687 19.0063 22.3949C18.9697 20.6946 20.4185 19.4255 22.4844 19.3573C24.7685 19.282 26.3594 20.4076 26.4484 22.1625C26.5338 23.8692 25.2084 25.1921 23.2558 25.3442C23.1513 25.3537 23.0461 25.3541 22.9415 25.3457ZM24.3946 22.288C24.3846 21.0827 24.0882 20.351 23.4467 20.0554C22.9257 19.8165 22.4005 19.8323 21.9068 20.1573C20.8246 20.8704 20.7988 23.7889 21.8673 24.5335C22.0434 24.6553 22.2435 24.7382 22.4541 24.7766C22.6648 24.815 22.8812 24.808 23.089 24.7562C23.2968 24.7044 23.4911 24.609 23.6591 24.4762C23.8271 24.3434 23.9648 24.1763 24.0631 23.9862C24.3415 23.4639 24.4262 22.8835 24.3946 22.288Z" fill="#35488E"/>
<path d="M39.8131 23.2966C39.9566 25.2595 39.9566 25.2595 38.1375 25.261H33.6827C34.8172 24.1382 34.4548 20.1077 33.5571 19.4147C35.5219 19.4147 37.2664 19.307 38.99 19.452C40.1755 19.551 39.3998 20.5575 39.5045 21.2111C38.8415 20.6321 38.3126 19.8839 37.3037 19.9915C36.9348 20.0309 36.5201 19.9764 36.4971 20.48C36.477 20.9213 36.4627 21.407 36.6256 21.7972C36.7332 22.0548 37.1279 21.8876 37.3015 21.6652C37.5082 21.3998 37.656 21.0913 37.999 20.5094V23.725C37.8361 23.6381 37.6782 23.6087 37.6345 23.5219C37.435 23.123 37.2807 22.5068 36.7439 22.7134C36.1806 22.9286 36.5193 23.5894 36.4957 24.0464C36.4627 24.6992 36.9657 24.692 37.4443 24.6849C38.4741 24.6705 39.2692 24.2601 39.8131 23.2966Z" fill="#35488E"/>
<path d="M11.0533 19.3157C11.1171 20.1501 11.1932 20.7678 11.0167 21.4084C10.4304 21.3898 10.3895 20.8072 10.0573 20.5475C9.24066 19.9148 8.35372 19.673 7.39646 20.0905C6.41839 20.521 6.25908 21.4536 6.26051 22.3748C6.26195 23.296 6.37677 24.2308 7.41871 24.6153C7.99924 24.8306 8.76131 25.1283 9.11436 24.4496C9.40642 23.8879 9.44301 23.0829 8.48216 22.7393H11.7379C11.7924 23.2178 11.0131 23.1166 11.1157 23.649C11.4114 25.1843 10.2324 25.1893 9.28156 25.299C8.11333 25.4346 6.93362 25.4597 5.83714 24.8686C4.89854 24.3664 4.26276 23.664 4.20463 22.552C4.14364 21.3955 4.68182 20.549 5.63406 19.96C6.82023 19.2275 8.12839 19.1385 9.43727 19.4786C9.9934 19.6278 10.472 19.6565 11.0533 19.3157Z" fill="#35488E"/>
<path d="M15.6339 19.4922C14.9235 19.8315 14.7405 20.3244 14.8044 21.0275C14.8625 21.6559 14.7527 22.3023 14.8345 22.9258C14.9063 23.4911 14.404 24.3606 15.2421 24.5673C16.1448 24.7904 17.1653 24.8219 17.7465 23.7551C17.8613 23.5399 17.8628 23.1934 18.2388 23.197C18.5811 25.0314 18.411 25.2581 16.6866 25.2603C15.1553 25.2603 13.6232 25.2603 11.9692 25.1613C13.5012 24.5371 12.8913 23.296 12.8913 22.3167C12.8913 21.3632 13.4783 20.135 11.6233 19.4922H15.6339Z" fill="#35488E"/>
</svg>
