<svg width="90" height="34" viewBox="0 0 90 34" fill="none" xmlns="http://www.w3.org/2000/svg">
<path d="M15.6917 20.5152H13.0174C12.4449 20.5152 12.0349 20.4054 11.5991 19.6695L5.37672 8.92363C5.26807 8.7601 5.21316 8.7052 5.13138 8.7052C5.0496 8.7052 4.99469 8.7601 4.99469 8.92363V19.9732C4.99438 20.1178 4.9368 20.2563 4.83454 20.3586C4.73229 20.4608 4.5937 20.5184 4.44909 20.5187H1.22925C1.08465 20.5184 0.94605 20.4608 0.843798 20.3586C0.741545 20.2563 0.683964 20.1178 0.683655 19.9732V1.2847C0.683502 1.14845 0.710232 1.01351 0.762315 0.887597C0.814397 0.761687 0.890809 0.647284 0.987176 0.55094C1.08354 0.454595 1.19797 0.378201 1.32391 0.326131C1.44985 0.27406 1.58482 0.247339 1.72111 0.247493H4.47713C5.02273 0.247493 5.29494 0.520811 5.62323 1.09315L12.0898 12.3331C12.1984 12.4966 12.2265 12.5515 12.3083 12.5515C12.3632 12.5515 12.4449 12.4966 12.4449 12.3062V0.766099C12.4457 0.695915 12.4605 0.626589 12.4885 0.562232C12.5165 0.497875 12.5572 0.439795 12.608 0.391433C12.6589 0.343072 12.719 0.305412 12.7847 0.280686C12.8504 0.255961 12.9204 0.244676 12.9905 0.247493H16.2104C16.2805 0.244676 16.3505 0.255961 16.4162 0.280686C16.4819 0.305412 16.542 0.343072 16.5929 0.391433C16.6438 0.439795 16.6844 0.497875 16.7124 0.562232C16.7404 0.626589 16.7553 0.695915 16.756 0.766099V19.478C16.7502 19.7559 16.6353 20.0204 16.4362 20.2144C16.2371 20.4084 15.9697 20.5165 15.6917 20.5152Z" fill="#1C9CD9"/>
<path d="M33.263 20.7605C28.9251 20.7605 25.405 19.1253 25.405 12.9032V0.763819C25.4058 0.693635 25.4206 0.624312 25.4486 0.559955C25.4766 0.495598 25.5172 0.437518 25.5681 0.389156C25.619 0.340795 25.6791 0.303135 25.7448 0.27841C25.8105 0.253684 25.8805 0.242395 25.9506 0.245213H29.5256C29.5957 0.242558 29.6657 0.25396 29.7313 0.278745C29.7969 0.303529 29.8569 0.341194 29.9078 0.389524C29.9586 0.437853 29.9993 0.495869 30.0273 0.560151C30.0554 0.624434 30.0703 0.693683 30.0712 0.763819V12.9032C30.0712 15.6866 30.8073 16.8593 33.263 16.8593C35.7188 16.8593 36.4829 15.6912 36.4829 12.9032V0.763819C36.4837 0.693683 36.4987 0.624434 36.5267 0.560151C36.5548 0.495869 36.5955 0.437853 36.6463 0.389524C36.6972 0.341194 36.7572 0.303529 36.8228 0.278745C36.8884 0.25396 36.9584 0.242558 37.0285 0.245213H40.5766C40.7212 0.238536 40.8625 0.289327 40.9698 0.386494C41.0771 0.48366 41.1415 0.619308 41.1491 0.763819V12.9032C41.1491 19.1241 37.6021 20.7605 33.263 20.7605Z" fill="#1C9CD9"/>
<path d="M65.0523 20.5153H60.8768C60.5765 20.5153 60.4679 20.2419 60.3312 19.9698L56.6744 13.0679L56.3741 13.0948C55.8017 13.0948 54.9558 13.0399 54.4371 13.0399V19.9698C54.4368 20.1144 54.3792 20.2529 54.277 20.3551C54.1747 20.4574 54.0361 20.5149 53.8915 20.5153H50.3445C50.1999 20.5149 50.0613 20.4574 49.9591 20.3551C49.8568 20.2529 49.7993 20.1144 49.799 19.9698V1.66441C49.799 0.736993 50.1798 0.490539 51.0268 0.355048C52.2816 0.163491 54.6007 0.00463867 56.5657 0.00463867C61.2039 0.00463867 64.7789 1.55929 64.7789 6.38792V6.73833C64.7789 9.63038 63.2508 11.4034 61.2588 12.1942L65.3817 19.888C65.431 19.9803 65.4589 20.0825 65.4635 20.187C65.4612 20.3786 65.3525 20.5153 65.0523 20.5153ZM60.1454 6.38209C60.1454 4.71764 58.8603 3.95492 56.5716 3.95492C56.1896 3.95492 54.7701 4.00865 54.4429 4.03668V9.27413C54.7432 9.30099 56.0786 9.32903 56.38 9.32903C59.2458 9.32903 60.1454 8.592 60.1454 6.73717V6.38209Z" fill="#1C9CD9"/>
<path d="M88.6311 20.5153H84.8072C84.6735 20.5084 84.5462 20.4558 84.4467 20.3662C84.3472 20.2767 84.2814 20.1557 84.2604 20.0236L83.2791 15.55H77.6852L76.7027 20.0236C76.6818 20.1556 76.6162 20.2764 76.5169 20.3659C76.4176 20.4554 76.2906 20.5081 76.1571 20.5153H72.3368C72.0634 20.5153 71.8694 20.3518 71.8694 20.0784C71.8811 20.0335 71.8901 19.9878 71.8963 19.9418L75.962 3.02754C76.5894 0.408812 78.6094 0 80.4915 0C82.3736 0 84.3668 0.408812 84.9941 3.02754L89.0598 19.9418C89.0663 19.9879 89.0757 20.0335 89.0879 20.0784C89.0914 20.3518 88.8998 20.5153 88.6311 20.5153ZM80.8548 4.27967C80.7999 4.00635 80.745 3.86969 80.5044 3.86969C80.2637 3.86969 80.1772 4.00635 80.1223 4.27967L78.4493 11.817H82.515L80.8548 4.27967Z" fill="#1C9CD9"/>
<path d="M13.6321 27.3438H17.5424V28.2093H14.6299V29.7394H17.2924V30.6049H14.6299V32.2974H17.5424V33.1617H13.6321V27.3438Z" fill="#1C9CD9"/>
<path d="M22.1675 27.3438H23.1652V32.2974H25.9948V33.1617H22.1675V27.3438Z" fill="#1C9CD9"/>
<path d="M30.3326 27.3438H34.2429V28.2093H31.3269V29.7394H33.9894V30.6049H31.3269V32.2974H34.2394V33.1617H30.3326V27.3438Z" fill="#1C9CD9"/>
<path d="M41.0697 33.2574C40.7284 33.2605 40.3891 33.204 40.0673 33.0904C39.7619 32.9818 39.4867 32.802 39.2647 32.5659C39.0218 32.3019 38.8385 31.9889 38.7272 31.6479C38.588 31.2109 38.5221 30.7538 38.5321 30.2953V30.1294C38.5221 29.6874 38.5897 29.247 38.7319 28.8282C38.8468 28.4943 39.0325 28.1891 39.2763 27.9335C39.5033 27.7034 39.7793 27.5273 40.0836 27.4184C40.4001 27.3059 40.7338 27.2493 41.0697 27.2514C41.3731 27.2482 41.6756 27.2875 41.9681 27.3682C42.2315 27.4417 42.4785 27.5646 42.696 27.7303C42.905 27.8925 43.0777 28.0966 43.203 28.3295C43.3391 28.5899 43.4187 28.8761 43.4367 29.1693H42.3852C42.3396 28.8548 42.1716 28.571 41.9179 28.3797C41.6644 28.2077 41.363 28.1202 41.0568 28.1298C40.872 28.1299 40.6887 28.1635 40.5159 28.229C40.3322 28.3 40.1683 28.4142 40.0381 28.5619C39.8829 28.7413 39.7667 28.9509 39.6969 29.1775C39.603 29.4846 39.5592 29.8049 39.5672 30.1259V30.2918C39.5581 30.63 39.6047 30.9674 39.7051 31.2905C39.778 31.5251 39.8972 31.7427 40.0556 31.9305C40.1854 32.0812 40.3498 32.1982 40.5346 32.2716C40.7003 32.3367 40.8765 32.3707 41.0545 32.3721C41.4541 32.3721 41.7625 32.2786 41.9821 32.0929C42.2053 31.8986 42.3465 31.6268 42.377 31.3325H43.4285C43.4062 31.6399 43.3216 31.9396 43.1796 32.2132C43.0552 32.4471 42.8804 32.6506 42.6679 32.8089C42.4497 32.9654 42.204 33.0796 41.9436 33.1453C41.6582 33.2198 41.3646 33.2575 41.0697 33.2574Z" fill="#1C9CD9"/>
<path d="M49.1975 28.2091H47.243V27.3447H52.1498V28.2091H50.1941V33.1662H49.1952L49.1975 28.2091Z" fill="#1C9CD9"/>
<path d="M56.4855 27.3437H58.6901C59.0154 27.3382 59.3397 27.3827 59.6516 27.4757C59.9035 27.5522 60.137 27.6799 60.3374 27.8506C60.5177 28.0078 60.66 28.2039 60.7533 28.4242C60.8497 28.6561 60.8978 28.9053 60.8946 29.1565C60.9038 29.5279 60.7896 29.8918 60.5699 30.1914C60.3242 30.5031 59.9818 30.7241 59.5967 30.8198L61.0594 33.1652H59.9612L58.676 30.9366H57.4844V33.1652H56.4855V27.3437ZM58.5242 30.1049C59.0335 30.1049 59.3899 30.0209 59.5932 29.855C59.6897 29.7656 59.7667 29.6571 59.8194 29.5365C59.8721 29.4159 59.8993 29.2858 59.8993 29.1542C59.8993 29.0226 59.8721 28.8924 59.8194 28.7718C59.7667 28.6512 59.6897 28.5428 59.5932 28.4534C59.3899 28.2906 59.0335 28.2092 58.5242 28.2092H57.4844V30.1061L58.5242 30.1049Z" fill="#1C9CD9"/>
<path d="M65.6869 27.3438H66.6846V33.1652H65.6869V27.3438Z" fill="#1C9CD9"/>
<path d="M73.9318 33.2574C73.5905 33.2605 73.2512 33.204 72.9294 33.0904C72.624 32.9818 72.3489 32.802 72.1268 32.5659C71.8839 32.3019 71.7006 31.9889 71.5893 31.6479C71.4501 31.2109 71.3842 30.7538 71.3942 30.2953V30.1294C71.3842 29.6874 71.4518 29.2469 71.594 28.8282C71.709 28.4943 71.8947 28.1891 72.1385 27.9335C72.3654 27.7034 72.6414 27.5273 72.9457 27.4184C73.2622 27.3057 73.5959 27.2492 73.9318 27.2514C74.2352 27.2483 74.5376 27.2876 74.8302 27.3682C75.0936 27.4417 75.3406 27.5646 75.5581 27.7303C75.7671 27.8924 75.9398 28.0966 76.0651 28.3295C76.2007 28.5901 76.2802 28.8761 76.2988 29.1693H75.2473C75.2017 28.8548 75.0338 28.571 74.78 28.3797C74.5265 28.2077 74.2251 28.1202 73.9189 28.1298C73.7341 28.1298 73.5508 28.1635 73.378 28.229C73.1941 28.3002 73.0299 28.4144 72.899 28.5619C72.7443 28.7416 72.6282 28.9511 72.5579 29.1775C72.465 29.4848 72.4216 29.805 72.4294 30.1259V30.2918C72.4203 30.63 72.4668 30.9674 72.5672 31.2904C72.6401 31.5251 72.7593 31.7427 72.9177 31.9305C73.0475 32.0812 73.2119 32.1982 73.3967 32.2716C73.5624 32.3367 73.7386 32.3707 73.9166 32.372C74.3162 32.372 74.6246 32.2786 74.8442 32.0929C75.0674 31.8986 75.2086 31.6268 75.2391 31.3325H76.2906C76.2683 31.6399 76.1837 31.9396 76.0417 32.2132C75.9173 32.4471 75.7426 32.6506 75.53 32.8089C75.3118 32.9654 75.0661 33.0796 74.8057 33.1453C74.5203 33.2197 74.2267 33.2574 73.9318 33.2574Z" fill="#1C9CD9"/>
</svg>
