<svg width="94" height="32" viewBox="0 0 94 32" fill="none" xmlns="http://www.w3.org/2000/svg">
<path d="M2.72643 11.7393L17.0614 4.66657C17.2703 4.56362 17.4568 4.42053 17.6103 4.24549C17.7639 4.07044 17.8814 3.86686 17.9563 3.64638C18.0311 3.4259 18.0617 3.19285 18.0464 2.96053C18.0311 2.72821 17.9702 2.50118 17.8671 2.29241L17.6975 1.95048C17.5946 1.74169 17.4516 1.55522 17.2766 1.40172C17.1016 1.24822 16.898 1.13071 16.6775 1.0559C16.4571 0.981096 16.2241 0.950455 15.9918 0.965736C15.7595 0.981016 15.5324 1.04192 15.3237 1.14496L0.9878 8.21861C0.566364 8.4267 0.244841 8.7936 0.093924 9.23864C-0.056993 9.68368 -0.0249463 10.1704 0.183016 10.5919L0.351712 10.9347C0.560035 11.3561 0.927197 11.6776 1.37249 11.8284C1.81778 11.9793 2.30477 11.9473 2.72643 11.7393Z" fill="#1C9CD9"/>
<path d="M2.97018 18.74L24.9529 7.89501C25.3745 7.6869 25.6963 7.3199 25.8474 6.8747C25.9985 6.42949 25.9665 5.94252 25.7586 5.52085L25.5899 5.17799C25.3816 4.75659 25.0144 4.43513 24.5691 4.28425C24.1238 4.13338 23.6368 4.16544 23.2152 4.37339L1.23432 15.2184C0.812821 15.4267 0.491276 15.7938 0.340367 16.239C0.189458 16.6842 0.221525 17.171 0.429526 17.5926L0.598234 17.9345C0.806212 18.3555 1.17281 18.6768 1.61752 18.8279C2.06224 18.9789 2.54874 18.9473 2.97018 18.74Z" fill="#DB0840"/>
<path d="M3.21898 26.1067L25.199 15.2617C25.6206 15.0536 25.9424 14.6866 26.0935 14.2414C26.2446 13.7962 26.2126 13.3092 26.0047 12.8875L25.836 12.5447C25.6277 12.1233 25.2605 11.8018 24.8152 11.651C24.3699 11.5001 23.8829 11.5321 23.4613 11.7401L1.48034 22.5851C1.05884 22.7934 0.737309 23.1605 0.5864 23.6057C0.435491 24.0509 0.467558 24.5377 0.675559 24.9593L0.844256 25.3012C0.947233 25.51 1.09036 25.6965 1.26545 25.85C1.44054 26.0036 1.64417 26.1211 1.8647 26.1959C2.08523 26.2707 2.31833 26.3013 2.55071 26.286C2.78308 26.2707 3.01016 26.2098 3.21898 26.1067Z" fill="#F59C24"/>
<path d="M7.17444 31.0976H11.368V24.6719L7.17444 26.4672V31.0976Z" fill="#87BF4D"/>
<path d="M16.109 31.0977H20.3034V24.8203L16.109 26.8894V31.0977Z" fill="#87BF4D"/>
<path d="M24.91 20.1465C24.7017 19.7251 24.3345 19.4036 23.8892 19.2528C23.444 19.1019 22.957 19.1339 22.5353 19.3419L16.1136 22.5105V22.5299H20.3007V24.8202L24.2647 22.8635C24.6862 22.6552 25.0077 22.2882 25.1587 21.843C25.3096 21.3978 25.2775 20.9109 25.0695 20.4894L24.91 20.1465Z" fill="#87BF4D"/>
<path d="M16.109 22.53V26.8894L20.3034 24.8203V22.53H16.109Z" fill="#87BF4D"/>
<path d="M49.3588 18.498V6.94971C49.3584 6.90643 49.3492 6.86368 49.332 6.824C49.3147 6.78431 49.2896 6.7485 49.2582 6.71868C49.2269 6.68886 49.1898 6.66563 49.1493 6.65038C49.1088 6.63513 49.0656 6.62817 49.0224 6.6299H47.0348C46.9916 6.62817 46.9484 6.63513 46.9079 6.65038C46.8674 6.66563 46.8303 6.68886 46.799 6.71868C46.7676 6.7485 46.7425 6.78431 46.7252 6.824C46.708 6.86368 46.6988 6.90643 46.6984 6.94971V14.0704C46.6984 14.1883 46.6476 14.2215 46.6145 14.2215C46.5638 14.2215 46.5472 14.1883 46.4799 14.087L42.4891 7.15155C42.2863 6.79763 42.1204 6.6299 41.7812 6.6299H40.0812C39.9972 6.62978 39.9139 6.64624 39.8363 6.67834C39.7586 6.71044 39.688 6.75755 39.6286 6.81697C39.5691 6.87638 39.522 6.94694 39.4899 7.0246C39.4578 7.10226 39.4413 7.18549 39.4415 7.26952V18.8012C39.4417 18.8903 39.4772 18.9758 39.5403 19.0388C39.6033 19.1018 39.6888 19.1373 39.7779 19.1376H41.7646C41.8537 19.1373 41.9392 19.1018 42.0022 19.0388C42.0653 18.9758 42.1008 18.8903 42.101 18.8012V11.981C42.101 11.8805 42.1351 11.8464 42.1858 11.8464C42.2366 11.8464 42.2697 11.8805 42.337 11.981L46.1766 18.6169C46.4458 19.0712 46.6983 19.1385 47.0523 19.1385H48.7025C48.8741 19.1393 49.0391 19.0725 49.1619 18.9527C49.2847 18.8328 49.3555 18.6695 49.3588 18.498Z" fill="#1C9CD9"/>
<path d="M64.0578 6.62998H61.8693C61.826 6.62826 61.7828 6.63522 61.7422 6.65046C61.7016 6.6657 61.6645 6.6889 61.6331 6.71871C61.6016 6.74852 61.5765 6.78433 61.5591 6.82402C61.5417 6.8637 61.5325 6.90647 61.5319 6.9498V14.4409C61.5319 16.158 61.0608 16.8815 59.5452 16.8815C58.0297 16.8815 57.5771 16.158 57.5771 14.4409V6.9498C57.5766 6.90652 57.5675 6.86377 57.5502 6.82408C57.5329 6.7844 57.5078 6.74859 57.4764 6.71877C57.4451 6.68895 57.408 6.66572 57.3675 6.65047C57.327 6.63522 57.2838 6.62825 57.2406 6.62998H55.0327C54.9894 6.62826 54.9462 6.63522 54.9056 6.65046C54.8651 6.6657 54.828 6.6889 54.7965 6.71871C54.7651 6.74852 54.7399 6.78433 54.7225 6.82402C54.7052 6.8637 54.6959 6.90647 54.6953 6.9498V14.4409C54.6953 18.2796 56.8681 19.2897 59.5452 19.2897C62.2223 19.2897 64.4118 18.2759 64.4118 14.4409V6.9498C64.4068 6.86063 64.3668 6.77704 64.3005 6.71716C64.2342 6.65729 64.147 6.62596 64.0578 6.62998Z" fill="#1C9CD9"/>
<path d="M76.8207 14.0031C78.0495 13.5146 78.9926 12.4206 78.9926 10.6363V10.4169C78.9926 7.43722 76.7875 6.47778 73.9224 6.47778C72.7794 6.47747 71.6376 6.55074 70.5041 6.69714C69.9823 6.78101 69.7463 6.93216 69.7463 7.5045V18.8012C69.7468 18.8904 69.7826 18.9758 69.8457 19.0388C69.9089 19.1018 69.9945 19.1373 70.0837 19.1376H72.2722C72.3615 19.1373 72.447 19.1018 72.5102 19.0388C72.5734 18.9758 72.6091 18.8904 72.6096 18.8012V14.5247C72.9295 14.5247 73.4513 14.5588 73.8081 14.5588L73.9924 14.5422L76.2492 18.8012C76.333 18.9689 76.4003 19.1376 76.5856 19.1376H79.1668C79.3512 19.1376 79.4194 19.0537 79.4194 18.9357C79.4165 18.8713 79.3992 18.8083 79.3687 18.7514L76.8207 14.0031ZM76.1302 10.6363C76.1302 11.781 75.5771 12.2353 73.8062 12.2353C73.6218 12.2353 72.7922 12.2187 72.6078 12.2022V8.96993C72.8097 8.95241 73.6855 8.91924 73.9205 8.91924C75.3356 8.91924 76.1265 9.3902 76.1265 10.4169L76.1302 10.6363Z" fill="#1C9CD9"/>
<path d="M93.9789 18.7846L91.4696 8.34689C91.0824 6.73031 89.8535 6.47778 88.692 6.47778C87.5305 6.47778 86.2841 6.73031 85.896 8.34689L83.3895 18.7846C83.3855 18.8128 83.38 18.8408 83.3729 18.8684C83.3715 18.9056 83.3781 18.9426 83.3922 18.977C83.4063 19.0113 83.4276 19.0423 83.4547 19.0678C83.4818 19.0933 83.514 19.1127 83.5491 19.1247C83.5843 19.1367 83.6216 19.1411 83.6586 19.1375H86.0158C86.0984 19.1336 86.1771 19.1013 86.2386 19.0461C86.3001 18.9908 86.3406 18.916 86.3532 18.8343L86.9589 16.0694H90.4113L91.0169 18.8343C91.0296 18.916 91.0701 18.9908 91.1316 19.0461C91.1931 19.1013 91.2718 19.1336 91.3543 19.1375H93.7143C93.7513 19.1411 93.7886 19.1367 93.8238 19.1247C93.859 19.1127 93.8912 19.0933 93.9182 19.0678C93.9453 19.0423 93.9666 19.0113 93.9807 18.977C93.9948 18.9426 94.0014 18.9056 94.0001 18.8684C93.9914 18.8409 93.9843 18.8129 93.9789 18.7846ZM87.4337 13.7671L88.4597 9.12107C88.4929 8.95241 88.5436 8.86854 88.6957 8.86854C88.8478 8.86854 88.8801 8.95241 88.9142 9.12107L89.9347 13.7671H87.4337Z" fill="#1C9CD9"/>
<path d="M49.9726 26.391H48.8C48.4792 26.391 48.364 26.2823 48.364 25.9302V22.404C48.3637 22.3679 48.3493 22.3333 48.3237 22.3078C48.2982 22.2823 48.2636 22.2678 48.2275 22.2676H47.3342C47.2981 22.2678 47.2636 22.2823 47.238 22.3078C47.2125 22.3333 47.1981 22.3679 47.1978 22.404V25.9284C47.1978 27.168 47.9823 27.3938 48.8572 27.3938C49.2278 27.3919 49.5976 27.361 49.9634 27.3016C50.0556 27.2804 50.0998 27.2463 50.0998 27.1578V26.5247C50.099 26.4906 50.0855 26.458 50.062 26.4333C50.0385 26.4086 50.0066 26.3935 49.9726 26.391Z" fill="#1C9CD9"/>
<path d="M55.1321 22.2674H54.2186C54.2017 22.2671 54.185 22.2703 54.1695 22.2768C54.154 22.2833 54.1401 22.293 54.1285 22.3053C54.117 22.3175 54.1081 22.332 54.1025 22.3479C54.0969 22.3637 54.0947 22.3806 54.096 22.3973V27.1954C54.0944 27.2126 54.0965 27.2298 54.1019 27.2462C54.1073 27.2625 54.1161 27.2775 54.1276 27.2903C54.1391 27.3031 54.1531 27.3134 54.1687 27.3205C54.1844 27.3277 54.2013 27.3315 54.2186 27.3318H55.1321C55.1497 27.3317 55.1671 27.3281 55.1832 27.3211C55.1994 27.3141 55.214 27.304 55.2261 27.2912C55.2382 27.2785 55.2477 27.2635 55.2539 27.247C55.26 27.2305 55.2629 27.213 55.2621 27.1954V22.3973C55.2626 22.3801 55.2596 22.363 55.2533 22.347C55.2469 22.331 55.2373 22.3165 55.2252 22.3043C55.213 22.2921 55.1985 22.2826 55.1825 22.2762C55.1665 22.2699 55.1493 22.2669 55.1321 22.2674Z" fill="#1C9CD9"/>
<path d="M62.9378 22.3635C62.47 22.2587 61.992 22.2061 61.5126 22.2068C60.5244 22.2068 59.4403 22.6427 59.4403 24.381V25.2261C59.4403 26.9505 60.6065 27.3938 61.3836 27.3938C61.8961 27.3993 62.4077 27.3511 62.9102 27.2501C63.0125 27.2298 63.0466 27.1892 63.0466 27.0934V24.804C63.0466 24.7677 63.0322 24.7329 63.0067 24.7072C62.9811 24.6815 62.9464 24.6669 62.9102 24.6667H62.0381C62.0205 24.6669 62.003 24.6707 61.9869 24.6777C61.9707 24.6848 61.9562 24.6951 61.9441 24.7079C61.9319 24.7207 61.9225 24.7358 61.9163 24.7523C61.9102 24.7688 61.9074 24.7864 61.9081 24.804V26.3708C61.7449 26.3846 61.5744 26.3911 61.3836 26.3911C61.0489 26.3911 60.6194 26.1736 60.6194 25.2326V24.381C60.6194 23.4879 60.9604 23.2225 61.5126 23.2225C62.0925 23.2225 62.6032 23.263 62.9304 23.2768H62.9516C63.0125 23.2768 63.054 23.263 63.054 23.1847V22.4621C63.054 22.404 63.006 22.3773 62.9378 22.3635Z" fill="#1C9CD9"/>
<path d="M71.2122 22.2675H70.3198C70.3023 22.2667 70.2847 22.2695 70.2683 22.2757C70.2518 22.2819 70.2367 22.2913 70.224 22.3034C70.2113 22.3156 70.2011 22.3302 70.1941 22.3463C70.1872 22.3624 70.1835 22.3798 70.1834 22.3974V24.2103H68.4992V22.3974C68.499 22.3798 68.4954 22.3624 68.4884 22.3463C68.4814 22.3302 68.4713 22.3156 68.4586 22.3034C68.4458 22.2913 68.4308 22.2819 68.4143 22.2757C68.3978 22.2695 68.3803 22.2667 68.3627 22.2675H67.4704C67.4528 22.2667 67.4352 22.2695 67.4188 22.2757C67.4023 22.2819 67.3873 22.2913 67.3745 22.3034C67.3618 22.3156 67.3516 22.3302 67.3447 22.3463C67.3377 22.3624 67.334 22.3798 67.3339 22.3974V27.1955C67.3339 27.2317 67.3483 27.2664 67.3739 27.2919C67.3995 27.3175 67.4342 27.3319 67.4704 27.3319H68.3627C68.3989 27.3319 68.4336 27.3175 68.4592 27.2919C68.4848 27.2664 68.4992 27.2317 68.4992 27.1955V25.2259H70.1834V27.1955C70.1834 27.2134 70.1869 27.2311 70.1938 27.2477C70.2006 27.2642 70.2107 27.2793 70.2234 27.2919C70.236 27.3046 70.2511 27.3147 70.2676 27.3215C70.2842 27.3284 70.3019 27.3319 70.3198 27.3319H71.2122C71.2301 27.3319 71.2478 27.3284 71.2644 27.3215C71.281 27.3147 71.296 27.3046 71.3087 27.2919C71.3213 27.2793 71.3314 27.2642 71.3382 27.2477C71.3451 27.2311 71.3486 27.2134 71.3486 27.1955V22.3974C71.3485 22.3798 71.3449 22.3624 71.3379 22.3463C71.3309 22.3302 71.3208 22.3156 71.308 22.3034C71.2953 22.2913 71.2802 22.2819 71.2638 22.2757C71.2473 22.2695 71.2298 22.2667 71.2122 22.2675Z" fill="#1C9CD9"/>
<path d="M78.872 22.2675H75.4906C75.4731 22.2669 75.4556 22.2698 75.4392 22.276C75.4228 22.2823 75.4078 22.2917 75.3951 22.3038C75.3824 22.3159 75.3722 22.3305 75.3652 22.3465C75.3582 22.3626 75.3544 22.3799 75.3542 22.3975V23.0998C75.3544 23.1173 75.3582 23.1346 75.3652 23.1506C75.3722 23.1666 75.3824 23.1811 75.3951 23.1931C75.4078 23.2052 75.4229 23.2145 75.4393 23.2207C75.4557 23.2268 75.4731 23.2296 75.4906 23.2288H76.6024V27.1919C76.6023 27.2098 76.6057 27.2275 76.6124 27.244C76.6192 27.2606 76.6291 27.2756 76.6417 27.2883C76.6543 27.301 76.6693 27.311 76.6858 27.3179C76.7023 27.3248 76.72 27.3283 76.7379 27.3283H77.6312C77.6674 27.3283 77.7021 27.3139 77.7276 27.2884C77.7532 27.2628 77.7676 27.2281 77.7676 27.1919V23.2288H78.8738C78.9098 23.2303 78.945 23.2177 78.9717 23.1935C78.9984 23.1694 79.0146 23.1357 79.0167 23.0998V22.3975C79.0158 22.3794 79.0113 22.3618 79.0035 22.3455C78.9957 22.3292 78.9848 22.3146 78.9713 22.3025C78.9579 22.2904 78.9422 22.2811 78.9251 22.2751C78.9081 22.2691 78.89 22.2665 78.872 22.2675Z" fill="#1C9CD9"/>
<path d="M85.3501 24.5171L84.4771 24.0471C84.1083 23.8489 84.0162 23.7604 84.0162 23.5697C84.0162 23.3245 84.1591 23.2084 84.5472 23.2084C85.0081 23.2084 85.8018 23.2701 85.9927 23.283H86.0065C86.0222 23.285 86.0381 23.2833 86.0531 23.2782C86.0681 23.273 86.0817 23.2645 86.0929 23.2533C86.1041 23.2421 86.1126 23.2285 86.1178 23.2135C86.1229 23.1986 86.1246 23.1826 86.1226 23.1669V22.4794C86.1238 22.4499 86.114 22.421 86.0951 22.3983C86.0762 22.3757 86.0495 22.3609 86.0203 22.3568C85.5445 22.2601 85.0604 22.2098 84.5748 22.2065C83.2519 22.2065 82.8297 22.7853 82.8297 23.5356C82.8297 24.0333 83.0003 24.4627 83.6336 24.8369L84.5748 25.3964C84.9288 25.6074 85.0247 25.7162 85.0247 25.9143C85.0247 26.2415 84.8883 26.3908 84.4181 26.3908C84.1517 26.3908 83.404 26.3365 83.1275 26.3097H83.1063C83.0892 26.3082 83.072 26.3105 83.056 26.3165C83.0399 26.3225 83.0255 26.3321 83.0137 26.3445C83.0019 26.357 82.9931 26.3719 82.9879 26.3882C82.9827 26.4045 82.9812 26.4218 82.9837 26.4388V27.107C82.9837 27.1816 83.0519 27.2231 83.1201 27.2434C83.5421 27.3486 83.9758 27.3991 84.4107 27.3936C85.7935 27.3936 86.272 26.6231 86.272 25.9005C86.2701 25.3484 86.0627 24.8987 85.3501 24.5171Z" fill="#1C9CD9"/>
</svg>
