<svg width="91" height="33" viewBox="0 0 91 33" fill="none" xmlns="http://www.w3.org/2000/svg">
<path d="M44.3312 32.8133C43.5328 31.2723 42.7857 29.8428 42.0517 28.4053C41.5399 27.4 41.0462 26.3947 40.5505 25.3774C40.46 25.1894 40.3887 25.0025 40.1483 25.0236C39.8799 25.0477 39.897 25.2739 39.8628 25.4659C39.6416 26.6943 39.6396 26.7034 38.4169 26.6822C27.6957 26.4953 16.9745 26.3049 6.25327 26.1113C5.56551 26.0992 5.5655 26.0992 4.02811 25.9454C5.05873 25.7001 5.94659 25.7212 6.82841 25.7071C17.1059 25.5396 27.383 25.3804 37.6598 25.2297C38.1836 25.2226 38.431 25.0628 38.5245 24.5662C38.7055 23.6001 38.9056 22.6381 39.1067 21.6761C39.162 21.4117 39.2394 21.1513 39.3198 20.894C39.3701 20.7331 39.4063 20.5271 39.5973 20.4919C39.8195 20.4486 39.8688 20.6758 39.9462 20.8136C40.9953 22.6713 42.0367 24.532 43.0703 26.3957C43.1709 26.5847 43.1769 26.8702 43.4584 26.8541C43.7963 26.836 43.7671 26.5325 43.7922 26.2932C43.8033 26.1927 43.8043 26.0922 43.8113 25.9987C43.8948 24.8607 43.8948 24.8698 45.024 24.8497C56.9551 24.6406 68.8853 24.347 80.8194 24.3058C82.1708 24.3058 82.4101 24.141 82.7369 22.8693C83.1099 21.4177 83.3925 19.943 83.7424 18.4844C83.8761 17.9184 83.7112 17.7485 83.123 17.7495C80.8758 17.7566 78.6265 17.8551 76.3812 17.6822C74.5512 17.5404 73.8846 16.7774 74.2164 14.968C74.7433 12.0909 75.3496 9.22695 75.9679 6.368C76.3701 4.50526 76.4073 4.5123 78.3007 4.5123H79.3383C80.1246 4.5123 80.1498 4.58267 79.9728 5.37581C79.3947 7.96837 78.8235 10.5609 78.2936 13.1635C78.0815 14.205 78.362 14.5176 79.4389 14.5418C80.9703 14.5749 82.5026 14.5598 84.034 14.5729C84.4563 14.5729 84.6484 14.3719 84.7318 13.9698C85.3421 11.0334 85.9736 8.10207 86.5739 5.1637C86.6744 4.69324 86.8634 4.48415 87.3581 4.49822C88.2219 4.52235 89.0876 4.50727 89.9523 4.50325C90.3806 4.50325 90.5838 4.60378 90.4551 5.11746C89.9915 7.00232 89.5592 8.89522 89.1479 10.7911C88.7397 12.6639 88.3797 14.5458 87.9755 16.4206C87.4155 19.0151 86.8283 21.6047 86.2662 24.1983C85.7755 26.4551 84.9098 27.3316 82.6283 27.4412C78.359 27.6423 74.0816 27.5518 69.8093 27.4694C62.0033 27.3192 54.1977 27.1691 46.3924 27.019C45.9219 27.01 45.6886 27.1326 45.5881 27.6362" fill="#4749AC"/>
<path d="M36.6443 17.7898C35.0647 17.7235 33.1382 17.8994 31.2147 17.6893C29.5305 17.5074 28.9563 16.8369 29.1373 15.1541C29.3384 13.2933 29.8793 11.4979 30.2433 9.66937C30.4545 8.61686 30.6214 7.55029 31.0809 6.55307C31.644 5.32666 32.5711 4.70641 33.8963 4.61695C36.2391 4.46012 38.5849 4.52446 40.9277 4.56065C41.4787 4.5697 41.713 4.39378 41.8136 3.92935C42.0257 2.94621 42.2469 1.96307 42.4169 0.970878C42.5315 0.297356 42.7487 0.0178948 43.5591 0.00382121C44.3695 -0.0102524 44.8723 0.0199041 45.7782 0.00884627C46.3011 0.00180947 46.4559 0.182756 46.3524 0.653217C45.7993 3.14324 45.2282 5.62924 44.6913 8.12328C44.1443 10.6666 43.5762 13.2079 43.1147 15.7632C42.7527 17.7738 42.8191 17.7868 40.7638 17.7868L36.6443 17.7898ZM38.0872 7.71012V7.7443C37.2979 7.7443 36.5076 7.7443 35.7183 7.7443C34.8827 7.73928 34.3759 8.13133 34.201 8.95061C33.9134 10.2966 33.5977 11.6346 33.3352 12.9847C33.0728 14.3348 33.2719 14.5469 34.6545 14.571C36.037 14.5951 37.4196 14.5499 38.8011 14.5931C39.3632 14.6112 39.6266 14.3921 39.7332 13.8894C40.1213 12.0388 40.5064 10.1871 40.9026 8.33841C41.0142 7.8197 40.787 7.687 40.3084 7.70409C39.5683 7.72922 38.8272 7.71012 38.0872 7.71012Z" fill="#DB4040"/>
<path d="M20.3492 17.7667C18.7646 17.7235 16.9305 17.8321 15.1096 17.6853C13.3661 17.5466 12.7044 16.866 12.9689 15.1722C13.3912 12.458 13.8537 9.73271 14.7305 7.11703C15.2393 5.6011 16.4399 4.76172 18.0155 4.63506C20.8972 4.40485 23.789 4.44205 26.6738 4.61797C28.2715 4.71849 28.9291 5.53275 28.7089 7.11703C28.5581 8.21176 28.3167 9.29442 28.1056 10.3801C27.993 10.9591 27.8331 11.5291 27.7406 12.1101C27.6582 12.6258 27.3987 12.7927 26.8829 12.7887C23.9187 12.7696 20.9505 12.7887 17.9903 12.7686C17.4092 12.7686 17.0311 12.8621 17.011 13.5436C16.9929 14.2101 17.3348 14.5137 17.9431 14.5197C20.487 14.5449 23.0309 14.5489 25.5748 14.5559C26.5421 14.5559 26.5149 14.5499 26.4023 15.4717C26.34 15.9894 26.1328 16.477 26.0936 16.9846C26.0413 17.6461 25.6964 17.7888 25.1112 17.7778C23.605 17.7506 22.0978 17.7667 20.3492 17.7667ZM21.222 9.58996C22.1591 9.58996 23.0972 9.56986 24.0374 9.59901C24.4396 9.61208 24.6145 9.44219 24.7191 9.08834C24.9483 8.31027 24.5763 7.74532 23.6724 7.71617C22.2647 7.66892 20.857 7.68902 19.4563 7.72722C18.7444 7.74632 18.297 8.17054 18.0436 8.84004C17.8365 9.38489 17.9431 9.6161 18.5615 9.596C19.4443 9.57187 20.3331 9.58795 21.224 9.58996H21.222Z" fill="#DB4040"/>
<path d="M66.4499 4.52938C67.8244 4.55653 69.4533 4.48616 71.0822 4.59372C72.9132 4.71536 73.6713 5.64824 73.3084 7.42654C72.6488 10.6524 71.9691 13.8733 71.3095 17.0991C71.2089 17.5877 70.9817 17.8028 70.4568 17.8028C67.2221 17.7847 63.9875 17.8028 60.7528 17.7797C59.9676 17.7737 59.1732 17.7395 58.4402 17.3826C57.9616 17.1504 57.6358 16.8076 57.5916 16.2668C57.4528 14.4573 57.8661 12.7484 58.6514 11.14C59.0475 10.3277 59.7896 9.86529 60.7116 9.74768C63.2444 9.42499 65.7893 9.57879 68.3292 9.58684C68.848 9.58684 69.1748 9.55467 69.2341 8.93543C69.2894 8.33228 69.1778 7.88996 68.5192 7.79044C68.1268 7.74549 67.7316 7.72969 67.3368 7.74319C65.0403 7.74319 62.7437 7.72611 60.4472 7.75727C59.8379 7.76531 59.7021 7.52807 59.8308 7.00533C59.9072 6.69471 60.0028 6.3871 60.056 6.07346C60.3708 4.21675 60.3275 4.55049 62.0529 4.53542C63.4305 4.51933 64.813 4.52938 66.4499 4.52938ZM65.2805 12.7454V12.7524C64.4168 12.7524 63.5521 12.7293 62.6884 12.7594C62.0037 12.7825 61.4215 13.3566 61.4949 13.9175C61.5894 14.6473 62.1776 14.5769 62.6924 14.58C64.0247 14.586 65.358 14.58 66.6912 14.58C67.922 14.58 67.8978 14.5749 68.3 13.4681C68.4901 12.9384 68.3624 12.7323 67.7973 12.7433C66.9597 12.7564 66.1201 12.7454 65.2805 12.7454Z" fill="#4749AC"/>
<path d="M9.47492 7.75121C8.70873 7.75121 7.94256 7.72407 7.17839 7.75825C6.24026 7.80047 5.9004 8.06485 5.69126 8.97562C5.08796 11.6104 4.49572 14.2472 3.94873 16.894C3.80796 17.5766 3.55659 17.7988 2.82359 17.8058C1.96188 17.8148 1.30327 17.8148 0.528037 17.7988C0.0453998 17.7897 -0.0662021 17.6078 0.0333418 17.1564C0.888012 13.2681 1.74267 9.37973 2.56316 5.48536C2.717 4.75756 3.01062 4.52836 3.812 4.51428C4.61338 4.50021 4.63146 4.49317 5.88431 4.51931C6.38102 4.53037 6.58313 4.66608 6.46548 5.16469C6.42828 5.3205 6.31164 5.52155 6.53788 5.61102C6.73898 5.69044 6.83954 5.48938 6.95215 5.36976C7.53132 4.7465 8.27136 4.53539 9.09185 4.53137C10.1979 4.52534 11.315 4.54143 12.4261 4.5173C12.958 4.50624 13.0907 4.73041 12.9499 5.19786C12.7501 5.83191 12.6114 6.4836 12.5357 7.14404C12.4904 7.57529 12.234 7.7683 11.7715 7.74719C11.0063 7.71703 10.2401 7.73915 9.47492 7.73915V7.75121Z" fill="#DB4040"/>
<path d="M54.1508 7.74932C53.4359 7.74932 52.72 7.73424 52.0041 7.74932C50.9724 7.77546 50.5682 8.16751 50.3551 9.17076C49.788 11.8357 49.1837 14.4916 48.6216 17.1575C48.521 17.635 48.32 17.821 47.8313 17.8009C47.0179 17.7677 46.2024 17.7707 45.389 17.8009C44.7917 17.823 44.7052 17.633 44.8339 17.056C45.7188 13.102 46.5748 9.14462 47.402 5.18391C47.5025 4.7044 47.7036 4.50737 48.1802 4.51541C48.9936 4.53049 49.8091 4.52245 50.6225 4.51541C51.1182 4.51541 51.4219 4.62297 51.1253 5.19999C51.0488 5.34877 50.9744 5.55284 51.1383 5.67749C51.3827 5.86246 51.4852 5.585 51.5968 5.46337C52.2233 4.77477 53.0196 4.52747 53.9195 4.52446C54.9813 4.52446 56.0421 4.53049 57.1029 4.51441C57.6388 4.50636 57.8138 4.69535 57.6599 5.23216C57.4815 5.84586 57.3428 6.47041 57.2447 7.10194C57.1693 7.60457 56.9169 7.76038 56.4403 7.74832C55.6761 7.72821 54.9099 7.74229 54.1447 7.74229L54.1508 7.74932Z" fill="#4749AC"/>
</svg>
