<svg width="124" height="22" viewBox="0 0 124 22" fill="none" xmlns="http://www.w3.org/2000/svg">
<path d="M45.4038 20.7728L46.1634 17.3744L44.5875 17.4419C44.5875 17.4419 41.2093 17.7715 42.5469 14.9882L44.0662 9.60253H48.478L49.5983 5.9147H44.898L46.0548 2.08081L40.3419 4.86495L40.0159 5.91287C40.0159 5.91287 38.2081 5.98498 38.0985 5.98498C37.989 5.98498 37.1225 9.67282 37.1225 9.67282L39.0746 9.6363L37.5562 15.6382C37.5562 15.6382 35.8926 20.6989 39.1832 20.6268L45.4038 20.7728Z" fill="#0673BA"/>
<path d="M59.8144 14.6989C64.3156 14.6989 64.1531 12.7464 64.3156 11.0111C64.3859 8.29269 63.178 7.07497 61.9171 6.39309C60.7411 5.75411 59.387 5.52955 58.0513 5.57154C51.1761 5.80431 50.1416 9.22286 48.6944 11.7131C45.549 20.4434 52.6543 20.7693 52.6543 20.7693H62.0924L63.0145 17.515L54.9862 17.5698C52.7081 16.7017 53.2514 14.5328 53.2514 14.5328L59.8144 14.6989ZM57.319 8.9481C58.6721 8.94171 59.4838 9.42551 59.0538 11.8692C53.7855 11.808 53.8494 11.7706 53.8494 11.7706C53.8494 11.7706 55.2573 8.78835 57.319 8.95083V8.9481Z" fill="#0673BA"/>
<path d="M63.3943 20.772L68.1677 2.08179H73.6998L71.367 10.9025L76.4116 5.96771H82.8668L76.6289 11.4274L79.2867 20.772L73.1639 20.7054L72.1814 14.8076L69.6322 17.0303L68.7091 20.772H63.3943Z" fill="#0673BA"/>
<path d="M85.5785 5.96853C85.5785 5.96853 86.9344 -0.159309 90.677 0.0031751C96.4812 0.0552065 96.515 0.0469892 96.515 0.0469892L95.4503 3.74487L92.7386 3.58238C92.7386 3.58238 91.0568 3.52762 91.0294 5.96853L93.2809 6.07623L92.5213 9.49297H89.753L87.0412 20.7728H81.7794L84.6545 9.49297H82.865L83.7324 5.96853H85.5785Z" fill="#0673BA"/>
<path d="M104.052 5.60617C103.384 5.4758 102.703 5.43162 102.023 5.47472C96.3041 5.81247 93.7686 9.73674 93.7686 9.73674C90.7045 14.3192 91.9791 17.546 91.9791 17.5186C94.5821 23.2403 101.657 20.908 101.634 20.908C106.838 19.2001 107.997 14.9746 108.197 14.4552C110.392 7.66095 106.14 6.02425 104.052 5.60617ZM103.334 13.7048C103.005 14.66 102.488 15.5399 101.814 16.2927C101.241 16.9079 100.617 17.3361 100.262 17.4127C99.8239 17.504 97.0528 17.9358 97.0364 15.0394C97.03 14.0946 97.9211 12.4524 98.4151 11.6455C99.2432 10.2917 100.584 9.23194 102.401 9.70114C103.006 9.8554 104.484 10.3492 103.334 13.7048Z" fill="#0673BA"/>
<path d="M107.923 20.3932L112.099 5.97046H117.089V7.0549C117.089 7.0549 117.251 6.07817 119.855 5.97046L123.653 6.02431L122.459 9.58436C122.459 9.58436 116.442 8.23336 114.486 15.8893L113.237 20.7702H107.831" fill="#0673BA"/>
<path d="M28.7069 5.69552H25.1004L26.112 2.08984H29.7195L28.7069 5.69552Z" fill="#0673BA"/>
<path d="M33.6712 2.2534L32.7764 5.69752H28.7079L26.8636 13.1709H30.3797L31.4178 9.4739H35.1175L34.1734 12.8386L34.1022 13.1718H30.3888L29.5214 16.9765H25.6976L24.7216 20.6917H37.0476C35.8607 19.7962 36.4149 17.0038 36.4149 17.0038H33.2192L34.114 13.17H37.3416L38.0839 10.1576H36.2661L37.4768 5.4264H39.2937L39.4572 4.53183L44.2296 2.24976L33.6712 2.2534Z" fill="#84D0F4"/>
<path d="M24.0878 9.30217H20.4804L21.493 5.69556H25.1004L24.0878 9.30217Z" fill="#0673BA"/>
<path d="M15.6258 13.1716H12.0193L13.0319 9.56592H16.6384L15.6258 13.1716Z" fill="#0673BA"/>
<path d="M9.92114 8.68879H7.23224L7.98733 6.00049H10.6762L9.92114 8.68879Z" fill="#0673BA"/>
<path d="M1.9804 11.3333H0L0.556052 9.35425H2.53553L1.9804 11.3333Z" fill="#0673BA"/>
<path d="M25.8209 16.9864H21.9624L23.0453 13.1716H26.9029L25.8209 16.9864Z" fill="#0673BA"/>
</svg>
