<svg width="100" height="31" viewBox="0 0 100 31" fill="none" xmlns="http://www.w3.org/2000/svg">
<path d="M6.49885 4.38016C8.65885 2.78499 11.3635 2.11142 14.0195 2.5072C16.6756 2.90298 19.0662 4.33579 20.667 6.49136C20.8939 6.776 21.0837 7.08824 21.232 7.42064H23.9393C23.5728 6.59167 23.1226 5.80233 22.5956 5.06494C18.4841 -0.484626 10.623 -1.65481 5.07211 2.45571C3.47126 3.64075 2.17618 5.19041 1.29434 6.97606C0.412508 8.76172 -0.0306475 10.7319 0.00164658 12.7231C0.0339407 14.7142 0.540751 16.669 1.48003 18.4252C2.41931 20.1813 3.76397 21.6882 5.40241 22.8207H7.64404V21.3915C6.15627 20.5732 4.89813 19.394 3.98532 17.9625C3.0725 16.5309 2.5343 14.8929 2.42018 13.199C2.30606 11.5052 2.61969 9.80982 3.33224 8.26881C4.04479 6.7278 5.13339 5.39061 6.49796 4.38016H6.49885Z" fill="#183E7C"/>
<path d="M5.39795 7.42065H23.9402C23.9402 7.42065 24.1803 7.85642 24.757 9.70688H18.6872V22.8207H16.2416V9.70688H5.39795V7.42065Z" fill="#D81E1E"/>
<path d="M14.6352 9.70679H12.2988V22.8206H14.6352V9.70679Z" fill="#183E7C"/>
<path d="M12.2988 22.8207L7.65579 15.5127L7.64586 22.8207H5.40332V11.0178H7.53667L12.2988 18.2618" fill="#183E7C"/>
<path d="M31.0198 9.83496H33.386L36.9353 16.5475V9.83496H39.3005V21.1597H36.7873L33.2082 14.3001V21.1597H31.0198V9.83496Z" fill="#183E7C"/>
<path d="M45.881 9.51025C43.0311 9.51025 40.72 12.244 40.72 15.6156C40.72 18.9872 43.0311 21.7218 45.881 21.7218C48.7309 21.7218 51.042 18.9881 51.042 15.6156C51.042 12.2431 48.7318 9.51025 45.881 9.51025ZM45.881 19.5637C44.2882 19.5637 42.9932 17.7962 42.9932 15.6156C42.9932 13.4349 44.2837 11.6684 45.881 11.6684C47.4783 11.6684 48.7688 13.4358 48.7688 15.6156C48.7688 17.7953 47.4747 19.5682 45.881 19.5682V19.5637Z" fill="#183E7C"/>
<path d="M51.2784 9.83496H54.5317L56.425 17.9071L58.673 9.83496H61.5707L58.0223 21.7217H55.0641L51.2784 9.83496Z" fill="#183E7C"/>
<path d="M66.4412 6.82959L59.3427 27.0141H62.0635L64.4694 19.2477H68.3336L68.8462 21.1595H71.41L66.4412 6.82959ZM65.0216 17.2764L66.4809 12.9791L67.7443 17.2764H65.0216Z" fill="#D81E1E"/>
<path d="M73.6822 21.7217H76.0483V11.957H79.1536V9.83496H70.5769V11.9877H73.4746H73.7408L73.6822 21.7217Z" fill="#183E7C"/>
<path d="M88.7212 9.83496V11.8893H83.0098V14.5788H87.9957V16.6332H83.0098V19.2009H88.7212V21.3166H80.4108V9.83496" fill="#183E7C"/>
<path d="M90.111 9.83496V21.3166H92.6549V15.7788L96.4993 21.3166H99.3085L94.7098 15.1283L99.1615 9.83496H96.1148L94.0744 12.3783L93.7189 12.8213L93.1873 13.3536L92.8029 13.9157V9.83496" fill="#183E7C"/>
<path d="M65.5234 25.0979H69.3272V26.0263H66.6966V27.1938H69.0953V28.0915H66.6966V29.4088H69.3281V30.3372H65.5234V25.0979Z" fill="#D81E1E"/>
<path d="M70.3351 25.0979H71.4993V29.4088H73.9828V30.3372H70.3351V25.0979Z" fill="#D81E1E"/>
<path d="M74.7589 25.0979H78.5626V26.0263H75.9311V27.1938H78.3297V28.0915H75.9311V29.4088H78.5626V30.3372H74.7589V25.0979Z" fill="#D81E1E"/>
<path d="M81.7455 30.4265C81.4122 30.4304 81.0805 30.3798 80.7636 30.2767C80.4737 30.182 80.2095 30.0222 79.9911 29.8094C79.7605 29.5761 79.5864 29.2931 79.4821 28.982C79.3527 28.5862 79.2917 28.1713 79.3016 27.755V27.6052C79.2918 27.2041 79.3563 26.8046 79.4921 26.4269C79.6031 26.1232 79.7807 25.8483 80.0119 25.6222C80.233 25.412 80.4981 25.2536 80.788 25.1584C81.0974 25.0565 81.4215 25.006 81.7473 25.0086C82.0375 25.0065 82.3269 25.0417 82.6082 25.1133C82.8632 25.1765 83.1041 25.287 83.3184 25.439C83.5243 25.5877 83.6942 25.7807 83.8156 26.0038C83.948 26.255 84.0234 26.5322 84.0367 26.8158H82.8257C82.7685 26.5151 82.6443 26.2955 82.453 26.1572C82.2466 26.0129 81.999 25.9394 81.7473 25.9478C81.5896 25.9472 81.433 25.975 81.2852 26.03C81.1332 26.088 80.9982 26.1832 80.8927 26.3069C80.7683 26.4568 80.6747 26.6297 80.6174 26.8158C80.5414 27.0706 80.506 27.3358 80.5127 27.6016V27.7514C80.506 28.0311 80.5425 28.3102 80.621 28.5787C80.6787 28.7729 80.7751 28.9533 80.9044 29.1092C81.0115 29.2348 81.1474 29.3326 81.3006 29.3943C81.444 29.4525 81.597 29.4831 81.7518 29.4845C82.0128 29.4952 82.2698 29.4173 82.4809 29.2635C82.5792 29.1843 82.6608 29.0863 82.7208 28.9752C82.7807 28.8642 82.8179 28.7423 82.8302 28.6166H84.0412C84.0254 28.9086 83.9488 29.194 83.8165 29.4548C83.6985 29.6767 83.5312 29.8687 83.3274 30.016C83.1148 30.1659 82.8747 30.2726 82.6208 30.3299C82.3339 30.3969 82.04 30.4293 81.7455 30.4265Z" fill="#D81E1E"/>
<path d="M86.1078 26.0263H84.3607V25.0979H89.0182V26.0263H87.272V30.3372H86.1078V26.0263Z" fill="#D81E1E"/>
<path d="M89.7988 25.0979H92.0115C92.3146 25.0925 92.6167 25.1329 92.9076 25.2179C93.1421 25.2858 93.36 25.4016 93.5475 25.558C93.7166 25.7026 93.8497 25.8845 93.9364 26.0894C94.0266 26.3092 94.0714 26.5449 94.0682 26.7823C94.0758 27.121 93.9735 27.4531 93.7767 27.7288C93.5584 28.0121 93.2509 28.2136 92.904 28.3008L94.2234 30.3371H92.8697L91.729 28.4208H90.9602V30.3371H89.7988V25.0979ZM91.7778 27.5339C91.9595 27.5375 92.1411 27.5212 92.3192 27.4852C92.4427 27.4612 92.5601 27.4131 92.6649 27.3435C92.7492 27.2856 92.814 27.2035 92.8508 27.1081C92.9241 26.8946 92.9241 26.6628 92.8508 26.4494C92.814 26.3537 92.7492 26.2713 92.6649 26.213C92.5599 26.1439 92.4425 26.0958 92.3192 26.0714C92.1411 26.0354 91.9595 26.0191 91.7778 26.0227H90.9656V27.5339H91.7778Z" fill="#D81E1E"/>
<path d="M97.4396 30.4264C97.1092 30.4282 96.7805 30.3777 96.4659 30.2766C96.1644 30.18 95.8873 30.0194 95.6537 29.8057C95.4072 29.5748 95.2149 29.2923 95.0906 28.9783C94.9413 28.5882 94.8702 28.1725 94.8813 27.7549V27.6051C94.8708 27.2023 94.942 26.8014 95.0906 26.4268C95.216 26.12 95.4084 25.8451 95.6537 25.6221C95.8891 25.4125 96.1657 25.2545 96.4659 25.1583C97.1 24.9586 97.7802 24.9586 98.4143 25.1583C98.7144 25.2545 98.9911 25.4125 99.2265 25.6221C99.4718 25.8451 99.6642 26.12 99.7896 26.4268C99.9378 26.8016 100.009 27.2023 99.999 27.6051V27.7549C100.01 28.1725 99.9385 28.5881 99.7896 28.9783C99.6653 29.2923 99.473 29.5748 99.2265 29.8057C98.9929 30.0194 98.7158 30.18 98.4143 30.2766C98.0994 30.3777 97.7704 30.4283 97.4396 30.4264ZM97.4396 29.4836C97.6132 29.4825 97.7853 29.452 97.9486 29.3933C98.1139 29.3343 98.2618 29.2351 98.3791 29.1046C98.5149 28.9504 98.6166 28.7694 98.6778 28.5732C98.7596 28.3069 98.7977 28.029 98.7906 27.7504V27.6006C98.7973 27.3366 98.7591 27.0733 98.6778 26.822C98.6152 26.6332 98.5134 26.4598 98.3791 26.3132C98.2597 26.187 98.1122 26.0909 97.9486 26.0326C97.6192 25.9183 97.261 25.9183 96.9316 26.0326C96.7679 26.0907 96.6203 26.1869 96.5011 26.3132C96.3668 26.46 96.2647 26.6333 96.2015 26.822C96.1205 27.0734 96.0826 27.3366 96.0896 27.6006V27.7504C96.0822 28.0289 96.12 28.3068 96.2015 28.5732C96.2633 28.7693 96.3654 28.9502 96.5011 29.1046C96.6182 29.2353 96.7662 29.3346 96.9316 29.3933C97.0946 29.4519 97.2664 29.4824 97.4396 29.4836Z" fill="#D81E1E"/>
</svg>
