<svg width="67" height="35" viewBox="0 0 67 35" fill="none" xmlns="http://www.w3.org/2000/svg">
<path d="M0.71057 16.9292C0.71057 12.9231 0.71057 8.91656 0.71057 4.90947C0.715321 1.90138 2.0764 0.374377 5.10973 0.366461C6.36155 0.366461 7.6672 0.402085 8.63714 1.4565C8.98948 1.84043 9.2286 1.53566 9.53027 1.32588C10.3712 0.73693 11.8035 0.360128 13.2287 0.366461C14.688 0.372794 16.1409 0.776512 16.9873 1.42642C17.6247 1.91484 17.8171 1.44383 18.175 1.18102C20.4221 -0.481342 24.3636 0.494708 25.4016 2.94709C25.6392 3.50596 25.6645 4.06879 25.6645 4.64745C25.6645 10.9233 25.6663 17.1994 25.67 23.4757C25.67 25.1499 25.0556 26.4909 23.7191 27.5216C21.1062 29.5386 18.5194 31.5983 15.8907 33.5995C14.0316 35.0149 12.3609 35.0165 10.497 33.5995C7.86752 31.6023 5.28709 29.5417 2.66628 27.5335C1.32025 26.5044 0.708987 25.1515 0.709779 23.4868C0.71189 21.302 0.712154 19.1161 0.71057 16.9292ZM2.42162 16.3924C2.42162 19.091 2.44379 21.2766 2.41291 23.4622C2.39549 24.6726 2.83256 25.5837 3.81041 26.3255C6.36867 28.2673 8.88497 30.2637 11.4234 32.2316C12.6729 33.2005 13.7046 33.2013 14.9461 32.2372C17.4798 30.2677 19.9993 28.2728 22.5536 26.3271C23.5211 25.5901 23.9867 24.6924 23.9827 23.4773C23.9653 17.2173 23.9653 10.9573 23.9827 4.69732C23.9883 3.42047 23.5457 2.37714 22.282 2.19348C20.3674 1.91563 19.2867 1.92117 18.4719 3.31676C17.8868 4.31893 17.0111 4.35059 16.4449 3.36505C16.091 2.74681 15.6254 2.22515 14.9318 2.1729C13.7733 2.09059 12.6104 2.09059 11.4519 2.1729C10.8629 2.21248 10.4226 2.65657 10.0909 3.16478C9.31412 4.35693 8.72899 4.36643 7.97362 3.21148C7.28873 2.16499 5.49375 1.66548 3.96085 2.1824C2.78901 2.5782 2.42241 3.48458 2.39549 4.69019C2.36303 6.13882 2.40658 7.72916 2.38836 8.97118C2.34798 12.0315 2.44141 14.2464 2.42162 16.3924Z" fill="#1E2528"/>
<path d="M52.1831 16.5271C54.1626 17.0021 54.5387 17.9227 54.3083 20.9807C54.1777 22.7222 53.2307 23.7331 51.4998 23.8059C48.6922 23.9238 45.8782 23.8724 43.0649 23.9025C42.3571 23.9104 42.1386 23.5209 42.1393 22.89C42.1441 18.704 42.1441 14.5178 42.1393 10.3312C42.1393 9.57209 42.5186 9.33698 43.2304 9.34569C45.685 9.37656 48.1395 9.34569 50.594 9.39318C52.5862 9.43435 53.6606 10.1579 54.0177 11.5622C54.6068 13.8752 54.0478 15.4537 52.1831 16.5271ZM48.0896 20.778C48.8101 20.816 49.1752 20.8223 49.6376 20.6838C50.1126 20.5413 50.271 20.3672 50.3185 20.3205C50.6352 19.9595 50.598 19.4624 50.5774 19.1687C50.5552 18.8441 50.5323 18.4982 50.2852 18.2378C50.0382 17.9773 49.689 17.9504 48.9796 17.8855C48.5185 17.8483 48.0551 17.8483 47.594 17.8855C46.8623 17.9267 46.4926 17.9504 46.3105 18.1103C45.9415 18.4357 45.9597 19.0104 45.9708 19.3658C45.9819 19.7363 45.9953 20.1962 46.3073 20.5041C46.4269 20.626 46.5718 20.6965 48.0896 20.778ZM48.8022 15.1956C49.7437 15.0777 49.9717 14.845 50.0524 14.75C50.3454 14.4056 50.3454 13.9536 50.3454 13.8064C50.3454 13.6251 50.3454 13.1675 50.0366 12.8446C49.7856 12.5802 49.423 12.5446 48.6969 12.4749C48.2842 12.4219 47.8665 12.4219 47.4538 12.4749C46.7483 12.5715 46.3564 12.6253 46.1078 12.957C45.6984 13.4945 45.9993 14.3106 46.0231 14.3716C46.0728 14.5124 46.145 14.6441 46.2368 14.7618C46.7871 15.4474 47.9875 15.297 48.8022 15.1956Z" fill="#161D20"/>
<path d="M27.978 16.5246C27.978 14.5187 28.0033 12.5128 27.9669 10.5084C27.9503 9.64558 28.2693 9.32102 29.1435 9.3416C32.1451 9.3978 31.7564 9.04792 31.7785 11.8541C31.7841 12.4779 31.7738 13.1025 31.7785 13.7263C31.7833 14.1221 31.6994 14.582 32.2124 14.7277C32.6614 14.8551 32.99 14.586 33.2275 14.2416C33.9575 13.1856 34.9093 11.3262 35.8657 10.3834C37.6401 8.63391 40.2451 9.24186 40.5563 9.36694C40.6488 9.39817 40.7268 9.46206 40.7756 9.54663C40.9094 9.81974 40.5697 10.2393 40.4399 10.4C39.1247 12.0275 38.0843 13.8601 36.8309 15.5351C36.2996 16.2475 36.3559 16.7645 36.8626 17.4349C38.2316 19.2461 39.5388 21.1032 40.8896 22.9287C40.9609 23.0245 41.299 23.3791 41.1937 23.592C41.101 23.7804 40.6743 23.8446 40.3726 23.8905C40.3203 23.8984 40.2728 23.9039 40.2435 23.9071C38.2055 24.1129 36.9853 23.5335 36.9853 23.5335C36.1524 23.0878 35.4754 22.3263 34.9528 21.2172C34.5237 20.3077 33.7952 19.5351 33.1808 18.7166C32.9353 18.3888 32.5957 18.0833 32.1578 18.2685C31.788 18.4268 31.7722 18.8226 31.7738 19.1955C31.7809 20.3987 31.75 21.6035 31.7849 22.806C31.8078 23.6071 31.4848 23.9229 30.6764 23.9142C27.4633 23.881 28.012 24.1675 27.9748 21.3415C27.9582 19.7338 27.978 18.1292 27.978 16.5246Z" fill="#161D20"/>
<path d="M58.6534 18.2986C58.6534 16.8737 58.6083 15.4441 58.6685 14.0239C58.7113 13.0178 58.3011 12.622 57.3312 12.7225C57.242 12.7277 57.1527 12.7277 57.0635 12.7225C55.1926 12.7099 54.4507 11.6143 55.1031 9.85931C55.1512 9.72 55.2373 9.59691 55.3517 9.50388C55.6027 9.29411 55.921 9.29965 56.0271 9.29965C63.439 9.27749 63.9774 9.29965 65.0535 9.34715C65.2261 9.35427 65.6821 9.37011 65.9577 9.68675C66.1065 9.85773 66.1588 10.0667 66.1841 10.3786C66.253 11.2288 66.3084 11.9072 65.9141 12.2784C65.2934 12.8634 64.2443 12.041 63.2751 12.7708C63.0842 12.9197 62.9231 13.1031 62.8 13.3115C62.2458 14.1767 62.4707 15.1884 62.4707 15.6744C62.4707 17.9479 62.4231 20.223 62.4904 22.4941C62.5245 23.6253 62.0946 23.9498 61.0066 23.9269C58.655 23.8794 58.6534 23.9269 58.6534 21.6455V18.2986Z" fill="#161D20"/>
<path d="M66.68 3.22816C66.7013 5.06705 65.3577 6.43968 63.5049 6.47372C61.6228 6.50539 60.2705 5.21904 60.2309 3.35719C60.1897 1.4526 61.584 -0.00394996 63.4447 8.04723e-06C64.3001 0.00497625 65.1192 0.346483 65.7247 0.950625C66.3301 1.55477 66.6733 2.37296 66.68 3.22816ZM63.3956 5.9101C64.8771 5.92831 66.1368 4.69262 66.1194 3.23845C66.102 1.8389 64.8842 0.620627 63.4804 0.597671C63.1254 0.592442 62.773 0.658493 62.444 0.791899C62.115 0.925305 61.8162 1.12336 61.5651 1.37433C61.3141 1.62531 61.116 1.92409 60.9826 2.25299C60.8491 2.58189 60.7831 2.93422 60.7883 3.28911C60.7994 4.76466 61.9205 5.89111 63.3956 5.9101Z" fill="#1E2528"/>
<path d="M13.1042 9.38528C15.786 9.38528 18.4686 9.4209 21.1496 9.36628C22.1591 9.3457 22.4576 9.70509 22.4481 10.6859C22.4061 14.9218 22.418 19.156 22.4417 23.3935C22.4457 24.1851 22.1615 24.7305 21.5415 25.207C19.0307 27.1338 16.5295 29.0732 14.0575 31.0483C13.3592 31.6024 12.8097 31.5296 12.1572 31.0134C9.713 29.0724 7.26638 27.1346 4.78413 25.2411C4.11111 24.7281 3.83003 24.1669 3.83399 23.327C3.86408 19.1362 3.87674 14.9447 3.82686 10.754C3.81498 9.7138 4.09923 9.33382 5.18873 9.36232C7.82855 9.42961 10.4668 9.38528 13.1042 9.38528ZM6.3875 17.7042C6.3875 19.1291 6.39937 20.554 6.38275 21.9844C6.37404 22.6969 6.5411 23.3032 7.12623 23.7552C8.57441 24.8698 10.0258 25.9804 11.4605 27.1116C12.0361 27.5668 12.4106 27.5185 12.6228 26.78C13.0646 25.2411 13.4938 23.6998 13.9641 22.1689C14.2072 21.3773 13.9324 21.0234 13.1438 20.8572C12.3172 20.6838 11.5286 20.3252 10.7004 20.1725C9.59186 19.9682 9.3274 19.4648 9.67103 18.3937C10.2126 16.7021 10.6212 14.9677 11.0962 13.2546C11.3187 12.4504 11.2118 11.9659 10.1912 12.0427C9.29879 12.0997 8.40368 12.1013 7.51104 12.0474C6.68838 12.0071 6.38116 12.3831 6.3875 13.1557C6.39779 14.6684 6.38908 16.1852 6.3875 17.7011V17.7042ZM15.554 26.0881L15.847 26.2828C17.0022 25.3891 18.1653 24.5057 19.3094 23.5977C19.7307 23.2637 19.7845 22.7634 19.7845 22.2591C19.7845 19.2273 19.7711 16.1946 19.7932 13.1628C19.7988 12.387 19.5509 12.0142 18.7116 12.0474C17.5065 12.0949 16.2975 12.0759 15.0916 12.053C14.4835 12.0411 14.0195 12.2271 13.8501 12.8343C13.4676 14.2046 13.1161 15.5843 12.7542 16.9601C12.5903 17.5807 12.7812 17.9987 13.4376 18.1705C14.2563 18.3834 15.0623 18.6581 15.8921 18.8283C17.0877 19.0737 17.5548 19.5748 17.0909 20.873C16.4741 22.5726 16.056 24.3466 15.554 26.0881Z" fill="#161D20"/>
<path d="M13.1272 8.26268C10.4897 8.26268 7.8515 8.22785 5.21564 8.27931C4.17682 8.29989 3.71125 7.96267 3.82606 6.89638C3.88228 6.3668 3.83556 5.82693 3.83635 5.29181C3.83635 3.65003 4.45711 3.17982 6.05969 3.58591C6.38511 3.66507 6.65353 3.81547 6.75329 4.14003C6.89819 4.61499 6.65511 5.34722 7.40889 5.42559C8.51739 5.54037 9.6346 5.59657 10.7399 5.37572C10.9711 5.3298 11.1057 5.13349 11.1437 4.89443C11.2229 4.38384 11.1129 3.6912 11.8302 3.61995C12.7994 3.52417 13.7907 3.43947 14.7543 3.69911C14.8921 3.73632 15.0876 3.95875 15.0789 4.08224C14.9562 5.77627 16.1629 5.4818 17.1645 5.4913C17.6562 5.49604 18.1487 5.50792 18.6388 5.47863C19.0727 5.4533 19.452 5.2831 19.4456 4.77172C19.4258 3.07453 20.6935 3.5107 21.5739 3.48379C22.6951 3.44975 22.4528 4.5002 22.4449 5.17623C22.414 8.68539 22.92 8.23655 19.4274 8.26347C17.3284 8.27693 15.2302 8.26268 13.1272 8.26268Z" fill="#1E2528"/>
<path d="M62.2206 3.40944C62.2206 2.45951 62.2745 1.99009 62.5191 1.72807C62.896 1.32436 63.5714 1.32515 63.995 1.45181C64.2897 1.5232 64.549 1.6979 64.7259 1.94418C64.8801 2.16839 64.9476 2.44097 64.9159 2.71124C64.8864 2.8919 64.8147 3.06309 64.7067 3.21093C64.5988 3.35877 64.4575 3.4791 64.2943 3.56221C63.7401 3.84086 63.2056 3.47751 62.9958 3.76011C62.953 3.8179 62.9491 3.97068 62.9396 4.27465C62.9253 4.74407 62.9831 4.92061 62.8604 5.02272C62.7519 5.11297 62.5667 5.09159 62.5247 5.08684C62.4478 5.08746 62.3731 5.06207 62.3125 5.01481C62.1858 4.89449 62.2333 4.64908 62.227 4.47255C62.2048 4.1195 62.2214 3.76487 62.2206 3.40944ZM64.2579 2.45081C64.2392 2.35103 64.1941 2.25808 64.1273 2.18166C63.9182 1.94418 63.573 1.97981 63.4851 1.98772C63.3814 1.99801 63.1391 2.02096 62.98 2.21728C62.9048 2.31235 62.8594 2.42744 62.8493 2.54817C62.8323 2.71186 62.8754 2.87613 62.9705 3.01047C63.1858 3.29228 63.6316 3.31602 63.9071 3.1577C63.9982 3.10437 64.0759 3.03101 64.1344 2.94318C64.1865 2.87334 64.2242 2.79387 64.2454 2.70935C64.2666 2.62484 64.2709 2.53697 64.2579 2.45081Z" fill="#161D20"/>
<path d="M6.3885 17.7009C6.3885 16.185 6.398 14.6683 6.3885 13.1524C6.38216 12.3798 6.68938 12.0038 7.51204 12.0441C8.40468 12.098 9.2998 12.0964 10.1922 12.0394C11.2129 11.9602 11.3197 12.4471 11.0972 13.2513C10.6222 14.9644 10.2152 16.6988 9.67203 18.3904C9.32919 19.4615 9.59286 19.9649 10.7014 20.1691C11.5296 20.3219 12.3182 20.6805 13.1448 20.8539C13.9366 21.0201 14.2082 21.3748 13.9651 22.1656C13.4964 23.6965 13.0656 25.2378 12.6238 26.7767C12.4116 27.5152 12.0371 27.5635 11.4615 27.1083C10.0268 25.9771 8.57541 24.8665 7.12724 23.7519C6.53973 23.2999 6.37504 22.6896 6.38375 21.9811C6.39958 20.5547 6.38771 19.1274 6.3885 17.7009Z" fill="#F2B21E"/>
<path d="M15.5543 26.0881C16.0563 24.3466 16.4744 22.575 17.0864 20.873C17.5536 19.5748 17.0864 19.0737 15.8877 18.8283C15.0602 18.6581 14.2542 18.3834 13.4331 18.1705C12.7767 17.9987 12.5859 17.5807 12.7498 16.9601C13.1117 15.5843 13.4624 14.2046 13.8456 12.8343C14.0151 12.2271 14.4791 12.0427 15.0872 12.053C16.293 12.0759 17.5021 12.0949 18.7072 12.0475C19.5465 12.0142 19.7943 12.387 19.7888 13.1628C19.7666 16.1946 19.7777 19.2273 19.7801 22.2591C19.7801 22.7634 19.7286 23.2636 19.305 23.5977C18.1609 24.5057 16.9977 25.3891 15.8425 26.2828L15.5543 26.0881Z" fill="#91A2AC"/>
</svg>
