<svg width="125" height="25" viewBox="0 0 125 25" fill="none" xmlns="http://www.w3.org/2000/svg">
<path d="M27.8011 0.949342V3.28303C27.9438 3.31208 27.9771 3.20359 28.0369 3.14551C28.8964 2.30411 29.8166 1.55583 30.9863 1.18083C31.3514 1.06087 31.7332 0.999177 32.1175 0.998028C34.339 0.998028 36.5604 0.998029 38.7819 0.988633C39.0527 0.988633 39.0801 1.08772 39.0784 1.31238C39.0351 6.77931 38.9992 12.2462 38.9707 17.7132C38.9768 18.2043 38.8273 18.6849 38.5435 19.0859C37.3969 20.7764 36.2776 22.4856 35.1558 24.1932C35.1089 24.2766 35.0389 24.3447 34.9541 24.3891C34.8693 24.4335 34.7735 24.4524 34.6782 24.4435C32.115 24.4341 29.5518 24.4375 26.9843 24.4375H26.563L38.0727 7.34736C38.0172 7.2534 37.948 7.27645 37.8925 7.27645C36.833 7.27645 35.7735 7.2645 34.7149 7.28586C33.6965 7.30721 32.9207 7.7215 32.3311 8.60988C29.9473 12.2181 27.5234 15.7989 25.114 19.3908C24.0317 21.0013 22.9517 22.6118 21.8741 24.2222C21.7801 24.3623 21.7032 24.4785 21.4904 24.4742C18.8631 24.4546 16.2367 24.4477 13.6094 24.4375C13.5571 24.4327 13.5052 24.4247 13.4539 24.4136C13.7811 23.9267 14.0896 23.4645 14.4006 23.0041C17.8501 17.8874 21.2988 12.7707 24.7466 7.65402C24.8183 7.54809 24.979 7.43962 24.9098 7.31746C24.8568 7.22265 24.6791 7.28244 24.5578 7.28158C23.6333 7.28158 22.7097 7.2756 21.7852 7.28158C20.7317 7.29013 19.9132 7.68136 19.3014 8.59963C15.8269 13.8223 12.3349 19.0329 8.82557 24.2316C8.74013 24.3623 8.66665 24.4691 8.46843 24.4682C5.85223 24.4486 3.23604 24.4417 0.619853 24.4306C0.571152 24.4306 0.522451 24.4204 0.42334 24.4101C0.652321 24.0685 0.860796 23.749 1.07269 23.4355C5.29118 17.1799 9.51336 10.9231 13.7393 4.66515C14.6988 3.25058 15.9035 2.07177 17.4807 1.32605C17.8353 1.15521 18.2343 1.13299 18.5803 0.946777L27.8011 0.949342Z" fill="#B8010F"/>
<path d="M125 13.1533C124.055 13.1533 123.11 13.1456 122.165 13.1593C121.934 13.1593 121.869 13.1029 121.871 12.8671C121.883 11.5183 121.881 10.1687 121.871 8.8199C121.871 8.40561 121.847 7.99046 121.812 7.57702C121.754 6.87572 121.396 6.44691 120.798 6.32988C120.046 6.18296 119.377 6.46314 119.063 7.06109C118.828 7.50613 118.789 7.99474 118.784 8.48163C118.774 9.92354 118.771 11.3663 118.784 12.809C118.784 13.1063 118.699 13.1652 118.42 13.1593C117.565 13.1422 116.717 13.1473 115.866 13.1593C115.659 13.1593 115.601 13.1012 115.601 12.897C115.607 10.0229 115.607 7.14707 115.601 4.26953C115.601 4.07563 115.644 3.99618 115.857 3.99875C116.75 4.00956 117.643 4.00956 118.537 3.99875C118.732 3.99875 118.788 4.06111 118.778 4.24732C118.766 4.5164 118.778 4.78633 118.778 5.05711C118.9 5.09299 118.922 4.98536 118.966 4.93069C119.73 3.99106 120.749 3.65622 121.921 3.70832C122.263 3.72028 122.603 3.77538 122.932 3.87232C124.123 4.2328 124.695 5.10751 124.929 6.26411C124.941 6.32219 124.922 6.39224 124.994 6.42555L125 13.1533Z" fill="#386571"/>
<path d="M60.8092 4.57963C60.5708 5.35953 60.3307 6.13942 60.0949 6.92102C59.4891 8.92413 58.8816 10.9264 58.2861 12.9329C58.2212 13.1525 58.1246 13.2165 57.9016 13.2148C56.7704 13.2029 55.6383 13.1977 54.5071 13.2148C54.2191 13.2148 54.0986 13.1439 54.0175 12.8552C53.2656 10.1824 52.4949 7.51469 51.7294 4.84529C51.708 4.77012 51.7123 4.68214 51.6081 4.61978V5.58846C51.6081 8.01697 51.6029 10.4455 51.614 12.8731C51.614 13.149 51.5465 13.2208 51.2723 13.2148C50.2965 13.1969 49.3208 13.1994 48.3451 13.2148C48.1067 13.2148 48.052 13.1456 48.0529 12.9167C48.0597 9.15818 48.0597 5.40167 48.0529 1.64715C48.0529 1.39088 48.1383 1.34219 48.3733 1.34304C50.253 1.35102 52.1327 1.35102 54.0124 1.34304C54.2319 1.34304 54.3123 1.41309 54.3678 1.62151C55.0029 4.00418 55.6448 6.38457 56.2936 8.76268C56.3312 8.90192 56.3739 9.04031 56.438 9.25813C56.6004 8.63541 56.7456 8.08615 56.8857 7.53519C57.3875 5.5671 57.8871 3.599 58.3844 1.63091C58.4348 1.42761 58.5014 1.34133 58.7304 1.34304C60.6511 1.35272 62.5718 1.35272 64.4925 1.34304C64.7394 1.34304 64.8061 1.40967 64.8052 1.65654C64.7978 5.40195 64.7978 9.14793 64.8052 12.8945C64.8052 13.1661 64.7198 13.2174 64.4686 13.2148C63.3681 13.2029 62.2668 13.2003 61.1663 13.2148C60.9014 13.2148 60.8664 13.1217 60.8673 12.8945C60.8741 10.2379 60.8741 7.58132 60.8673 4.92474V4.58305L60.8092 4.57963Z" fill="#386571"/>
<path d="M111.574 4.81471C111.585 4.77552 111.594 4.73555 111.6 4.69512C111.627 4.00578 111.627 4.00578 112.331 4.00578C113.035 4.00578 113.763 4.01261 114.479 4.00065C114.696 4.00065 114.785 4.03739 114.784 4.28596C114.775 7.14813 114.775 10.0103 114.784 12.8724C114.784 13.0809 114.741 13.162 114.513 13.1586C113.631 13.1458 112.749 13.1484 111.864 13.1586C111.666 13.1586 111.581 13.1108 111.598 12.9023C111.615 12.6939 111.598 12.4906 111.598 12.2121C111.278 12.5854 110.99 12.9117 110.59 13.0886C109.171 13.7147 107.783 13.6079 106.497 12.7699C103.655 10.9197 103.637 6.30188 106.441 4.40383C107.83 3.46421 109.896 3.47105 111.122 4.42349C111.271 4.53539 111.405 4.66523 111.574 4.81471ZM109.683 10.6233C110.893 10.6233 111.707 9.8067 111.715 8.59372C111.722 7.39783 110.86 6.52996 109.664 6.54363C108.446 6.55217 107.637 7.38246 107.641 8.61764C107.645 9.82805 108.458 10.6284 109.683 10.625V10.6233Z" fill="#386571"/>
<path d="M65.7452 7.02434C65.7452 6.11119 65.7512 5.19805 65.741 4.28575C65.741 4.07733 65.7845 3.99617 66.0127 3.99958C66.8956 4.01325 67.7784 4.01325 68.6613 3.99958C68.8826 3.99958 68.9382 4.06536 68.9364 4.27977C68.9288 5.81734 68.9364 7.35492 68.9364 8.88566C68.9299 9.22852 68.971 9.57063 69.0586 9.90217C69.1945 10.3814 69.4978 10.6889 69.9916 10.7991C70.3266 10.8735 70.6737 10.8749 71.0092 10.8034C71.533 10.6966 71.8423 10.3669 71.9798 9.86373C72.0607 9.55224 72.0998 9.23137 72.096 8.90957C72.096 7.372 72.1029 5.83443 72.0909 4.30283C72.0909 4.05426 72.1593 3.99276 72.4019 3.99703C73.2632 4.01241 74.1253 4.00984 74.9865 3.99703C75.2052 3.99703 75.2693 4.06194 75.2676 4.27891C75.2599 6.0531 75.2753 7.8273 75.259 9.60149C75.2488 10.6701 74.9916 11.6576 74.1483 12.405C73.6058 12.8876 72.9573 13.1482 72.255 13.2891C71.0517 13.5412 69.8081 13.5307 68.6092 13.2584C66.7748 12.8312 65.8025 11.6217 65.7581 9.72791C65.7376 8.82587 65.7581 7.92296 65.7581 7.02007L65.7452 7.02434Z" fill="#386571"/>
<path d="M95.9818 7.1766C95.9818 8.03764 96.0057 8.89953 95.9818 9.75972C95.9168 11.7167 94.9445 12.875 93.023 13.2842C91.7507 13.569 90.4287 13.5444 89.1679 13.2124C87.4847 12.7597 86.5542 11.627 86.5107 9.887C86.4628 8.00005 86.497 6.11054 86.4867 4.22275C86.4867 3.99809 86.6021 4.00322 86.7593 4.00407C87.6419 4.00407 88.5245 4.01347 89.408 4.00407C89.631 4.00407 89.6831 4.07071 89.6822 4.28511C89.6728 5.83037 89.6822 7.37648 89.6762 8.92259C89.6719 9.25493 89.713 9.5863 89.7984 9.9075C89.9326 10.3884 90.2342 10.6951 90.7297 10.8044C91.1054 10.8918 91.497 10.8835 91.8687 10.7805C92.4232 10.625 92.7496 10.1424 92.8008 9.41376C92.8683 8.42972 92.8222 7.44311 92.8307 6.45821C92.8376 5.74238 92.8393 5.0257 92.8264 4.30988C92.8264 4.08778 92.87 4.00151 93.1152 4.00578C93.9867 4.02116 94.8591 4.0186 95.7314 4.00578C95.9527 4.00578 96.0117 4.0724 96.0091 4.28681C95.9997 5.25206 96.0091 6.21647 96.0091 7.18172L95.9818 7.1766Z" fill="#386571"/>
<path d="M99.7094 13.4634C98.5514 13.4614 97.414 13.1582 96.4088 12.5835C96.196 12.4648 96.108 12.3759 96.2567 12.1154C96.5805 11.5491 96.8685 10.9614 97.1479 10.372C97.2521 10.1525 97.3358 10.1738 97.5076 10.2866C98.1449 10.7137 98.8336 11.0143 99.6145 11.0553C99.9195 11.0699 100.218 11.0451 100.477 10.8589C100.855 10.5872 100.86 10.1755 100.486 9.90558C100.28 9.7641 100.047 9.66508 99.8025 9.61429C99.248 9.47847 98.708 9.29568 98.1646 9.12142C97.4742 8.89933 97.0752 8.42268 96.8975 7.74871C96.4327 5.99331 97.4597 4.34384 99.3146 3.88684C100.717 3.54516 102.092 3.69123 103.438 4.18752C103.617 4.2533 103.689 4.31737 103.578 4.52067C103.278 5.06565 102.993 5.61832 102.724 6.17868C102.632 6.36831 102.547 6.34952 102.392 6.27349C101.917 6.03618 101.392 5.91887 100.861 5.93181C100.621 5.93636 100.387 6.00669 100.184 6.13511C99.8358 6.35208 99.8264 6.72794 100.159 6.97566C100.365 7.12941 100.608 7.18408 100.853 7.23192C101.369 7.34211 101.892 7.43607 102.379 7.65902C103.57 8.19888 104.104 9.25297 103.925 10.5471C103.691 12.2495 102.302 13.0559 101.04 13.3344C100.602 13.426 100.156 13.4693 99.7094 13.4634Z" fill="#386571"/>
<path d="M76.9729 9.91513C76.9729 8.93963 76.9678 7.96498 76.9729 6.98947C76.9729 6.77506 76.9439 6.67085 76.691 6.68025C76.4381 6.68964 76.1237 6.80497 75.9835 6.62217C75.8673 6.47012 75.9502 6.16345 75.9494 5.92598C75.9494 5.36562 75.9562 4.80526 75.9494 4.24575C75.9451 4.05356 76.0075 4.00059 76.1963 3.99974C76.4526 3.99974 76.7892 4.12104 76.9336 3.93738C77.0567 3.78192 76.9712 3.45988 76.9721 3.21131C76.9721 2.64155 76.9806 2.07008 76.9721 1.50289C76.9721 1.30728 77.0353 1.25859 77.2216 1.2603C78.1238 1.26884 79.0269 1.27055 79.93 1.2603C80.1359 1.2603 80.1667 1.33803 80.165 1.51656C80.1564 2.24264 80.1735 2.96871 80.1539 3.69479C80.147 3.96301 80.2393 4.02879 80.488 4.01597C80.8921 3.99547 81.2971 4.01598 81.7021 4.00658C81.8849 4.00145 81.9584 4.04416 81.9584 4.2449C81.9473 4.99148 81.9498 5.73892 81.9584 6.48549C81.9584 6.64865 81.908 6.6999 81.7456 6.69648C81.3184 6.68623 80.8912 6.70844 80.4692 6.68709C80.2128 6.67427 80.1599 6.76225 80.1607 7.00143C80.1701 8.93109 80.1607 10.8599 80.1735 12.7895C80.1735 13.0877 80.1035 13.1739 79.7993 13.1654C78.9799 13.1432 78.1597 13.1466 77.3395 13.1654C77.0661 13.1714 76.9669 13.115 76.9729 12.8143C76.9866 11.8405 76.9729 10.8795 76.9729 9.91513Z" fill="#386571"/>
<path d="M85.7654 7.23895C85.7654 9.10624 85.7654 10.9744 85.7706 12.8417C85.7706 13.0774 85.7236 13.1646 85.4673 13.1594C84.6052 13.1424 83.7431 13.1466 82.8818 13.1594C82.6699 13.1594 82.5964 13.109 82.5973 12.8852C82.6041 9.10795 82.6041 5.33093 82.5973 1.5542C82.5973 1.34578 82.6426 1.26378 82.8699 1.26719C83.7317 1.27972 84.5935 1.27972 85.4553 1.26719C85.6954 1.26719 85.7714 1.32271 85.7697 1.5747C85.7595 3.46164 85.7646 5.34859 85.7654 7.23895Z" fill="#386571"/>
<path d="M43.6851 12.9031C43.6851 16.6377 43.6851 20.3723 43.6851 24.1069C43.6851 24.2077 43.7543 24.3691 43.5997 24.3965C43.4177 24.4378 43.2282 24.4328 43.0486 24.382C43.0247 24.3743 43.0093 24.3136 43.0059 24.2752C42.9992 24.2027 42.9992 24.1298 43.0059 24.0574C43.0529 23.825 42.9631 1.59167 43.0007 1.51223C43.0057 1.50259 43.0124 1.49392 43.0204 1.48661C43.0337 1.47543 43.0501 1.46858 43.0674 1.46696C43.2515 1.44653 43.4371 1.44281 43.6219 1.45586C43.7005 1.45586 43.6894 1.54639 43.6902 1.60619C43.6902 1.76165 43.6902 1.91713 43.6902 2.07345L43.6851 12.9031Z" fill="#386571"/>
<path d="M47.9832 21.1822C48.0122 20.0819 48.3437 19.0791 49.1981 18.2719C49.6911 17.8063 50.2721 17.4697 51.0171 17.5577C51.8553 17.6577 52.5371 18.3026 52.7661 19.1713C52.8222 19.3714 52.8493 19.5786 52.8464 19.7864C52.837 20.1631 52.7516 20.263 52.3423 20.3032C51.3606 20.3997 50.3772 20.4808 49.3895 20.5022C49.1332 20.5073 49.0349 20.5739 49.0631 20.8242C49.1246 21.3641 49.2152 21.8937 49.4972 22.3789C50.1303 23.4655 51.3495 23.6525 52.3338 22.8248C52.4064 22.7633 52.45 22.5429 52.6251 22.6941C52.7687 22.8171 52.796 22.9572 52.6422 23.1212C52.4201 23.3852 52.1725 23.6266 51.9032 23.8422C50.836 24.6383 49.5476 24.4888 48.7239 23.4697C48.1771 22.7966 47.9985 22.0142 47.9832 21.1822ZM50.3182 19.8923V19.8667C50.6651 19.8667 51.0129 19.8718 51.3598 19.8667C51.5922 19.8667 51.7015 19.7437 51.6938 19.525C51.687 19.2327 51.6097 18.9464 51.4683 18.6904C51.0539 17.9669 50.2029 17.9045 49.674 18.5589C49.4006 18.9005 49.2622 19.2884 49.1656 19.6975C49.1281 19.8564 49.1776 19.8974 49.3417 19.894C49.6689 19.8872 49.9936 19.8923 50.3182 19.8923Z" fill="#386571"/>
<path d="M56.8771 21.0165C56.8843 20.489 57.0001 19.9687 57.2174 19.4879C57.4347 19.0072 57.7487 18.5764 58.1399 18.2224C58.8465 17.5646 59.7249 17.3733 60.4588 17.7099C61.2602 18.0763 61.854 19.1321 61.7293 19.9513C61.6857 20.2392 61.4602 20.2861 61.2166 20.3041C60.2888 20.3758 59.3609 20.4442 58.4321 20.5014C57.9255 20.5321 57.9195 20.5211 57.9673 20.99C58.0014 21.4694 58.139 21.9356 58.3706 22.3567C59.0157 23.4672 60.2119 23.656 61.2252 22.8172C61.2944 22.7599 61.3388 22.5293 61.5191 22.7035C61.6464 22.8274 61.6763 22.9495 61.5353 23.1076C61.3062 23.3789 61.0518 23.6281 60.7758 23.8516C59.5001 24.8357 58.1707 24.2274 57.5589 23.4108C57.0583 22.7411 56.8737 21.9843 56.8771 21.0165ZM59.2148 19.8932V19.8701C59.5617 19.8701 59.9086 19.8744 60.2554 19.8701C60.4708 19.8701 60.5818 19.7617 60.5793 19.5558C60.5857 19.1986 60.4756 18.8489 60.2657 18.5598C59.8385 17.9926 59.137 17.9567 58.6423 18.4744C58.3006 18.8357 58.157 19.2824 58.0442 19.7386C58.0032 19.9094 58.1246 19.8992 58.2408 19.8992L59.2148 19.8932Z" fill="#386571"/>
<path d="M63.6662 20.7013C63.6477 21.2833 63.7959 21.8586 64.0934 22.3593C64.7923 23.4945 66.0457 23.6594 67.0676 22.7616C67.1428 22.6959 67.1923 22.484 67.364 22.6198C67.5101 22.7351 67.5452 22.8761 67.3991 23.0469C67.1682 23.33 66.9079 23.5877 66.6224 23.8157C65.5425 24.6281 64.2232 24.517 63.3637 23.5005C61.8044 21.6546 62.5725 18.3633 65.3741 17.6125C65.6475 17.5308 65.9352 17.5086 66.2179 17.5473C66.5005 17.5861 66.7716 17.6849 67.0129 17.8371C67.3914 18.0754 67.4444 18.506 67.1667 18.8434C67.0035 19.0424 66.8394 19.0783 66.6455 18.8767C66.5029 18.7272 66.3397 18.5986 66.161 18.4948C65.4194 18.072 64.6163 18.23 64.1344 18.8989C63.7576 19.4259 63.6653 20.0145 63.6662 20.7013Z" fill="#386571"/>
<path d="M80.8565 21.0522C80.8642 19.501 82.0108 18.0181 83.653 17.6123C84.2254 17.4705 84.7637 17.5269 85.2635 17.8302C85.6617 18.0728 85.7249 18.4776 85.4472 18.8296C85.2618 19.0645 85.1328 19.079 84.909 18.8714C84.6612 18.6408 84.3963 18.4366 84.0546 18.3367C83.3411 18.1257 82.6704 18.4059 82.2911 19.0713C81.9032 19.7547 81.8895 20.4842 81.9707 21.2231C82.011 21.5763 82.118 21.9186 82.2859 22.2319C82.8669 23.3347 84.2382 23.8199 85.3618 22.7282C85.5591 22.536 85.6531 22.5574 85.7548 22.7795C85.8018 22.8828 85.7386 22.94 85.6924 23.0024C85.3884 23.4244 85.0011 23.7797 84.5544 24.0462C83.5769 24.616 82.3611 24.3879 81.6041 23.4731C81.0564 22.8136 80.8377 22.0559 80.8565 21.0522Z" fill="#386571"/>
<path d="M68.9509 20.6738C68.9509 19.9793 68.9415 19.284 68.956 18.5895C68.956 18.3751 68.903 18.2863 68.6604 18.3111C68.4925 18.3213 68.3242 18.3213 68.1563 18.3111C68.0196 18.3111 67.9529 18.2163 68.0222 18.1283C68.1717 17.9404 68.2605 17.6559 68.616 17.714C68.9107 17.7627 69.0107 17.6286 68.9483 17.386C68.7578 16.6428 69.3448 16.2328 69.754 15.7459C69.7771 15.7146 69.8106 15.6925 69.8485 15.6836C69.8863 15.6746 69.9262 15.6795 69.9608 15.6972C70.0599 15.7374 70.0283 15.8194 70.0283 15.886C70.0283 16.4045 70.0411 16.9238 70.0283 17.4415C70.0206 17.6644 70.1026 17.7285 70.3333 17.7165C70.6469 17.7012 70.9622 17.7217 71.2732 17.7097C71.4868 17.702 71.6312 17.7464 71.6149 17.9737C71.5978 18.1753 71.5389 18.3333 71.2535 18.3153C70.9288 18.2974 70.6025 18.3205 70.2778 18.3085C70.0855 18.3008 70.03 18.3632 70.0309 18.5383C70.0386 19.8145 70.0351 21.0898 70.0385 22.3651C70.0443 22.458 70.0589 22.5501 70.0821 22.6402C70.253 23.4944 70.5785 23.6652 71.4321 23.3483C71.5175 23.3176 71.6166 23.2193 71.6696 23.3748C71.7064 23.4859 71.808 23.6165 71.6431 23.7079C71.2791 23.9104 70.9442 24.1632 70.5418 24.3008C70.2888 24.3843 70.0143 24.3744 69.7679 24.2731C69.5215 24.1717 69.3196 23.9854 69.1987 23.7481C69.0284 23.4005 68.9454 23.0168 68.9569 22.6299C68.9432 21.9807 68.9509 21.3273 68.9509 20.6738Z" fill="#386571"/>
<path d="M55.2857 18.822C55.2857 20.0748 55.2857 21.3297 55.2857 22.5865C55.2869 22.7523 55.2966 22.918 55.3148 23.0828C55.3643 23.5663 55.4617 23.6645 55.9778 23.7456C56.1419 23.7713 56.2743 23.7901 56.2666 24.0019C56.2589 24.2325 56.0957 24.1727 55.9641 24.1727C55.1559 24.1727 54.3482 24.1727 53.541 24.1727C53.4223 24.1727 53.2616 24.2342 53.2522 24.0198C53.2454 23.8541 53.3027 23.7806 53.4821 23.7473C54.0964 23.6354 54.1246 23.6021 54.2015 23.0324C54.2208 22.9097 54.2317 22.7858 54.234 22.6616C54.234 20.6081 54.234 18.5549 54.234 16.502C54.2352 16.3775 54.2284 16.2531 54.2135 16.1295C54.128 15.523 54.128 15.5162 53.4804 15.4043C53.3343 15.3787 53.2975 15.33 53.2992 15.2061C53.3009 15.0823 53.3206 15.0208 53.4701 14.9943C54.0086 14.906 54.5374 14.7661 55.0491 14.5766C55.3285 14.4689 55.284 14.6321 55.284 14.7765C55.284 15.9382 55.284 17.0996 55.284 18.2608L55.2857 18.822Z" fill="#386571"/>
<path d="M74.2685 17.5022V19.0398C74.4496 18.7767 74.5803 18.5802 74.7179 18.3889C74.9247 18.1027 75.1579 17.8362 75.4868 17.6594C75.9021 17.4347 76.3532 17.5509 76.5805 17.9319C76.6819 18.1189 76.7048 18.3385 76.6443 18.5424C76.5837 18.7464 76.4446 18.9179 76.2575 19.0193C76.0935 19.0996 75.9721 19.0645 75.8406 18.9441C75.4399 18.5776 75.1212 18.5947 74.7828 19.0124C74.4641 19.4071 74.2428 19.8316 74.2608 20.3561C74.289 21.2103 74.2608 22.0568 74.271 22.9076C74.2762 23.538 74.4043 23.6687 75.0716 23.7507C75.2357 23.7712 75.3672 23.7832 75.3621 23.9984C75.357 24.2274 75.2006 24.1761 75.0665 24.1761C74.2249 24.1761 73.3833 24.1761 72.5417 24.1761C72.4119 24.1761 72.27 24.212 72.2666 24.0053C72.2666 23.8344 72.3384 23.7738 72.5118 23.7447C73.0646 23.6542 73.1859 23.5261 73.1885 22.9973C73.1953 21.7223 73.1953 20.4464 73.1885 19.1696C73.1885 18.7066 73.0783 18.5913 72.5904 18.4811C72.4648 18.4529 72.3589 18.4401 72.364 18.2753C72.364 18.1266 72.4349 18.0865 72.5793 18.06C73.163 17.9435 73.7302 17.7562 74.2685 17.5022Z" fill="#386571"/>
<path d="M79.2451 17.5142C79.2451 19.1457 79.2451 20.7209 79.2451 22.2977C79.2379 22.5879 79.2471 22.8782 79.2724 23.1673C79.3168 23.562 79.457 23.6798 79.8867 23.7456C80.0354 23.7687 80.2097 23.7456 80.196 23.9762C80.1875 24.1121 80.1678 24.1821 79.9935 24.1804C79.1391 24.1736 78.2847 24.1804 77.4354 24.1804C77.3235 24.1804 77.2329 24.1701 77.2389 24.0343C77.2449 23.9233 77.2073 23.796 77.3876 23.7704C77.4653 23.7593 77.5431 23.7516 77.62 23.7388C77.9199 23.6892 78.1104 23.5346 78.1386 23.2476C78.1625 22.9999 78.1771 22.7513 78.1779 22.5027C78.1779 21.4657 78.183 20.4287 78.1779 19.3917C78.1779 18.7212 78.1548 18.6989 77.4816 18.4956C77.356 18.4581 77.3218 18.3991 77.3321 18.2949C77.3423 18.1907 77.3124 18.0925 77.4807 18.0626C78.0883 17.9495 78.6805 17.7654 79.2451 17.5142Z" fill="#386571"/>
<path d="M77.9529 15.5033C77.9529 15.0762 78.2776 14.7252 78.6544 14.7346C79.0312 14.744 79.3157 15.0891 79.3149 15.5033C79.314 15.9176 79.0133 16.2627 78.6502 16.2721C78.2691 16.2824 77.9512 15.9287 77.9529 15.5033Z" fill="#386571"/>
</svg>
