<svg width="87" height="25" viewBox="0 0 87 25" fill="none" xmlns="http://www.w3.org/2000/svg">
<path d="M0.583557 0.79541H20.995L19.1093 7.45045H8.51464V9.39153H18.3882L16.7243 15.6573H8.62644V17.7092H16.0582L14.2834 24.3633H0.583557V0.79541Z" fill="#2165AE"/>
<path d="M32.4204 18.1526H24.6396L22.754 24.3633H34.307L32.4204 18.1526Z" fill="#2165AE"/>
<path d="M30.8044 12.8295L28.5302 5.34277L26.257 12.8295H30.8044Z" fill="#2165AE"/>
<path d="M38.9937 7.5064H32.3381V0.796387H53.4705C53.4705 0.796387 36.4704 9.0032 49.7817 24.3643H39.2228L38.9937 7.5064Z" fill="#2165AE"/>
<path d="M57.3855 18.4126C59.7977 18.4126 61.7532 16.2131 61.7532 13.4999C61.7532 10.7867 59.7977 8.58716 57.3855 8.58716C54.9732 8.58716 53.0177 10.7867 53.0177 13.4999C53.0177 16.2131 54.9732 18.4126 57.3855 18.4126Z" fill="#2165AE"/>
<path d="M71.192 9.61322V24.3633H64.5913V0.79541H75.4636L79.956 15.7681V0.79541H87.0001V24.3633H75.7962L71.192 9.61322Z" fill="#2165AE"/>
</svg>
