<svg width="631" height="576" viewBox="0 0 631 576" fill="none" xmlns="http://www.w3.org/2000/svg">
<g opacity="0.88">
<path fill-rule="evenodd" clip-rule="evenodd" d="M630.893 121.057C577.901 217.899 523.868 314.499 468.794 410.857C437.737 465.406 406.588 520.141 375.347 575.062L273.366 396.055L252.991 360.341L244.735 345.791L221.37 304.786H273.789L372.793 488.356L389.027 460.168L571.065 144.152L630.893 121.057Z" fill="white"/>
<path fill-rule="evenodd" clip-rule="evenodd" d="M553.839 135.013L408.542 387.366L384.753 428.662L377.066 442.048L293.873 287.67L293.727 287.393L256.841 222.737L251.284 232.42L243.028 246.943L178.067 361.162L147.306 414.984L82.6217 440.05L82.0527 440.196L227.35 187.843L251.139 146.547L258.839 133.161L342.019 287.393L342.164 287.67L379.051 352.472L384.475 342.789L392.731 328.265L457.825 214.047L488.454 160.079L553.27 135.145L553.839 135.013Z" fill="white"/>
<path fill-rule="evenodd" clip-rule="evenodd" d="M0 454.019C52.9925 357.176 107.026 260.572 162.1 164.206C193.148 109.673 224.297 54.938 255.547 0L357.528 179.02L377.903 214.734L386.172 229.285L409.523 270.29H357.104L258.18 86.8781L241.933 115.079L60.04 431.082L0 454.019Z" fill="white"/>
</g>
</svg>
