<svg width="87" height="20" viewBox="0 0 87 20" fill="none" xmlns="http://www.w3.org/2000/svg">
<path d="M64.3565 0.0148835H60.9834C60.4139 0.0148835 60.2038 0.224013 60.2038 0.788027C60.2038 4.48052 60.2038 8.17271 60.2038 11.8646C60.2038 11.947 60.2337 12.0402 60.1594 12.1281C60.0861 12.0457 60.0199 11.9741 59.9575 11.8999C56.6976 8.04687 53.4362 4.19293 50.1733 0.338083C50.0916 0.231207 49.9853 0.145664 49.8634 0.0887556C49.7415 0.0318468 49.6077 0.00526157 49.4733 0.0112642C48.2581 0.0212227 47.0428 0.0112642 45.8276 0.0112642C45.2417 0.0112642 45.0362 0.214959 45.0362 0.796174V18.9288C45.0362 18.9813 45.0362 19.0338 45.0362 19.0863C45.035 19.1692 45.0507 19.2515 45.0824 19.3282C45.114 19.4048 45.1608 19.4743 45.2201 19.5323C45.2794 19.5903 45.3499 19.6356 45.4272 19.6656C45.5046 19.6955 45.5872 19.7094 45.6701 19.7065C46.8699 19.7065 48.0697 19.7065 49.2695 19.7065C49.4295 19.7106 49.5848 19.6529 49.7033 19.5453C49.8898 19.3806 49.9115 19.1597 49.9115 18.9261C49.9115 15.2414 49.9115 11.5568 49.9115 7.87215V7.56977C49.9948 7.6603 50.0429 7.70738 50.0854 7.75808C53.3942 11.6503 56.7024 15.5432 60.01 19.4367C60.0793 19.5254 60.1688 19.5963 60.271 19.6436C60.3732 19.6908 60.4852 19.713 60.5977 19.7083C61.8428 19.7019 63.0879 19.7083 64.333 19.7083C64.8763 19.7083 65.0981 19.4865 65.0981 18.9397V0.764487C65.0991 0.248456 64.8672 0.0148835 64.3565 0.0148835Z" fill="#1E59A4"/>
<path d="M19.5816 11.6681C18.6392 11.6591 17.696 11.6591 16.7518 11.6681C16.3154 11.6727 16.0374 11.9714 16.0356 12.4051C16.0356 12.8795 16.0356 13.3548 16.0356 13.8291C16.0341 14.3557 15.8242 14.8602 15.4517 15.2324C15.0793 15.6046 14.5745 15.8142 14.0479 15.8154C11.6863 15.8196 9.32437 15.8196 6.96215 15.8154C6.70141 15.816 6.44315 15.765 6.2022 15.6654C5.96125 15.5658 5.74239 15.4195 5.55823 15.235C5.37407 15.0504 5.22825 14.8313 5.12916 14.5902C5.03007 14.3491 4.97967 14.0907 4.98086 13.83C4.98086 11.1787 4.98086 8.52639 4.98086 5.8732C4.97836 5.61428 5.02698 5.35741 5.12394 5.11731C5.2209 4.87721 5.3643 4.6586 5.54591 4.474C5.72753 4.2894 5.94378 4.14244 6.1823 4.04155C6.42082 3.94065 6.67692 3.8878 6.93591 3.88603C9.31322 3.87335 11.6902 3.87335 14.0669 3.88603C14.5081 3.89144 14.9349 4.04309 15.2806 4.31721C15.6262 4.59132 15.871 4.97239 15.9767 5.40063C16.0582 5.72745 16.0328 6.0597 16.0356 6.39014C16.0356 6.85004 16.3072 7.12797 16.76 7.12979C17.6884 7.12979 18.6166 7.12979 19.5445 7.12979C19.9972 7.12979 20.2879 6.88535 20.306 6.43993C20.3341 5.71024 20.3658 4.97603 20.2761 4.25087C19.9683 1.77754 17.9426 0.0139798 15.4397 0.0139798H10.481C9.56827 0.0139798 8.65459 0.0139798 7.74182 0.0139798C6.82905 0.0139798 5.93076 -0.028572 5.02523 0.0348004C2.59842 0.204095 0.640672 2.31802 0.639767 4.75332C0.639767 8.16728 0.630711 11.5803 0.639767 14.9934C0.6452 16.3396 1.16405 17.4866 2.1393 18.4119C3.07743 19.3027 4.21298 19.7282 5.50607 19.7291C8.79676 19.7291 12.0868 19.7291 15.3763 19.7291C15.7003 19.7291 16.0238 19.7055 16.3443 19.6585C18.4904 19.3407 20.2653 17.3662 20.3287 15.198C20.3549 14.2727 20.3413 13.3448 20.3377 12.4187C20.3413 11.9796 20.0344 11.6727 19.5816 11.6681Z" fill="#1E59A4"/>
<path d="M41.5303 7.47382C36.8215 7.47382 32.1128 7.47563 27.4041 7.47925C27.1831 7.47925 27.1324 7.4195 27.1324 7.20765C27.1415 5.06839 27.1378 2.92821 27.1378 0.788039C27.1378 0.2367 26.9214 0.0176125 26.3763 0.0176125H23.0485C22.4599 0.0176125 22.2598 0.232175 22.2598 0.811579V9.8539C22.2598 12.8903 22.2598 15.9268 22.2598 18.9632C22.2598 19.472 22.4898 19.7092 22.9787 19.7101H26.3971C26.9115 19.7101 27.1369 19.4829 27.1369 18.965C27.1369 16.4935 27.1369 14.022 27.1315 11.5505C27.1315 11.3477 27.1867 11.3033 27.3832 11.3033C30.6588 11.31 33.9341 11.31 37.2091 11.3033C37.4047 11.3033 37.459 11.3441 37.4581 11.5478C37.45 14.0347 37.4527 16.5207 37.4581 19.0076C37.4581 19.4738 37.6972 19.7092 38.169 19.7101H41.5421C42.1243 19.7101 42.3408 19.4901 42.3408 18.9008V8.27231C42.3362 7.68476 42.1234 7.47382 41.5303 7.47382Z" fill="#1E59A4"/>
<path d="M86.02 0.0140076H67.6378C67.1325 0.0140076 66.8925 0.254821 66.8916 0.761799C66.8916 1.53072 66.8916 2.29933 66.8916 3.06765C66.8916 3.64433 67.1216 3.87429 67.7011 3.87429C69.7078 3.87429 71.7153 3.87972 73.7229 3.86795C73.9611 3.86795 73.9946 3.93675 73.9946 4.15403C73.9879 9.09586 73.9864 14.0383 73.9901 18.9813C73.9901 19.434 74.2255 19.7056 74.6393 19.7056C76.1039 19.7056 77.5678 19.7056 79.0311 19.7056C79.1142 19.7086 79.197 19.695 79.2747 19.6656C79.3525 19.6362 79.4236 19.5916 79.4839 19.5345C79.665 19.3652 79.6894 19.1443 79.6894 18.9116C79.6894 13.9764 79.6879 9.04155 79.6849 4.10695C79.6849 3.92589 79.7239 3.86704 79.9167 3.86885C81.2071 3.87791 82.4975 3.87338 83.7879 3.87338C84.5422 3.87338 85.2974 3.87338 86.0517 3.87338C86.5234 3.87338 86.7662 3.62623 86.7671 3.16542C86.7671 2.36572 86.7671 1.56693 86.7671 0.769043C86.7716 0.232189 86.5543 0.0140076 86.02 0.0140076Z" fill="#1E59A4"/>
<path d="M37.7717 4.8837C39.1825 4.8837 40.5928 4.8837 42.0024 4.8837C42.2686 4.8837 42.3329 4.81852 42.3329 4.54874C42.3329 3.14791 42.3329 1.74708 42.3329 0.346245C42.3329 0.0746495 42.2731 0.0158043 42.0005 0.0158043H37.7699C37.4982 0.0158043 37.4512 0.0601651 37.4512 0.327234C37.4512 1.02735 37.4512 1.72746 37.4512 2.42758C37.4512 3.12769 37.4512 3.83565 37.4512 4.55145C37.4512 4.84296 37.4883 4.8837 37.7717 4.8837Z" fill="#E41A22"/>
</svg>
