<svg width="287" height="262" viewBox="0 0 287 262" fill="none" xmlns="http://www.w3.org/2000/svg">
<path fill-rule="evenodd" clip-rule="evenodd" d="M286.486 54.9574C262.428 98.9217 237.899 142.776 212.896 186.52C198.797 211.285 184.656 236.133 170.473 261.066L124.176 179.801L114.926 163.587L111.178 156.982L100.571 138.366H124.368L169.314 221.703L176.684 208.907L259.325 65.4421L286.486 54.9574Z" fill="white"/>
<path fill-rule="evenodd" clip-rule="evenodd" d="M251.505 61.2925L185.543 175.855L174.744 194.603L171.254 200.68L133.486 130.596L133.42 130.47L116.674 101.117L114.151 105.513L110.404 112.106L80.9124 163.959L66.9476 188.393L37.5825 199.773L37.3242 199.839L103.286 85.2763L114.085 66.5288L117.581 60.4518L155.343 130.47L155.409 130.596L172.155 160.014L174.617 155.618L178.365 149.025L207.917 97.1721L221.821 72.6719L251.246 61.3525L251.505 61.2925Z" fill="white"/>
<path fill-rule="evenodd" clip-rule="evenodd" d="M0.0771484 206.114C24.1346 162.15 48.6645 118.294 73.667 74.5457C87.7619 49.7892 101.903 24.9406 116.09 0L162.387 81.2712L171.637 97.4846L175.391 104.09L185.992 122.705H162.195L117.285 39.4407L109.909 52.2432L27.334 195.702L0.0771484 206.114Z" fill="white"/>
</svg>
