<svg width="150" height="47" viewBox="0 0 150 47" fill="none" xmlns="http://www.w3.org/2000/svg">
<path fill-rule="evenodd" clip-rule="evenodd" d="M49.4367 10.4819C45.2842 18.0706 41.0501 25.6402 36.7345 33.1908C34.3009 37.4654 31.86 41.7545 29.4119 46.0581L21.4206 32.031L19.824 29.2324L19.1771 28.0923L17.3462 24.8791H21.4538L29.2118 39.2637L30.4839 37.055L44.7485 12.2917L49.4367 10.4819Z" fill="white"/>
<path fill-rule="evenodd" clip-rule="evenodd" d="M43.3987 11.5755L32.0131 31.35L30.149 34.586L29.5466 35.6349L23.0276 23.5378L23.0162 23.516L20.1257 18.4496L19.6903 19.2083L19.0433 20.3464L13.9529 29.2967L11.5425 33.5142L6.47379 35.4784L6.4292 35.4898L17.8148 15.7153L19.6789 12.4793L20.2823 11.4303L26.8003 23.516L26.8117 23.5378L29.7022 28.6157L30.1272 27.8569L30.7742 26.7189L35.875 17.7686L38.2751 13.5396L43.3541 11.5858L43.3987 11.5755Z" fill="white"/>
<path fill-rule="evenodd" clip-rule="evenodd" d="M0 36.573C4.15253 28.9844 8.38662 21.4144 12.7023 13.8631C15.1352 9.58989 17.576 5.30079 20.0248 0.995819L28.0161 15.024L29.6127 17.8225L30.2607 18.9627L32.0905 22.1759H27.9829L20.2311 7.80364L18.958 10.0135L4.70477 34.7757L0 36.573Z" fill="white"/>
<path d="M76.4943 14.1331V23.9042L69.0796 14.1199H65.9248V29.2946H69.2985V19.7816L76.4967 29.2946H79.8691V14.1331H76.4943Z" fill="white"/>
<path d="M95.8809 26.2998C94.9117 26.2998 94.146 25.954 93.5791 25.2635C93.0121 24.573 92.7177 23.6259 92.7177 22.4113V14.1198H89.3013V22.5266C89.3013 24.6883 89.9143 26.3652 91.1524 27.5286C92.3906 28.692 93.957 29.2945 95.8773 29.2945C97.7975 29.2945 99.3603 28.7003 100.586 27.5417C101.812 26.383 102.425 24.7014 102.425 22.5266V14.1198H99.0077V22.4113C99.0077 23.614 98.7206 24.56 98.1597 25.2635C97.5988 25.967 96.8464 26.2998 95.8809 26.2998Z" fill="white"/>
<path d="M124.471 19.1513C124.471 17.3809 123.971 16.1003 122.972 15.3096C121.975 14.5076 120.31 14.1198 117.967 14.1198H112.27V29.2945H115.623V24.4348H117.941L121.271 29.2813H125.394L121.588 23.8537C123.523 23.1442 124.471 21.5811 124.471 19.1513ZM120.438 20.9521C120.028 21.3266 119.235 21.5211 118.094 21.5211H115.649V17.0227H118.172C119.242 17.0227 120.002 17.1776 120.431 17.4753C120.86 17.773 121.071 18.3409 121.071 19.1561C121.071 19.9712 120.847 20.5727 120.438 20.9473V20.9521Z" fill="white"/>
<path d="M146.397 29.2945H150L143.443 14.1198H140.163L133.595 29.2945H137.198L138.607 26.012H144.972L146.397 29.2945ZM141.806 18.6306L143.694 23.0393H139.892L141.806 18.6306Z" fill="white"/>
<path d="M69.5797 34.9732C69.2463 34.4732 68.7635 34.216 68.1324 34.216C67.5012 34.216 66.9931 34.4339 66.6218 34.8577C66.2505 35.2816 66.0769 35.7936 66.0769 36.4055C66.0623 36.9744 66.2571 37.5277 66.6218 37.9533C66.8072 38.1618 67.0334 38.3269 67.2854 38.4374C67.5375 38.5479 67.8094 38.6012 68.0829 38.5939C68.7382 38.5939 69.2333 38.3375 69.5682 37.8248V38.4201C69.5682 38.8689 69.4532 39.2011 69.2463 39.4321C69.0394 39.6631 68.6715 39.7786 68.1933 39.7786C67.5622 39.7786 67.1587 39.5607 66.9805 39.1118H66.2907C66.3998 39.4857 66.6321 39.8081 66.9472 40.0226C67.2691 40.2524 67.7266 40.3679 68.2968 40.3679C68.867 40.3679 69.3314 40.2012 69.6705 39.881C70.0096 39.5607 70.1774 39.0868 70.1774 38.4582V34.2791H69.559V34.9721L69.5797 34.9732ZM68.1691 38.0105C67.9681 38.0188 67.7678 37.9819 67.5818 37.9024C67.3959 37.8228 67.2288 37.7025 67.092 37.5497C66.8363 37.2284 66.6964 36.8249 66.6964 36.4085C66.6964 35.9921 66.8363 35.5887 67.092 35.2673C67.2325 35.1214 67.3993 35.0055 67.5831 34.9265C67.7668 34.8474 67.9639 34.8068 68.1628 34.8068C68.3618 34.8068 68.5588 34.8474 68.7426 34.9265C68.9263 35.0055 69.0932 35.1214 69.2337 35.2673C69.4886 35.5873 69.6208 35.9934 69.605 36.4079C69.619 36.8226 69.487 37.2283 69.2337 37.5497C69.1018 37.6927 68.946 37.8097 68.7738 37.895C68.5786 37.9692 68.3725 38.0083 68.1645 38.0105H68.1691Z" fill="white"/>
<path d="M83.3016 34.2163H83.2603C83.002 34.2118 82.7458 34.2612 82.5098 34.3609C82.2792 34.4527 82.0726 34.5911 81.9044 34.7666C81.7361 34.942 81.6103 35.1502 81.5358 35.3766V34.2947H80.8408V38.7274H81.5358V36.7745C81.5249 36.3004 81.6813 35.8364 81.9801 35.4562C82.1225 35.2724 82.3094 35.1238 82.525 35.0227C82.7405 34.9216 82.9785 34.8711 83.2189 34.8754H83.3016V34.2163Z" fill="white"/>
<path d="M96.0154 34.2172C95.7351 34.2071 95.456 34.2607 95.197 34.3744C94.9381 34.4881 94.7054 34.6592 94.5147 34.8761C94.1598 35.3233 93.9653 35.8879 93.9653 36.4711C93.9653 37.0542 94.1598 37.6188 94.5147 38.0661C94.7061 38.2821 94.9389 38.4527 95.1976 38.5665C95.4564 38.6804 95.7352 38.7348 96.0154 38.7261C96.2959 38.7365 96.5752 38.6829 96.8342 38.569C97.0932 38.4551 97.3259 38.2835 97.5162 38.0661C97.8717 37.6191 98.0666 37.0544 98.0666 36.4711C98.0666 35.8877 97.8717 35.323 97.5162 34.8761C97.3247 34.6602 97.0919 34.4899 96.8331 34.3763C96.5744 34.2627 96.2956 34.2084 96.0154 34.2172ZM96.0154 38.1359C95.8145 38.146 95.614 38.1071 95.4297 38.0221C95.2453 37.9372 95.082 37.8084 94.9526 37.646C94.695 37.3169 94.5614 36.8993 94.5774 36.4729C94.5633 36.0464 94.6966 35.6291 94.9526 35.2985C95.0886 35.1448 95.2531 35.0222 95.436 34.9384C95.6188 34.8545 95.816 34.8113 96.0154 34.8113C96.2148 34.8113 96.4121 34.8545 96.5949 34.9384C96.7778 35.0222 96.9423 35.1448 97.0783 35.2985C97.3366 35.6277 97.4702 36.0461 97.4535 36.4729C97.468 36.8991 97.3346 37.3161 97.0783 37.646C96.9478 37.8068 96.7842 37.9342 96.6001 38.0184C96.4159 38.1027 96.216 38.1416 96.0154 38.1322V38.1359Z" fill="white"/>
<path d="M110.978 38.6714H111.601V34.216H110.978V36.7885C110.984 36.9715 110.954 37.1538 110.89 37.3236C110.825 37.4933 110.728 37.6467 110.604 37.7737C110.484 37.895 110.343 37.9901 110.189 38.0535C110.035 38.1169 109.871 38.1474 109.706 38.1431C109.548 38.1498 109.39 38.1203 109.244 38.0565C109.097 37.9928 108.965 37.8963 108.857 37.7737C108.632 37.5028 108.516 37.1492 108.534 36.7885V34.216H107.91V36.8021C107.91 37.3981 108.084 37.8755 108.433 38.2343C108.578 38.3999 108.758 38.5265 108.958 38.6037C109.19 38.6909 109.435 38.7327 109.681 38.7269C109.945 38.7274 110.204 38.6494 110.429 38.5015C110.64 38.3559 110.826 38.1716 110.978 37.9572V38.6739V38.6714Z" fill="white"/>
<path d="M122.121 34.9726V34.2814H121.443V40.3679H122.121V37.9381C122.293 38.1876 122.529 38.3904 122.806 38.527C123.083 38.6637 123.391 38.7295 123.702 38.7183C124.379 38.7183 124.924 38.501 125.337 38.0663C125.745 37.628 125.966 37.0567 125.954 36.4678C125.972 35.878 125.751 35.3045 125.337 34.8693C125.139 34.655 124.895 34.4854 124.622 34.3726C124.349 34.2599 124.053 34.2068 123.755 34.2173C123.025 34.2054 122.479 34.4608 122.121 34.9726ZM123.649 34.8063C123.871 34.8011 124.091 34.8417 124.295 34.9255C124.499 35.0093 124.682 35.1343 124.832 35.2921C125.106 35.6222 125.256 36.0324 125.256 36.4553C125.256 36.8782 125.106 37.2885 124.832 37.6186C124.683 37.7774 124.5 37.9031 124.296 37.987C124.092 38.0708 123.871 38.1109 123.649 38.1043C123.431 38.1137 123.213 38.0747 123.012 37.9906C122.812 37.9064 122.634 37.7791 122.493 37.6186C122.216 37.29 122.07 36.8775 122.08 36.4548C122.064 36.0315 122.21 35.6172 122.493 35.2921C122.635 35.1322 122.814 35.0054 123.015 34.9213C123.216 34.8372 123.434 34.7979 123.653 34.8063H123.649Z" fill="white"/>
</svg>
