<svg width="288" height="168" viewBox="0 0 288 168" fill="none" xmlns="http://www.w3.org/2000/svg">
<path fill-rule="evenodd" clip-rule="evenodd" d="M205.317 51.8129L228.841 49.6614L235.879 51.5953L236.674 58.6781L236.192 62.7152L238.53 62.3525L246.966 56.43L260.487 50.1207L263.404 52.1272L265.934 55.6806L269.646 58.3156L280.396 57.6387L284.518 58.5815L286.012 58.9199H286.036L287 63.803L281.408 71.2242L272.756 76.1799L255.619 82.5616L239.976 92.4728L226.816 95.833L220.405 98.5887L216.067 105.333L213.921 121.409L208.619 123.874L201.894 120.78L198.568 120.756L197.146 124.769L196.905 128.322L196.061 131.755L194.302 134.728L191.506 136.976L184.251 137.387L171.38 128.491L164.342 127.573L159.088 124.938L153.038 117.855L146.965 112.464L141.566 114.93L140.939 118.895V118.919L144.844 125.542L144.892 125.591L144.868 129.893L143.638 133.834L143.687 136.517V136.541L145.277 138.717L153.183 144.47H153.207L154.003 146.477L155.111 149.232L155.135 149.281L154.943 154.913L152.966 160.981L149.254 166.105L144.964 167L140.023 165.139L129.225 158.781L126.55 157.766L118.283 158.152L115.969 157.403L115.993 157.331L116.861 155.155L118.957 154.526L122.067 154.236L124.718 153.366L125.465 150.925L125.417 150.9L123.73 149.522L120.404 149.136L119.006 149.208L118.982 149.136L118.765 148.024L117.174 142.488L116.74 139.176L117.27 134.849L117.921 130.353L118.066 127.5L117.993 126.171L117.801 124.938L115.222 122.641L105.773 119.765L103.652 119.547L102.351 118.459L98.8078 113.214L96.229 111.352L94.4213 112.972L92.4206 115.462L89.3354 115.8L78.3207 113.431L69.7883 110.555L64.5824 110.893L60.9188 111.57L56.5802 110.869L54.8931 110.289L53.4229 109.515L46.0957 99.4106L44.4324 96.6064L42.9143 94.8176L40.8895 93.6573L31.345 90.3456L28.4045 90.1521L26.4038 90.4422L25.4879 91.0949L23.6802 90.9015L21.27 90.0313L16.3533 87.4931L14.425 87.3963L13.3163 88.1457L13.003 92.4003L12.2557 91.9168L10.4239 89.3303L6.44719 81.5947L1 73.3274L6.27831 68.13L3.38612 62.0625L1.19271 59.1374L1.02413 57.4936L1.79528 56.0917L7.7244 50.5558L10.0384 48.8878L12.4004 45.3344L31.2726 40.2578L37.3465 43.3279L44.9629 39.6535L47.084 39.0251H51.0606L55.4716 39.3634L60.4848 38.8801L84.3946 44.7059L87.576 45.0685L90.5888 44.4642L101.531 44.0289L104.303 43.5214L105.388 43.0137L106.231 42.5544L107.605 41.249L111.968 21.064L113.004 17.1239L123.513 13.9087L130.213 12.9659L131.587 11.8539L133.684 5.448L134.648 3.70743L137.998 1L140.433 2.66798L145.663 10.9113L149.471 13.3286L154.629 14.8516L164.342 15.7942L165.307 16.5436L165.813 17.5348L165.885 18.7677L165.596 20.2422L165.547 25.8021L168.85 27.5185L173.381 27.8327L176.9 29.2107L184.733 41.4907L190.397 47.7275L197.483 50.8701L205.317 51.8129Z" stroke="white" stroke-miterlimit="10"/>
</svg>
