<svg width="134" height="140" viewBox="0 0 134 140" fill="none" xmlns="http://www.w3.org/2000/svg">
<path fill-rule="evenodd" clip-rule="evenodd" d="M65.9558 43.0528L70.7906 41.3536L73.6903 37.0281L76.1024 31.9736L76.8313 30.9177L77.6353 30.2691L78.4501 29.985L79.2112 30.1887L80.0098 30.8587L80.8353 32.0969L81.0443 33.9246L81.114 37.4569L81.6768 38.62L83.3974 39.2364L94.3855 40.5496L95.302 39.6974L96.5348 34.9055L97.3067 34.4928L98.6789 33.9675L104.05 33.7263L105.818 33.3565L107.116 32.7937L108.418 30.9444L108.911 31.0088L109.265 32.2898L110.128 37.6874L110.498 39.1131L111.071 40.689L112.476 41.8628L113.88 42.6668L117.889 43.6531L130.191 44.5053L132.136 43.9425L131.177 47.2658L130.984 48.6326L130.893 50.0369L130.903 51.3608L130.995 52.4329L131.145 53.0707L131.112 53.6817L130.571 53.6657L128.449 53.2101L128.047 53.1832L127.666 53.2958L127.35 53.5745L126.889 54.266L126.819 54.9306L125.736 58.3182L124.847 59.358L124.096 60.0655L123.18 62.9921L122.74 63.8873L117.97 63.839L117.042 63.5335L116.174 62.9492L115.354 62.231L114.566 62.0059L113.655 62.0166L112.245 62.2578L111.57 62.633L111.195 63.0886L111.082 63.5925L111.023 64.0856L111.002 64.5519L111.216 65.5864L112.229 66.6102L111.559 68.6202L111.195 68.9686L111.002 69.0329L110.975 69.1562L111.034 69.3706L111.495 70.121L112.69 71.3431L113.312 72.131L113.483 72.474L113.435 72.6616L112.218 72.8064L111.94 72.876L111.688 73.0583L111.382 73.2887L111.023 73.3048L110.401 73.8087L108.477 77.7483L107.914 78.5362L107.201 79.2277L106.472 79.7476L103.991 80.8839L103.669 81.5807L103.358 81.9131L103.213 82.1382L101.895 83.8051L101.236 85.2738L100.662 86.6245L101.289 87.927L104.237 92.0221L105.368 92.7993L107.276 93.8552L107.33 94.1607L107.539 94.6378L107.684 95.088L108.252 95.3721L109.034 95.415L110.803 94.6056L111.414 94.7343L111.779 95.3292L116.619 97.6126L117.364 98.8615L117.696 100.035L117.712 100.893L117.841 102.04L118.168 103.139L118.951 103.589L119.921 103.943L120.537 104.286L121.255 105.015L121.904 105.91L122.07 106.21L122.322 106.794L122.724 108.193L122.794 108.558L122.896 110.021L120.982 111.474L116.908 115.553L116.399 115.949L115.922 116.126L115.547 116.094L115.054 116.153L114.754 116.298L114.512 116.485L111.42 119.867L111.028 120.398L110.782 120.843L110.739 121.132V121.4L110.782 121.652L110.846 121.894L111.039 122.349L111.323 122.762L112.62 124.359L112.76 124.568L112.872 124.831L112.904 125.136L112.808 125.571L112.62 125.785L112.39 125.924L105.636 128.379L103.455 129.167L97.8695 131.424L95.9667 132.732L92.2629 136.8L91.6357 137.459L91.6304 137.464L90.403 135.867L89.4381 135.267L88.2107 135.412L85.0697 136.987L84.0245 137.218L82.8238 136.987L81.6071 136.35L75.0732 131.665L69.4077 127.597L64.9106 124.365L62.4396 121.819L58.0819 115.703L55.5037 113.248L49.865 109.222L36.4809 99.6548L29.8881 94.938L24.3565 90.9661L19.6022 87.5572L17.2598 85.188L16.8203 84.9361L13.9098 81.2538L13.4649 79.8387L12.752 76.8586L12.6395 75.6418L12.811 74.4948L13.1487 73.53L13.3738 72.5705L13.213 71.4395L11.9694 68.7274L11.8033 67.6393L11.7711 66.2296L11.6211 65.1736L11.2887 64.2088L10.2435 62.1024L9.99162 61.1161L9.86832 58.8649L9.47705 58.3878L6.11629 56.4475L4.19206 55.8686L3.313 55.204L3.12005 54.8556H3.12538L11.5835 44.3124L13.6847 39.7296L13.1916 37.934L11.873 35.8864L5.24797 28.4145L14.419 24.0032L14.3868 23.2635L2.84668 7.19948L17.233 1.73224L20.6581 1.81265L21.9445 4.78747L22.9468 6.57237L29.7755 14.6392L35.2481 24.3462L36.2183 24.9037L39.8095 25.7291L45.1428 27.8088L51.3979 31.3357L63.6135 38.872L64.5301 40.4907L66.0201 42.0076L65.9558 43.0528Z" fill="#1C9CD9" fill-opacity="0.2" stroke="white" stroke-width="2.5" stroke-miterlimit="10"/>
</svg>
