<svg width="266" height="168" viewBox="0 0 266 168" fill="none" xmlns="http://www.w3.org/2000/svg">
<path d="M123.544 133.377L119.955 134.342L119.211 134.769L117.649 136.032L116.943 136.292L115.883 136.143L115.344 135.809L114.86 135.4L106.957 132.096L103.145 129.571L100.728 126.526L98.7936 121.494L96.4319 117.001L93.2335 114.996L88.8078 117.428L86.3719 123.165L85.5536 126.396L85.4049 129.441L86.1858 132.411L89.6631 140.06L91.2623 142.363L93.1035 143.347L96.8596 144.145L98.4774 145.445L99.1284 150.792L93.1035 160.279L93.3452 164.939L95.1117 165.83L97.1013 164.605L99.0353 162.693L100.597 161.56L103.275 161.69L103.945 163.268L104.279 165.292L105.934 166.814L108.017 167L114.674 165.218L119.397 165.106L121.35 164.382L122.856 162.154L123.135 156.51L116.924 149.826L116.608 145.092L118.895 142.845L125.422 138.278L126.371 135.4L125.292 133.692L123.544 133.377ZM265 59.2978L264.833 58.4623L263.605 54.2106L263.271 51.6671L263.661 48.3623L264.163 44.909L264.275 42.7182L264.238 41.697L264.089 40.7502L262.099 38.9678L254.791 36.777L253.173 36.6099L252.169 35.7744L249.417 31.7455L247.427 30.316L246.033 31.5599L244.489 33.4722L242.109 33.7135L233.611 31.9127L227.028 29.7033L223.011 29.9633L220.185 30.4831L216.838 29.9447L215.536 29.5176L214.402 28.905L208.749 21.1443L207.484 18.9906L206.313 17.6167L204.751 16.707L197.387 14.182L195.118 14.0149L193.575 14.2377L192.868 14.739L191.473 14.5718L189.614 13.9035L185.802 11.9541L184.314 11.8983L183.459 12.4553L183.217 15.7229L182.622 15.3516L181.227 13.3465L178.141 7.40534L173.957 1.05575L162.297 4.93601L149.801 11.7499L147.049 14.0891L142.623 20.903L133.418 29.5919L130.183 30.2417L128.175 29.6105L121.796 26.1201L118.932 23.7807L117.352 23.2052L114.767 22.7038L113.298 22.2397L112.275 21.6455L108.277 17.4682L107.236 16.967L101.732 16.3542L100.951 15.5559L109.914 3.32077L93.9774 4.17485L89.4772 3.54355L88.5661 2.74522L87.4318 1.94689L85.2188 1.01858L82.3738 1L75.7537 6.95977L73.8756 7.21973L69.952 6.81121L68.0552 6.95977L65.6751 8.09228L64.113 9.80034L62.8114 11.7127L61.305 13.4208L57.679 15.7044L57.6604 15.7787L55.4846 17.1526L54.9827 17.9137L54.741 18.7864L54.2575 19.5105L51.9517 20.0303L50.7615 20.6244L48.7531 22.2211L46.6518 24.1705L38.0979 31.2072L33.1514 37.3526L31.3477 38.8936L29.2278 39.8961L27.1451 40.4716L25.1741 41.3442L23.2587 43.2566L19.8745 49.0306L18.4612 50.8872L17.1038 51.4442L7.41535 53.7279L3.23137 56.4385L1 60.0219L1.22314 63.9021L1.44627 64.7748L1.68802 65.276L3.54757 68.0053L3.47312 67.9309L3.77071 68.2095L4.97946 69.6576L5.36989 70.4374L3.47312 76.8613L10.4837 79.9805L13.4403 80.8344L16.5272 80.556L19.1678 79.7391L21.8455 79.4606L24.951 80.7602L28.6887 86.9056L30.5669 95.4274L33.0772 103.262L38.7487 107.347L44.6808 107.718L50.7243 107.217L70.7889 101.034L83.2664 99.9019L86.1672 100.18L91.2623 94.9818L99.4444 93.5708L115.79 95.9287L120.253 95.4832L122.242 92.3826L123.488 88.2981L125.683 84.9376L127.691 84.3249L129.123 85.476L130.369 87.4069L131.838 89.115L133.79 89.9505L136.115 90.1733L140.54 89.7091L143.386 89.9133L147.811 94.0721L154.115 96.0215L155.473 98.2309L156.588 100.96L159.154 103.411L162.149 105.305L165.365 106.549L171.985 107.867L175.463 107.533L176.69 105.416L177.025 102.223L177.88 98.6951L180.446 96.3929L182.938 98.5651L184.928 102.742L185.913 106.474L185.876 114.031L186.75 116.834L189.595 118.078L191.548 117.503L198.949 113.121L201.217 110.949L202.742 108.442L205.383 102.594L209.753 98.1939L214.885 97.8967L220.427 99.252L225.987 99.7162L227.623 99.1964L228.441 99.0664L229.557 99.3078L231.249 100.013L233.481 100.385L235.47 99.8833L236.382 97.8781L235.601 96.43L234.671 95.8173L233.648 95.1304L229.576 93.2366L226.935 91.3058L225.931 88.5394L226.712 85.9401L238.892 79.7391L242.611 76.0259L244.657 70.8644L245.512 67.4111L246.814 65.4988L256.186 60.3189L258.547 59.7062L264.981 59.372L265 59.2978ZM199.153 146.986L194.002 150.847L191.566 152.054L188.033 152.24L185.746 154.969L187.122 157.606L190.153 159.796L192.868 161.096L196.476 162.191L198.67 161.764L200.046 159.499L203.244 147.784L202.649 145.872L199.153 146.986Z" stroke="white" stroke-miterlimit="10"/>
</svg>
