<svg width="184" height="56" viewBox="0 0 184 56" fill="none" xmlns="http://www.w3.org/2000/svg">
<path fill-rule="evenodd" clip-rule="evenodd" d="M60.6427 11.6362C55.5489 20.9449 50.3551 30.2304 45.0612 39.4925C42.076 44.7359 39.0819 49.9972 36.0789 55.2762L26.2763 38.0697L24.3178 34.6368L23.5242 33.2382L21.2783 29.2967H26.317L35.8335 46.9419L37.3939 44.2324L54.8918 13.8562L60.6427 11.6362Z" fill="#3C79BF"/>
<path fill-rule="evenodd" clip-rule="evenodd" d="M53.2359 12.9778L39.2696 37.2346L36.983 41.204L36.2441 42.4907L28.2474 27.6516L28.2334 27.6249L24.6878 21.4101L24.1536 22.3408L23.3601 23.7368L17.1158 34.7158L14.159 39.8893L7.94141 42.2987L7.88672 42.3127L21.853 18.056L24.1396 14.0865L24.8798 12.7998L32.8753 27.6249L32.8893 27.6516L36.4349 33.8805L36.9563 32.9498L37.7499 31.5537L44.0069 20.5747L46.951 15.3872L53.1812 12.9905L53.2359 12.9778Z" fill="#3C79BF"/>
<path fill-rule="evenodd" clip-rule="evenodd" d="M0 43.6413C5.09377 34.3326 10.2876 25.0468 15.5814 15.7838C18.5658 10.5421 21.5599 5.28077 24.5638 0L34.3664 17.2078L36.3249 20.6408L37.1197 22.0394L39.3644 25.9809H34.3257L24.8169 8.35092L23.2551 11.0616L5.77118 41.4367L0 43.6413Z" fill="#3C79BF"/>
<path d="M93.8334 16.1148V28.1007L84.7381 16.0986H80.8682V34.7129H85.0065V23.0436L93.8363 34.7129H97.9732V16.1148H93.8334Z" fill="#3C79BF"/>
<path d="M117.614 31.0394C116.425 31.0394 115.486 30.6151 114.79 29.7682C114.095 28.9212 113.734 27.7594 113.734 26.2695V16.0986H109.543V26.4109C109.543 29.0626 110.295 31.1195 111.814 32.5467C113.333 33.9739 115.254 34.7129 117.61 34.7129C119.965 34.7129 121.882 33.984 123.386 32.5627C124.89 31.1414 125.642 29.0786 125.642 26.4109V16.0986H121.45V26.2695C121.45 27.7448 121.097 28.9052 120.409 29.7682C119.721 30.6312 118.798 31.0394 117.614 31.0394Z" fill="#3C79BF"/>
<path d="M152.684 22.2705C152.684 20.0989 152.071 18.528 150.846 17.5581C149.622 16.5743 147.579 16.0986 144.706 16.0986H137.717V34.7129H141.83V28.7517H144.674L148.758 34.6967H153.816L149.148 28.0389C151.521 27.1685 152.684 25.2512 152.684 22.2705ZM147.737 24.4795C147.234 24.939 146.261 25.1775 144.862 25.1775H141.863V19.6595H144.957C146.27 19.6595 147.202 19.8495 147.728 20.2147C148.255 20.5799 148.513 21.2765 148.513 22.2764C148.513 23.2763 148.239 24.0141 147.737 24.4736V24.4795Z" fill="#3C79BF"/>
<path d="M179.58 34.7129H184L175.957 16.0986H171.933L163.876 34.7129H168.296L170.024 30.6864H177.832L179.58 34.7129ZM173.949 21.6318L176.265 27.0398H171.6L173.949 21.6318Z" fill="#3C79BF"/>
<path d="M85.3513 41.6789C84.9424 41.0655 84.3501 40.75 83.576 40.75C82.8018 40.75 82.1785 41.0173 81.7231 41.5372C81.2676 42.0571 81.0547 42.6851 81.0547 43.4358C81.0367 44.1336 81.2757 44.8124 81.7231 45.3345C81.9504 45.5902 82.228 45.7927 82.5371 45.9282C82.8462 46.0637 83.1798 46.1292 83.5153 46.1202C84.3191 46.1202 84.9264 45.8057 85.3372 45.1768V45.907C85.3372 46.4576 85.1962 46.8651 84.9424 47.1484C84.6886 47.4317 84.2373 47.5734 83.6507 47.5734C82.8765 47.5734 82.3816 47.3062 82.163 46.7556H81.3169C81.4506 47.2142 81.7356 47.6096 82.1221 47.8728C82.517 48.1547 83.0782 48.2963 83.7776 48.2963C84.4771 48.2963 85.0468 48.0919 85.4627 47.699C85.8787 47.3061 86.0846 46.7249 86.0846 45.9537V40.8274H85.326V41.6774L85.3513 41.6789ZM83.6211 45.4046C83.3745 45.4148 83.1287 45.3695 82.9006 45.2719C82.6726 45.1744 82.4676 45.0268 82.2998 44.8394C81.9861 44.4452 81.8146 43.9503 81.8146 43.4395C81.8146 42.9287 81.9861 42.4338 82.2998 42.0396C82.4721 41.8606 82.6768 41.7185 82.9022 41.6215C83.1276 41.5246 83.3693 41.4747 83.6134 41.4747C83.8574 41.4747 84.0991 41.5246 84.3245 41.6215C84.5499 41.7185 84.7546 41.8606 84.9269 42.0396C85.2396 42.4321 85.4018 42.9302 85.3824 43.4387C85.3995 43.9474 85.2377 44.4451 84.9269 44.8394C84.7652 45.0148 84.5741 45.1583 84.3628 45.2629C84.1233 45.3539 83.8706 45.4019 83.6155 45.4046H83.6211Z" fill="#3C79BF"/>
<path d="M102.184 40.7503H102.133C101.816 40.7449 101.502 40.8054 101.212 40.9277C100.929 41.0403 100.676 41.2102 100.47 41.4254C100.263 41.6406 100.109 41.8959 100.018 42.1736V40.8465H99.165V46.284H100.018V43.8884C100.004 43.3068 100.196 42.7377 100.563 42.2713C100.737 42.0459 100.966 41.8635 101.231 41.7395C101.495 41.6156 101.787 41.5536 102.082 41.5589H102.184V40.7503Z" fill="#3C79BF"/>
<path d="M117.778 40.7515C117.435 40.7391 117.092 40.8048 116.775 40.9443C116.457 41.0837 116.171 41.2936 115.938 41.5597C115.502 42.1083 115.264 42.8009 115.264 43.5162C115.264 44.2315 115.502 44.9241 115.938 45.4728C116.172 45.7378 116.458 45.9471 116.775 46.0867C117.093 46.2263 117.435 46.293 117.778 46.2824C118.123 46.2952 118.465 46.2294 118.783 46.0897C119.101 45.9499 119.386 45.7395 119.619 45.4728C120.056 44.9245 120.295 44.2318 120.295 43.5162C120.295 42.8006 120.056 42.1079 119.619 41.5597C119.385 41.2949 119.099 41.0859 118.781 40.9466C118.464 40.8072 118.122 40.7407 117.778 40.7515ZM117.778 45.5584C117.532 45.5708 117.286 45.5231 117.06 45.4188C116.834 45.3146 116.633 45.1567 116.475 44.9575C116.159 44.5538 115.995 44.0415 116.015 43.5185C115.997 42.9953 116.161 42.4834 116.475 42.0779C116.642 41.8893 116.843 41.7389 117.068 41.6361C117.292 41.5333 117.534 41.4802 117.778 41.4802C118.023 41.4802 118.265 41.5333 118.489 41.6361C118.714 41.7389 118.915 41.8893 119.082 42.0779C119.399 42.4817 119.563 42.9949 119.542 43.5185C119.56 44.0412 119.397 44.5528 119.082 44.9575C118.922 45.1548 118.722 45.311 118.496 45.4143C118.27 45.5177 118.024 45.5654 117.778 45.5539V45.5584Z" fill="#3C79BF"/>
<path d="M136.133 46.2153H136.897V40.75H136.133V43.9056C136.14 44.13 136.103 44.3537 136.024 44.5619C135.945 44.7702 135.826 44.9583 135.674 45.1141C135.527 45.2629 135.355 45.3796 135.166 45.4573C134.977 45.5351 134.775 45.5725 134.573 45.5673C134.379 45.5754 134.185 45.5392 134.006 45.461C133.826 45.3828 133.664 45.2645 133.531 45.1141C133.256 44.7818 133.113 44.348 133.135 43.9056V40.75H132.369V43.9223C132.369 44.6534 132.583 45.239 133.011 45.6791C133.189 45.8822 133.41 46.0376 133.655 46.1323C133.939 46.2392 134.24 46.2904 134.541 46.2833C134.866 46.284 135.183 46.1883 135.459 46.0069C135.719 45.8282 135.947 45.6022 136.133 45.3392V46.2184V46.2153Z" fill="#3C79BF"/>
<path d="M149.802 41.6781V40.8303H148.971V48.2963H149.802V45.3157C150.013 45.6218 150.302 45.8706 150.642 46.0382C150.981 46.2058 151.36 46.2866 151.742 46.2728C152.572 46.2728 153.241 46.0062 153.746 45.4731C154.248 44.9354 154.519 44.2345 154.503 43.5122C154.526 42.7887 154.254 42.0852 153.746 41.5514C153.504 41.2885 153.205 41.0804 152.87 40.9421C152.534 40.8038 152.171 40.7388 151.807 40.7516C150.91 40.737 150.241 41.0502 149.802 41.6781ZM151.676 41.4742C151.949 41.4677 152.219 41.5175 152.469 41.6203C152.719 41.7231 152.944 41.8765 153.127 42.07C153.464 42.4749 153.648 42.9782 153.648 43.4969C153.648 44.0157 153.464 44.5189 153.127 44.9238C152.945 45.1186 152.721 45.2728 152.47 45.3757C152.22 45.4786 151.949 45.5277 151.676 45.5197C151.408 45.5311 151.141 45.4834 150.895 45.3801C150.649 45.2768 150.431 45.1207 150.258 44.9238C149.918 44.5208 149.739 44.0148 149.752 43.4962C149.731 42.977 149.912 42.4689 150.258 42.07C150.433 41.8738 150.652 41.7184 150.898 41.6152C151.145 41.512 151.412 41.4638 151.681 41.4742H151.676Z" fill="#3C79BF"/>
</svg>
