<svg width="90" height="96" viewBox="0 0 90 96" fill="none" xmlns="http://www.w3.org/2000/svg">
<path fill-rule="evenodd" clip-rule="evenodd" d="M59.4681 11.0614L59.7146 10.8631L59.9558 10.6594L60.2185 10.5361L60.4704 10.4128L60.7223 10.4503L60.9743 10.4932L61.194 10.7773L61.4084 11.0614L61.6925 10.4611L61.9712 9.85538L62.4054 9.81249L62.8395 9.7696L62.92 10.3431L62.995 10.9113L63.0003 10.9756L63.0057 11.0346L62.9521 11.2811L62.9039 11.5277L63.0968 11.592L63.2898 11.6563L63.3541 11.7153L63.4077 11.7635L62.9414 12.112L62.4697 12.455L62.2982 12.5408L62.1213 12.6265L62.2875 12.7176L62.4536 12.8088L62.5555 12.9374L62.6466 13.066L62.8128 13.3769L62.9843 13.6932L62.9789 14.465L62.9682 15.2261L62.7699 16.1266L62.5715 17.0325L62.266 17.9115L61.9712 18.7906L61.655 19.4927L61.3441 20.1842L61.1243 20.5379L60.8992 20.8917L60.599 21.2294L60.2989 21.5671L59.9666 21.8351L59.6235 22.1084L58.9106 22.43L58.1978 22.7516L58.0209 22.9178L57.8333 23.084L57.7689 23.293L57.7046 23.5074L57.8386 23.5985L57.9726 23.695L58.7766 23.8719L59.5806 24.0434L60.197 24.3972L60.8135 24.7456L62.6734 26.5948L64.528 28.4333L65.884 29.5106L67.2508 30.5934L68.891 31.4563L68.7999 33.6111L68.2585 34.1846L66.0288 34.5651L65.4981 34.6938L65.2677 34.7956L65.08 34.9565L64.9836 35.2245L64.9353 36.4948L64.6673 38.4833L64.7584 38.7567L64.9782 38.955L65.6536 38.8746L66.3825 38.6495L66.7631 38.6173L66.8757 39.2873L62.0784 50.3183L61.9123 51.0473L61.7997 51.8888L61.9659 53.3414L62.1374 53.7702L62.3786 54.1829L62.5287 54.3812L63.6436 54.5635L72.8682 54.7671L85.0301 51.7441L85.207 51.7548L85.2499 51.8727L85.0408 52.2372L84.8479 52.5052L84.6764 52.7893L84.5156 53.1699L83.9528 55.1959L83.7866 55.5765L83.6526 56.0214L84.135 56.9648L84.1511 56.9808L84.1618 56.9969L82.5109 57.4365L81.664 58.0314L82.7146 59.1945L84.5263 60.3416L85.9628 60.8937L86.3487 60.8186L84.6174 63.1235L83.9849 64.2705L83.8188 64.8494L83.7759 65.2514L83.792 65.5998L83.8456 65.9L84.0063 66.3877L84.1296 66.6825L84.1564 66.7308L84.2422 66.9237L84.5799 67.8724L84.7085 68.387L84.7675 68.6711L84.7997 69.1642L84.671 70.9116L84.5263 71.1957L84.3816 71.2171L84.2476 71.0081L84.0868 70.799L83.8723 70.6704L83.6204 70.6436L83.2934 70.8366L83.2613 71.0563L83.3417 71.26L83.5347 71.4423L84.2583 71.9086L84.4566 72.0747L84.5799 72.2784L84.5209 72.5839L84.3977 72.9591L84.1832 73.4254L84.1671 74.2402L84.0653 74.7815L83.9635 74.7387L83.4918 74.7011L83.0737 75.8428L82.6663 84.3546L82.4466 85.6195L81.9052 86.654L80.9243 87.6885L79.193 88.798L78.6463 89.586L78.7803 89.9076L79.0751 90.5722L79.0805 90.5937L78.2765 90.9635L75.7841 91.6281L73.7687 91.8157L71.7801 91.671L68.4622 90.4811L62.3893 90.2935L48.5175 86.6862L46.6147 86.6433L45.1031 87.1311L41.3243 89.8432L38.0815 90.3578L37.2775 91.1404L37.5616 93.472L37.4222 93.665L37.2561 93.815L37.0631 93.9169L36.8648 93.9597L35.8196 93.815L35.2032 93.8954L32.1372 91.1618L30.4434 89.661L29.8699 88.9803L29.4519 88.1066L29.5376 84.4564L29.6716 84.0437L29.9074 83.5452L30.4595 83.4219L31.687 83.379L32.0247 83.3308L32.3945 83.1807L32.5714 82.9449L32.6571 82.6179L32.6893 81.9908L32.6786 81.696L32.5821 81.1493L32.5124 80.8866L32.4588 80.5221L32.4374 80.0505L32.4803 79.2786L32.566 78.9141L32.6464 78.689L32.9734 78.362L33.6005 77.8957L34.8655 77.2257L35.7392 76.9041L36.8326 76.6576L37.1489 76.6308L37.7706 76.4592L37.9314 76.0465L36.8326 71.1153L36.1519 70.0165L29.1249 68.6979L28.1654 68.5746L27.7688 68.7247L27.3989 68.6711L27.1148 68.5317L26.4556 68.1029L26.1768 68.1244L25.8928 68.2048L25.2442 68.2423L24.7779 68.1833L21.5779 67.2989L21.1009 66.4788L20.9079 66.5539L20.7257 66.5807L20.179 66.7897L18.7693 65.2192L18.7049 64.9405L18.6942 64.501L18.8175 64.1579L18.7907 63.4343L18.587 63.102L18.3029 62.8983L17.9867 62.8501L17.7294 62.8608L17.5311 62.909L16.7539 63.3057L16.502 63.3861L16.1804 63.4397L15.832 63.4183L15.371 63.3057L15.1781 63.0698L15.0494 62.8018L14.8672 60.4166L14.8993 60.1325L15.0012 59.8913L15.2156 59.7627L15.9767 59.5054L16.1857 59.3393L16.309 59.1677L16.4805 58.6853L16.5073 57.4579L15.4032 56.0911L15.2692 55.6623L15.2853 55.2764L15.3817 54.9655L15.4193 54.5903L15.2799 54.3651L15.0816 54.1775L14.2454 53.7702L13.9238 53.5451L13.7844 53.2717L13.6933 52.9983L13.1198 50.2379L13.0233 49.3481L12.959 46.8397L12.9697 46.4805L13.0126 46.1429L13.093 45.8266L13.4467 45.0172L13.6826 44.24L13.7255 43.5057L13.6344 43.0018L13.4789 42.4927L13.1627 41.8173L12.959 41.4742L12.7392 41.3188L12.498 41.3402L11.426 41.5707L10.4987 41.6136L9.84481 41.5171L9.19087 41.3349L7.50247 40.8418L2.38364 40.6488L2.06738 40.413L8.27968 28.2886L9.41601 25.4317L8.52623 23.8344L8.15638 22.9017L8.0867 22.6552V21.7547L8.18854 20.7899L8.19927 20.2646L8.18321 19.8679L8.10279 19.6267L7.95806 19.4177L7.73295 19.2408L4.06133 18.2385L3.50387 17.9222L3.25733 17.7453L2.91428 17.3326L2.68916 16.8717L2.58732 16.6251L2.51764 16.3303L1.82617 8.83159L2.33538 8.16159L2.67843 7.32009L7.64184 5.29934L7.6579 5.11709L8.31184 5.28861L9.98417 5.72277L14.701 5.43871L18.6621 5.20287L24.5796 4.84908L28.9212 4.58645L34.099 4.27556L37.3954 4.07724L42.659 3.75565L47.8529 3.44476L48.3138 3.57876L48.7748 3.70206L49.6324 4.15229L50.4847 4.59718L50.9295 4.75797L51.3744 4.9134L51.7657 4.85981L52.1516 4.80086L53.3308 4.01828L54.5047 3.23574L55.0192 2.90339L55.5338 2.56573L55.7857 3.33755L56.0269 4.10406L56.0752 4.14156L56.1234 4.17375L56.2628 4.47391L56.4075 4.77407L57.3026 5.95862L58.1978 7.13783L58.4068 7.61488L58.6105 8.09193L58.7713 9.13712L58.9321 10.177L59.2001 10.6219L59.4681 11.0614Z" fill="#1C9CD9" fill-opacity="0.2" stroke="white" stroke-width="2.5" stroke-miterlimit="10"/>
</svg>
