<svg width="139" height="42" viewBox="0 0 139 42" fill="none" xmlns="http://www.w3.org/2000/svg">
<path fill-rule="evenodd" clip-rule="evenodd" d="M45.8119 8.8894C41.9639 15.9215 38.0403 22.936 34.0411 29.933C31.786 33.894 29.5242 37.8686 27.2556 41.8566L19.8503 28.8582L18.3708 26.2648L17.7713 25.2083L16.0747 22.2307H19.8811L27.0701 35.5605L28.249 33.5137L41.4675 10.5664L45.8119 8.8894Z" fill="white"/>
<path fill-rule="evenodd" clip-rule="evenodd" d="M40.2168 9.90279L29.6662 28.2272L27.9388 31.2258L27.3806 32.1978L21.3396 20.9879L21.3291 20.9677L18.6506 16.2728L18.2471 16.9759L17.6476 18.0305L12.9305 26.3244L10.6968 30.2327L5.99981 32.0528L5.9585 32.0634L16.5091 13.739L18.2365 10.7403L18.7956 9.76831L24.8357 20.9677L24.8463 20.9879L27.5247 25.6934L27.9187 24.9903L28.5181 23.9356L33.2449 15.6418L35.469 11.7229L40.1755 9.91239L40.2168 9.90279Z" fill="white"/>
<path fill-rule="evenodd" clip-rule="evenodd" d="M0 33.067C3.848 26.0349 7.77159 19.0201 11.7707 12.0225C14.0252 8.0627 16.2871 4.08815 18.5563 0.098877L25.9615 13.0983L27.4411 15.6916L28.0415 16.7482L29.7372 19.7257H25.9308L18.7475 6.40745L17.5677 8.45521L4.35975 31.4015L0 33.067Z" fill="white"/>
<path d="M70.8842 12.2727V21.3273L64.0133 12.2605H61.0898V26.3224H64.2161V17.507L70.8864 26.3224H74.0116V12.2727H70.8842Z" fill="white"/>
<path d="M88.8486 23.5472C87.9505 23.5472 87.2409 23.2268 86.7155 22.5869C86.1901 21.9471 85.9173 21.0694 85.9173 19.9439V12.2605H82.7515V20.0508C82.7515 22.0539 83.3195 23.6078 84.4669 24.6859C85.6142 25.7641 87.0658 26.3224 88.8452 26.3224C90.6246 26.3224 92.0728 25.7717 93.2089 24.698C94.345 23.6243 94.9131 22.066 94.9131 20.0508V12.2605H91.7461V19.9439C91.7461 21.0584 91.48 21.935 90.9603 22.5869C90.4405 23.2389 89.7433 23.5472 88.8486 23.5472Z" fill="white"/>
<path d="M115.343 16.923C115.343 15.2824 114.88 14.0958 113.955 13.363C113.03 12.6198 111.487 12.2605 109.316 12.2605H104.037V26.3224H107.144V21.819H109.292L112.378 26.3101H116.198L112.672 21.2806C114.465 20.6231 115.343 19.1746 115.343 16.923ZM111.606 18.5917C111.226 18.9388 110.491 19.119 109.434 19.119H107.169V14.9505H109.506C110.498 14.9505 111.202 15.094 111.6 15.3699C111.997 15.6458 112.192 16.172 112.192 16.9274C112.192 17.6828 111.985 18.2401 111.606 18.5872V18.5917Z" fill="white"/>
<path d="M135.66 26.3224H138.999L132.924 12.2605H129.884L123.797 26.3224H127.136L128.442 23.2806H134.341L135.66 26.3224ZM131.407 16.4404L133.156 20.5258H129.633L131.407 16.4404Z" fill="white"/>
<path d="M64.4775 31.5845C64.1686 31.1211 63.7212 30.8828 63.1364 30.8828C62.5515 30.8828 62.0807 31.0847 61.7366 31.4775C61.3925 31.8703 61.2317 32.3447 61.2317 32.9118C61.2181 33.4389 61.3986 33.9517 61.7366 34.3461C61.9084 34.5393 62.118 34.6922 62.3515 34.7946C62.5851 34.897 62.8371 34.9464 63.0906 34.9397C63.6978 34.9397 64.1565 34.7021 64.4669 34.2269V34.7786C64.4669 35.1945 64.3604 35.5024 64.1686 35.7164C63.9769 35.9304 63.636 36.0374 63.1928 36.0374C62.608 36.0374 62.2341 35.8356 62.069 35.4196H61.4298C61.5308 35.7661 61.7461 36.0648 62.0381 36.2636C62.3364 36.4766 62.7603 36.5836 63.2887 36.5836C63.8171 36.5836 64.2474 36.4291 64.5617 36.1323C64.8759 35.8356 65.0315 35.3964 65.0315 34.8139V30.9413H64.4584V31.5834L64.4775 31.5845ZM63.1704 34.3991C62.9842 34.4067 62.7985 34.3725 62.6262 34.2988C62.4539 34.2251 62.2991 34.1136 62.1723 33.9721C61.9353 33.6743 61.8057 33.3004 61.8057 32.9146C61.8057 32.5287 61.9353 32.1548 62.1723 31.857C62.3024 31.7218 62.4571 31.6144 62.6274 31.5412C62.7976 31.468 62.9802 31.4303 63.1646 31.4303C63.349 31.4303 63.5315 31.468 63.7018 31.5412C63.8721 31.6144 64.0267 31.7218 64.1569 31.857C64.3932 32.1536 64.5157 32.5298 64.501 32.914C64.5139 33.2982 64.3917 33.6742 64.1569 33.9721C64.0347 34.1046 63.8904 34.213 63.7308 34.292C63.5499 34.3608 63.3589 34.397 63.1662 34.3991H63.1704Z" fill="white"/>
<path d="M77.1924 30.8831H77.1541C76.9148 30.8789 76.6774 30.9247 76.4587 31.0171C76.245 31.1021 76.0536 31.2304 75.8977 31.393C75.7418 31.5556 75.6252 31.7485 75.5561 31.9583V30.9557H74.9121V35.0634H75.5561V33.2537C75.546 32.8143 75.6909 32.3844 75.9679 32.032C76.0998 31.8618 76.273 31.724 76.4727 31.6303C76.6725 31.5367 76.893 31.4899 77.1158 31.4939H77.1924V30.8831V30.8831Z" fill="white"/>
<path d="M88.9745 30.8839C88.7147 30.8746 88.456 30.9242 88.2161 31.0296C87.9761 31.1349 87.7605 31.2935 87.5838 31.4945C87.2549 31.9089 87.0747 32.4321 87.0747 32.9725C87.0747 33.5129 87.2549 34.0361 87.5838 34.4506C87.7611 34.6508 87.9768 34.8089 88.2166 34.9143C88.4564 35.0198 88.7148 35.0702 88.9745 35.0622C89.2344 35.0718 89.4932 35.0221 89.7332 34.9166C89.9732 34.811 90.1888 34.6521 90.3652 34.4506C90.6946 34.0364 90.8752 33.5131 90.8752 32.9725C90.8752 32.4319 90.6946 31.9086 90.3652 31.4945C90.1877 31.2945 89.972 31.1366 89.7322 31.0313C89.4924 30.9261 89.2341 30.8758 88.9745 30.8839V30.8839ZM88.9745 34.5152C88.7882 34.5246 88.6025 34.4885 88.4316 34.4098C88.2608 34.3311 88.1095 34.2118 87.9896 34.0613C87.7508 33.7563 87.6271 33.3693 87.6419 32.9742C87.6288 32.579 87.7524 32.1923 87.9896 31.886C88.1156 31.7435 88.268 31.6299 88.4375 31.5522C88.6069 31.4745 88.7897 31.4344 88.9745 31.4344C89.1592 31.4344 89.342 31.4745 89.5115 31.5522C89.6809 31.6299 89.8334 31.7435 89.9594 31.886C90.1987 32.191 90.3226 32.5787 90.307 32.9742C90.3205 33.3691 90.1969 33.7556 89.9594 34.0613C89.8384 34.2103 89.6869 34.3283 89.5162 34.4064C89.3456 34.4845 89.1603 34.5205 88.9745 34.5118V34.5152Z" fill="white"/>
<path d="M102.839 35.0115H103.416V30.8828H102.839V33.2667C102.844 33.4362 102.817 33.6052 102.757 33.7625C102.697 33.9198 102.607 34.0619 102.492 34.1796C102.381 34.292 102.251 34.3801 102.108 34.4389C101.965 34.4976 101.813 34.5259 101.66 34.5219C101.514 34.5281 101.368 34.5007 101.232 34.4417C101.096 34.3826 100.974 34.2932 100.874 34.1796C100.665 33.9286 100.558 33.6009 100.574 33.2667V30.8828H99.9956V33.2792C99.9956 33.8316 100.157 34.274 100.481 34.6064C100.615 34.7599 100.782 34.8772 100.967 34.9488C101.182 35.0296 101.409 35.0682 101.637 35.0629C101.882 35.0634 102.122 34.9911 102.33 34.854C102.526 34.7191 102.698 34.5483 102.839 34.3497V35.0138V35.0115Z" fill="white"/>
<path d="M113.165 31.5839V30.9434H112.537V36.5836H113.165V34.3319C113.324 34.5631 113.543 34.7511 113.799 34.8777C114.056 35.0043 114.342 35.0653 114.63 35.0549C115.258 35.0549 115.763 34.8536 116.145 34.4508C116.524 34.0446 116.728 33.5151 116.717 32.9695C116.734 32.4229 116.529 31.8915 116.145 31.4882C115.962 31.2896 115.736 31.1324 115.483 31.0279C115.229 30.9235 114.955 30.8743 114.68 30.884C114.002 30.873 113.497 31.1096 113.165 31.5839ZM114.581 31.4299C114.787 31.425 114.991 31.4626 115.18 31.5403C115.369 31.6179 115.538 31.7338 115.677 31.88C115.932 32.1859 116.07 32.566 116.07 32.9579C116.07 33.3498 115.932 33.73 115.677 34.0359C115.539 34.183 115.37 34.2995 115.181 34.3772C114.991 34.455 114.787 34.4921 114.581 34.486C114.379 34.4946 114.177 34.4586 113.991 34.3806C113.805 34.3025 113.64 34.1846 113.509 34.0359C113.253 33.7314 113.118 33.3491 113.127 32.9574C113.112 32.5652 113.248 32.1813 113.509 31.88C113.642 31.7318 113.807 31.6143 113.993 31.5364C114.18 31.4584 114.382 31.422 114.585 31.4299H114.581Z" fill="white"/>
</svg>
