<svg width="170" height="117" viewBox="0 0 170 117" fill="none" xmlns="http://www.w3.org/2000/svg">
<path fill-rule="evenodd" clip-rule="evenodd" d="M24.1682 76.9304L24.0202 74.8199L22.8112 71.8504L21.5158 69.7399L19.3445 67.7888L16.7662 66.6845L15.2612 67.0772L16.3468 69.6172L16.4455 69.7153L17.9999 71.3105L20.7386 74.9917L22.3177 76.501L24.1682 76.9304ZM120.986 16.7186L121.541 15.7125L121.923 14.3627L122.355 13.6755L123.355 14.0928L123.86 16.0806L124.736 16.4855L125.489 15.8352L125.563 13.2215L126.155 12.6939L126.932 13.013L127.672 13.7001L136.444 26.7682L137.949 30.4372L138.492 34.511L138.257 39.7874L138.751 44.9901L141.181 46.168L148.595 44.8919L150.853 46.7694L152.284 48.8062L153.9 49.6652L156.688 47.9841L158.699 46.168L160.87 44.7447L163.152 44.3889L165.533 45.7999L166.607 48.1804L167.051 51.5426L167.211 55.0642L168.075 61.5063V63.9236L167.433 66.1323L166.163 69.065L169 68.206L168.457 70.2062L166.224 80.4399L165.509 81.1024L165.089 81.3356L164.522 81.581L163.115 81.8386L157.502 82.0718L155.972 82.3663L154.332 82.1823L142.094 79.225L139.528 79.4704L137.283 79.2986H135.247L134.161 79.6177L130.263 81.4828L127.167 79.9367L117.507 82.5135L116.298 84.3173L115.126 85.164L112.091 87.9739L111.697 88.6857L111.783 89.52L112.905 90.9925L114.386 94.0725L111.697 96.7106L103.961 99.2752L95.6711 103.778L93.8453 105.325L90.9092 109.828L84.8026 115.57L82.6561 116L81.3238 115.583L77.0923 113.276L75.1924 111.73L74.1438 111.349L72.429 111.018L71.4545 110.711L70.7759 110.319L68.1235 107.558L67.4328 107.226L63.781 106.822L63.263 106.294L69.2092 98.2076L58.6367 98.7721L55.6512 98.3549L55.0468 97.8273L54.2942 97.2996L52.8261 96.6861L50.9387 96.6738L46.5468 100.613L45.3008 100.784L42.6978 100.515L41.4394 100.613L39.8603 101.361L38.8241 102.49L37.9606 103.754L36.9612 104.883L34.5557 106.392L34.7653 105.374L35.5672 101.238L31.9896 99.177L23.4527 97.2014L21.9846 95.3118L21.7626 93.2012L22.6385 91.6428L24.5013 91.4343L27.7458 94.2565L29.584 94.9436L29.7691 92.6736L28.9918 91.5938L11.9549 72.3658L9.00645 69.7889L8.71038 69.4208L8.47606 69.0037L6.68731 67.0403V67.0158L7.36573 64.169L7.18065 55.0274L6.76125 52.3156L4.86136 49.113L2.98633 46.5976L2.38169 45.6036L2.18442 44.7692L2.15972 43.9471L2.33245 43.1986L4.10885 39.4315L4.38022 38.6584L4.81212 36.9406L4.47901 35.9467L1.9007 35.5785L1.57994 35.1368L1.25917 34.4865L1.23447 32.5723L1 31.1488L1.12349 30.2408L1.39486 29.5414L5.95934 23.4552L6.81065 21.8723L7.87157 18.9519L8.47606 18.9764L11.6712 17.7617L23.1073 11.1846L26.2777 10.7061L28.0419 11.8104L29.621 13.921L34.8641 22.9644L35.7523 25.4921L35.925 28.1058L34.5433 35.7013L34.7037 37.8609L35.8633 39.542L37.3684 39.3088L39.1819 38.4376L41.2914 38.229L43.0803 38.9775L44.7581 40.1923L46.3001 41.7629L47.583 43.5422L49.2855 45.1619L51.1483 45.3582L55.1701 44.757L59.6112 45.5668L61.6962 46.5239L63.6206 48.0455L65.3231 48.9903L68.8021 49.4566L70.2948 50.6714L72.6635 54.6471L74.1315 55.641L75.0443 53.2605L74.8471 50.6714L74.3905 48.4626L74.6373 46.7571L76.5741 45.7017L78.7947 45.8858L79.8557 47.3829L81.003 52.0334L81.8912 53.7635L83.0878 55.0397L84.3339 54.9538L85.3332 52.5856L87.6647 49.5916L94.0551 55.0888L96.1523 53.285L96.6581 49.0025L95.8315 27.6763L96.4114 26.1057L97.6943 26.4247L102.197 30.6458L106.231 32.3882L109.426 31.7624L112.005 29.0628L115.114 22.3509L116.446 18.1911L116.853 15.7247L116.508 13.4547L113.88 10.0803L112.942 8.01882V7.99425L112.93 7.98197V7.96969L114.781 3.20877L115.916 1.83439L117.988 1L120.036 1.31905L121.22 2.97562L121.714 5.38061L121.726 7.96969L119.999 14.9394L120.085 16.4487L120.986 16.7186Z" stroke="white" stroke-miterlimit="10"/>
</svg>
