<svg width="209" height="235" viewBox="0 0 209 235" fill="none" xmlns="http://www.w3.org/2000/svg">
<path fill-rule="evenodd" clip-rule="evenodd" d="M167.285 48.9946L173.144 45.8215L179.002 42.643L178.129 56.3968L177.255 70.0971L177.153 71.5443L177.051 72.9969L176.848 73.4686L176.644 73.9456L176.167 74.1332L175.69 74.3155L175.572 74.696L175.449 75.0766L175.427 76.7328L175.299 85.7699L175.154 96.4256L175.197 96.7204L175.245 97.0153L175.417 97.16L175.593 97.294L180.482 97.3154L184.931 97.3315L189.369 97.3476L194.273 97.369L194.423 97.3476L194.573 97.3261L194.729 97.3315L194.879 97.3368L195.018 97.369L195.158 97.4012L195.254 97.4601L195.356 97.5191L196.058 104.412L196.766 111.294L198.057 118L199.355 124.7L201.097 132.676L202.828 140.63L203.739 141.739L204.645 142.849L205.658 143.117L205.642 143.299L200.678 145.32L200.335 146.161L199.826 146.831L200.518 154.33L200.587 154.625L200.689 154.872L200.914 155.333L201.257 155.745L201.504 155.922L202.061 156.238L205.733 157.241L205.958 157.418L206.103 157.627L206.183 157.868L206.199 158.264L206.189 158.79L206.087 159.755V160.655L206.156 160.902L206.526 161.834L207.416 163.432L206.28 166.288L200.067 178.413L199.274 177.63L198.813 177.019L198.674 176.773L198.583 176.542L198.54 176.349L198.545 176.108L198.786 175.261L198.819 174.757L198.76 174.521L198.647 174.307L197.264 172.704L196.122 171.691L195.661 171.439L195.302 171.386L194.922 171.541L191.99 173.546L191.041 173.985L190.232 174.093L189.572 173.996L188.854 173.707L188.12 173.289L187.278 172.661L186.673 172.367L186.099 172.297L185.568 172.479L185.07 172.849L184.598 173.39L184.223 173.996L183.891 174.672L183.371 176.124L183.248 176.971L183.237 177.845L183.596 178.772L183.88 179.233L184.062 179.667L184.036 180.074L183.714 180.691L183.419 180.97L182.631 181.35L182.428 181.672L182.417 182.068L182.856 183.328L183.006 185.231L182.717 186.394L182.17 187.595L182.122 187.938L182.224 188.329L182.369 188.597L182.99 189.122L182.942 189.631L182.738 190.001L181.725 191.465L181.372 192.145L181.12 192.831L180.803 194.037L179.753 196.519L179.672 196.926L179.748 197.216L179.924 197.312L180.219 197.339L180.986 197.2L181.345 197.184L181.731 197.243L182.026 197.393L182.267 197.709L182.374 198.047L182.369 198.465L182.16 198.899L181.795 199.349L179.174 201.788L178.724 202.029L169.965 203.911L168.25 203.557L166.487 202.426L165.64 202.71L164.847 202.297L164.075 201.686L162.429 201.097L161.791 200.421L160.752 198.953L160.339 198.872L160.205 198.808L159.401 198.652L155.697 196.991L155.107 196.953L154.839 197.087L154.604 197.344L154.357 197.848L154.244 198.191L154.212 198.465L154.218 199.113L154.143 200.191L154.084 200.464L154.009 200.711L153.934 200.887L153.805 201.139L152.765 202.694L152.733 203.042L152.867 203.235L153.146 203.273L153.419 203.353L153.644 203.487L153.816 203.691L153.864 203.932L153.832 204.221L153.682 204.656L153.038 206.044L152.926 206.36L152.234 209.099L151.972 209.737L151.618 209.983L151.087 210.15L149.93 210.16L148.799 209.989L147.587 209.453L146.215 208.67L145.92 208.649L145.668 208.761L145.454 209.137L145.357 209.453L145.202 210.369L144.864 210.68L144.559 210.905L142.115 211.549L140.11 211.827L139.74 211.924L139.488 212.063L139.301 212.256L139.231 212.513L139.542 213.183L140.753 214.556L141.557 215.279L141.852 215.617L142.206 216.115L143.433 220.553L143.481 220.966L143.444 221.743L143.353 222.231L143.246 222.649L142.05 225.361L142.013 225.683L142.511 227.243L144.677 231.574L143.905 232.072L139.896 233.021L139.794 231.558L139.724 231.193L139.322 229.794L139.07 229.21L138.904 228.91L138.255 228.015L137.537 227.286L136.921 226.943L135.951 226.589L135.168 226.139L134.841 225.04L134.712 223.893L134.696 223.035L134.364 221.861L133.619 220.612L128.779 218.329L128.414 217.734L127.803 217.605L126.035 218.415L125.252 218.372L124.684 218.088L124.539 217.638L124.33 217.161L124.276 216.855L122.368 215.799L121.237 215.022L118.289 210.927L117.662 209.624L118.236 208.274L118.895 206.805L120.214 205.138L120.358 204.913L120.669 204.581L120.991 203.884L123.472 202.747L124.201 202.227L124.914 201.536L125.477 200.748L127.401 196.809L128.023 196.305L128.382 196.289L128.688 196.058L128.94 195.876L129.218 195.806L130.435 195.661L130.483 195.474L130.312 195.131L129.69 194.343L128.495 193.121L128.034 192.37L127.975 192.156L128.002 192.033L128.195 191.968L128.559 191.62L129.229 189.61L128.216 188.586L128.002 187.552L128.023 187.085L128.082 186.592L128.195 186.088L128.57 185.633L129.245 185.258L130.655 185.016L131.566 185.006L132.354 185.231L133.174 185.949L134.042 186.533L134.97 186.839L139.74 186.887L140.18 185.992L141.096 183.065L141.847 182.358L142.736 181.318L143.819 177.93L143.889 177.266L144.35 176.574L144.666 176.296L145.047 176.183L145.449 176.21L147.571 176.665L148.113 176.682L148.145 176.071L147.995 175.433L147.903 174.361L147.893 173.037L147.984 171.632L148.177 170.266L149.136 166.942L147.191 167.505L134.889 166.653L130.88 165.667L129.476 164.863L128.071 163.689L127.498 162.113L127.128 160.687L126.265 155.29L125.911 154.009L125.418 153.944L124.116 155.793L122.818 156.356L121.05 156.726L115.679 156.967L114.307 157.493L113.535 157.905L112.302 162.697L111.386 163.549L100.397 162.236L98.6769 161.62L98.114 160.457L98.0444 156.924L97.8353 155.097L97.0099 153.858L96.2112 153.188L95.4501 152.985L94.6354 153.269L93.8314 153.917L93.1024 154.973L90.6904 160.028L87.7906 164.353L82.9558 166.053L83.0202 165.007L81.5301 163.49L80.6135 161.872L68.398 154.336L62.1428 150.809L56.8095 148.729L53.2183 147.903L52.2482 147.346L46.7756 137.639L39.9469 129.572L38.9446 127.787L37.6581 124.812L34.2331 124.732L19.8467 130.199L2.44266 106.208L2.12642 105.468L2.09961 104.744L2.98401 103.999L11.7048 99.0628L12.1926 98.5482L12.3587 98.2534L11.5601 96.5489L6.92901 88.005L6.81109 87.4797V86.8044L7.72229 75.4143L9.95743 70.1722L20.3666 50.1363L31.419 29.2482L31.6388 28.605L31.6442 28.0476L31.0278 27.6831L20.0504 24.6332L18.0136 22.7465L13.6773 15.3068L17.0327 14.6904L18.4585 14.4277L19.8896 14.1597L21.3261 13.8971L22.7519 13.6291L25.046 13.211L27.3347 12.7822L29.6288 12.3587L31.9175 11.9407L35.6213 11.335L39.3305 10.7293L43.0343 10.1236L46.738 9.51793L50.4472 8.91761L54.151 8.31192L57.8548 7.70624L61.5639 7.10055L67.744 7.66335L73.9295 8.23153L80.1204 8.78896L86.2951 9.35177L91.9232 9.86633L97.5512 10.3809L103.174 10.8954L108.797 11.4047L111.032 11.6083L111.739 11.4047L112.447 11.201L116.526 8.92832L120.433 6.75751L124.464 4.51166L128.42 2.3033L129.149 2.02995L129.878 1.75122L130.526 1.85306L131.175 1.9549L131.85 2.56596L132.536 3.17699L136.91 8.88543L141.278 14.5939L143.305 16.7433L145.32 18.8819L149.501 21.5137L153.676 24.1401L154.48 24.853L155.284 25.5659L158.731 32.7108L160.934 37.2615L163.978 43.5327L166.583 48.9142L166.937 48.9517L167.285 48.9946Z" fill="#1C9CD9" fill-opacity="0.2" stroke="white" stroke-width="2.5" stroke-miterlimit="10"/>
</svg>
