<svg width="139" height="87" viewBox="0 0 139 87" fill="none" xmlns="http://www.w3.org/2000/svg">
<path fill-rule="evenodd" clip-rule="evenodd" d="M71.0406 14.6217L72.4878 14.6164L73.1203 14.402L73.9725 13.8445L77.8478 11.9256L78.0462 11.9149L83.9047 10.5588L84.6765 10.5106L85.711 11.1699L88.1123 13.0941L88.7609 13.4318L89.2915 13.5712L89.6185 13.539L92.6523 12.3116L93.0382 11.9364L94.3568 9.92099L94.6141 9.64762L94.9464 9.36892L95.5789 9.00977L96.3078 8.80076L96.8438 8.79003L100.038 9.3153L103.485 9.99603L104.359 10.13L105.173 11.6844L105.323 12.4188L105.066 13.8767L104.991 14.6807L105.05 15.1041L105.211 15.415L105.436 15.5919L105.699 15.742L105.993 15.8546L106.578 15.9725L111.059 15.801L111.552 15.6938L111.772 15.5865L111.965 15.4043L112.12 15.1792L112.206 14.9058L112.238 14.6432L112.233 14.3805L112.168 13.8606L112.179 13.598L114.339 13.6998L124.046 16.1493L123.741 16.4227L123.548 16.6532L123.462 17.0177L123.392 17.7681L123.692 19.8371V19.8531L124.834 20.9144L129.738 22.6725L133.04 22.7958L134.643 23.4443L134.82 23.6427L135.141 24.2269L135.366 24.4735L135.645 24.5217L136.321 24.377L136.583 24.4628L136.948 25.0845L136.953 25.0952L137.028 25.8135L136.567 29.8711L136.771 31.1414V31.1521L136.814 31.195L136.208 31.6559L135.479 31.9508L132.531 32.0848L132.016 32.2134L131.539 32.4117L131.304 32.5564L131.057 32.7708L130.762 33.0764L130.521 33.4462L130.414 33.8321L130.425 34.2716L130.725 35.4884L130.955 37.3483L131.947 39.1493L132.027 39.3744L132.086 39.637L132.07 39.9372L132.027 40.2641L131.947 40.5643L131.899 40.8806L131.877 41.1539V41.4273L131.904 41.6953L131.957 41.9579L132.038 42.2098L132.167 42.7405L132.193 43.0299V43.3301L132.081 43.716L131.872 44.1287L131.448 44.7773L131.261 45.2061L131.159 45.592L131.148 46.5032L131.084 46.7498L130.939 46.9267L130.655 46.8892L130.441 46.7552L129.706 45.9672L129.535 45.8279L129.32 45.6939L129.052 45.5813L128.457 45.4098L127.814 45.3294L127.23 45.3562L126.715 45.4849L126.131 45.7529L125.751 46.0476L125.488 46.2996L125.268 46.5676L122.845 51.3005L122.433 51.8579L121.709 52.5922L121.323 52.9031L120.707 53.2301L119.104 53.6214L118.772 54.3825L118.327 55.1276L117.603 55.9208L116.086 57.1804L115.861 57.502L115.599 58.1667L115.374 59.0511L114.934 61.715L114.618 62.9425L114.505 63.2212L113.991 63.7894L109.494 67.4021L107.173 68.6991L106.701 68.8439L105.227 69.0851L104.9 69.3263L104.53 69.7658L103.903 70.8218L103.469 71.8508L103.319 72.4458L103.099 73.0837L102.836 73.7001L102.531 74.2521L97.5782 78.8886L97.2458 79.3281L96.9993 80.1804L96.7902 82.2065L96.5705 82.9032L95.938 84.1575L94.732 84.9401L94.2335 83.5358L94.2228 83.5304L92.856 82.5495L91.3873 81.8366L89.8329 81.4078L86.7294 81.3917L85.4698 81.0112L81.3533 79.0762L79.4612 76.6856L78.2713 75.5439L76.9474 74.9275L74.3156 74.1771L71.7964 72.151L70.66 71.5507L67.98 71.1165L63.8849 69.1333L62.5181 69.0101L61.355 69.4818L59.3932 71.0683L58.348 71.6579L55.5608 71.883L52.8272 70.9718L46.1432 66.4426L42.1124 63.7036L36.6345 59.9837L32.802 56.4783L27.3991 51.5471L24.6709 49.8318L18.6944 47.7146L13.4791 44.6915L4.93518 37.4609L2.63037 34.4646L2.6357 34.4593L3.26285 33.7999L6.96663 29.7317L8.86944 28.4238L14.4546 26.1673L16.6361 25.3793L23.3898 22.9244L23.6203 22.7851L23.8079 22.5707L23.9044 22.1365L23.8722 21.831L23.7597 21.5683L23.6203 21.3593L22.3232 19.762L22.0391 19.3493L21.8461 18.8937L21.7818 18.6525L21.7389 18.4006V18.1326L21.7818 17.8431L22.0284 17.3982L22.4196 16.8676L25.5124 13.4854L25.7536 13.2978L26.0537 13.1531L26.5469 13.0941L26.9221 13.1263L27.3991 12.9494L27.9083 12.5528L31.9819 8.47377L33.8955 7.02122L37.9048 6.07248L38.6767 5.574L56.0057 6.01353L56.4827 5.85807L57.3564 5.39711L58.2087 4.77536L58.3909 4.57168L58.5249 4.3412L58.5838 4.0732L58.5999 3.81056L58.5678 3.01189L58.6053 2.72782L58.6857 2.46519L59.0287 2.23471L59.4683 2.1543L60.744 2.20255L61.1299 2.2615L61.3979 2.35798L61.6015 2.48662L61.7838 2.66887L61.9232 2.87789L62.025 3.10837L62.4163 4.81822L62.5074 5.09159L62.5289 5.11838V5.12911L62.7486 5.50969L63.1881 6.12607L65.3107 8.2004L66.5167 9.0366L67.5405 9.82451L67.6584 10.0711L67.7871 10.3873L67.7978 11.1967L67.7442 12.0275L67.7495 12.3759L67.7817 12.7672L67.8728 13.3729L68.0604 13.6944L68.3231 13.8928L71.0406 14.6217Z" fill="#1C9CD9" fill-opacity="0.2" stroke="white" stroke-width="2.5" stroke-miterlimit="10"/>
</svg>
