<svg width="267" height="259" viewBox="0 0 267 259" fill="none" xmlns="http://www.w3.org/2000/svg">
<path fill-rule="evenodd" clip-rule="evenodd" d="M126.991 15.577L129.639 17.3619L136.623 22.0841L144.213 27.1922L152.183 32.5576L160.336 38.0302L168.456 43.4814L176.341 48.7503L183.775 53.7244L190.556 58.2483L196.473 62.1933L201.319 65.42L204.878 67.7892L207.413 69.4722L208.458 70.6515L209.192 72.1576L209.455 73.5351L209.718 76.4724L210.114 77.7964L212.5 81.6449L217.157 86.6887L219.376 89.1007L221.606 91.5127L224.452 94.7984L226.779 97.4999L229.116 100.201L231.447 102.897L233.779 105.588L236.057 108.225L238.34 110.857L240.624 113.489L242.902 116.115L245.946 119.61L246.772 119.969L247.586 120.323L247.677 120.307L252.014 127.747L254.051 129.633L265.028 132.683L265.644 133.048L265.639 133.605L265.419 134.248L254.367 155.136L243.958 175.172L241.722 180.414L240.811 191.804V192.48L240.929 193.005L245.56 201.549L246.359 203.254L246.193 203.548L245.705 204.063L236.984 209L236.1 209.745L236.127 210.468L236.443 211.208L253.847 235.199L265.387 251.263L265.419 252.003L256.248 256.414L254.11 257.122L253.498 256.918L252.925 256.591L252.759 256.42L247.908 248.675L240.999 241.02L238.608 239.187L236.775 238.062L234.808 237.225L227.052 235.344L224.854 235.339L224.056 235.521L223.316 235.896L222.694 236.389L222.046 237.172L220.432 240.286L219.725 240.833L218.69 240.929L217.726 240.554L217.463 240.393L216.847 240.088L216.364 238.512L215.85 237.729L213.695 235.323L212.928 234.872L210.581 234.417L209.664 234.047L208.41 232.905L206.952 231.26L206.475 230.949L205.971 230.729L204.937 230.515L195.321 221.794L194.007 220.293L192.962 218.422L192.271 216.311L191.81 215.416L191.172 215.046L189.221 214.987L188.374 214.767L187.672 214.306L187.098 213.572L185.962 211.519L185.517 210.125L184.418 208.431L184.091 207.574L184.118 205.108L183.973 203.983L183.4 203.511L181.39 203.291L179.353 202.766L178.919 202.53L178.056 201.86L177.397 201.973L177.155 202.117L176.384 202.803L174.309 204.261L173.473 204.615L172.369 204.658L171.736 204.787L171.458 205.006L171.34 205.253L171.399 205.499L171.485 205.741L171.956 206.673L172.037 207.274L171.549 208.49L171.077 209.026H171.072L170.145 207.595L168.949 206.566L164.683 204.942L162.576 205.022L161.997 204.76L161.547 203.983L161.611 203.264L162.067 202.728L162.785 202.519H162.796H162.812H162.823L165.229 201.581L165.106 199.426L164.307 196.736L164.683 194.2L165.347 193.713L166.178 193.37L166.848 192.882L166.982 191.96L166.489 191.247L165.551 190.684L163.75 189.977L162.33 188.685L161.199 186.916L159.918 185.506L158.079 185.297L156.267 185.517L152.74 185.201L144.164 186.525L142.063 186.461L141.05 186.069L139.431 184.322L138.477 183.99L136.408 183.764L135.245 183.127L134.704 182.151L134.227 177.949L133.836 176.898L133.262 175.971L130.684 173.269L129.708 172.653L128.669 172.76L127.489 173.334L126.321 173.655L125.131 173.725L123.319 173.398L120.468 172.106L117.75 169.576L109.013 159.248L108.027 158.674L107.277 159.928L106.719 164.618L105.862 166.226L104.184 166.725L102.099 166.596L100.014 166.108L95.6346 164.329L94.6483 164.291L93.8872 164.533L91.7378 165.857L90.2048 166.532L89.4652 167.089L89.09 167.899L89.3204 168.96L90.0762 169.641L95.1629 172.042L96.594 173.162L97.8429 175.092L98.9256 177.654L101.938 182.569L103.573 184.509L104.034 184.938L104.221 185.421L104.077 185.871L103.573 186.176L100.962 186.573L100.303 186.402L99.8261 185.662L99.8368 184.81L100.057 183.872L100.191 182.869L99.7779 180.913L98.7327 179.509L97.3551 178.496L93.3244 176.582L92.4346 176.421L91.7003 176.544L90.2316 177.182L89.5724 177.241L88.9184 176.861L87.9911 175.472L87.4069 174.894L86.6351 174.62L85.7131 174.588L84.8126 174.76L84.073 175.103L83.6388 175.655L83.2797 176.298L82.2452 177.493L81.141 177.986L80.4549 178.571L80.6854 180.029L81.5537 181.905L81.6234 182.757L81.2697 184.038L79.6188 187.843L79.0345 188.497L77.4855 189.001L77.1531 189.719L77.448 190.582L77.9679 191.172L78.0911 191.692L77.2014 192.34L76.4188 192.512L73.6477 192.383L72.8597 192.571L70.6139 193.68L68.7272 194.061L62.9866 193.053L59.0898 193.214L55.2681 195.085L52.0092 198.306L49.7794 202.503V202.519L48.2625 204.776L46.5902 206.052L42.6934 207.885L41.5464 209.471L41.5357 211.572L42.4308 215.871L42.3343 217.919L42.0127 219.666L41.9645 221.381L42.6934 223.322L43.5939 224.806L44.0602 226.232L44.2103 227.792L44.1835 229.711L44.3658 231.212L44.9125 232.712L45.6951 234.047L46.5795 235.055L47.1583 235.467L47.7748 235.778L49.8116 236.277L50.1225 236.513L50.0367 236.882L49.5757 237.429L48.7128 238.051L46.8207 239L46.022 239.922L44.7678 242.21L43.9852 242.666L39.0218 241.626L35.1894 240.817L26.1202 240.324L24.6462 240.243L16.247 239.788L8.68933 239.37L2.10184 239.016L2.09648 226.586L2.08576 214.118L2.0804 201.608L2.07504 189.049L2.06968 176.443L2.06432 163.793L2.05896 151.1L2.04824 138.354L2.04288 125.56L2.03752 112.722L2.03216 99.8315L2.0268 86.8924L2.02144 73.8996L2.01072 60.8586L2.00536 47.7641L2 34.6212V34.6159V34.6105V34.6052V34.5998V34.5944V34.5891V34.5837V34.573V34.5676V34.5623V34.5569V34.5516L2.00536 34.5462V34.5408V34.5355V34.5301H2.01072V34.5194V34.514L2.01608 34.5087H2.02144V34.5033L2.0268 34.4979V34.4926H2.03216L2.03752 34.4872V34.4819H2.04288V34.4765H2.04824L2.0536 34.4712L2.05896 34.4658H2.06432H2.06968L2.07504 34.4604L2.0804 34.4551H2.08576L2.09112 34.4497H2.09648H2.10184L5.90211 33.2223L9.70774 32.0002L13.508 30.7781L17.3244 29.5506L21.13 28.3285L24.9356 27.1011L28.7359 25.879L31.7 24.9249L32.5415 24.6516L36.3471 23.4295L40.1528 22.202L43.9584 20.9746L47.7587 19.7471L51.5697 18.5197L55.3753 17.2922L59.1809 16.0594L62.9866 14.8319L68.0572 13.2722L73.1277 11.7124L78.2037 10.1526L83.2797 8.5875L85.6274 7.88533L87.9697 7.18852L90.3174 6.49172L92.6705 5.78419L95.1146 5.08203L97.5588 4.36915L100.003 3.65625L102.447 2.94874L105.733 2L106.687 2.09113L107.796 2.57889L110.911 4.69075L111.795 5.29642L114.325 7.00628L118.275 9.6863L123.453 13.1864L126.991 15.577Z" fill="#1C9CD9" fill-opacity="0.2" stroke="white" stroke-width="2.5" stroke-miterlimit="10"/>
</svg>
