<svg width="101" height="74" viewBox="0 0 101 74" fill="none" xmlns="http://www.w3.org/2000/svg">
<path fill-rule="evenodd" clip-rule="evenodd" d="M63.0675 8.413L63.3837 8.64884L68.5025 8.84179L70.1909 9.33491L70.8449 9.51716L71.4988 9.61364L72.4261 9.57075L73.4981 9.34027L73.7393 9.31884L73.9591 9.47427L74.1628 9.81732L74.479 10.4927L74.6344 11.0019L74.7255 11.5057L74.6827 12.2401L74.4468 13.0173L74.0931 13.8266L74.0126 14.1429L73.9698 14.4806L73.9591 14.8397L74.0234 17.3482L74.1199 18.2379L74.6934 20.9984L74.7845 21.2717L74.9239 21.5451L75.2455 21.7702L76.0817 22.1776L76.28 22.3652L76.4193 22.5903L76.3818 22.9655L76.2853 23.2764L76.2692 23.6623L76.4032 24.0911L77.5074 25.4579L77.4806 26.6854L77.3091 27.1678L77.1858 27.3393L76.9768 27.5055L76.2157 27.7627L76.0012 27.8914L75.8994 28.1326L75.8672 28.4167L76.0495 30.8019L76.1781 31.0699L76.3711 31.3057L76.832 31.4183L77.1805 31.4397L77.502 31.3861L77.754 31.3057L78.5312 30.9091L78.7295 30.8609L78.9868 30.8501L79.303 30.8984L79.5871 31.102L79.7908 31.4344L79.8176 32.158L79.6943 32.501L79.705 32.9406L79.7694 33.2193L81.179 34.7897L81.7258 34.5807L81.908 34.5539L82.101 34.4789L82.578 35.299L85.778 36.1834L86.2443 36.2423L86.8929 36.2048L87.1769 36.1244L87.4557 36.103L88.1149 36.5318L88.399 36.6711L88.7689 36.7248L89.1655 36.5747L90.1249 36.6979L97.152 38.0165L97.8327 39.1153L98.9315 44.0466L98.7707 44.4593L98.1489 44.6308L97.8327 44.6576L96.7393 44.9041L95.8656 45.2258L94.6006 45.8958L93.9735 46.3621L93.6465 46.6891L93.5661 46.9142L93.4803 47.2787L93.4375 48.0505L93.4589 48.5222L93.5125 48.8867L93.5822 49.1493L93.6787 49.696L93.6894 49.9909L93.6572 50.618L93.5715 50.9449L93.3946 51.1808L93.0247 51.3309L92.6871 51.3791L91.4596 51.422L90.9075 51.5452L90.6717 52.0437L90.5377 52.4565L90.4519 56.1067L90.87 56.9803L91.4435 57.6611L93.1373 59.1619L96.2032 61.8955L95.828 62.3725L95.3188 64.3987L95.0508 66.5105L95.008 68.4455L94.4934 70.2089L94.1879 71.9509L93.9199 72.0474L93.5554 71.9349L93.1212 72.0796L93.0462 72.1493L83.3391 69.6997L81.179 69.5979L81.1683 69.8605L81.2327 70.3805L81.238 70.6431L81.2059 70.9057L81.1201 71.1791L80.9646 71.4042L80.7717 71.5865L80.5519 71.6937L80.0588 71.8009L75.5778 71.9724L74.9936 71.8545L74.6988 71.7419L74.4361 71.5918L74.211 71.4149L74.0502 71.104L73.9912 70.6806L74.0663 69.8766L74.3235 68.4187L74.1735 67.6843L73.3587 66.1299L72.4851 65.9959L69.0386 65.3152L65.844 64.7899L65.3079 64.8007L64.579 65.0097L63.9465 65.3688L63.6142 65.6475L63.3569 65.9209L62.0383 67.9363L61.6524 68.3115L58.6186 69.5389L58.2917 69.5711L57.761 69.4317L57.1125 69.094L54.7112 67.1698L53.6766 66.5105L52.9048 66.5587L47.0463 67.9148L46.848 67.9255L42.9727 69.8444L42.1204 70.4019L41.4879 70.6163L40.0407 70.6217L37.3232 69.8927L37.0605 69.6944L36.8729 69.3728L36.7818 68.7671L36.7497 68.3758L36.7443 68.0274L36.7979 67.1966L36.7872 66.3872L36.6585 66.071L36.5406 65.8244L35.5168 65.0365L34.3108 64.2003L32.1882 62.126L31.7487 61.5096L31.529 61.129V61.1183L31.5075 61.0915L31.4164 60.8181L31.0251 59.1083L30.9233 58.8778L30.7839 58.6688L30.6017 58.4865L30.398 58.3579L30.13 58.2614L29.7441 58.2024L28.4684 58.1542L28.0289 58.2346L27.6858 58.4651L27.6054 58.7277L27.5679 59.0118L27.6001 59.8105L27.584 60.0731L27.525 60.3411L27.391 60.5716L27.2088 60.7753L26.3565 61.397L25.4828 61.858L25.0058 62.0134L7.67678 61.5739L5.5113 57.243L5.01282 55.6832L5.05035 55.3616L6.24562 52.6494L6.35283 52.2314L6.44394 51.7436L6.48147 50.9664L6.43325 50.5537L5.20577 46.1155L4.85203 45.617L4.55723 45.2794L3.75322 44.5558L2.54185 43.1836L2.23096 42.5136L2.30064 42.2563L2.48823 42.0633L2.74017 41.924L3.11001 41.8275L5.11466 41.5488L7.55884 40.9056L7.86437 40.6805L8.20205 40.3696L8.35748 39.453L8.45396 39.1368L8.66837 38.7616L8.92028 38.649L9.21511 38.6704L10.5873 39.453L11.7987 39.989L12.9296 40.1605L14.0874 40.1498L14.618 39.9836L14.9718 39.7371L15.2344 39.0992L15.9259 36.3603L16.0384 36.044L16.6816 34.6558L16.8317 34.2216L16.8639 33.9322L16.8156 33.6909L16.6441 33.4873L16.419 33.3533L16.1456 33.2729L15.8669 33.2354L15.7329 33.0424L15.7651 32.694L16.8049 31.1396L16.9336 30.8877L17.0086 30.7108L17.0836 30.4642L17.1426 30.1909L17.2177 29.1135L17.2123 28.4649L17.2444 28.1915L17.357 27.8485L17.6036 27.3447L17.8394 27.0874L18.1074 26.9534L18.697 26.9909L22.4008 28.6525L23.2048 28.808L23.3388 28.8723L23.7515 28.9527L24.7914 30.4213L25.4292 31.0967L27.0748 31.6863L27.8466 32.2973L28.6399 32.7101L29.4868 32.426L31.2502 33.5569L32.9655 33.9107L41.7238 32.0293L42.174 31.7881L44.7951 29.3493L45.1596 28.8991L45.3686 28.4649L45.3739 28.0468L45.2667 27.7092L45.0256 27.3929L44.7307 27.2428L44.3448 27.1838L43.9857 27.1999L43.2192 27.3393L42.9244 27.3125L42.7475 27.216L42.6725 26.9266L42.7529 26.5192L43.8035 24.0375L44.1197 22.8315L44.3716 22.1454L44.7254 21.4647L45.7384 20.0014L45.9421 19.6316L45.9904 19.1224L45.3686 18.5971L45.2239 18.3291L45.122 17.9378L45.1703 17.5948L45.717 16.3941L46.0064 15.231L45.8564 13.3281L45.4168 12.0685L45.4276 11.6719L45.6312 11.3503L46.4192 10.9697L46.714 10.691L47.0356 10.0746L47.0624 9.66723L46.8801 9.23307L46.5961 8.77211L46.2369 7.84483L46.2476 6.97114L46.3709 6.12425L46.8908 4.67166L47.2232 3.99633L47.5984 3.39064L48.0701 2.84927L48.5685 2.47942L49.0992 2.29717L49.6727 2.36685L50.2784 2.66165L51.1199 3.2888L51.8543 3.70686L52.5725 3.99633L53.2318 4.0928L54.0412 3.98559L54.9899 3.54607L57.9218 1.54142L58.3024 1.38599L58.6615 1.43957L59.1225 1.69148L60.2642 2.70454L61.6471 4.30718L61.7596 4.5216L61.8186 4.75744L61.7864 5.26129L61.5452 6.10818L61.5399 6.34936L61.5827 6.54235L61.6739 6.77282L61.8132 7.01936L62.2742 7.63042L63.0675 8.413Z" fill="#1C9CD9" fill-opacity="0.2" stroke="white" stroke-width="2.5" stroke-miterlimit="10"/>
</svg>
