<svg width="133" height="190" viewBox="0 0 133 190" fill="none" xmlns="http://www.w3.org/2000/svg">
<path d="M113.429 139.262L107.513 135.004L77.7965 140.798L72.3662 147.977L70.3884 151.534L69.8521 153.353L69.7348 154.606L69.7683 155.691L69.9527 156.609L70.4388 158.145L70.841 159.047L70.9248 159.214L71.1929 159.798L72.2321 162.77L72.6511 164.356L72.8355 165.258L72.9361 166.794L72.5505 172.237L72.098 173.122L71.6455 173.189L71.2265 172.537L70.7237 171.886L70.0532 171.486L69.2655 171.385L68.2431 172.003L68.1425 172.671L68.3939 173.322L68.9805 173.89L71.2432 175.342L71.8634 175.877L72.2321 176.511L72.0477 177.463L71.6623 178.632L70.9918 180.084L70.9583 182.622L70.6231 184.308L71.9975 184.876L76.3049 181.036L78.3832 182.605L81.7689 188.115L83.4785 189L84.3331 187.931L84.6181 186.295L84.6349 185.477L84.6013 185.243L85.5064 182.772L85.9422 182.505L87.2662 182.271L87.7523 181.937L89.2943 178.782L89.3279 176.461L86.4952 170.417L85.2718 166.861L84.8192 163.772L85.6908 162.486L88.3389 164.323L90.92 169.983L92.8643 177.112L95.7638 181.604L101.161 179.35L100.742 175.693L89.5623 160.282L88.9256 158.629L88.7411 157.077L89.0093 153.687L88.5735 152.435L86.3277 150.632L86.0595 149.146L87.702 146.107L89.6966 147.71L92.5793 152.869L94.2218 152.352L98.7305 148.428L101.295 147.593L110.53 149.046L113.413 148.578L114.452 146.558L114.653 144.154L114.251 141.633L113.429 139.262ZM131.849 81.6597L131.397 80.2071L131.145 78.8714L130.341 77.8195L129.017 76.5506L128.748 75.1982L131.145 73.8625L129.989 72.9943L128.732 72.5603L127.357 72.4601L125.933 72.6103L127.374 66.6497L128.581 64.3456L131.782 62.8931L131.732 61.7077L130.944 60.5222L129.788 59.9879L128.564 60.6891L127.223 62.0583L125.966 62.9765L124.977 62.3755L125.028 61.14L127.106 59.1364L127.575 57.7173L126.955 56.1478L124.625 54.211L123.134 50.0536L120.787 49.8533L115.441 50.8884L117.469 47.4992L117.938 45.8128L116.748 45.0949L114.804 45.7461L113.027 46.9314L111.251 47.5159L109.289 46.3471L110.966 44.1599L110.681 41.9058L109.273 39.869L107.547 38.2661L106.641 37.9488L105.753 38.0992L104.865 38.049L104.027 37.2309L103.909 36.4963L104.144 34.5428L104.027 33.8082L102.719 31.1034L102.032 30.2352L100.641 29.1333L97.2555 27.4135L96.384 26.7457L95.4453 25.4768L93.9704 22.6384L92.8308 21.1524L90.92 19.75L88.1545 18.5144L85.3556 18.0135L83.2939 18.8483L82.8749 15.9599L82.5062 14.8413L81.9532 14.858L80.8302 15.6928L80.1598 15.2587L79.8414 14.0398L79.6737 10.0661L79.2715 8.37982L78.2659 6.92726L71.8298 1L69.0979 2.20218L67.3212 3.42098L65.5614 4.62316L64.8575 6.5766L64.1703 8.54674L63.8854 8.36311L63.6172 8.16276L63.0138 7.92899L62.4272 7.69522L62.1255 7.54501L61.8573 7.37799L61.8239 8.29626L61.8071 9.21464L61.9579 11.0846L62.1255 12.9546L62.0418 13.7727L61.9579 14.5741L61.5556 15.5091L61.1366 16.4608L60.7176 16.7613L60.3154 17.0785L59.9467 17.5126L59.5947 17.93L59.3432 19.2157L59.1254 20.5012L59.7456 27.497L60.3992 34.4927L60.8182 36.0789L61.2372 37.6316L61.7568 38.3162L62.2763 38.984L62.8798 39.3347L63.4999 39.6853L65.1089 40.0693L66.7011 40.4533L66.6509 41.4884L66.5838 42.5236L66.8185 43.5922L67.0363 44.6608L67.4554 45.6792L67.8911 46.7144L68.4275 47.6327L68.9805 48.5676L68.8465 49.1186L68.7292 49.6864L67.1872 52.2241L65.6452 54.7453L66.852 55.3965L68.0923 56.0309L67.7068 57.1328L67.3045 58.2348L65.9469 59.0362L64.6061 59.8376L62.9132 59.604L61.2037 59.3535L58.6729 58.1012L56.1253 56.849L55.3878 56.7154L54.6671 56.5819L54.0637 56.9826L53.4771 57.3833L52.7732 58.8359L52.3206 59.4202L51.8346 60.0046L49.9239 59.9045L49.1362 60.6891L48.3651 61.4906L47.9461 62.3421L32.9958 54.4949L23.1742 49.3357L22.8892 56.0476L21.1965 57.8342L14.224 59.0195L12.5648 59.4202L11.8441 59.7374L11.2574 60.2384L10.9557 61.0898L10.8049 65.0469L9.96692 71.2412L10.2518 72.0927L10.9391 72.7105L13.0676 72.4601L15.3303 71.7421L16.537 71.6419L16.8722 73.7456L1.87158 108.107L1.35201 110.377L1 112.999L1.5029 117.523L2.03914 118.859L2.79338 120.128L3.26273 120.762L6.74894 121.33L35.5937 121.964L73.6232 112.564L74.1763 112.581L74.3104 112.949L73.64 114.1L73.0366 114.935L72.5003 115.82L71.9975 117.006L70.2543 123.317L69.718 124.502L69.299 125.905L70.8075 128.843L70.841 128.893L70.8912 128.943L77.9474 127.074L80.7632 126.823L88.121 128.109L91.0876 127.708L95.5124 125.17L98.0432 124.135L118.692 120.929L121.592 121.413L125.597 123.434L125.614 123.384L126.285 121.213L128.095 114.635L127.86 112.214L127.039 110.828L125.229 106.253L127.877 91.0429L128.212 89.9076L128.966 88.2213L129.67 86.9858L131.464 84.6316L132 83.1958L131.849 81.6597Z" fill="#1C9CD9" fill-opacity="0.2" stroke="white" stroke-miterlimit="10"/>
</svg>
