<svg width="79" height="102" viewBox="0 0 79 102" fill="none" xmlns="http://www.w3.org/2000/svg">
<path fill-rule="evenodd" clip-rule="evenodd" d="M55.7045 3.73852L56.7926 3.71709L59.8746 2.67724V2.67188H59.88H59.8907L60.4321 2.39851L61.0002 2.24308L61.5845 2.25378L62.2706 2.48425L62.5868 2.67724L63.2139 3.28293L63.8786 3.41156L64.554 3.16499L65.2293 2.66651L65.5509 2.5861L65.8779 2.55394L66.2102 2.5861L66.5264 2.66651H66.5372L66.5425 2.67188L66.5532 2.67724L67.1697 3.43299L68.5418 6.47213L69.3029 7.60312L69.721 8.22487L70.1284 9.27545L70.0802 10.4225L69.721 11.2908L69.2172 11.993L68.5954 12.5451L67.9093 12.9524L66.9552 13.1507L66.237 13.124L65.7868 13.408L65.6474 14.5336L65.7653 15.0589L66.0065 15.5199L66.1888 16.0023L66.1566 16.5919L65.9476 16.9081L64.9238 17.6371L64.6022 18.4197L64.7147 19.3737L65.2561 21.3141L65.3419 22.3647L65.2079 25.3502L65.3151 26.4919L65.6152 27.178L66.6015 28.6841L66.832 29.4721L66.9177 31.123L67.0571 31.8787L67.443 32.613L69.0296 34.1406L70.5304 36.8957L71.2272 37.6086L73.3337 38.7986L76.5551 41.6823L77.536 43.2473L77.7182 45.2413L77.0536 48.2697L76.0459 51.1159L74.4647 53.5387L73.9769 54.5195V54.5303H73.9715L73.9662 54.5356L73.6607 55.4147L73.4784 56.1972L73.1729 56.8458L72.7387 57.1674L72.5351 57.3175L71.9133 57.5104L70.0212 57.7677L68.7562 58.1965L68.038 58.9362L66.3067 64.1837L65.1114 66.5421L62.1527 70.6801L59.9658 72.7812L57.8753 75.4398L56.144 78.4575L55.0077 81.6038L54.8523 83.7478L55.6563 87.7893L55.7957 89.9386L55.5812 91.7718L55.1149 93.5031L54.3538 95.0254L54.1662 95.7704L53.984 94.8217L53.5069 94.141L52.7887 93.7068L51.9471 93.4977L50.4999 93.562L49.9854 93.4977L49.5351 93.2673L48.6507 92.5973L48.1844 92.4472L47.7234 92.5061L46.9462 92.7474L46.5281 92.8009L46.2709 93.0314L46.0243 93.5406L45.7081 94.023L45.2739 94.1892L44.6092 93.5996L43.8427 91.4877L42.9047 91.0267L42.0632 91.2626L41.3182 91.8254L39.9835 93.1761L39.1795 93.7818L38.3648 94.2053L37.4857 94.4572L36.4941 94.543L35.4543 94.7734L33.9106 95.7811L33.0048 95.9634L32.0935 95.5935L31.6272 94.811L31.3324 93.8676L30.9251 92.9885L30.1103 92.2328L28.3094 91.5414L27.4893 91.0267L27.1087 90.2496L26.4387 88.0359L25.9349 87.5749L25.088 87.3176L23.4639 86.1491L22.7242 85.8007L20.7624 85.7525L17.0372 86.6369L11.7254 86.8727L11.2966 87.0335L10.4979 87.7303L10.0691 87.8911L8.97031 87.8429L8.46646 87.7518L5.78111 86.6101L4.81091 86.4975L3.7711 86.578L2.98315 86.8299L1.98083 86.0526L2.06657 85.1146L2.67763 84.2409L3.43874 83.4584L4.08195 82.4025L3.92116 81.5877L3.27795 80.8909L2.47931 80.1995L1.92188 78.7522L2.0773 76.9245L2.96709 73.4726L3.12252 71.4305L2.79556 67.4104L2.95099 65.3951L4.36605 62.8598L6.61728 59.9224L8.10735 57.0066L7.73214 55.9399L8.93815 55.1574L9.57063 53.9031L9.79041 53.2063L9.99946 51.1802L10.246 50.328L10.5783 49.8884L15.531 45.252L15.8365 44.7L16.0992 44.0835L16.3189 43.4457L16.469 42.8507L16.9032 41.8216L17.5303 40.7656L17.9002 40.3262L18.2271 40.085L19.7011 39.8437L20.1728 39.699L22.4937 38.4019L26.9908 34.7892L27.5053 34.2211L27.6179 33.9423L27.9341 32.7149L28.3737 30.051L28.5988 29.1665L28.8615 28.5019L29.0866 28.1803L30.6035 26.9207L31.3271 26.1274L31.7719 25.3824L32.1043 24.6212L33.7069 24.2299L34.3233 23.903L34.7092 23.5921L35.4328 22.8578L35.8456 22.3003L38.2683 17.5674L38.4881 17.2994L38.7507 17.0475L39.1313 16.7527L39.7155 16.4847L40.2301 16.356L40.8143 16.3292L41.4576 16.4097L42.0525 16.5812L42.3205 16.6937L42.5349 16.8277L42.7064 16.9671L43.4407 17.755L43.6552 17.889L43.9392 17.9265L44.084 17.7497L44.1483 17.5031L44.159 16.5919L44.2608 16.206L44.4484 15.7772L44.8719 15.1286L45.0809 14.7159L45.1935 14.33V14.0298L45.1667 13.7403L45.0381 13.2097L44.9576 12.9578L44.9041 12.6952L44.8772 12.4272V12.1538L44.8987 11.8804L44.9469 11.5642L45.0273 11.264L45.0702 10.937L45.0863 10.6369L45.0273 10.3742L44.9469 10.1491L43.9553 8.34814L43.7248 6.48822L43.4247 5.27148L43.4139 4.83195L43.5212 4.44605L43.7624 4.0762L44.0572 3.77068L44.3037 3.55626L44.5396 3.41156L45.0166 3.21324L45.5312 3.08461L48.4792 2.95061L49.2081 2.65578L49.8138 2.19482L50.516 2.89162L55.7045 3.73852Z" fill="#1C9CD9" fill-opacity="0.2" stroke="white" stroke-width="2.5" stroke-miterlimit="10"/>
</svg>
