<svg width="110" height="118" viewBox="0 0 110 118" fill="none" xmlns="http://www.w3.org/2000/svg">
<path fill-rule="evenodd" clip-rule="evenodd" d="M22.3106 57.2348L22.9967 56.8274L23.0717 57.5028L23.3612 58.1031L24.3742 59.2555L25.0228 58.5802L25.0603 58.7945L24.8245 59.3252L25.3284 60.2364L26.5504 60.5527L27.8368 58.9125L29.8951 57.0365L31.4334 56.2646L31.0154 55.8305L31.3047 55.3266L30.8867 54.6995L30.3292 54.3403L30.951 53.2683L30.8009 52.3946L29.3001 51.4298L28.0512 51.2583L27.0918 50.583L25.7196 50.599L23.5649 52.7752L23.2433 54.4851L22.1873 57.1115L22.3106 57.2348ZM107.991 7.30597L108.125 7.35422L107.519 9.3964L106.008 10.463L102.658 11.4439L96.9224 15.748L95.2501 16.15L93.2508 16.0589L91.5785 16.5038L90.8709 18.5031L90.753 21.6387L90.3028 22.5553L88.8985 23.0913L84.8516 23.5576L83.6027 24.308L79.5881 27.7599L77.8192 29.8557L76.6293 32.4231L75.6752 33.8543L74.4531 34.6797L73.1292 35.3229L70.7064 37.2472L64.135 41.1171L63.2828 42.5215L64.0278 44.2688L65.5233 45.0567L71.2424 45.7L71.2478 45.7053L71.2585 45.7107L71.2639 45.7161L72.7808 46.638L73.4615 47.2598L74.0565 48.0316L75.0481 49.9076L75.6645 50.4811L76.3774 50.5133L75.9164 51.789L75.5466 52.4804L73.5634 55.139L73.4454 55.4445L73.3918 55.8412L73.4937 56.4629L73.5044 57.2991L73.6437 57.5832L73.7831 57.7762L74.9034 57.9369L75.0481 58.3711L74.8605 59.1215L74.7426 59.4592L73.9708 61.1047L73.8957 61.4317L73.9064 61.7908L73.9921 62.1553L74.2548 62.5895L75.0695 63.6883L75.895 65.0872L76.0772 66.2718L76.1576 70.265L75.8628 71.5086V71.5193L75.3644 70.9726L73.558 70.2168L72.0304 70.6242L70.9101 76.2951L68.6589 78.9376L65.7216 80.7171L61.5087 82.3948L57.6708 85.3589L50.1882 87.7173L49.2931 88.1676L48.4891 88.8429L46.7846 91.0084L45.8144 91.8767L44.7263 92.2091L43.4775 91.7427L42.9628 91.2764L42.5448 90.7136L41.7998 89.4433L41.3495 88.9019L40.3257 88.2266L39.8487 87.7977L38.2674 85.3268L37.3509 84.4638L36.0537 84.3352L35.4213 83.9439L34.912 83.4025L34.3707 82.963L33.6364 82.8826L32.3178 83.3167L31.6693 83.6759L31.0904 84.1583L30.0559 85.4983L29.4287 86.8919L29.1447 88.4946L29.1232 90.4617L29.402 93.3079L29.2358 94.0315L28.6516 94.3852L26.1859 94.5943L24.7333 95.5966L24.7173 96.7008L26.3521 99.4719H26.3574L27.2258 102.474L27.6224 103.428L28.6784 105.341L29.1179 106.349L29.3751 107.528L29.075 110.133L27.7671 110.358L26.202 109.758L25.1353 109.892L25.3015 111.468L28.2549 114.132V115.391L26.7273 116.093L24.7066 116.029L21.0563 114.93L19.6627 114.223L19.6681 114.207L19.8825 113.51L20.4614 111.398L20.3863 110.621L20.1237 110.176L19.5448 108.707L20.3917 103.824L20.4989 103.46L20.7401 102.918L20.9653 102.522L21.5388 101.766L21.7103 101.305L21.6406 100.828L21.4959 100.362L21.4155 99.9329L21.1582 99.5952L20.7348 99.1878L20.649 98.7537L21.4155 98.3249L21.0456 98.0462L20.6436 97.9068L20.2041 97.8746L19.7485 97.9229L20.2095 96.0093L20.5954 95.2696L21.6192 94.8033L21.6031 94.4228L21.3512 94.0422L20.9813 93.8707L20.59 94.0958L20.1613 94.5353L19.7593 94.8301L19.443 94.6371L19.4591 94.2405L20.1237 93.5973L20.2738 93.1417L20.0755 92.6379L19.3304 92.0161L18.8534 90.6814L18.103 90.6171L16.3931 90.9494L17.0417 89.8614L17.1918 89.32L16.8112 89.0895L16.1895 89.2986L15.6213 89.6791L15.0531 89.8667L14.426 89.4915L14.962 88.7894L14.8709 88.0657L14.4206 87.4118L13.8686 86.8972L13.5791 86.7954L13.295 86.8437L13.0109 86.8276L12.7429 86.5649L12.7054 86.3291L12.7805 85.702L12.7429 85.4661L12.3249 84.5978L12.1051 84.3191L11.6602 83.9653L10.5775 83.4132L10.2988 83.1988L9.99857 82.7915L9.52689 81.8802L9.16244 81.4032L8.55139 80.9583L7.66697 80.5617L6.77182 80.4009L6.11254 80.6689L5.97854 79.7416L5.86063 79.3825L5.68378 79.3878L5.32463 79.6559L5.11025 79.5165L5.00841 79.1198L4.95479 77.8442L4.82615 77.3028L4.50456 76.8365L2.44629 74.9336L2.81613 74.7728L4.06503 74.2208L4.47773 73.7115L4.8851 73.2077L5.63019 71.053L6.37518 68.8982L6.92728 68.2658L7.49011 67.6332L8.88907 67.0169L10.2773 66.4004L10.7812 65.5214L11.2904 64.6477L11.5476 64.2993L11.8156 63.9509L12.2337 63.8115L12.6518 63.6775L13.5202 63.565L14.3938 63.4471L15.1228 63.0879L15.8571 62.7288L16.5593 62.2518L17.2507 61.7694L17.5991 61.4263L17.9476 61.0833L18.103 60.7724L18.2692 60.4615L18.5854 57.8887L18.9016 55.3212L18.8856 54.8764L18.8695 54.4315L18.8105 54.1152L18.7569 53.799L18.6979 53.7025L18.639 53.606L18.5479 53.5363L18.446 53.4667L18.2584 53.2254L18.0708 52.9896L18.0172 52.7645L17.9583 52.5394L18.0547 52.3464L18.1459 52.1588L18.312 52.0141L18.4782 51.8801L19.4162 51.4138L20.3542 50.9528L20.7348 50.8349L21.1153 50.717L21.4959 50.8617L21.8711 51.0118L22.0748 50.4489L22.2785 49.8862L22.7716 49.393L23.27 48.8999L24.3742 48.1924L25.4837 47.4902L25.8161 47.4152L26.143 47.3455L26.7433 47.5652L27.3437 47.7797L27.6439 47.7368L27.9387 47.6939L28.7212 47.1901L29.5091 46.6809L29.8093 46.5951L30.1202 46.5093L31.3262 46.7344L32.5376 46.9542L32.7734 46.8095L33.0146 46.6755L32.9878 46.3968L32.961 46.1181L32.6234 45.4909L32.2857 44.8692L32.216 44.5851L32.1356 44.2956L32.4036 43.5881L32.6662 42.8806L33.2076 42.4839L33.7436 42.0873L34.9014 41.7175L36.0537 41.353L38.1228 39.7235L40.1864 38.0833L40.7652 37.408L41.3495 36.7326L41.6872 36.4593L42.0356 36.1859L44.7745 35.4194L47.5135 34.6529L49.7755 34.5671L52.0374 34.4814L52.8843 34.1223L53.7259 33.7631L54.3476 33.0288L54.964 32.2999L55.2427 31.8818L55.5215 31.4637L55.8377 31.2064L56.1539 30.9545L57.2902 30.531L58.4266 30.1129L60.1096 28.8641L61.8034 27.6098L62.3127 27.0041L62.8272 26.4038L64.2047 24.0132L65.5769 21.6227L65.8717 21.3171L66.1611 21.017L66.5042 20.8133L66.858 20.615L67.2278 20.481L67.5923 20.3523L67.93 20.1754L68.2623 19.9985L68.5196 19.7091L68.7715 19.4143L68.9269 18.9373L69.0717 18.4549L69.5755 17.3454L70.0794 16.2251L70.9423 15.4693L71.816 14.7136L73.7992 13.8506L75.7771 12.9876L76.0718 13.0466L76.372 13.1002L76.7472 13.3682L77.1171 13.6308L77.4441 14.0007L77.7656 14.3651L77.9211 14.7189L78.0711 15.078L78.2159 15.5926L78.3606 16.1018L78.6768 16.4234L78.9824 16.745L79.4111 16.9165L79.8346 17.088L80.317 17.1524L80.8048 17.222L81.4319 16.9165L82.0698 16.611L82.4985 15.8017L82.9327 14.9976L83.3079 14.0007L83.6778 13.0037L84.1495 12.1139L84.6265 11.2242L85.1947 10.5435L85.7629 9.86272L85.9772 9.49824L86.197 9.13376L86.3578 8.62455L86.5186 8.11534L86.8134 7.7187L87.1029 7.32743L87.5906 7.30597L88.073 7.28454L89.0164 7.54718L89.9544 7.80981L90.7209 7.69727L91.4873 7.5847L92.2485 7.19343L93.0096 6.79676L94.3871 5.6658L95.7646 4.53484L96.6491 3.6933L98.45 2.36402L99.7365 2.18713L101.028 2.72314L106.721 6.82358L107.991 7.30597Z" fill="#1C9CD9" fill-opacity="0.26" stroke="white" stroke-width="2.5" stroke-miterlimit="10"/>
</svg>
