<svg width="101" height="85" viewBox="0 0 101 85" fill="none" xmlns="http://www.w3.org/2000/svg">
<path fill-rule="evenodd" clip-rule="evenodd" d="M52.69 40.9291L53.7245 40.8327L54.432 40.2859L56.0454 37.1717L56.694 36.3892L57.3157 35.8961L58.0554 35.5208L58.8541 35.3386L61.0517 35.344L68.8077 37.2253L70.7748 38.0615L72.6079 39.1871L74.9985 41.0202L81.9076 48.6744L86.7585 56.4197L86.9246 56.5912L87.4981 56.9181L88.1092 57.1218L90.2478 56.4143L96.8729 63.8862L98.1914 65.9337L98.6846 67.7293L96.5834 72.3122L88.1253 82.8554H88.1199L88.0502 82.7321L87.7233 81.5153L87.4821 81.0169L85.9759 78.9961L85.4238 77.8652L84.5876 74.5794L84.1267 73.8291L82.7867 72.3658L82.3472 71.6583L82.0202 70.5112L81.5539 68.067L80.2782 63.5646L79.8226 62.5033L80.1335 62.1013L79.9351 61.3134L79.8226 57.5185L79.6886 56.425L79.3455 55.5299L76.3653 50.5022L75.5721 49.6338L66.4975 42.9177L62.9652 41.3901L59.0149 40.3449L57.5194 40.1734L56.6082 40.6182L56.0615 41.7546L55.6649 43.6574L54.6732 44.2309L53.896 45.9193L52.7597 47.1789L51.3554 47.8918L49.8063 47.9454L48.1608 47.2701L43.98 44.2845L43.2617 44.2631L40.8604 44.6758L40.6353 44.188L40.5067 43.7056L40.3512 43.577L40.11 43.9951L39.574 44.917L39.3114 45.2118L39.0434 45.4369L37.103 43.4162L34.2676 42.7247L26.0881 43.2232L21.1891 44.8741L18.7502 44.9331L17.3352 44.5257L16.1721 43.6842L13.9691 41.4651L11.5195 39.6588L7.61208 37.6434L3.1686 35.3493L2.03227 34.213L1.74819 32.932L2.25738 28.585L2.57362 27.6577L3.10428 26.9019L3.79573 26.2855L5.47341 25.444L6.03086 24.7579L5.66101 23.7609L2.95955 19.9178L1.71066 17.5004L1.34082 15.5976L2.38604 14.1021L3.50092 13.3249L4.77124 13.2177L6.29886 13.7001L7.70319 14.5899L8.49648 14.949L9.13433 14.8633L9.60065 14.1557L9.5256 13.3785L9.13433 12.6281L8.63585 12.001L8.06767 11.5132L6.14341 10.3662L5.53774 9.7337L5.07141 9.02617H5.07677L5.54846 8.49017L6.03622 7.27346L5.95583 6.67311L5.48414 5.74047L5.39838 5.49929L5.33941 5.25272L5.45733 5.00614L5.73606 4.7864L6.36854 4.65776L7.47271 4.61487L8.30888 4.26109L10.3832 2.80317L11.1551 2.11707L11.3963 1.97237L12.0555 1.8598L12.9185 2.52981L13.3527 2.76565L15.3895 3.29092L17.3995 3.5107L17.973 3.98239L18.1177 5.10798L18.091 7.57362L18.4179 8.43122L19.5167 10.125L19.9616 11.5186L21.0979 13.5715L21.6715 14.3058L22.3736 14.7668L23.2205 14.9865L25.1716 15.0455L25.8094 15.4154L26.2704 16.3105L26.9618 18.4223L28.007 20.293L29.3203 21.7938L38.9362 30.5146L39.9707 30.729L40.4745 30.9487L40.9515 31.2596L42.4095 32.9051L43.6637 34.0468L44.5803 34.4167L46.928 34.8723L47.6945 35.3225L49.8492 37.7292L50.3638 38.5118L50.8462 40.0876L51.4626 40.3931L51.7252 40.5539L52.69 40.9291Z" fill="#1C9CD9" fill-opacity="0.2" stroke="white" stroke-width="2.5" stroke-miterlimit="10"/>
</svg>
